<svg version="1.1" xmlns="http://www.w3.org/2000/svg" viewBox="0 0 671.1831155521963 502.12471386493746" width="671.1831155521963" height="502.12471386493746">
  <!-- svg-source:excalidraw -->
  
  <defs>
    <style>
      @font-face {
        font-family: "Virgil";
        src: url("https://excalidraw.com/Virgil.woff2");
      }
      @font-face {
        font-family: "Cascadia";
        src: url("https://excalidraw.com/Cascadia.woff2");
      }
    </style>
  </defs>
  <rect x="0" y="0" width="671.1831155521963" height="502.12471386493746" fill="#ffffff"></rect><g stroke-linecap="round" transform="translate(10 65.02522914832241) rotate(0 45.73289361759271 45.73289361759271)"><path d="M0 0 C23.39 0, 46.78 0, 91.47 0 M0 0 C24.74 0, 49.47 0, 91.47 0 M91.47 0 C91.47 27.21, 91.47 54.42, 91.47 91.47 M91.47 0 C91.47 21.43, 91.47 42.86, 91.47 91.47 M91.47 91.47 C62.19 91.47, 32.92 91.47, 0 91.47 M91.47 91.47 C64.12 91.47, 36.77 91.47, 0 91.47 M0 91.47 C0 56.82, 0 22.17, 0 0 M0 91.47 C0 66.62, 0 41.77, 0 0" stroke="#000000" stroke-width="1" fill="none"></path></g><g stroke-linecap="round" transform="translate(121.02109483946606 63.75812276591512) rotate(0 46 47)"><path d="M0 0 C36.76 0, 73.52 0, 92 0 M0 0 C18.81 0, 37.61 0, 92 0 M92 0 C92 36.35, 92 72.7, 92 94 M92 0 C92 20.48, 92 40.95, 92 94 M92 94 C71.67 94, 51.34 94, 0 94 M92 94 C68.7 94, 45.4 94, 0 94 M0 94 C0 58.01, 0 22.02, 0 0 M0 94 C0 66.49, 0 38.97, 0 0" stroke="#000000" stroke-width="1" fill="none"></path></g><g stroke-linecap="round" transform="translate(343.59749728321276 65.02522914832241) rotate(0 45.73289361759271 45.73289361759271)"><path d="M0 0 C35.56 0, 71.12 0, 91.47 0 M0 0 C29.98 0, 59.96 0, 91.47 0 M91.47 0 C91.47 20.17, 91.47 40.33, 91.47 91.47 M91.47 0 C91.47 23.24, 91.47 46.48, 91.47 91.47 M91.47 91.47 C69.45 91.47, 47.43 91.47, 0 91.47 M91.47 91.47 C68.74 91.47, 46.02 91.47, 0 91.47 M0 91.47 C0 59, 0 26.53, 0 0 M0 91.47 C0 66.96, 0 42.45, 0 0" stroke="#000000" stroke-width="1" fill="none"></path></g><g stroke-linecap="round" transform="translate(232.5764024437467 65.02522914832241) rotate(0 45.73289361759271 45.73289361759271)"><path d="M0 0 C20.22 0, 40.44 0, 91.47 0 M0 0 C30.22 0, 60.43 0, 91.47 0 M91.47 0 C91.47 20.26, 91.47 40.52, 91.47 91.47 M91.47 0 C91.47 19, 91.47 38.01, 91.47 91.47 M91.47 91.47 C70.71 91.47, 49.95 91.47, 0 91.47 M91.47 91.47 C61.79 91.47, 32.12 91.47, 0 91.47 M0 91.47 C0 57.83, 0 24.19, 0 0 M0 91.47 C0 72.05, 0 52.64, 0 0" stroke="#000000" stroke-width="1" fill="none"></path></g><g transform="translate(15 88.25812276591512) rotate(0 40.5 22.5)"><text x="40.5" y="32" font-family="Virgil, Segoe UI Emoji" font-size="36px" fill="#000000" text-anchor="middle" style="white-space: pre;" direction="ltr">6</text></g><g transform="translate(126.02109483946606 88.25812276591512) rotate(0 41 22.5)"><text x="41" y="32" font-family="Virgil, Segoe UI Emoji" font-size="36px" fill="#000000" text-anchor="middle" style="white-space: pre;" direction="ltr">5</text></g><g transform="translate(348.59749728321276 88.25812276591512) rotate(0 40.5 22.5)"><text x="40.5" y="32" font-family="Virgil, Segoe UI Emoji" font-size="36px" fill="#000000" text-anchor="middle" style="white-space: pre;" direction="ltr">3</text></g><g transform="translate(237.5764024437467 88.25812276591512) rotate(0 40.5 22.5)"><text x="40.5" y="32" font-family="Virgil, Segoe UI Emoji" font-size="36px" fill="#000000" text-anchor="middle" style="white-space: pre;" direction="ltr">4</text></g><g stroke-linecap="round" transform="translate(454.6185921226788 65.02522914832241) rotate(0 45.73289361759271 45.73289361759271)"><path d="M0 0 C36.22 0, 72.45 0, 91.47 0 M0 0 C20.68 0, 41.37 0, 91.47 0 M91.47 0 C91.47 34.63, 91.47 69.27, 91.47 91.47 M91.47 0 C91.47 32.79, 91.47 65.58, 91.47 91.47 M91.47 91.47 C57.33 91.47, 23.19 91.47, 0 91.47 M91.47 91.47 C67.63 91.47, 43.8 91.47, 0 91.47 M0 91.47 C0 69.94, 0 48.42, 0 0 M0 91.47 C0 60.43, 0 29.4, 0 0" stroke="#000000" stroke-width="1" fill="none"></path></g><g transform="translate(459.6185921226788 88.25812276591512) rotate(0 40.5 22.5)"><text x="40.5" y="32" font-family="Virgil, Segoe UI Emoji" font-size="36px" fill="#000000" text-anchor="middle" style="white-space: pre;" direction="ltr">2</text></g><g stroke-linecap="round" transform="translate(565.6396869621449 65.02522914832241) rotate(0 45.73289361759271 45.73289361759271)"><path d="M0 0 C18.78 0, 37.55 0, 91.47 0 M0 0 C33.25 0, 66.5 0, 91.47 0 M91.47 0 C91.47 33.41, 91.47 66.82, 91.47 91.47 M91.47 0 C91.47 24.78, 91.47 49.55, 91.47 91.47 M91.47 91.47 C59.9 91.47, 28.34 91.47, 0 91.47 M91.47 91.47 C62.65 91.47, 33.83 91.47, 0 91.47 M0 91.47 C0 68.58, 0 45.7, 0 0 M0 91.47 C0 68.32, 0 45.17, 0 0" stroke="#000000" stroke-width="1" fill="none"></path></g><g transform="translate(570.6396869621449 88.25812276591512) rotate(0 40.5 22.5)"><text x="40.5" y="32" font-family="Virgil, Segoe UI Emoji" font-size="36px" fill="#000000" text-anchor="middle" style="white-space: pre;" direction="ltr">1</text></g><g transform="translate(45.66118855224113 10) rotate(0 13 22.5)"><text x="0" y="32" font-family="Virgil, Segoe UI Emoji" font-size="36px" fill="#000000" text-anchor="start" style="white-space: pre;" direction="ltr">0</text></g><g transform="translate(155.79346297828056 10) rotate(0 5.5 22.5)"><text x="0" y="32" font-family="Virgil, Segoe UI Emoji" font-size="36px" fill="#000000" text-anchor="start" style="white-space: pre;" direction="ltr">1</text></g><g transform="translate(265.92573740431976 11.866648719085447) rotate(0 13.5 22.5)"><text x="0" y="32" font-family="Virgil, Segoe UI Emoji" font-size="36px" fill="#000000" text-anchor="start" style="white-space: pre;" direction="ltr">2</text></g><g transform="translate(376.0580118303592 13.73329743817078) rotate(0 13 22.5)"><text x="0" y="32" font-family="Virgil, Segoe UI Emoji" font-size="36px" fill="#000000" text-anchor="start" style="white-space: pre;" direction="ltr">3</text></g><g transform="translate(488.05693497548395 11.866648719085447) rotate(0 12 22.5)"><text x="0" y="32" font-family="Virgil, Segoe UI Emoji" font-size="36px" fill="#000000" text-anchor="start" style="white-space: pre;" direction="ltr">4</text></g><g transform="translate(600.0558581206087 11.866648719085447) rotate(0 11.5 22.5)"><text x="0" y="32" font-family="Virgil, Segoe UI Emoji" font-size="36px" fill="#000000" text-anchor="start" style="white-space: pre;" direction="ltr">5</text></g><g stroke-linecap="round" transform="translate(11.359213784955273 177.8399732996187) rotate(0 45.73289361759271 45.73289361759271)"><path d="M0 0 C28.94 0, 57.87 0, 91.47 0 M0 0 C29.12 0, 58.25 0, 91.47 0 M91.47 0 C91.47 24.94, 91.47 49.89, 91.47 91.47 M91.47 0 C91.47 23.08, 91.47 46.16, 91.47 91.47 M91.47 91.47 C63.14 91.47, 34.82 91.47, 0 91.47 M91.47 91.47 C66.98 91.47, 42.49 91.47, 0 91.47 M0 91.47 C0 56.32, 0 21.17, 0 0 M0 91.47 C0 59.89, 0 28.32, 0 0" stroke="#000000" stroke-width="1" fill="none"></path></g><g stroke-linecap="round" transform="translate(122.38030862442133 176.5728669172114) rotate(0 46 47)"><path d="M0 0 C33.04 0, 66.09 0, 92 0 M0 0 C28.56 0, 57.13 0, 92 0 M92 0 C92 28.59, 92 57.19, 92 94 M92 0 C92 36.85, 92 73.71, 92 94 M92 94 C64.32 94, 36.64 94, 0 94 M92 94 C55.51 94, 19.03 94, 0 94 M0 94 C0 67.56, 0 41.12, 0 0 M0 94 C0 63.03, 0 32.06, 0 0" stroke="#000000" stroke-width="1" fill="none"></path></g><g stroke-linecap="round" transform="translate(344.95671106816803 177.8399732996187) rotate(0 45.73289361759271 45.73289361759271)"><path d="M0 0 C19.08 0, 38.15 0, 91.47 0 M0 0 C23.32 0, 46.64 0, 91.47 0 M91.47 0 C91.47 32.52, 91.47 65.03, 91.47 91.47 M91.47 0 C91.47 28.21, 91.47 56.42, 91.47 91.47 M91.47 91.47 C68.58 91.47, 45.7 91.47, 0 91.47 M91.47 91.47 C73.06 91.47, 54.65 91.47, 0 91.47 M0 91.47 C0 54.9, 0 18.34, 0 0 M0 91.47 C0 58.18, 0 24.9, 0 0" stroke="#000000" stroke-width="1" fill="none"></path></g><g stroke-linecap="round" transform="translate(233.93561622870197 177.8399732996187) rotate(0 45.73289361759271 45.73289361759271)"><path d="M0 0 C18.69 0, 37.38 0, 91.47 0 M0 0 C29.68 0, 59.36 0, 91.47 0 M91.47 0 C91.47 31.23, 91.47 62.47, 91.47 91.47 M91.47 0 C91.47 36.51, 91.47 73.01, 91.47 91.47 M91.47 91.47 C68.83 91.47, 46.19 91.47, 0 91.47 M91.47 91.47 C63.62 91.47, 35.77 91.47, 0 91.47 M0 91.47 C0 72.77, 0 54.07, 0 0 M0 91.47 C0 64.39, 0 37.31, 0 0" stroke="#000000" stroke-width="1" fill="none"></path></g><g transform="translate(16.359213784955273 201.0728669172114) rotate(0 40.5 22.5)"><text x="40.5" y="32" font-family="Virgil, Segoe UI Emoji" font-size="36px" fill="#000000" text-anchor="middle" style="white-space: pre;" direction="ltr">4</text></g><g transform="translate(127.38030862442133 201.0728669172114) rotate(0 41 22.5)"><text x="41" y="32" font-family="Virgil, Segoe UI Emoji" font-size="36px" fill="#000000" text-anchor="middle" style="white-space: pre;" direction="ltr">6</text></g><g transform="translate(349.95671106816803 201.0728669172114) rotate(0 40.5 22.5)"><text x="40.5" y="32" font-family="Virgil, Segoe UI Emoji" font-size="36px" fill="#000000" text-anchor="middle" style="white-space: pre;" direction="ltr">1</text></g><g transform="translate(238.93561622870197 201.0728669172114) rotate(0 40.5 22.5)"><text x="40.5" y="32" font-family="Virgil, Segoe UI Emoji" font-size="36px" fill="#000000" text-anchor="middle" style="white-space: pre;" direction="ltr">5</text></g><g stroke-linecap="round" transform="translate(455.9778059076341 177.8399732996187) rotate(0 45.73289361759271 45.73289361759271)"><path d="M0 0 C20.49 0, 40.98 0, 91.47 0 M0 0 C22.07 0, 44.15 0, 91.47 0 M91.47 0 C91.47 23.91, 91.47 47.82, 91.47 91.47 M91.47 0 C91.47 21.48, 91.47 42.96, 91.47 91.47 M91.47 91.47 C68.77 91.47, 46.07 91.47, 0 91.47 M91.47 91.47 C60.27 91.47, 29.07 91.47, 0 91.47 M0 91.47 C0 60.25, 0 29.03, 0 0 M0 91.47 C0 60.32, 0 29.17, 0 0" stroke="#000000" stroke-width="1" fill="none"></path></g><g transform="translate(460.9778059076341 201.0728669172114) rotate(0 40.5 22.5)"><text x="40.5" y="32" font-family="Virgil, Segoe UI Emoji" font-size="36px" fill="#000000" text-anchor="middle" style="white-space: pre;" direction="ltr">2</text></g><g stroke-linecap="round" transform="translate(566.9989007471002 177.8399732996187) rotate(0 45.73289361759271 45.73289361759271)"><path d="M0 0 C24.81 0, 49.62 0, 91.47 0 M0 0 C33.53 0, 67.06 0, 91.47 0 M91.47 0 C91.47 28.52, 91.47 57.03, 91.47 91.47 M91.47 0 C91.47 24.43, 91.47 48.86, 91.47 91.47 M91.47 91.47 C57.74 91.47, 24 91.47, 0 91.47 M91.47 91.47 C69.67 91.47, 47.88 91.47, 0 91.47 M0 91.47 C0 59.51, 0 27.56, 0 0 M0 91.47 C0 63.07, 0 34.67, 0 0" stroke="#000000" stroke-width="1" fill="none"></path></g><g transform="translate(571.9989007471002 201.0728669172114) rotate(0 40.5 22.5)"><text x="40.5" y="32" font-family="Virgil, Segoe UI Emoji" font-size="36px" fill="#000000" text-anchor="middle" style="white-space: pre;" direction="ltr">3</text></g><g stroke-linecap="round" transform="translate(12.718427569910773 287.936289881004) rotate(0 45.73289361759271 45.73289361759271)"><path d="M0 0 C30.31 0, 60.62 0, 91.47 0 M0 0 C31.59 0, 63.19 0, 91.47 0 M91.47 0 C91.47 24.64, 91.47 49.28, 91.47 91.47 M91.47 0 C91.47 28.94, 91.47 57.88, 91.47 91.47 M91.47 91.47 C59.41 91.47, 27.36 91.47, 0 91.47 M91.47 91.47 C63.44 91.47, 35.4 91.47, 0 91.47 M0 91.47 C0 61.13, 0 30.79, 0 0 M0 91.47 C0 64.39, 0 37.32, 0 0" stroke="#000000" stroke-width="1" fill="none"></path></g><g stroke-linecap="round" transform="translate(123.73952240937683 286.6691834985967) rotate(0 46 47)"><path d="M0 0 C24.76 0, 49.51 0, 92 0 M0 0 C27.49 0, 54.98 0, 92 0 M92 0 C92 36.03, 92 72.05, 92 94 M92 0 C92 21.62, 92 43.24, 92 94 M92 94 C72.53 94, 53.07 94, 0 94 M92 94 C71.61 94, 51.22 94, 0 94 M0 94 C0 67.1, 0 40.21, 0 0 M0 94 C0 67.76, 0 41.52, 0 0" stroke="#000000" stroke-width="1" fill="none"></path></g><g stroke-linecap="round" transform="translate(346.31592485312353 287.936289881004) rotate(0 45.73289361759271 45.73289361759271)"><path d="M0 0 C34.38 0, 68.76 0, 91.47 0 M0 0 C22.14 0, 44.29 0, 91.47 0 M91.47 0 C91.47 25.56, 91.47 51.13, 91.47 91.47 M91.47 0 C91.47 32.72, 91.47 65.44, 91.47 91.47 M91.47 91.47 C55.49 91.47, 19.51 91.47, 0 91.47 M91.47 91.47 C68.59 91.47, 45.71 91.47, 0 91.47 M0 91.47 C0 70.93, 0 50.4, 0 0 M0 91.47 C0 59.47, 0 27.46, 0 0" stroke="#000000" stroke-width="1" fill="none"></path></g><g stroke-linecap="round" transform="translate(235.29483001365747 287.936289881004) rotate(0 45.73289361759271 45.73289361759271)"><path d="M0 0 C35.82 0, 71.64 0, 91.47 0 M0 0 C31.83 0, 63.66 0, 91.47 0 M91.47 0 C91.47 24.96, 91.47 49.92, 91.47 91.47 M91.47 0 C91.47 27.18, 91.47 54.37, 91.47 91.47 M91.47 91.47 C56.2 91.47, 20.93 91.47, 0 91.47 M91.47 91.47 C71.83 91.47, 52.2 91.47, 0 91.47 M0 91.47 C0 72.11, 0 52.75, 0 0 M0 91.47 C0 58.92, 0 26.38, 0 0" stroke="#000000" stroke-width="1" fill="none"></path></g><g transform="translate(17.718427569910773 311.1691834985967) rotate(0 40.5 22.5)"><text x="40.5" y="32" font-family="Virgil, Segoe UI Emoji" font-size="36px" fill="#000000" text-anchor="middle" style="white-space: pre;" direction="ltr">1</text></g><g transform="translate(128.73952240937683 311.1691834985967) rotate(0 41 22.5)"><text x="41" y="32" font-family="Virgil, Segoe UI Emoji" font-size="36px" fill="#000000" text-anchor="middle" style="white-space: pre;" direction="ltr">5</text></g><g transform="translate(351.31592485312353 311.1691834985967) rotate(0 40.5 22.5)"><text x="40.5" y="32" font-family="Virgil, Segoe UI Emoji" font-size="36px" fill="#000000" text-anchor="middle" style="white-space: pre;" direction="ltr">4</text></g><g transform="translate(240.29483001365747 311.1691834985967) rotate(0 40.5 22.5)"><text x="40.5" y="32" font-family="Virgil, Segoe UI Emoji" font-size="36px" fill="#000000" text-anchor="middle" style="white-space: pre;" direction="ltr">6</text></g><g stroke-linecap="round" transform="translate(457.3370196925896 287.936289881004) rotate(0 45.73289361759271 45.73289361759271)"><path d="M0 0 C31.86 0, 63.73 0, 91.47 0 M0 0 C19.11 0, 38.23 0, 91.47 0 M91.47 0 C91.47 24.46, 91.47 48.92, 91.47 91.47 M91.47 0 C91.47 31.06, 91.47 62.11, 91.47 91.47 M91.47 91.47 C55.03 91.47, 18.6 91.47, 0 91.47 M91.47 91.47 C62.16 91.47, 32.85 91.47, 0 91.47 M0 91.47 C0 64.2, 0 36.93, 0 0 M0 91.47 C0 61.1, 0 30.73, 0 0" stroke="#000000" stroke-width="1" fill="none"></path></g><g transform="translate(462.3370196925896 311.1691834985967) rotate(0 40.5 22.5)"><text x="40.5" y="32" font-family="Virgil, Segoe UI Emoji" font-size="36px" fill="#000000" text-anchor="middle" style="white-space: pre;" direction="ltr">3</text></g><g stroke-linecap="round" transform="translate(568.3581145320557 287.936289881004) rotate(0 45.73289361759271 45.73289361759271)"><path d="M0 0 C31.83 0, 63.66 0, 91.47 0 M0 0 C26.92 0, 53.84 0, 91.47 0 M91.47 0 C91.47 22.42, 91.47 44.84, 91.47 91.47 M91.47 0 C91.47 32.65, 91.47 65.31, 91.47 91.47 M91.47 91.47 C71.23 91.47, 50.99 91.47, 0 91.47 M91.47 91.47 C70.63 91.47, 49.8 91.47, 0 91.47 M0 91.47 C0 56.39, 0 21.31, 0 0 M0 91.47 C0 60.64, 0 29.81, 0 0" stroke="#000000" stroke-width="1" fill="none"></path></g><g transform="translate(573.3581145320557 311.1691834985967) rotate(0 40.5 22.5)"><text x="40.5" y="32" font-family="Virgil, Segoe UI Emoji" font-size="36px" fill="#000000" text-anchor="middle" style="white-space: pre;" direction="ltr">2</text></g><g stroke-linecap="round" transform="translate(14.077641354866046 399.39182024734475) rotate(0 45.73289361759271 45.73289361759271)"><path d="M0 0 L91.47 0 L91.47 91.47 L0 91.47" stroke="none" stroke-width="0" fill="#82c91e"></path><path d="M0 0 C21.1 0, 42.21 0, 91.47 0 M0 0 C18.62 0, 37.23 0, 91.47 0 M91.47 0 C91.47 23.82, 91.47 47.64, 91.47 91.47 M91.47 0 C91.47 29.1, 91.47 58.19, 91.47 91.47 M91.47 91.47 C59.47 91.47, 27.48 91.47, 0 91.47 M91.47 91.47 C69.31 91.47, 47.16 91.47, 0 91.47 M0 91.47 C0 56.78, 0 22.09, 0 0 M0 91.47 C0 58.74, 0 26.01, 0 0" stroke="#000000" stroke-width="1" fill="none"></path></g><g stroke-linecap="round" transform="translate(125.0987361943321 398.12471386493746) rotate(0 46 47)"><path d="M0 0 L92 0 L92 94 L0 94" stroke="none" stroke-width="0" fill="#82c91e"></path><path d="M0 0 C27.39 0, 54.77 0, 92 0 M0 0 C25.8 0, 51.59 0, 92 0 M92 0 C92 19.69, 92 39.38, 92 94 M92 0 C92 25.41, 92 50.83, 92 94 M92 94 C62.35 94, 32.7 94, 0 94 M92 94 C62.94 94, 33.87 94, 0 94 M0 94 C0 61.89, 0 29.78, 0 0 M0 94 C0 58.84, 0 23.68, 0 0" stroke="#000000" stroke-width="1" fill="none"></path></g><g stroke-linecap="round" transform="translate(347.6751386380788 399.39182024734475) rotate(0 45.73289361759271 45.73289361759271)"><path d="M0 0 L91.47 0 L91.47 91.47 L0 91.47" stroke="none" stroke-width="0" fill="#82c91e"></path><path d="M0 0 C29.29 0, 58.57 0, 91.47 0 M0 0 C29.63 0, 59.27 0, 91.47 0 M91.47 0 C91.47 21.79, 91.47 43.58, 91.47 91.47 M91.47 0 C91.47 20.82, 91.47 41.63, 91.47 91.47 M91.47 91.47 C57.28 91.47, 23.1 91.47, 0 91.47 M91.47 91.47 C58.73 91.47, 26 91.47, 0 91.47 M0 91.47 C0 67.94, 0 44.42, 0 0 M0 91.47 C0 68.88, 0 46.3, 0 0" stroke="#000000" stroke-width="1" fill="none"></path></g><g stroke-linecap="round" transform="translate(236.65404379861275 399.39182024734475) rotate(0 45.73289361759271 45.73289361759271)"><path d="M0 0 L91.47 0 L91.47 91.47 L0 91.47" stroke="none" stroke-width="0" fill="#82c91e"></path><path d="M0 0 C33.92 0, 67.85 0, 91.47 0 M0 0 C31.94 0, 63.87 0, 91.47 0 M91.47 0 C91.47 22.36, 91.47 44.71, 91.47 91.47 M91.47 0 C91.47 34.73, 91.47 69.46, 91.47 91.47 M91.47 91.47 C70.72 91.47, 49.97 91.47, 0 91.47 M91.47 91.47 C61.01 91.47, 30.55 91.47, 0 91.47 M0 91.47 C0 66.44, 0 41.42, 0 0 M0 91.47 C0 62.55, 0 33.64, 0 0" stroke="#000000" stroke-width="1" fill="none"></path></g><g transform="translate(19.077641354866046 422.62471386493746) rotate(0 40.5 22.5)"><text x="40.5" y="32" font-family="Virgil, Segoe UI Emoji" font-size="36px" fill="#000000" text-anchor="middle" style="white-space: pre;" direction="ltr">1</text></g><g transform="translate(130.0987361943321 422.62471386493746) rotate(0 41 22.5)"><text x="41" y="32" font-family="Virgil, Segoe UI Emoji" font-size="36px" fill="#000000" text-anchor="middle" style="white-space: pre;" direction="ltr">2</text></g><g transform="translate(352.6751386380788 422.62471386493746) rotate(0 40.5 22.5)"><text x="40.5" y="32" font-family="Virgil, Segoe UI Emoji" font-size="36px" fill="#000000" text-anchor="middle" style="white-space: pre;" direction="ltr">4</text></g><g transform="translate(241.65404379861275 422.62471386493746) rotate(0 40.5 22.5)"><text x="40.5" y="32" font-family="Virgil, Segoe UI Emoji" font-size="36px" fill="#000000" text-anchor="middle" style="white-space: pre;" direction="ltr">3</text></g><g stroke-linecap="round" transform="translate(458.69623347754487 399.39182024734475) rotate(0 45.73289361759271 45.73289361759271)"><path d="M0 0 L91.47 0 L91.47 91.47 L0 91.47" stroke="none" stroke-width="0" fill="#82c91e"></path><path d="M0 0 C21.99 0, 43.97 0, 91.47 0 M0 0 C24.51 0, 49.03 0, 91.47 0 M91.47 0 C91.47 18.72, 91.47 37.44, 91.47 91.47 M91.47 0 C91.47 23.54, 91.47 47.09, 91.47 91.47 M91.47 91.47 C67.7 91.47, 43.94 91.47, 0 91.47 M91.47 91.47 C61.74 91.47, 32.01 91.47, 0 91.47 M0 91.47 C0 65.27, 0 39.08, 0 0 M0 91.47 C0 68.33, 0 45.19, 0 0" stroke="#000000" stroke-width="1" fill="none"></path></g><g transform="translate(463.69623347754487 422.62471386493746) rotate(0 40.5 22.5)"><text x="40.5" y="32" font-family="Virgil, Segoe UI Emoji" font-size="36px" fill="#000000" text-anchor="middle" style="white-space: pre;" direction="ltr">5</text></g><g stroke-linecap="round" transform="translate(569.7173283170109 399.39182024734475) rotate(0 45.73289361759271 45.73289361759271)"><path d="M0 0 L91.47 0 L91.47 91.47 L0 91.47" stroke="none" stroke-width="0" fill="#82c91e"></path><path d="M0 0 C33.71 0, 67.41 0, 91.47 0 M0 0 C27.99 0, 55.98 0, 91.47 0 M91.47 0 C91.47 19.08, 91.47 38.16, 91.47 91.47 M91.47 0 C91.47 27.16, 91.47 54.32, 91.47 91.47 M91.47 91.47 C64.26 91.47, 37.05 91.47, 0 91.47 M91.47 91.47 C56.41 91.47, 21.35 91.47, 0 91.47 M0 91.47 C0 58.04, 0 24.62, 0 0 M0 91.47 C0 64.29, 0 37.12, 0 0" stroke="#000000" stroke-width="1" fill="none"></path></g><g transform="translate(574.7173283170109 422.62471386493746) rotate(0 40.5 22.5)"><text x="40.5" y="32" font-family="Virgil, Segoe UI Emoji" font-size="36px" fill="#000000" text-anchor="middle" style="white-space: pre;" direction="ltr">6</text></g></svg>