<svg version="1.1" xmlns="http://www.w3.org/2000/svg" viewBox="0 0 673.0883433055585 746.8998524423997" width="673.0883433055585" height="746.8998524423997">
  <!-- svg-source:excalidraw -->
  
  <defs>
    <style>
      @font-face {
        font-family: "Virgil";
        src: url("https://excalidraw.com/Virgil.woff2");
      }
      @font-face {
        font-family: "Cascadia";
        src: url("https://excalidraw.com/Cascadia.woff2");
      }
    </style>
  </defs>
  <rect x="0" y="0" width="673.0883433055585" height="746.8998524423997" fill="#ffffff"></rect><g stroke-linecap="round" transform="translate(10 65.02522914832241) rotate(0 45.73289361759271 45.73289361759271)"><path d="M0 0 L91.47 0 L91.47 91.47 L0 91.47" stroke="none" stroke-width="0" fill="#82c91e"></path><path d="M0 0 C21.1 0, 42.21 0, 91.47 0 M0 0 C18.62 0, 37.23 0, 91.47 0 M91.47 0 C91.47 23.82, 91.47 47.64, 91.47 91.47 M91.47 0 C91.47 29.1, 91.47 58.19, 91.47 91.47 M91.47 91.47 C59.47 91.47, 27.48 91.47, 0 91.47 M91.47 91.47 C69.31 91.47, 47.16 91.47, 0 91.47 M0 91.47 C0 56.78, 0 22.09, 0 0 M0 91.47 C0 58.74, 0 26.01, 0 0" stroke="#000000" stroke-width="1" fill="none"></path></g><g stroke-linecap="round" transform="translate(121.02109483946606 63.75812276591512) rotate(0 46 47)"><path d="M0 0 L92 0 L92 94 L0 94" stroke="none" stroke-width="0" fill="#82c91e"></path><path d="M0 0 C27.39 0, 54.77 0, 92 0 M0 0 C25.8 0, 51.59 0, 92 0 M92 0 C92 19.69, 92 39.38, 92 94 M92 0 C92 25.41, 92 50.83, 92 94 M92 94 C62.35 94, 32.7 94, 0 94 M92 94 C62.94 94, 33.87 94, 0 94 M0 94 C0 61.89, 0 29.78, 0 0 M0 94 C0 58.84, 0 23.68, 0 0" stroke="#000000" stroke-width="1" fill="none"></path></g><g stroke-linecap="round" transform="translate(343.59749728321276 65.02522914832241) rotate(0 45.73289361759271 45.73289361759271)"><path d="M0 0 C29.29 0, 58.57 0, 91.47 0 M0 0 C29.63 0, 59.27 0, 91.47 0 M91.47 0 C91.47 21.79, 91.47 43.58, 91.47 91.47 M91.47 0 C91.47 20.82, 91.47 41.63, 91.47 91.47 M91.47 91.47 C57.28 91.47, 23.1 91.47, 0 91.47 M91.47 91.47 C58.73 91.47, 26 91.47, 0 91.47 M0 91.47 C0 67.94, 0 44.42, 0 0 M0 91.47 C0 68.88, 0 46.3, 0 0" stroke="#000000" stroke-width="1" fill="none"></path></g><g stroke-linecap="round" transform="translate(232.5764024437467 65.02522914832241) rotate(0 45.73289361759271 45.73289361759271)"><path d="M0 0 C33.92 0, 67.85 0, 91.47 0 M0 0 C31.94 0, 63.87 0, 91.47 0 M91.47 0 C91.47 22.36, 91.47 44.71, 91.47 91.47 M91.47 0 C91.47 34.73, 91.47 69.46, 91.47 91.47 M91.47 91.47 C70.72 91.47, 49.97 91.47, 0 91.47 M91.47 91.47 C61.01 91.47, 30.55 91.47, 0 91.47 M0 91.47 C0 66.44, 0 41.42, 0 0 M0 91.47 C0 62.55, 0 33.64, 0 0" stroke="#000000" stroke-width="1" fill="none"></path></g><g transform="translate(15 88.25812276591512) rotate(0 40.5 22.5)"><text x="40.5" y="32" font-family="Virgil, Segoe UI Emoji" font-size="36px" fill="#000000" text-anchor="middle" style="white-space: pre;" direction="ltr">6</text></g><g transform="translate(126.02109483946606 88.25812276591512) rotate(0 41 22.5)"><text x="41" y="32" font-family="Virgil, Segoe UI Emoji" font-size="36px" fill="#000000" text-anchor="middle" style="white-space: pre;" direction="ltr">5</text></g><g transform="translate(348.59749728321276 88.25812276591512) rotate(0 40.5 22.5)"><text x="40.5" y="32" font-family="Virgil, Segoe UI Emoji" font-size="36px" fill="#000000" text-anchor="middle" style="white-space: pre;" direction="ltr">3</text></g><g transform="translate(237.5764024437467 88.25812276591512) rotate(0 40.5 22.5)"><text x="40.5" y="32" font-family="Virgil, Segoe UI Emoji" font-size="36px" fill="#000000" text-anchor="middle" style="white-space: pre;" direction="ltr">4</text></g><g stroke-linecap="round" transform="translate(454.6185921226788 65.02522914832241) rotate(0 45.73289361759271 45.73289361759271)"><path d="M0 0 C21.99 0, 43.97 0, 91.47 0 M0 0 C24.51 0, 49.03 0, 91.47 0 M91.47 0 C91.47 18.72, 91.47 37.44, 91.47 91.47 M91.47 0 C91.47 23.54, 91.47 47.09, 91.47 91.47 M91.47 91.47 C67.7 91.47, 43.94 91.47, 0 91.47 M91.47 91.47 C61.74 91.47, 32.01 91.47, 0 91.47 M0 91.47 C0 65.27, 0 39.08, 0 0 M0 91.47 C0 68.33, 0 45.19, 0 0" stroke="#000000" stroke-width="1" fill="none"></path></g><g transform="translate(459.6185921226788 88.25812276591512) rotate(0 40.5 22.5)"><text x="40.5" y="32" font-family="Virgil, Segoe UI Emoji" font-size="36px" fill="#000000" text-anchor="middle" style="white-space: pre;" direction="ltr">2</text></g><g stroke-linecap="round" transform="translate(565.6396869621449 65.02522914832241) rotate(0 45.73289361759271 45.73289361759271)"><path d="M0 0 C33.71 0, 67.41 0, 91.47 0 M0 0 C27.99 0, 55.98 0, 91.47 0 M91.47 0 C91.47 19.08, 91.47 38.16, 91.47 91.47 M91.47 0 C91.47 27.16, 91.47 54.32, 91.47 91.47 M91.47 91.47 C64.26 91.47, 37.05 91.47, 0 91.47 M91.47 91.47 C56.41 91.47, 21.35 91.47, 0 91.47 M0 91.47 C0 58.04, 0 24.62, 0 0 M0 91.47 C0 64.29, 0 37.12, 0 0" stroke="#000000" stroke-width="1" fill="none"></path></g><g transform="translate(570.6396869621449 88.25812276591512) rotate(0 40.5 22.5)"><text x="40.5" y="32" font-family="Virgil, Segoe UI Emoji" font-size="36px" fill="#000000" text-anchor="middle" style="white-space: pre;" direction="ltr">1</text></g><g transform="translate(45.66118855224113 10) rotate(0 13 22.5)"><text x="0" y="32" font-family="Virgil, Segoe UI Emoji" font-size="36px" fill="#000000" text-anchor="start" style="white-space: pre;" direction="ltr">0</text></g><g transform="translate(155.79346297828056 10) rotate(0 5.5 22.5)"><text x="0" y="32" font-family="Virgil, Segoe UI Emoji" font-size="36px" fill="#000000" text-anchor="start" style="white-space: pre;" direction="ltr">1</text></g><g transform="translate(265.92573740431976 11.866648719085447) rotate(0 13.5 22.5)"><text x="0" y="32" font-family="Virgil, Segoe UI Emoji" font-size="36px" fill="#000000" text-anchor="start" style="white-space: pre;" direction="ltr">2</text></g><g transform="translate(376.0580118303592 13.73329743817078) rotate(0 13 22.5)"><text x="0" y="32" font-family="Virgil, Segoe UI Emoji" font-size="36px" fill="#000000" text-anchor="start" style="white-space: pre;" direction="ltr">3</text></g><g transform="translate(488.05693497548395 11.866648719085447) rotate(0 12 22.5)"><text x="0" y="32" font-family="Virgil, Segoe UI Emoji" font-size="36px" fill="#000000" text-anchor="start" style="white-space: pre;" direction="ltr">4</text></g><g transform="translate(600.0558581206087 11.866648719085447) rotate(0 11.5 22.5)"><text x="0" y="32" font-family="Virgil, Segoe UI Emoji" font-size="36px" fill="#000000" text-anchor="start" style="white-space: pre;" direction="ltr">5</text></g><g stroke-linecap="round" transform="translate(11.196573821645643 185.87918513453099) rotate(0 45.73289361759271 45.73289361759271)"><path d="M0 0 C34.62 0, 69.23 0, 91.47 0 M0 0 C19.94 0, 39.88 0, 91.47 0 M91.47 0 C91.47 22.38, 91.47 44.76, 91.47 91.47 M91.47 0 C91.47 27.36, 91.47 54.73, 91.47 91.47 M91.47 91.47 C62.72 91.47, 33.96 91.47, 0 91.47 M91.47 91.47 C59.81 91.47, 28.15 91.47, 0 91.47 M0 91.47 C0 66.97, 0 42.47, 0 0 M0 91.47 C0 60.29, 0 29.12, 0 0" stroke="#000000" stroke-width="1" fill="none"></path></g><g stroke-linecap="round" transform="translate(122.2176686611117 184.6120787521237) rotate(0 46 47)"><path d="M0 0 L92 0 L92 94 L0 94" stroke="none" stroke-width="0" fill="#82c91e"></path><path d="M0 0 C34.96 0, 69.92 0, 92 0 M0 0 C34.01 0, 68.02 0, 92 0 M92 0 C92 33.8, 92 67.59, 92 94 M92 0 C92 37.13, 92 74.25, 92 94 M92 94 C65.88 94, 39.77 94, 0 94 M92 94 C70.65 94, 49.29 94, 0 94 M0 94 C0 69.7, 0 45.4, 0 0 M0 94 C0 71.62, 0 49.23, 0 0" stroke="#000000" stroke-width="1" fill="none"></path></g><g stroke-linecap="round" transform="translate(344.7940711048584 185.87918513453099) rotate(0 45.73289361759271 45.73289361759271)"><path d="M0 0 C21.11 0, 42.23 0, 91.47 0 M0 0 C26.92 0, 53.84 0, 91.47 0 M91.47 0 C91.47 22.67, 91.47 45.35, 91.47 91.47 M91.47 0 C91.47 27.62, 91.47 55.25, 91.47 91.47 M91.47 91.47 C70.78 91.47, 50.09 91.47, 0 91.47 M91.47 91.47 C64.7 91.47, 37.93 91.47, 0 91.47 M0 91.47 C0 64.38, 0 37.3, 0 0 M0 91.47 C0 55.04, 0 18.61, 0 0" stroke="#000000" stroke-width="1" fill="none"></path></g><g stroke-linecap="round" transform="translate(233.77297626539234 185.87918513453099) rotate(0 45.73289361759271 45.73289361759271)"><path d="M0 0 L91.47 0 L91.47 91.47 L0 91.47" stroke="none" stroke-width="0" fill="#82c91e"></path><path d="M0 0 C18.62 0, 37.25 0, 91.47 0 M0 0 C18.91 0, 37.83 0, 91.47 0 M91.47 0 C91.47 18.97, 91.47 37.94, 91.47 91.47 M91.47 0 C91.47 19.22, 91.47 38.44, 91.47 91.47 M91.47 91.47 C67.33 91.47, 43.2 91.47, 0 91.47 M91.47 91.47 C64.71 91.47, 37.95 91.47, 0 91.47 M0 91.47 C0 61.43, 0 31.4, 0 0 M0 91.47 C0 58.44, 0 25.42, 0 0" stroke="#000000" stroke-width="1" fill="none"></path></g><g transform="translate(16.196573821645643 209.1120787521237) rotate(0 40.5 22.5)"><text x="40.5" y="32" font-family="Virgil, Segoe UI Emoji" font-size="36px" fill="#000000" text-anchor="middle" style="white-space: pre;" direction="ltr">5</text></g><g transform="translate(127.2176686611117 209.1120787521237) rotate(0 41 22.5)"><text x="41" y="32" font-family="Virgil, Segoe UI Emoji" font-size="36px" fill="#000000" text-anchor="middle" style="white-space: pre;" direction="ltr">6</text></g><g transform="translate(349.7940711048584 209.1120787521237) rotate(0 40.5 22.5)"><text x="40.5" y="32" font-family="Virgil, Segoe UI Emoji" font-size="36px" fill="#000000" text-anchor="middle" style="white-space: pre;" direction="ltr">3</text></g><g transform="translate(238.77297626539234 209.1120787521237) rotate(0 40.5 22.5)"><text x="40.5" y="32" font-family="Virgil, Segoe UI Emoji" font-size="36px" fill="#000000" text-anchor="middle" style="white-space: pre;" direction="ltr">4</text></g><g stroke-linecap="round" transform="translate(455.81516594432446 185.87918513453099) rotate(0 45.73289361759271 45.73289361759271)"><path d="M0 0 C26.5 0, 52.99 0, 91.47 0 M0 0 C23.41 0, 46.81 0, 91.47 0 M91.47 0 C91.47 31.14, 91.47 62.29, 91.47 91.47 M91.47 0 C91.47 33.1, 91.47 66.2, 91.47 91.47 M91.47 91.47 C70.8 91.47, 50.14 91.47, 0 91.47 M91.47 91.47 C63.81 91.47, 36.15 91.47, 0 91.47 M0 91.47 C0 70.75, 0 50.03, 0 0 M0 91.47 C0 67.74, 0 44.01, 0 0" stroke="#000000" stroke-width="1" fill="none"></path></g><g transform="translate(460.81516594432446 209.1120787521237) rotate(0 40.5 22.5)"><text x="40.5" y="32" font-family="Virgil, Segoe UI Emoji" font-size="36px" fill="#000000" text-anchor="middle" style="white-space: pre;" direction="ltr">2</text></g><g stroke-linecap="round" transform="translate(566.8362607837905 185.87918513453099) rotate(0 45.73289361759271 45.73289361759271)"><path d="M0 0 C25.68 0, 51.35 0, 91.47 0 M0 0 C31.99 0, 63.99 0, 91.47 0 M91.47 0 C91.47 24.68, 91.47 49.36, 91.47 91.47 M91.47 0 C91.47 36.11, 91.47 72.22, 91.47 91.47 M91.47 91.47 C68.47 91.47, 45.47 91.47, 0 91.47 M91.47 91.47 C64.8 91.47, 38.14 91.47, 0 91.47 M0 91.47 C0 58.91, 0 26.35, 0 0 M0 91.47 C0 57.45, 0 23.43, 0 0" stroke="#000000" stroke-width="1" fill="none"></path></g><g transform="translate(571.8362607837905 209.1120787521237) rotate(0 40.5 22.5)"><text x="40.5" y="32" font-family="Virgil, Segoe UI Emoji" font-size="36px" fill="#000000" text-anchor="middle" style="white-space: pre;" direction="ltr">1</text></g><g stroke-linecap="round" transform="translate(11.196573821645643 305.5365672990939) rotate(0 45.73289361759271 45.73289361759271)"><path d="M0 0 C33.79 0, 67.58 0, 91.47 0 M0 0 C23.18 0, 46.36 0, 91.47 0 M91.47 0 C91.47 30.94, 91.47 61.89, 91.47 91.47 M91.47 0 C91.47 35.08, 91.47 70.16, 91.47 91.47 M91.47 91.47 C65.63 91.47, 39.8 91.47, 0 91.47 M91.47 91.47 C58.76 91.47, 26.06 91.47, 0 91.47 M0 91.47 C0 56.5, 0 21.53, 0 0 M0 91.47 C0 67.92, 0 44.37, 0 0" stroke="#000000" stroke-width="1" fill="none"></path></g><g stroke-linecap="round" transform="translate(122.2176686611117 304.2694609166866) rotate(0 46 47)"><path d="M0 0 C26.81 0, 53.61 0, 92 0 M0 0 C31.22 0, 62.45 0, 92 0 M92 0 C92 27.18, 92 54.37, 92 94 M92 0 C92 23.31, 92 46.62, 92 94 M92 94 C64.06 94, 36.13 94, 0 94 M92 94 C60.12 94, 28.23 94, 0 94 M0 94 C0 62.01, 0 30.03, 0 0 M0 94 C0 66.54, 0 39.08, 0 0" stroke="#000000" stroke-width="1" fill="none"></path></g><g stroke-linecap="round" transform="translate(344.7940711048584 305.5365672990939) rotate(0 45.73289361759271 45.73289361759271)"><path d="M0 0 L91.47 0 L91.47 91.47 L0 91.47" stroke="none" stroke-width="0" fill="#82c91e"></path><path d="M0 0 C19.16 0, 38.32 0, 91.47 0 M0 0 C27.57 0, 55.14 0, 91.47 0 M91.47 0 C91.47 23.82, 91.47 47.64, 91.47 91.47 M91.47 0 C91.47 29.89, 91.47 59.79, 91.47 91.47 M91.47 91.47 C69.1 91.47, 46.74 91.47, 0 91.47 M91.47 91.47 C71.96 91.47, 52.45 91.47, 0 91.47 M0 91.47 C0 55.61, 0 19.75, 0 0 M0 91.47 C0 55.54, 0 19.61, 0 0" stroke="#000000" stroke-width="1" fill="none"></path></g><g stroke-linecap="round" transform="translate(233.77297626539234 305.5365672990939) rotate(0 45.73289361759271 45.73289361759271)"><path d="M0 0 L91.47 0 L91.47 91.47 L0 91.47" stroke="none" stroke-width="0" fill="#82c91e"></path><path d="M0 0 C27.11 0, 54.23 0, 91.47 0 M0 0 C23.27 0, 46.54 0, 91.47 0 M91.47 0 C91.47 22.84, 91.47 45.69, 91.47 91.47 M91.47 0 C91.47 28.34, 91.47 56.68, 91.47 91.47 M91.47 91.47 C61.51 91.47, 31.55 91.47, 0 91.47 M91.47 91.47 C71.12 91.47, 50.77 91.47, 0 91.47 M0 91.47 C0 56.22, 0 20.98, 0 0 M0 91.47 C0 54.95, 0 18.43, 0 0" stroke="#000000" stroke-width="1" fill="none"></path></g><g transform="translate(16.196573821645643 328.7694609166866) rotate(0 40.5 22.5)"><text x="40.5" y="32" font-family="Virgil, Segoe UI Emoji" font-size="36px" fill="#000000" text-anchor="middle" style="white-space: pre;" direction="ltr">5</text></g><g transform="translate(127.2176686611117 328.7694609166866) rotate(0 41 22.5)"><text x="41" y="32" font-family="Virgil, Segoe UI Emoji" font-size="36px" fill="#000000" text-anchor="middle" style="white-space: pre;" direction="ltr">4</text></g><g transform="translate(349.7940711048584 328.7694609166866) rotate(0 40.5 22.5)"><text x="40.5" y="32" font-family="Virgil, Segoe UI Emoji" font-size="36px" fill="#000000" text-anchor="middle" style="white-space: pre;" direction="ltr">3</text></g><g transform="translate(238.77297626539234 328.7694609166866) rotate(0 40.5 22.5)"><text x="40.5" y="32" font-family="Virgil, Segoe UI Emoji" font-size="36px" fill="#000000" text-anchor="middle" style="white-space: pre;" direction="ltr">6</text></g><g stroke-linecap="round" transform="translate(455.81516594432446 305.5365672990939) rotate(0 45.73289361759271 45.73289361759271)"><path d="M0 0 C32.6 0, 65.2 0, 91.47 0 M0 0 C23.15 0, 46.29 0, 91.47 0 M91.47 0 C91.47 21.48, 91.47 42.96, 91.47 91.47 M91.47 0 C91.47 25.88, 91.47 51.77, 91.47 91.47 M91.47 91.47 C62.21 91.47, 32.96 91.47, 0 91.47 M91.47 91.47 C70.84 91.47, 50.21 91.47, 0 91.47 M0 91.47 C0 55.63, 0 19.8, 0 0 M0 91.47 C0 58.29, 0 25.11, 0 0" stroke="#000000" stroke-width="1" fill="none"></path></g><g transform="translate(460.81516594432446 328.7694609166866) rotate(0 40.5 22.5)"><text x="40.5" y="32" font-family="Virgil, Segoe UI Emoji" font-size="36px" fill="#000000" text-anchor="middle" style="white-space: pre;" direction="ltr">2</text></g><g stroke-linecap="round" transform="translate(566.8362607837905 305.5365672990939) rotate(0 45.73289361759271 45.73289361759271)"><path d="M0 0 C26.08 0, 52.16 0, 91.47 0 M0 0 C33.72 0, 67.44 0, 91.47 0 M91.47 0 C91.47 21.33, 91.47 42.66, 91.47 91.47 M91.47 0 C91.47 28.02, 91.47 56.04, 91.47 91.47 M91.47 91.47 C59.86 91.47, 28.26 91.47, 0 91.47 M91.47 91.47 C57.27 91.47, 23.08 91.47, 0 91.47 M0 91.47 C0 68.35, 0 45.24, 0 0 M0 91.47 C0 72.88, 0 54.3, 0 0" stroke="#000000" stroke-width="1" fill="none"></path></g><g transform="translate(571.8362607837905 328.7694609166866) rotate(0 40.5 22.5)"><text x="40.5" y="32" font-family="Virgil, Segoe UI Emoji" font-size="36px" fill="#000000" text-anchor="middle" style="white-space: pre;" direction="ltr">1</text></g><g stroke-linecap="round" transform="translate(13.589721464936929 422.80080182036556) rotate(0 45.73289361759271 45.73289361759271)"><path d="M0 0 C30.5 0, 60.99 0, 91.47 0 M0 0 C29.6 0, 59.2 0, 91.47 0 M91.47 0 C91.47 20.48, 91.47 40.97, 91.47 91.47 M91.47 0 C91.47 36.05, 91.47 72.09, 91.47 91.47 M91.47 91.47 C59.69 91.47, 27.92 91.47, 0 91.47 M91.47 91.47 C63.46 91.47, 35.45 91.47, 0 91.47 M0 91.47 C0 69.9, 0 48.33, 0 0 M0 91.47 C0 67.18, 0 42.9, 0 0" stroke="#000000" stroke-width="1" fill="none"></path></g><g stroke-linecap="round" transform="translate(124.61081630440299 421.5336954379583) rotate(0 46 47)"><path d="M0 0 C27.08 0, 54.16 0, 92 0 M0 0 C33.09 0, 66.19 0, 92 0 M92 0 C92 31.07, 92 62.14, 92 94 M92 0 C92 33.68, 92 67.36, 92 94 M92 94 C64.79 94, 37.58 94, 0 94 M92 94 C63.02 94, 34.04 94, 0 94 M0 94 C0 66.08, 0 38.16, 0 0 M0 94 C0 69.54, 0 45.07, 0 0" stroke="#000000" stroke-width="1" fill="none"></path></g><g stroke-linecap="round" transform="translate(347.1872187481497 422.80080182036556) rotate(0 45.73289361759271 45.73289361759271)"><path d="M0 0 L91.47 0 L91.47 91.47 L0 91.47" stroke="none" stroke-width="0" fill="#82c91e"></path><path d="M0 0 C21.3 0, 42.6 0, 91.47 0 M0 0 C35.64 0, 71.27 0, 91.47 0 M91.47 0 C91.47 18.57, 91.47 37.14, 91.47 91.47 M91.47 0 C91.47 33.44, 91.47 66.88, 91.47 91.47 M91.47 91.47 C61.89 91.47, 32.32 91.47, 0 91.47 M91.47 91.47 C64.84 91.47, 38.22 91.47, 0 91.47 M0 91.47 C0 66.24, 0 41.02, 0 0 M0 91.47 C0 71.21, 0 50.95, 0 0" stroke="#000000" stroke-width="1" fill="none"></path></g><g stroke-linecap="round" transform="translate(236.16612390868363 422.80080182036556) rotate(0 45.73289361759271 45.73289361759271)"><path d="M0 0 C19.57 0, 39.14 0, 91.47 0 M0 0 C23.87 0, 47.75 0, 91.47 0 M91.47 0 C91.47 25.73, 91.47 51.47, 91.47 91.47 M91.47 0 C91.47 26.39, 91.47 52.79, 91.47 91.47 M91.47 91.47 C69.06 91.47, 46.65 91.47, 0 91.47 M91.47 91.47 C61.1 91.47, 30.73 91.47, 0 91.47 M0 91.47 C0 58.37, 0 25.28, 0 0 M0 91.47 C0 66.6, 0 41.74, 0 0" stroke="#000000" stroke-width="1" fill="none"></path></g><g transform="translate(18.58972146493693 446.0336954379583) rotate(0 40.5 22.5)"><text x="40.5" y="32" font-family="Virgil, Segoe UI Emoji" font-size="36px" fill="#000000" text-anchor="middle" style="white-space: pre;" direction="ltr">5</text></g><g transform="translate(129.610816304403 446.0336954379583) rotate(0 41 22.5)"><text x="41" y="32" font-family="Virgil, Segoe UI Emoji" font-size="36px" fill="#000000" text-anchor="middle" style="white-space: pre;" direction="ltr">4</text></g><g transform="translate(352.1872187481497 446.0336954379583) rotate(0 40.5 22.5)"><text x="40.5" y="32" font-family="Virgil, Segoe UI Emoji" font-size="36px" fill="#000000" text-anchor="middle" style="white-space: pre;" direction="ltr">6</text></g><g transform="translate(241.16612390868363 446.0336954379583) rotate(0 40.5 22.5)"><text x="40.5" y="32" font-family="Virgil, Segoe UI Emoji" font-size="36px" fill="#000000" text-anchor="middle" style="white-space: pre;" direction="ltr">3</text></g><g stroke-linecap="round" transform="translate(458.20831358761575 422.80080182036556) rotate(0 45.73289361759271 45.73289361759271)"><path d="M0 0 L91.47 0 L91.47 91.47 L0 91.47" stroke="none" stroke-width="0" fill="#82c91e"></path><path d="M0 0 C34.43 0, 68.86 0, 91.47 0 M0 0 C32.75 0, 65.5 0, 91.47 0 M91.47 0 C91.47 27.83, 91.47 55.65, 91.47 91.47 M91.47 0 C91.47 21.21, 91.47 42.42, 91.47 91.47 M91.47 91.47 C60.94 91.47, 30.42 91.47, 0 91.47 M91.47 91.47 C56.84 91.47, 22.21 91.47, 0 91.47 M0 91.47 C0 55.16, 0 18.85, 0 0 M0 91.47 C0 72.84, 0 54.21, 0 0" stroke="#000000" stroke-width="1" fill="none"></path></g><g transform="translate(463.20831358761575 446.0336954379583) rotate(0 40.5 22.5)"><text x="40.5" y="32" font-family="Virgil, Segoe UI Emoji" font-size="36px" fill="#000000" text-anchor="middle" style="white-space: pre;" direction="ltr">2</text></g><g stroke-linecap="round" transform="translate(569.2294084270818 422.80080182036556) rotate(0 45.73289361759271 45.73289361759271)"><path d="M0 0 C33.7 0, 67.4 0, 91.47 0 M0 0 C25.18 0, 50.35 0, 91.47 0 M91.47 0 C91.47 35.53, 91.47 71.05, 91.47 91.47 M91.47 0 C91.47 22.14, 91.47 44.28, 91.47 91.47 M91.47 91.47 C70.68 91.47, 49.9 91.47, 0 91.47 M91.47 91.47 C55.83 91.47, 20.2 91.47, 0 91.47 M0 91.47 C0 57.9, 0 24.33, 0 0 M0 91.47 C0 57.32, 0 23.18, 0 0" stroke="#000000" stroke-width="1" fill="none"></path></g><g transform="translate(574.2294084270818 446.0336954379583) rotate(0 40.5 22.5)"><text x="40.5" y="32" font-family="Virgil, Segoe UI Emoji" font-size="36px" fill="#000000" text-anchor="middle" style="white-space: pre;" direction="ltr">1</text></g><g stroke-linecap="round" transform="translate(15.982869108228215 534.082167233409) rotate(0 45.73289361759271 45.73289361759271)"><path d="M0 0 C35.93 0, 71.86 0, 91.47 0 M0 0 C27.58 0, 55.16 0, 91.47 0 M91.47 0 C91.47 30.19, 91.47 60.38, 91.47 91.47 M91.47 0 C91.47 26.01, 91.47 52.01, 91.47 91.47 M91.47 91.47 C71.99 91.47, 52.51 91.47, 0 91.47 M91.47 91.47 C62.59 91.47, 33.72 91.47, 0 91.47 M0 91.47 C0 66.6, 0 41.73, 0 0 M0 91.47 C0 70.64, 0 49.82, 0 0" stroke="#000000" stroke-width="1" fill="none"></path></g><g stroke-linecap="round" transform="translate(127.00396394769427 532.8150608510017) rotate(0 46 47)"><path d="M0 0 C26.56 0, 53.13 0, 92 0 M0 0 C34.66 0, 69.33 0, 92 0 M92 0 C92 34.39, 92 68.78, 92 94 M92 0 C92 33.1, 92 66.2, 92 94 M92 94 C57.04 94, 22.08 94, 0 94 M92 94 C57.76 94, 23.52 94, 0 94 M0 94 C0 57.66, 0 21.32, 0 0 M0 94 C0 71.08, 0 48.16, 0 0" stroke="#000000" stroke-width="1" fill="none"></path></g><g stroke-linecap="round" transform="translate(349.580366391441 534.082167233409) rotate(0 45.73289361759271 45.73289361759271)"><path d="M0 0 C28.69 0, 57.37 0, 91.47 0 M0 0 C33.87 0, 67.75 0, 91.47 0 M91.47 0 C91.47 18.74, 91.47 37.48, 91.47 91.47 M91.47 0 C91.47 20.72, 91.47 41.44, 91.47 91.47 M91.47 91.47 C64.07 91.47, 36.68 91.47, 0 91.47 M91.47 91.47 C68.74 91.47, 46.01 91.47, 0 91.47 M0 91.47 C0 66.04, 0 40.61, 0 0 M0 91.47 C0 71.51, 0 51.55, 0 0" stroke="#000000" stroke-width="1" fill="none"></path></g><g stroke-linecap="round" transform="translate(238.55927155197492 534.082167233409) rotate(0 45.73289361759271 45.73289361759271)"><path d="M0 0 C35.69 0, 71.37 0, 91.47 0 M0 0 C22.59 0, 45.19 0, 91.47 0 M91.47 0 C91.47 36.1, 91.47 72.2, 91.47 91.47 M91.47 0 C91.47 22.62, 91.47 45.24, 91.47 91.47 M91.47 91.47 C60 91.47, 28.53 91.47, 0 91.47 M91.47 91.47 C67.73 91.47, 44 91.47, 0 91.47 M0 91.47 C0 60.03, 0 28.6, 0 0 M0 91.47 C0 69.47, 0 47.47, 0 0" stroke="#000000" stroke-width="1" fill="none"></path></g><g transform="translate(20.982869108228215 557.3150608510017) rotate(0 40.5 22.5)"><text x="40.5" y="32" font-family="Virgil, Segoe UI Emoji" font-size="36px" fill="#000000" text-anchor="middle" style="white-space: pre;" direction="ltr">5</text></g><g transform="translate(132.00396394769427 557.3150608510017) rotate(0 41 22.5)"><text x="41" y="32" font-family="Virgil, Segoe UI Emoji" font-size="36px" fill="#000000" text-anchor="middle" style="white-space: pre;" direction="ltr">4</text></g><g transform="translate(354.580366391441 557.3150608510017) rotate(0 40.5 22.5)"><text x="40.5" y="32" font-family="Virgil, Segoe UI Emoji" font-size="36px" fill="#000000" text-anchor="middle" style="white-space: pre;" direction="ltr">2</text></g><g transform="translate(243.55927155197492 557.3150608510017) rotate(0 40.5 22.5)"><text x="40.5" y="32" font-family="Virgil, Segoe UI Emoji" font-size="36px" fill="#000000" text-anchor="middle" style="white-space: pre;" direction="ltr">3</text></g><g stroke-linecap="round" transform="translate(460.60146123090703 534.082167233409) rotate(0 45.73289361759271 45.73289361759271)"><path d="M0 0 L91.47 0 L91.47 91.47 L0 91.47" stroke="none" stroke-width="0" fill="#82c91e"></path><path d="M0 0 C26.56 0, 53.11 0, 91.47 0 M0 0 C36.3 0, 72.6 0, 91.47 0 M91.47 0 C91.47 20.55, 91.47 41.1, 91.47 91.47 M91.47 0 C91.47 35.85, 91.47 71.7, 91.47 91.47 M91.47 91.47 C60.74 91.47, 30.02 91.47, 0 91.47 M91.47 91.47 C63.63 91.47, 35.79 91.47, 0 91.47 M0 91.47 C0 68.2, 0 44.94, 0 0 M0 91.47 C0 57.98, 0 24.49, 0 0" stroke="#000000" stroke-width="1" fill="none"></path></g><g transform="translate(465.60146123090703 557.3150608510017) rotate(0 40.5 22.5)"><text x="40.5" y="32" font-family="Virgil, Segoe UI Emoji" font-size="36px" fill="#000000" text-anchor="middle" style="white-space: pre;" direction="ltr">6</text></g><g stroke-linecap="round" transform="translate(571.6225560703731 534.082167233409) rotate(0 45.73289361759271 45.73289361759271)"><path d="M0 0 L91.47 0 L91.47 91.47 L0 91.47" stroke="none" stroke-width="0" fill="#82c91e"></path><path d="M0 0 C20.56 0, 41.13 0, 91.47 0 M0 0 C19.05 0, 38.09 0, 91.47 0 M91.47 0 C91.47 27.5, 91.47 55, 91.47 91.47 M91.47 0 C91.47 26.46, 91.47 52.91, 91.47 91.47 M91.47 91.47 C72.16 91.47, 52.85 91.47, 0 91.47 M91.47 91.47 C72.74 91.47, 54.01 91.47, 0 91.47 M0 91.47 C0 69.82, 0 48.17, 0 0 M0 91.47 C0 60.67, 0 29.86, 0 0" stroke="#000000" stroke-width="1" fill="none"></path></g><g transform="translate(576.6225560703731 557.3150608510017) rotate(0 40.5 22.5)"><text x="40.5" y="32" font-family="Virgil, Segoe UI Emoji" font-size="36px" fill="#000000" text-anchor="middle" style="white-space: pre;" direction="ltr">1</text></g><g stroke-linecap="round" transform="translate(15.982869108228215 644.166958824807) rotate(0 45.73289361759271 45.73289361759271)"><path d="M0 0 C20.46 0, 40.91 0, 91.47 0 M0 0 C30.16 0, 60.33 0, 91.47 0 M91.47 0 C91.47 28.81, 91.47 57.62, 91.47 91.47 M91.47 0 C91.47 33.97, 91.47 67.94, 91.47 91.47 M91.47 91.47 C72.45 91.47, 53.43 91.47, 0 91.47 M91.47 91.47 C66.34 91.47, 41.22 91.47, 0 91.47 M0 91.47 C0 55.35, 0 19.24, 0 0 M0 91.47 C0 66.82, 0 42.18, 0 0" stroke="#000000" stroke-width="1" fill="none"></path></g><g stroke-linecap="round" transform="translate(127.00396394769427 642.8998524423997) rotate(0 46 47)"><path d="M0 0 C30.28 0, 60.55 0, 92 0 M0 0 C35.13 0, 70.26 0, 92 0 M92 0 C92 33.4, 92 66.8, 92 94 M92 0 C92 21.82, 92 43.63, 92 94 M92 94 C56.97 94, 21.94 94, 0 94 M92 94 C73.01 94, 54.01 94, 0 94 M0 94 C0 72.83, 0 51.67, 0 0 M0 94 C0 56.44, 0 18.89, 0 0" stroke="#000000" stroke-width="1" fill="none"></path></g><g stroke-linecap="round" transform="translate(349.580366391441 644.166958824807) rotate(0 45.73289361759271 45.73289361759271)"><path d="M0 0 C25.99 0, 51.98 0, 91.47 0 M0 0 C27.53 0, 55.05 0, 91.47 0 M91.47 0 C91.47 32.03, 91.47 64.06, 91.47 91.47 M91.47 0 C91.47 28.94, 91.47 57.87, 91.47 91.47 M91.47 91.47 C61.01 91.47, 30.56 91.47, 0 91.47 M91.47 91.47 C57.15 91.47, 22.83 91.47, 0 91.47 M0 91.47 C0 63.9, 0 36.33, 0 0 M0 91.47 C0 58.1, 0 24.74, 0 0" stroke="#000000" stroke-width="1" fill="none"></path></g><g stroke-linecap="round" transform="translate(238.55927155197492 644.166958824807) rotate(0 45.73289361759271 45.73289361759271)"><path d="M0 0 C35.67 0, 71.34 0, 91.47 0 M0 0 C19.6 0, 39.19 0, 91.47 0 M91.47 0 C91.47 34.11, 91.47 68.21, 91.47 91.47 M91.47 0 C91.47 28.28, 91.47 56.56, 91.47 91.47 M91.47 91.47 C66.28 91.47, 41.1 91.47, 0 91.47 M91.47 91.47 C72.45 91.47, 53.44 91.47, 0 91.47 M0 91.47 C0 69.74, 0 48.01, 0 0 M0 91.47 C0 71.47, 0 51.47, 0 0" stroke="#000000" stroke-width="1" fill="none"></path></g><g transform="translate(20.982869108228215 667.3998524423997) rotate(0 40.5 22.5)"><text x="40.5" y="32" font-family="Virgil, Segoe UI Emoji" font-size="36px" fill="#000000" text-anchor="middle" style="white-space: pre;" direction="ltr">5</text></g><g transform="translate(132.00396394769427 667.3998524423997) rotate(0 41 22.5)"><text x="41" y="32" font-family="Virgil, Segoe UI Emoji" font-size="36px" fill="#000000" text-anchor="middle" style="white-space: pre;" direction="ltr">4</text></g><g transform="translate(354.580366391441 667.3998524423997) rotate(0 40.5 22.5)"><text x="40.5" y="32" font-family="Virgil, Segoe UI Emoji" font-size="36px" fill="#000000" text-anchor="middle" style="white-space: pre;" direction="ltr">2</text></g><g transform="translate(243.55927155197492 667.3998524423997) rotate(0 40.5 22.5)"><text x="40.5" y="32" font-family="Virgil, Segoe UI Emoji" font-size="36px" fill="#000000" text-anchor="middle" style="white-space: pre;" direction="ltr">3</text></g><g stroke-linecap="round" transform="translate(460.60146123090703 644.166958824807) rotate(0 45.73289361759271 45.73289361759271)"><path d="M0 0 C31.12 0, 62.25 0, 91.47 0 M0 0 C33.52 0, 67.04 0, 91.47 0 M91.47 0 C91.47 23.94, 91.47 47.87, 91.47 91.47 M91.47 0 C91.47 19.43, 91.47 38.86, 91.47 91.47 M91.47 91.47 C55.27 91.47, 19.07 91.47, 0 91.47 M91.47 91.47 C60.96 91.47, 30.45 91.47, 0 91.47 M0 91.47 C0 67.06, 0 42.65, 0 0 M0 91.47 C0 67.21, 0 42.95, 0 0" stroke="#000000" stroke-width="1" fill="none"></path></g><g transform="translate(465.60146123090703 667.3998524423997) rotate(0 40.5 22.5)"><text x="40.5" y="32" font-family="Virgil, Segoe UI Emoji" font-size="36px" fill="#000000" text-anchor="middle" style="white-space: pre;" direction="ltr">1</text></g><g stroke-linecap="round" transform="translate(571.6225560703731 644.166958824807) rotate(0 45.73289361759271 45.73289361759271)"><path d="M0 0 L91.47 0 L91.47 91.47 L0 91.47" stroke="none" stroke-width="0" fill="#82c91e"></path><path d="M0 0 C28.87 0, 57.74 0, 91.47 0 M0 0 C34.65 0, 69.29 0, 91.47 0 M91.47 0 C91.47 23.8, 91.47 47.6, 91.47 91.47 M91.47 0 C91.47 21.52, 91.47 43.05, 91.47 91.47 M91.47 91.47 C68.63 91.47, 45.8 91.47, 0 91.47 M91.47 91.47 C68 91.47, 44.52 91.47, 0 91.47 M0 91.47 C0 60.82, 0 30.17, 0 0 M0 91.47 C0 65.35, 0 39.24, 0 0" stroke="#000000" stroke-width="1" fill="none"></path></g><g transform="translate(576.6225560703731 667.3998524423997) rotate(0 40.5 22.5)"><text x="40.5" y="32" font-family="Virgil, Segoe UI Emoji" font-size="36px" fill="#000000" text-anchor="middle" style="white-space: pre;" direction="ltr">6</text></g></svg>