<svg version="1.1" xmlns="http://www.w3.org/2000/svg" viewBox="0 0 668.9271714353649 409.8708990324076" width="668.9271714353649" height="409.8708990324076">
  <!-- svg-source:excalidraw -->
  
  <defs>
    <style class="style-fonts">
      @font-face {
        font-family: "Virgil";
        src: url("https://excalidraw.com/Virgil.woff2");
      }
      @font-face {
        font-family: "Cascadia";
        src: url("https://excalidraw.com/Cascadia.woff2");
      }
    </style>
  </defs>
  <rect x="0" y="0" width="668.9271714353649" height="409.8708990324076" fill="#ffffff"></rect><g stroke-linecap="round" transform="translate(106.1467313243653 10) rotate(0 38.300096842938046 38.300096842938046)"><path d="M0 0 C19.14 0, 38.29 0, 76.6 0 M0 0 C24.14 0, 48.28 0, 76.6 0 M76.6 0 C76.6 20.26, 76.6 40.52, 76.6 76.6 M76.6 0 C76.6 28.77, 76.6 57.54, 76.6 76.6 M76.6 76.6 C53.75 76.6, 30.9 76.6, 0 76.6 M76.6 76.6 C57.93 76.6, 39.25 76.6, 0 76.6 M0 76.6 C0 48.49, 0 20.38, 0 0 M0 76.6 C0 58.08, 0 39.57, 0 0" stroke="#000000" stroke-width="4" fill="none"></path></g><g transform="translate(119.94682816730335 25.800096842938046) rotate(0 24.5 22.5)"><text x="24.5" y="32" font-family="Virgil, Segoe UI Emoji" font-size="36px" fill="#000000" text-anchor="middle" style="white-space: pre;" direction="ltr">35</text></g><g stroke-linecap="round" transform="translate(199.7983379882619 10) rotate(0 38.300096842938046 38.300096842938046)"><path d="M0 0 C24.13 0, 48.25 0, 76.6 0 M0 0 C18.76 0, 37.51 0, 76.6 0 M76.6 0 C76.6 15.91, 76.6 31.83, 76.6 76.6 M76.6 0 C76.6 25.76, 76.6 51.51, 76.6 76.6 M76.6 76.6 C60.56 76.6, 44.52 76.6, 0 76.6 M76.6 76.6 C53.32 76.6, 30.05 76.6, 0 76.6 M0 76.6 C0 58.71, 0 40.83, 0 0 M0 76.6 C0 59.85, 0 43.09, 0 0" stroke="#000000" stroke-width="4" fill="none"></path></g><g transform="translate(220.09843483119994 25.800096842938046) rotate(0 18 22.5)"><text x="18" y="32" font-family="Virgil, Segoe UI Emoji" font-size="36px" fill="#000000" text-anchor="middle" style="white-space: pre;" direction="ltr">31</text></g><g stroke-linecap="round" transform="translate(293.4499446521585 10) rotate(0 38.300096842938046 38.300096842938046)"><path d="M0 0 C19.36 0, 38.71 0, 76.6 0 M0 0 C20.79 0, 41.58 0, 76.6 0 M76.6 0 C76.6 18.92, 76.6 37.84, 76.6 76.6 M76.6 0 C76.6 28.04, 76.6 56.07, 76.6 76.6 M76.6 76.6 C47.25 76.6, 17.9 76.6, 0 76.6 M76.6 76.6 C57.97 76.6, 39.34 76.6, 0 76.6 M0 76.6 C0 60.5, 0 44.41, 0 0 M0 76.6 C0 47.08, 0 17.55, 0 0" stroke="#000000" stroke-width="4" fill="none"></path></g><g transform="translate(306.7500414950965 25.800096842938046) rotate(0 25 22.5)"><text x="25" y="32" font-family="Virgil, Segoe UI Emoji" font-size="36px" fill="#000000" text-anchor="middle" style="white-space: pre;" direction="ltr">25</text></g><g stroke-linecap="round" transform="translate(387.10155131605507 10) rotate(0 38.300096842938046 38.300096842938046)"><path d="M0 0 C20.77 0, 41.54 0, 76.6 0 M0 0 C26.13 0, 52.26 0, 76.6 0 M76.6 0 C76.6 29.71, 76.6 59.42, 76.6 76.6 M76.6 0 C76.6 23.06, 76.6 46.11, 76.6 76.6 M76.6 76.6 C57.61 76.6, 38.62 76.6, 0 76.6 M76.6 76.6 C48.82 76.6, 21.04 76.6, 0 76.6 M0 76.6 C0 48.04, 0 19.47, 0 0 M0 76.6 C0 54.95, 0 33.29, 0 0" stroke="#000000" stroke-width="4" fill="none"></path></g><g transform="translate(408.4016481589929 25.800096842938046) rotate(0 17 22.5)"><text x="17" y="32" font-family="Virgil, Segoe UI Emoji" font-size="36px" fill="#000000" text-anchor="middle" style="white-space: pre;" direction="ltr">15</text></g><g stroke-linecap="round" transform="translate(480.753157979952 10) rotate(0 38.300096842938046 38.300096842938046)"><path d="M0 0 C29.82 0, 59.64 0, 76.6 0 M0 0 C24.07 0, 48.15 0, 76.6 0 M76.6 0 C76.6 30.42, 76.6 60.83, 76.6 76.6 M76.6 0 C76.6 26.15, 76.6 52.29, 76.6 76.6 M76.6 76.6 C50.34 76.6, 24.07 76.6, 0 76.6 M76.6 76.6 C47.7 76.6, 18.79 76.6, 0 76.6 M0 76.6 C0 56.78, 0 36.97, 0 0 M0 76.6 C0 52.45, 0 28.3, 0 0" stroke="#000000" stroke-width="4" fill="none"></path></g><g transform="translate(507.0532548228898 25.800096842938046) rotate(0 12 22.5)"><text x="12" y="32" font-family="Virgil, Segoe UI Emoji" font-size="36px" fill="#000000" text-anchor="middle" style="white-space: pre;" direction="ltr">5</text></g><g stroke-linecap="round"><g transform="translate(36.232943043108435 255.93283063093133) rotate(0 32.52884937345425 -0.5246588608621323)"><path d="M0 0 C10.84 -0.17, 54.21 -0.87, 65.06 -1.05 M0 0 C10.84 -0.17, 54.21 -0.87, 65.06 -1.05" stroke="#000000" stroke-width="4" fill="none"></path></g></g><g stroke-linecap="round"><g transform="translate(36.240914722274624 255.84515183885708) rotate(0 -13.120457361137312 -41.40421061207394)"><path d="M0 0 C-4.37 -13.8, -21.87 -69.01, -26.24 -82.81 M0 0 C-4.37 -13.8, -21.87 -69.01, -26.24 -82.81" stroke="#000000" stroke-width="4" fill="none"></path></g></g><g stroke-linecap="round"><g transform="translate(101.32910553436125 254.47735513009525) rotate(0 11.040612782774588 -41.041284892881436)"><path d="M0 0 C3.68 -13.68, 18.4 -68.4, 22.08 -82.08 M0 0 C3.68 -13.68, 18.4 -68.4, 22.08 -82.08" stroke="#000000" stroke-width="4" fill="none"></path></g></g><g transform="translate(50.48659329631187 124.09638981525029) rotate(0 19.60396244478261 11.607609342305466)"><text x="19.60396244478259" y="16.21521868461096" font-family="Virgil, Segoe UI Emoji" font-size="18.572174947688765px" fill="#000000" text-anchor="middle" style="white-space: pre;" direction="ltr">0-10</text></g><g stroke-linecap="round"><g transform="translate(214.73855648825997 255.93283063093133) rotate(0 32.52884937345425 -0.5246588608621323)"><path d="M0 0 C10.84 -0.17, 54.21 -0.87, 65.06 -1.05 M0 0 C10.84 -0.17, 54.21 -0.87, 65.06 -1.05" stroke="#000000" stroke-width="4" fill="none"></path></g></g><g stroke-linecap="round"><g transform="translate(214.74652816742616 255.84515183885708) rotate(0 -13.120457361137312 -41.40421061207394)"><path d="M0 0 C-4.37 -13.8, -21.87 -69.01, -26.24 -82.81 M0 0 C-4.37 -13.8, -21.87 -69.01, -26.24 -82.81" stroke="#000000" stroke-width="4" fill="none"></path></g></g><g stroke-linecap="round"><g transform="translate(279.8347189795128 254.47735513009525) rotate(0 11.040612782774588 -41.041284892881436)"><path d="M0 0 C3.68 -13.68, 18.4 -68.4, 22.08 -82.08 M0 0 C3.68 -13.68, 18.4 -68.4, 22.08 -82.08" stroke="#000000" stroke-width="4" fill="none"></path></g></g><g transform="translate(225.59616918624602 124.09638981525029) rotate(0 23 11.5)"><text x="23" y="16" font-family="Virgil, Segoe UI Emoji" font-size="18.572174947688765px" fill="#000000" text-anchor="middle" style="white-space: pre;" direction="ltr">11-20</text></g><g stroke-linecap="round"><g transform="translate(393.2441699334115 255.93283063093133) rotate(0 32.52884937345425 -0.5246588608621323)"><path d="M0 0 C10.84 -0.17, 54.21 -0.87, 65.06 -1.05 M0 0 C10.84 -0.17, 54.21 -0.87, 65.06 -1.05" stroke="#000000" stroke-width="4" fill="none"></path></g></g><g stroke-linecap="round"><g transform="translate(393.2521416125777 255.84515183885708) rotate(0 -13.120457361137312 -41.40421061207394)"><path d="M0 0 C-4.37 -13.8, -21.87 -69.01, -26.24 -82.81 M0 0 C-4.37 -13.8, -21.87 -69.01, -26.24 -82.81" stroke="#000000" stroke-width="4" fill="none"></path></g></g><g stroke-linecap="round"><g transform="translate(458.3403324246643 254.47735513009525) rotate(0 11.040612782774588 -41.041284892881436)"><path d="M0 0 C3.68 -13.68, 18.4 -68.4, 22.08 -82.08 M0 0 C3.68 -13.68, 18.4 -68.4, 22.08 -82.08" stroke="#000000" stroke-width="4" fill="none"></path></g></g><g transform="translate(396.60178263139755 124.09638981525029) rotate(0 30.5 11.5)"><text x="30.5" y="16" font-family="Virgil, Segoe UI Emoji" font-size="18.572174947688765px" fill="#000000" text-anchor="middle" style="white-space: pre;" direction="ltr">20-30</text></g><g stroke-linecap="round"><g transform="translate(571.7497833785633 255.93283063093133) rotate(0 32.52884937345425 -0.5246588608621323)"><path d="M0 0 C10.84 -0.17, 54.21 -0.87, 65.06 -1.05 M0 0 C10.84 -0.17, 54.21 -0.87, 65.06 -1.05" stroke="#000000" stroke-width="4" fill="none"></path></g></g><g stroke-linecap="round"><g transform="translate(571.7577550577294 255.84515183885708) rotate(0 -13.120457361137312 -41.40421061207394)"><path d="M0 0 C-4.37 -13.8, -21.87 -69.01, -26.24 -82.81 M0 0 C-4.37 -13.8, -21.87 -69.01, -26.24 -82.81" stroke="#000000" stroke-width="4" fill="none"></path></g></g><g stroke-linecap="round"><g transform="translate(636.8459458698158 254.47735513009536) rotate(0 11.040612782774588 -41.041284892881436)"><path d="M0 0 C3.68 -13.68, 18.4 -68.4, 22.08 -82.08 M0 0 C3.68 -13.68, 18.4 -68.4, 22.08 -82.08" stroke="#000000" stroke-width="4" fill="none"></path></g></g><g transform="translate(575.6073960765493 124.09638981525029) rotate(0 30 11.5)"><text x="30" y="16" font-family="Virgil, Segoe UI Emoji" font-size="18.572174947688765px" fill="#000000" text-anchor="middle" style="white-space: pre;" direction="ltr">30-40</text></g><g transform="translate(54.705165549955154 206.86032847861532) rotate(0 12 22.5)"><text x="12" y="32" font-family="Virgil, Segoe UI Emoji" font-size="36px" fill="#000000" text-anchor="middle" style="white-space: pre;" direction="ltr">5</text></g><g transform="translate(228.2107789951067 205.33410186508695) rotate(0 17 22.5)"><text x="17" y="32" font-family="Virgil, Segoe UI Emoji" font-size="36px" fill="#000000" text-anchor="middle" style="white-space: pre;" direction="ltr">15</text></g><g transform="translate(398.71639244025823 205.33410186508718) rotate(0 25 22.5)"><text x="25" y="32" font-family="Virgil, Segoe UI Emoji" font-size="36px" fill="#000000" text-anchor="middle" style="white-space: pre;" direction="ltr">25</text></g><g transform="translate(577.7220058854098 204.57098855832294) rotate(0 24.5 22.5)"><text x="24.5" y="32" font-family="Virgil, Segoe UI Emoji" font-size="36px" fill="#000000" text-anchor="middle" style="white-space: pre;" direction="ltr">35</text></g><g transform="translate(584.2220058854098 163.36286999305912) rotate(0 18 22.5)"><text x="18" y="32" font-family="Virgil, Segoe UI Emoji" font-size="36px" fill="#000000" text-anchor="middle" style="white-space: pre;" direction="ltr">31</text></g><g stroke-linecap="round" transform="translate(106.1467313243653 323.2707053465314) rotate(0 38.300096842938046 38.3000968429381)"><path d="M0 0 C18.69 0, 37.38 0, 76.6 0 M0 0 C20.46 0, 40.92 0, 76.6 0 M76.6 0 C76.6 16.77, 76.6 33.54, 76.6 76.6 M76.6 0 C76.6 23.3, 76.6 46.59, 76.6 76.6 M76.6 76.6 C51.17 76.6, 25.74 76.6, 0 76.6 M76.6 76.6 C60.72 76.6, 44.84 76.6, 0 76.6 M0 76.6 C0 58.42, 0 40.25, 0 0 M0 76.6 C0 50.82, 0 25.04, 0 0" stroke="#000000" stroke-width="4" fill="none"></path></g><g transform="translate(132.44682816730335 339.0708021894694) rotate(0 12 22.499999999999943)"><text x="12" y="32" font-family="Virgil, Segoe UI Emoji" font-size="36px" fill="#000000" text-anchor="middle" style="white-space: pre;" direction="ltr">5</text></g><g stroke-linecap="round" transform="translate(199.7983379882619 323.2707053465314) rotate(0 38.300096842938046 38.3000968429381)"><path d="M0 0 C26.05 0, 52.11 0, 76.6 0 M0 0 C18.41 0, 36.83 0, 76.6 0 M76.6 0 C76.6 17.59, 76.6 35.18, 76.6 76.6 M76.6 0 C76.6 27.65, 76.6 55.29, 76.6 76.6 M76.6 76.6 C46.55 76.6, 16.51 76.6, 0 76.6 M76.6 76.6 C50.02 76.6, 23.44 76.6, 0 76.6 M0 76.6 C0 54.33, 0 32.06, 0 0 M0 76.6 C0 49.98, 0 23.36, 0 0" stroke="#000000" stroke-width="4" fill="none"></path></g><g transform="translate(221.09843483119994 339.0708021894694) rotate(0 17 22.499999999999943)"><text x="17" y="32" font-family="Virgil, Segoe UI Emoji" font-size="36px" fill="#000000" text-anchor="middle" style="white-space: pre;" direction="ltr">15</text></g><g stroke-linecap="round" transform="translate(293.4499446521585 323.2707053465314) rotate(0 38.300096842938046 38.3000968429381)"><path d="M0 0 C26.58 0, 53.16 0, 76.6 0 M0 0 C22.27 0, 44.54 0, 76.6 0 M76.6 0 C76.6 26.62, 76.6 53.24, 76.6 76.6 M76.6 0 C76.6 21.99, 76.6 43.99, 76.6 76.6 M76.6 76.6 C57.12 76.6, 37.64 76.6, 0 76.6 M76.6 76.6 C47.22 76.6, 17.85 76.6, 0 76.6 M0 76.6 C0 52.75, 0 28.9, 0 0 M0 76.6 C0 56.5, 0 36.4, 0 0" stroke="#000000" stroke-width="4" fill="none"></path></g><g transform="translate(306.7500414950965 339.0708021894694) rotate(0 25 22.499999999999943)"><text x="25" y="32" font-family="Virgil, Segoe UI Emoji" font-size="36px" fill="#000000" text-anchor="middle" style="white-space: pre;" direction="ltr">25</text></g><g stroke-linecap="round" transform="translate(387.10155131605507 323.2707053465314) rotate(0 38.300096842938046 38.3000968429381)"><path d="M0 0 C27.58 0, 55.16 0, 76.6 0 M0 0 C20.88 0, 41.77 0, 76.6 0 M76.6 0 C76.6 16.17, 76.6 32.35, 76.6 76.6 M76.6 0 C76.6 22.19, 76.6 44.39, 76.6 76.6 M76.6 76.6 C48.7 76.6, 20.8 76.6, 0 76.6 M76.6 76.6 C49.63 76.6, 22.66 76.6, 0 76.6 M0 76.6 C0 54.4, 0 32.2, 0 0 M0 76.6 C0 52.77, 0 28.93, 0 0" stroke="#000000" stroke-width="4" fill="none"></path></g><g transform="translate(407.4016481589929 339.0708021894694) rotate(0 18 22.499999999999943)"><text x="18" y="32" font-family="Virgil, Segoe UI Emoji" font-size="36px" fill="#000000" text-anchor="middle" style="white-space: pre;" direction="ltr">31</text></g><g stroke-linecap="round" transform="translate(480.753157979952 323.2707053465314) rotate(0 38.300096842938046 38.3000968429381)"><path d="M0 0 C24.03 0, 48.05 0, 76.6 0 M0 0 C29.57 0, 59.15 0, 76.6 0 M76.6 0 C76.6 25.77, 76.6 51.54, 76.6 76.6 M76.6 0 C76.6 27.41, 76.6 54.83, 76.6 76.6 M76.6 76.6 C58.39 76.6, 40.18 76.6, 0 76.6 M76.6 76.6 C58.04 76.6, 39.48 76.6, 0 76.6 M0 76.6 C0 57.66, 0 38.73, 0 0 M0 76.6 C0 51.5, 0 26.39, 0 0" stroke="#000000" stroke-width="4" fill="none"></path></g><g transform="translate(494.5532548228898 339.0708021894694) rotate(0 24.5 22.499999999999943)"><text x="24.5" y="32" font-family="Virgil, Segoe UI Emoji" font-size="36px" fill="#000000" text-anchor="middle" style="white-space: pre;" direction="ltr">35</text></g></svg>