<svg version="1.1" xmlns="http://www.w3.org/2000/svg" viewBox="0 0 322.55544854635036 474.75000751209086" width="322.55544854635036" height="474.75000751209086">
  <!-- svg-source:excalidraw -->
  
  <defs>
    <style class="style-fonts">
      @font-face {
        font-family: "Virgil";
        src: url("https://excalidraw.com/Virgil.woff2");
      }
      @font-face {
        font-family: "Cascadia";
        src: url("https://excalidraw.com/Cascadia.woff2");
      }
    </style>
  </defs>
  <rect x="0" y="0" width="322.55544854635036" height="474.75000751209086" fill="#ffffff"></rect><g stroke-linecap="round" transform="translate(10 10) rotate(0 39.882309126564394 39.882309126564394)"><path d="M0 0 L79.76 0 L79.76 79.76 L0 79.76" stroke="none" stroke-width="0" fill="#40c057"></path><path d="M0 0 C23.44 0, 46.89 0, 79.76 0 M0 0 C20.53 0, 41.07 0, 79.76 0 M79.76 0 C79.76 28.84, 79.76 57.68, 79.76 79.76 M79.76 0 C79.76 24.76, 79.76 49.51, 79.76 79.76 M79.76 79.76 C51.54 79.76, 23.31 79.76, 0 79.76 M79.76 79.76 C53.99 79.76, 28.22 79.76, 0 79.76 M0 79.76 C0 55.24, 0 30.71, 0 0 M0 79.76 C0 59.83, 0 39.9, 0 0" stroke="#000000" stroke-width="4" fill="none"></path></g><g transform="translate(37.88230912656445 27.382309126564337) rotate(0 12 22.5)"><text x="12" y="32" font-family="Virgil, Segoe UI Emoji" font-size="36px" fill="#000000" text-anchor="middle" style="white-space: pre;" direction="ltr">5</text></g><g stroke-linecap="round" transform="translate(119.10332841519914 10) rotate(0 39.882309126564394 39.882309126564394)"><path d="M0 0 C26.46 0, 52.93 0, 79.76 0 M0 0 C31.04 0, 62.07 0, 79.76 0 M79.76 0 C79.76 27.42, 79.76 54.85, 79.76 79.76 M79.76 0 C79.76 16.36, 79.76 32.71, 79.76 79.76 M79.76 79.76 C52.7 79.76, 25.63 79.76, 0 79.76 M79.76 79.76 C55.92 79.76, 32.08 79.76, 0 79.76 M0 79.76 C0 54.62, 0 29.47, 0 0 M0 79.76 C0 54.93, 0 30.09, 0 0" stroke="#000000" stroke-width="4" fill="none"></path></g><g transform="translate(146.4856375417636 27.382309126564337) rotate(0 12.5 22.5)"><text x="12.5" y="32" font-family="Virgil, Segoe UI Emoji" font-size="36px" fill="#000000" text-anchor="middle" style="white-space: pre;" direction="ltr">4</text></g><g stroke-linecap="round" transform="translate(228.2066568303983 10) rotate(0 39.882309126564394 39.882309126564394)"><path d="M0 0 C22.61 0, 45.23 0, 79.76 0 M0 0 C30.68 0, 61.36 0, 79.76 0 M79.76 0 C79.76 27.17, 79.76 54.33, 79.76 79.76 M79.76 0 C79.76 29.59, 79.76 59.19, 79.76 79.76 M79.76 79.76 C51.18 79.76, 22.6 79.76, 0 79.76 M79.76 79.76 C62.52 79.76, 45.27 79.76, 0 79.76 M0 79.76 C0 61.3, 0 42.85, 0 0 M0 79.76 C0 55.03, 0 30.3, 0 0" stroke="#000000" stroke-width="4" fill="none"></path></g><g transform="translate(254.58896595696274 27.382309126564337) rotate(0 13.5 22.5)"><text x="13.5" y="32" font-family="Virgil, Segoe UI Emoji" font-size="36px" fill="#000000" text-anchor="middle" style="white-space: pre;" direction="ltr">3</text></g><g stroke-linecap="round" transform="translate(10.916834692564748 106.26764271929346) rotate(0 39.882309126564394 39.882309126564394)"><path d="M0 0 C20.67 0, 41.34 0, 79.76 0 M0 0 C29.34 0, 58.68 0, 79.76 0 M79.76 0 C79.76 21.8, 79.76 43.6, 79.76 79.76 M79.76 0 C79.76 29.23, 79.76 58.45, 79.76 79.76 M79.76 79.76 C60.49 79.76, 41.22 79.76, 0 79.76 M79.76 79.76 C53.95 79.76, 28.13 79.76, 0 79.76 M0 79.76 C0 62.73, 0 45.69, 0 0 M0 79.76 C0 49.52, 0 19.27, 0 0" stroke="#000000" stroke-width="4" fill="none"></path></g><g transform="translate(38.2991438191292 123.6499518458578) rotate(0 12.5 22.5)"><text x="12.5" y="32" font-family="Virgil, Segoe UI Emoji" font-size="36px" fill="#000000" text-anchor="middle" style="white-space: pre;" direction="ltr">4</text></g><g stroke-linecap="round" transform="translate(120.02016310776389 106.26764271929346) rotate(0 39.882309126564394 39.882309126564394)"><path d="M0 0 L79.76 0 L79.76 79.76 L0 79.76" stroke="none" stroke-width="0" fill="#40c057"></path><path d="M0 0 C24.67 0, 49.33 0, 79.76 0 M0 0 C23.66 0, 47.33 0, 79.76 0 M79.76 0 C79.76 28.01, 79.76 56.03, 79.76 79.76 M79.76 0 C79.76 19.38, 79.76 38.76, 79.76 79.76 M79.76 79.76 C62.84 79.76, 45.91 79.76, 0 79.76 M79.76 79.76 C63.77 79.76, 47.78 79.76, 0 79.76 M0 79.76 C0 50.19, 0 20.61, 0 0 M0 79.76 C0 61.68, 0 43.59, 0 0" stroke="#000000" stroke-width="4" fill="none"></path></g><g transform="translate(147.90247223432834 123.6499518458578) rotate(0 12 22.5)"><text x="12" y="32" font-family="Virgil, Segoe UI Emoji" font-size="36px" fill="#000000" text-anchor="middle" style="white-space: pre;" direction="ltr">5</text></g><g stroke-linecap="round" transform="translate(229.12349152296304 106.26764271929346) rotate(0 39.882309126564394 39.882309126564394)"><path d="M0 0 C27.3 0, 54.6 0, 79.76 0 M0 0 C29.46 0, 58.93 0, 79.76 0 M79.76 0 C79.76 17.37, 79.76 34.74, 79.76 79.76 M79.76 0 C79.76 24.68, 79.76 49.36, 79.76 79.76 M79.76 79.76 C55.2 79.76, 30.63 79.76, 0 79.76 M79.76 79.76 C50.75 79.76, 21.74 79.76, 0 79.76 M0 79.76 C0 59.17, 0 38.58, 0 0 M0 79.76 C0 50.25, 0 20.73, 0 0" stroke="#000000" stroke-width="4" fill="none"></path></g><g transform="translate(255.5058006495275 123.6499518458578) rotate(0 13.5 22.5)"><text x="13.5" y="32" font-family="Virgil, Segoe UI Emoji" font-size="36px" fill="#000000" text-anchor="middle" style="white-space: pre;" direction="ltr">3</text></g><g stroke-linecap="round" transform="translate(10.916834692564748 200.70161605345754) rotate(0 39.882309126564394 39.882309126564394)"><path d="M0 0 C30.44 0, 60.88 0, 79.76 0 M0 0 C22.91 0, 45.83 0, 79.76 0 M79.76 0 C79.76 17.52, 79.76 35.04, 79.76 79.76 M79.76 0 C79.76 17.09, 79.76 34.17, 79.76 79.76 M79.76 79.76 C59.62 79.76, 39.47 79.76, 0 79.76 M79.76 79.76 C57.42 79.76, 35.08 79.76, 0 79.76 M0 79.76 C0 59.98, 0 40.19, 0 0 M0 79.76 C0 54.77, 0 29.77, 0 0" stroke="#000000" stroke-width="4" fill="none"></path></g><g transform="translate(38.2991438191292 218.08392518002188) rotate(0 12.5 22.5)"><text x="12.5" y="32" font-family="Virgil, Segoe UI Emoji" font-size="36px" fill="#000000" text-anchor="middle" style="white-space: pre;" direction="ltr">4</text></g><g stroke-linecap="round" transform="translate(120.02016310776389 200.70161605345754) rotate(0 39.882309126564394 39.882309126564394)"><path d="M0 0 C23.24 0, 46.49 0, 79.76 0 M0 0 C22.23 0, 44.45 0, 79.76 0 M79.76 0 C79.76 24.23, 79.76 48.47, 79.76 79.76 M79.76 0 C79.76 21.62, 79.76 43.24, 79.76 79.76 M79.76 79.76 C50.55 79.76, 21.33 79.76, 0 79.76 M79.76 79.76 C50.59 79.76, 21.42 79.76, 0 79.76 M0 79.76 C0 58.18, 0 36.6, 0 0 M0 79.76 C0 50.24, 0 20.72, 0 0" stroke="#000000" stroke-width="4" fill="none"></path></g><g transform="translate(146.40247223432834 218.08392518002188) rotate(0 13.5 22.5)"><text x="13.5" y="32" font-family="Virgil, Segoe UI Emoji" font-size="36px" fill="#000000" text-anchor="middle" style="white-space: pre;" direction="ltr">3</text></g><g stroke-linecap="round" transform="translate(229.12349152296304 200.70161605345754) rotate(0 39.882309126564394 39.882309126564394)"><path d="M0 0 L79.76 0 L79.76 79.76 L0 79.76" stroke="none" stroke-width="0" fill="#40c057"></path><path d="M0 0 C31.53 0, 63.07 0, 79.76 0 M0 0 C22.12 0, 44.24 0, 79.76 0 M79.76 0 C79.76 27.89, 79.76 55.79, 79.76 79.76 M79.76 0 C79.76 22.45, 79.76 44.91, 79.76 79.76 M79.76 79.76 C56.06 79.76, 32.35 79.76, 0 79.76 M79.76 79.76 C49.29 79.76, 18.81 79.76, 0 79.76 M0 79.76 C0 54.55, 0 29.35, 0 0 M0 79.76 C0 55.58, 0 31.39, 0 0" stroke="#000000" stroke-width="4" fill="none"></path></g><g transform="translate(257.0058006495275 218.08392518002188) rotate(0 12 22.5)"><text x="12" y="32" font-family="Virgil, Segoe UI Emoji" font-size="36px" fill="#000000" text-anchor="middle" style="white-space: pre;" direction="ltr">5</text></g><g stroke-linecap="round" transform="translate(13.667338770258766 294.2187546950569) rotate(0 39.882309126564394 39.882309126564394)"><path d="M0 0 C16.87 0, 33.74 0, 79.76 0 M0 0 C27.38 0, 54.76 0, 79.76 0 M79.76 0 C79.76 30.63, 79.76 61.26, 79.76 79.76 M79.76 0 C79.76 29.77, 79.76 59.54, 79.76 79.76 M79.76 79.76 C51.12 79.76, 22.48 79.76, 0 79.76 M79.76 79.76 C50.35 79.76, 20.94 79.76, 0 79.76 M0 79.76 C0 49.56, 0 19.35, 0 0 M0 79.76 C0 62.17, 0 44.57, 0 0" stroke="#000000" stroke-width="4" fill="none"></path></g><g transform="translate(41.04964789682322 311.6010638216212) rotate(0 12.5 22.5)"><text x="12.5" y="32" font-family="Virgil, Segoe UI Emoji" font-size="36px" fill="#000000" text-anchor="middle" style="white-space: pre;" direction="ltr">4</text></g><g stroke-linecap="round" transform="translate(122.77066718545791 294.2187546950569) rotate(0 39.882309126564394 39.882309126564394)"><path d="M0 0 L79.76 0 L79.76 79.76 L0 79.76" stroke="none" stroke-width="0" fill="#fa5252"></path><path d="M0 0 C27.43 0, 54.85 0, 79.76 0 M0 0 C31.6 0, 63.19 0, 79.76 0 M79.76 0 C79.76 16.1, 79.76 32.21, 79.76 79.76 M79.76 0 C79.76 31.22, 79.76 62.44, 79.76 79.76 M79.76 79.76 C56.21 79.76, 32.66 79.76, 0 79.76 M79.76 79.76 C55.87 79.76, 31.98 79.76, 0 79.76 M0 79.76 C0 50.24, 0 20.71, 0 0 M0 79.76 C0 59.51, 0 39.26, 0 0" stroke="#000000" stroke-width="4" fill="none"></path></g><g transform="translate(149.15297631202236 311.6010638216212) rotate(0 13.5 22.5)"><text x="13.5" y="32" font-family="Virgil, Segoe UI Emoji" font-size="36px" fill="#000000" text-anchor="middle" style="white-space: pre;" direction="ltr">3</text></g><g stroke-linecap="round" transform="translate(231.87399560065705 294.2187546950569) rotate(0 39.88230912656445 39.882309126564394)"><path d="M0 0 C17.81 0, 35.61 0, 79.76 0 M0 0 C27.4 0, 54.8 0, 79.76 0 M79.76 0 C79.76 20.36, 79.76 40.73, 79.76 79.76 M79.76 0 C79.76 19.34, 79.76 38.68, 79.76 79.76 M79.76 79.76 C52.93 79.76, 26.1 79.76, 0 79.76 M79.76 79.76 C63.67 79.76, 47.58 79.76, 0 79.76 M0 79.76 C0 59.48, 0 39.21, 0 0 M0 79.76 C0 59.01, 0 38.26, 0 0" stroke="#000000" stroke-width="4" fill="none"></path></g><g transform="translate(259.7563047272215 311.6010638216212) rotate(0 12 22.5)"><text x="12" y="32" font-family="Virgil, Segoe UI Emoji" font-size="36px" fill="#000000" text-anchor="middle" style="white-space: pre;" direction="ltr">5</text></g><g stroke-linecap="round" transform="translate(14.5841734628234 384.9853892589621) rotate(0 39.882309126564394 39.882309126564394)"><path d="M0 0 C19.57 0, 39.15 0, 79.76 0 M0 0 C17.47 0, 34.94 0, 79.76 0 M79.76 0 C79.76 19.13, 79.76 38.26, 79.76 79.76 M79.76 0 C79.76 18.86, 79.76 37.72, 79.76 79.76 M79.76 79.76 C49.62 79.76, 19.47 79.76, 0 79.76 M79.76 79.76 C58.8 79.76, 37.83 79.76, 0 79.76 M0 79.76 C0 50.3, 0 20.83, 0 0 M0 79.76 C0 59.8, 0 39.83, 0 0" stroke="#000000" stroke-width="4" fill="none"></path></g><g transform="translate(40.96648258938785 402.3676983855265) rotate(0 13.5 22.5)"><text x="13.5" y="32" font-family="Virgil, Segoe UI Emoji" font-size="36px" fill="#000000" text-anchor="middle" style="white-space: pre;" direction="ltr">3</text></g><g stroke-linecap="round" transform="translate(123.68750187802254 384.9853892589621) rotate(0 39.882309126564394 39.882309126564394)"><path d="M0 0 C24.85 0, 49.69 0, 79.76 0 M0 0 C29.74 0, 59.48 0, 79.76 0 M79.76 0 C79.76 30.12, 79.76 60.24, 79.76 79.76 M79.76 0 C79.76 26.9, 79.76 53.79, 79.76 79.76 M79.76 79.76 C54.78 79.76, 29.79 79.76, 0 79.76 M79.76 79.76 C56.09 79.76, 32.41 79.76, 0 79.76 M0 79.76 C0 50.67, 0 21.58, 0 0 M0 79.76 C0 58.19, 0 36.61, 0 0" stroke="#000000" stroke-width="4" fill="none"></path></g><g transform="translate(151.069811004587 402.3676983855265) rotate(0 12.5 22.5)"><text x="12.5" y="32" font-family="Virgil, Segoe UI Emoji" font-size="36px" fill="#000000" text-anchor="middle" style="white-space: pre;" direction="ltr">4</text></g><g stroke-linecap="round" transform="translate(232.7908302932217 384.9853892589621) rotate(0 39.88230912656434 39.882309126564394)"><path d="M0 0 C16.04 0, 32.09 0, 79.76 0 M0 0 C21.59 0, 43.17 0, 79.76 0 M79.76 0 C79.76 19.4, 79.76 38.8, 79.76 79.76 M79.76 0 C79.76 28.23, 79.76 56.46, 79.76 79.76 M79.76 79.76 C60.34 79.76, 40.91 79.76, 0 79.76 M79.76 79.76 C49.87 79.76, 19.97 79.76, 0 79.76 M0 79.76 C0 60.02, 0 40.28, 0 0 M0 79.76 C0 51.37, 0 22.98, 0 0" stroke="#000000" stroke-width="4" fill="none"></path></g><g transform="translate(260.67313941978614 402.3676983855264) rotate(0 12 22.5)"><text x="12" y="32" font-family="Virgil, Segoe UI Emoji" font-size="36px" fill="#000000" text-anchor="middle" style="white-space: pre;" direction="ltr">5</text></g></svg>