<svg version="1.1" xmlns="http://www.w3.org/2000/svg" viewBox="0 0 909.5578469818627 739.8710553573084" width="909.5578469818627" height="739.8710553573084">
  <!-- svg-source:excalidraw -->
  
  <defs>
    <style>
      @font-face {
        font-family: "Virgil";
        src: url("https://excalidraw.com/Virgil.woff2");
      }
      @font-face {
        font-family: "Cascadia";
        src: url("https://excalidraw.com/Cascadia.woff2");
      }
    </style>
  </defs>
  <rect x="0" y="0" width="909.5578469818627" height="739.8710553573084" fill="#ffffff"></rect><g stroke-linecap="round" transform="translate(10 65.02522914832241) rotate(0 45.73289361759271 45.73289361759271)"><path d="M0 0 C21.1 0, 42.21 0, 91.47 0 M0 0 C18.62 0, 37.23 0, 91.47 0 M91.47 0 C91.47 23.82, 91.47 47.64, 91.47 91.47 M91.47 0 C91.47 29.1, 91.47 58.19, 91.47 91.47 M91.47 91.47 C59.47 91.47, 27.48 91.47, 0 91.47 M91.47 91.47 C69.31 91.47, 47.16 91.47, 0 91.47 M0 91.47 C0 56.78, 0 22.09, 0 0 M0 91.47 C0 58.74, 0 26.01, 0 0" stroke="#000000" stroke-width="1" fill="none"></path></g><g stroke-linecap="round" transform="translate(121.02109483946606 63.75812276591512) rotate(0 46 47)"><path d="M0 0 C27.39 0, 54.77 0, 92 0 M0 0 C25.8 0, 51.59 0, 92 0 M92 0 C92 19.69, 92 39.38, 92 94 M92 0 C92 25.41, 92 50.83, 92 94 M92 94 C62.35 94, 32.7 94, 0 94 M92 94 C62.94 94, 33.87 94, 0 94 M0 94 C0 61.89, 0 29.78, 0 0 M0 94 C0 58.84, 0 23.68, 0 0" stroke="#000000" stroke-width="1" fill="none"></path></g><g stroke-linecap="round" transform="translate(343.59749728321276 65.02522914832241) rotate(0 45.73289361759271 45.73289361759271)"><path d="M0 0 C29.29 0, 58.57 0, 91.47 0 M0 0 C29.63 0, 59.27 0, 91.47 0 M91.47 0 C91.47 21.79, 91.47 43.58, 91.47 91.47 M91.47 0 C91.47 20.82, 91.47 41.63, 91.47 91.47 M91.47 91.47 C57.28 91.47, 23.1 91.47, 0 91.47 M91.47 91.47 C58.73 91.47, 26 91.47, 0 91.47 M0 91.47 C0 67.94, 0 44.42, 0 0 M0 91.47 C0 68.88, 0 46.3, 0 0" stroke="#000000" stroke-width="1" fill="none"></path></g><g stroke-linecap="round" transform="translate(232.5764024437467 65.02522914832241) rotate(0 45.73289361759271 45.73289361759271)"><path d="M0 0 C33.92 0, 67.85 0, 91.47 0 M0 0 C31.94 0, 63.87 0, 91.47 0 M91.47 0 C91.47 22.36, 91.47 44.71, 91.47 91.47 M91.47 0 C91.47 34.73, 91.47 69.46, 91.47 91.47 M91.47 91.47 C70.72 91.47, 49.97 91.47, 0 91.47 M91.47 91.47 C61.01 91.47, 30.55 91.47, 0 91.47 M0 91.47 C0 66.44, 0 41.42, 0 0 M0 91.47 C0 62.55, 0 33.64, 0 0" stroke="#000000" stroke-width="1" fill="none"></path></g><g transform="translate(15 88.25812276591512) rotate(0 40.5 22.5)"><text x="40.5" y="32" font-family="Virgil, Segoe UI Emoji" font-size="36px" fill="#000000" text-anchor="middle" style="white-space: pre;" direction="ltr">6</text></g><g transform="translate(126.02109483946606 88.25812276591512) rotate(0 41 22.5)"><text x="41" y="32" font-family="Virgil, Segoe UI Emoji" font-size="36px" fill="#000000" text-anchor="middle" style="white-space: pre;" direction="ltr">5</text></g><g transform="translate(348.59749728321276 88.25812276591512) rotate(0 40.5 22.5)"><text x="40.5" y="32" font-family="Virgil, Segoe UI Emoji" font-size="36px" fill="#000000" text-anchor="middle" style="white-space: pre;" direction="ltr">3</text></g><g transform="translate(237.5764024437467 88.25812276591512) rotate(0 40.5 22.5)"><text x="40.5" y="32" font-family="Virgil, Segoe UI Emoji" font-size="36px" fill="#000000" text-anchor="middle" style="white-space: pre;" direction="ltr">4</text></g><g stroke-linecap="round" transform="translate(454.6185921226788 65.02522914832241) rotate(0 45.73289361759271 45.73289361759271)"><path d="M0 0 C21.99 0, 43.97 0, 91.47 0 M0 0 C24.51 0, 49.03 0, 91.47 0 M91.47 0 C91.47 18.72, 91.47 37.44, 91.47 91.47 M91.47 0 C91.47 23.54, 91.47 47.09, 91.47 91.47 M91.47 91.47 C67.7 91.47, 43.94 91.47, 0 91.47 M91.47 91.47 C61.74 91.47, 32.01 91.47, 0 91.47 M0 91.47 C0 65.27, 0 39.08, 0 0 M0 91.47 C0 68.33, 0 45.19, 0 0" stroke="#000000" stroke-width="1" fill="none"></path></g><g transform="translate(459.6185921226788 88.25812276591512) rotate(0 40.5 22.5)"><text x="40.5" y="32" font-family="Virgil, Segoe UI Emoji" font-size="36px" fill="#000000" text-anchor="middle" style="white-space: pre;" direction="ltr">2</text></g><g stroke-linecap="round" transform="translate(565.6396869621449 65.02522914832241) rotate(0 45.73289361759271 45.73289361759271)"><path d="M0 0 C33.71 0, 67.41 0, 91.47 0 M0 0 C27.99 0, 55.98 0, 91.47 0 M91.47 0 C91.47 19.08, 91.47 38.16, 91.47 91.47 M91.47 0 C91.47 27.16, 91.47 54.32, 91.47 91.47 M91.47 91.47 C64.26 91.47, 37.05 91.47, 0 91.47 M91.47 91.47 C56.41 91.47, 21.35 91.47, 0 91.47 M0 91.47 C0 58.04, 0 24.62, 0 0 M0 91.47 C0 64.29, 0 37.12, 0 0" stroke="#000000" stroke-width="1" fill="none"></path></g><g transform="translate(570.6396869621449 88.25812276591512) rotate(0 40.5 22.5)"><text x="40.5" y="32" font-family="Virgil, Segoe UI Emoji" font-size="36px" fill="#000000" text-anchor="middle" style="white-space: pre;" direction="ltr">1</text></g><g transform="translate(45.66118855224113 10) rotate(0 13 22.5)"><text x="0" y="32" font-family="Virgil, Segoe UI Emoji" font-size="36px" fill="#000000" text-anchor="start" style="white-space: pre;" direction="ltr">0</text></g><g transform="translate(155.79346297828056 10) rotate(0 5.5 22.5)"><text x="0" y="32" font-family="Virgil, Segoe UI Emoji" font-size="36px" fill="#000000" text-anchor="start" style="white-space: pre;" direction="ltr">1</text></g><g transform="translate(265.92573740431976 11.866648719085447) rotate(0 13.5 22.5)"><text x="0" y="32" font-family="Virgil, Segoe UI Emoji" font-size="36px" fill="#000000" text-anchor="start" style="white-space: pre;" direction="ltr">2</text></g><g transform="translate(376.0580118303592 13.73329743817078) rotate(0 13 22.5)"><text x="0" y="32" font-family="Virgil, Segoe UI Emoji" font-size="36px" fill="#000000" text-anchor="start" style="white-space: pre;" direction="ltr">3</text></g><g transform="translate(488.05693497548395 11.866648719085447) rotate(0 12 22.5)"><text x="0" y="32" font-family="Virgil, Segoe UI Emoji" font-size="36px" fill="#000000" text-anchor="start" style="white-space: pre;" direction="ltr">4</text></g><g transform="translate(600.0558581206087 11.866648719085447) rotate(0 11.5 22.5)"><text x="0" y="32" font-family="Virgil, Segoe UI Emoji" font-size="36px" fill="#000000" text-anchor="start" style="white-space: pre;" direction="ltr">5</text></g><g stroke-linecap="round" transform="translate(11.196573821645643 181.80154377966494) rotate(0 45.73289361759271 45.73289361759271)"><path d="M0 0 L91.47 0 L91.47 91.47 L0 91.47" stroke="none" stroke-width="0" fill="#82c91e"></path><path d="M0 0 C29.13 0, 58.26 0, 91.47 0 M0 0 C28.24 0, 56.49 0, 91.47 0 M91.47 0 C91.47 22.37, 91.47 44.75, 91.47 91.47 M91.47 0 C91.47 19.97, 91.47 39.94, 91.47 91.47 M91.47 91.47 C69.96 91.47, 48.46 91.47, 0 91.47 M91.47 91.47 C58.75 91.47, 26.03 91.47, 0 91.47 M0 91.47 C0 62.16, 0 32.86, 0 0 M0 91.47 C0 58.64, 0 25.81, 0 0" stroke="#000000" stroke-width="1" fill="none"></path></g><g stroke-linecap="round" transform="translate(122.2176686611117 180.53443739725765) rotate(0 46 47)"><path d="M0 0 L92 0 L92 94 L0 94" stroke="none" stroke-width="0" fill="#228be6"></path><path d="M0 0 C28.15 0, 56.3 0, 92 0 M0 0 C22.02 0, 44.03 0, 92 0 M92 0 C92 30.86, 92 61.71, 92 94 M92 0 C92 26.81, 92 53.61, 92 94 M92 94 C73.03 94, 54.05 94, 0 94 M92 94 C59.16 94, 26.32 94, 0 94 M0 94 C0 56.83, 0 19.65, 0 0 M0 94 C0 69.41, 0 44.81, 0 0" stroke="#000000" stroke-width="1" fill="none"></path></g><g stroke-linecap="round" transform="translate(344.7940711048584 181.80154377966494) rotate(0 45.73289361759271 45.73289361759271)"><path d="M0 0 C26.64 0, 53.28 0, 91.47 0 M0 0 C29.21 0, 58.43 0, 91.47 0 M91.47 0 C91.47 25.96, 91.47 51.92, 91.47 91.47 M91.47 0 C91.47 35.66, 91.47 71.31, 91.47 91.47 M91.47 91.47 C55.01 91.47, 18.55 91.47, 0 91.47 M91.47 91.47 C72.51 91.47, 53.55 91.47, 0 91.47 M0 91.47 C0 62.57, 0 33.67, 0 0 M0 91.47 C0 59.11, 0 26.75, 0 0" stroke="#000000" stroke-width="1" fill="none"></path></g><g stroke-linecap="round" transform="translate(233.77297626539234 181.80154377966494) rotate(0 45.73289361759271 45.73289361759271)"><path d="M0 0 C36.3 0, 72.6 0, 91.47 0 M0 0 C28.71 0, 57.41 0, 91.47 0 M91.47 0 C91.47 23.69, 91.47 47.38, 91.47 91.47 M91.47 0 C91.47 24.89, 91.47 49.78, 91.47 91.47 M91.47 91.47 C56.28 91.47, 21.09 91.47, 0 91.47 M91.47 91.47 C71.02 91.47, 50.57 91.47, 0 91.47 M0 91.47 C0 65.9, 0 40.34, 0 0 M0 91.47 C0 61.73, 0 32, 0 0" stroke="#000000" stroke-width="1" fill="none"></path></g><g transform="translate(16.196573821645643 205.03443739725765) rotate(0 40.5 22.5)"><text x="40.5" y="32" font-family="Virgil, Segoe UI Emoji" font-size="36px" fill="#000000" text-anchor="middle" style="white-space: pre;" direction="ltr">6</text></g><g transform="translate(127.2176686611117 205.03443739725765) rotate(0 41 22.5)"><text x="41" y="32" font-family="Virgil, Segoe UI Emoji" font-size="36px" fill="#000000" text-anchor="middle" style="white-space: pre;" direction="ltr">5</text></g><g transform="translate(349.7940711048584 205.03443739725765) rotate(0 40.5 22.5)"><text x="40.5" y="32" font-family="Virgil, Segoe UI Emoji" font-size="36px" fill="#000000" text-anchor="middle" style="white-space: pre;" direction="ltr">3</text></g><g transform="translate(238.77297626539234 205.03443739725765) rotate(0 40.5 22.5)"><text x="40.5" y="32" font-family="Virgil, Segoe UI Emoji" font-size="36px" fill="#000000" text-anchor="middle" style="white-space: pre;" direction="ltr">4</text></g><g stroke-linecap="round" transform="translate(455.81516594432446 181.80154377966494) rotate(0 45.73289361759271 45.73289361759271)"><path d="M0 0 L91.47 0 L91.47 91.47 L0 91.47" stroke="none" stroke-width="0" fill="#82c91e"></path><path d="M0 0 C25.04 0, 50.09 0, 91.47 0 M0 0 C29.39 0, 58.78 0, 91.47 0 M91.47 0 C91.47 22.59, 91.47 45.19, 91.47 91.47 M91.47 0 C91.47 35.96, 91.47 71.92, 91.47 91.47 M91.47 91.47 C62.58 91.47, 33.69 91.47, 0 91.47 M91.47 91.47 C58.21 91.47, 24.95 91.47, 0 91.47 M0 91.47 C0 63.05, 0 34.63, 0 0 M0 91.47 C0 67.26, 0 43.06, 0 0" stroke="#000000" stroke-width="1" fill="none"></path></g><g transform="translate(460.81516594432446 205.03443739725765) rotate(0 40.5 22.5)"><text x="40.5" y="32" font-family="Virgil, Segoe UI Emoji" font-size="36px" fill="#000000" text-anchor="middle" style="white-space: pre;" direction="ltr">2</text></g><g stroke-linecap="round" transform="translate(566.8362607837905 181.80154377966494) rotate(0 45.73289361759271 45.73289361759271)"><path d="M0 0 L91.47 0 L91.47 91.47 L0 91.47" stroke="none" stroke-width="0" fill="#15aabf"></path><path d="M0 0 C32.95 0, 65.9 0, 91.47 0 M0 0 C34.25 0, 68.5 0, 91.47 0 M91.47 0 C91.47 35.44, 91.47 70.87, 91.47 91.47 M91.47 0 C91.47 20.1, 91.47 40.2, 91.47 91.47 M91.47 91.47 C57.81 91.47, 24.15 91.47, 0 91.47 M91.47 91.47 C65.79 91.47, 40.11 91.47, 0 91.47 M0 91.47 C0 56.49, 0 21.51, 0 0 M0 91.47 C0 60.41, 0 29.36, 0 0" stroke="#000000" stroke-width="1" fill="none"></path></g><g transform="translate(571.8362607837905 205.03443739725765) rotate(0 40.5 22.5)"><text x="40.5" y="32" font-family="Virgil, Segoe UI Emoji" font-size="36px" fill="#000000" text-anchor="middle" style="white-space: pre;" direction="ltr">1</text></g><g transform="translate(691.5578469818627 207.3400202876984) rotate(0 101.5 22.5)"><text x="0" y="32" font-family="Virgil, Segoe UI Emoji" font-size="36px" fill="#000000" text-anchor="start" style="white-space: pre;" direction="ltr">6 / 1.3 = 4</text></g><g stroke-linecap="round" transform="translate(11.196573821645643 298.69392928582727) rotate(0 45.73289361759271 45.73289361759271)"><path d="M0 0 L91.47 0 L91.47 91.47 L0 91.47" stroke="none" stroke-width="0" fill="#82c91e"></path><path d="M0 0 C35.16 0, 70.32 0, 91.47 0 M0 0 C23.86 0, 47.71 0, 91.47 0 M91.47 0 C91.47 21.63, 91.47 43.26, 91.47 91.47 M91.47 0 C91.47 19.45, 91.47 38.91, 91.47 91.47 M91.47 91.47 C64.2 91.47, 36.94 91.47, 0 91.47 M91.47 91.47 C63.6 91.47, 35.74 91.47, 0 91.47 M0 91.47 C0 59.35, 0 27.22, 0 0 M0 91.47 C0 64.74, 0 38.01, 0 0" stroke="#000000" stroke-width="1" fill="none"></path></g><g stroke-linecap="round" transform="translate(122.2176686611117 297.42682290342) rotate(0 46 47)"><path d="M0 0 L92 0 L92 94 L0 94" stroke="none" stroke-width="0" fill="#15aabf"></path><path d="M0 0 C25.19 0, 50.37 0, 92 0 M0 0 C36.56 0, 73.11 0, 92 0 M92 0 C92 18.91, 92 37.83, 92 94 M92 0 C92 35.03, 92 70.06, 92 94 M92 94 C56.65 94, 21.3 94, 0 94 M92 94 C68.59 94, 45.17 94, 0 94 M0 94 C0 58.29, 0 22.57, 0 0 M0 94 C0 73.01, 0 52.02, 0 0" stroke="#000000" stroke-width="1" fill="none"></path></g><g stroke-linecap="round" transform="translate(344.7940711048584 298.69392928582727) rotate(0 45.73289361759271 45.73289361759271)"><path d="M0 0 L91.47 0 L91.47 91.47 L0 91.47" stroke="none" stroke-width="0" fill="#82c91e"></path><path d="M0 0 C30.17 0, 60.34 0, 91.47 0 M0 0 C19.54 0, 39.08 0, 91.47 0 M91.47 0 C91.47 33.93, 91.47 67.86, 91.47 91.47 M91.47 0 C91.47 19.36, 91.47 38.71, 91.47 91.47 M91.47 91.47 C69.63 91.47, 47.79 91.47, 0 91.47 M91.47 91.47 C58.76 91.47, 26.06 91.47, 0 91.47 M0 91.47 C0 67.21, 0 42.94, 0 0 M0 91.47 C0 67.97, 0 44.48, 0 0" stroke="#000000" stroke-width="1" fill="none"></path></g><g stroke-linecap="round" transform="translate(233.77297626539234 298.69392928582727) rotate(0 45.73289361759271 45.73289361759271)"><path d="M0 0 L91.47 0 L91.47 91.47 L0 91.47" stroke="none" stroke-width="0" fill="#fab005"></path><path d="M0 0 C33.61 0, 67.23 0, 91.47 0 M0 0 C18.96 0, 37.93 0, 91.47 0 M91.47 0 C91.47 30.69, 91.47 61.38, 91.47 91.47 M91.47 0 C91.47 23.07, 91.47 46.14, 91.47 91.47 M91.47 91.47 C70.76 91.47, 50.06 91.47, 0 91.47 M91.47 91.47 C58.41 91.47, 25.35 91.47, 0 91.47 M0 91.47 C0 59.73, 0 27.99, 0 0 M0 91.47 C0 58.04, 0 24.61, 0 0" stroke="#000000" stroke-width="1" fill="none"></path></g><g transform="translate(16.196573821645643 321.92682290342) rotate(0 40.5 22.5)"><text x="40.5" y="32" font-family="Virgil, Segoe UI Emoji" font-size="36px" fill="#000000" text-anchor="middle" style="white-space: pre;" direction="ltr">2</text></g><g transform="translate(127.2176686611117 321.92682290342) rotate(0 41 22.5)"><text x="41" y="32" font-family="Virgil, Segoe UI Emoji" font-size="36px" fill="#000000" text-anchor="middle" style="white-space: pre;" direction="ltr">1</text></g><g transform="translate(349.7940711048584 321.92682290342) rotate(0 40.5 22.5)"><text x="40.5" y="32" font-family="Virgil, Segoe UI Emoji" font-size="36px" fill="#000000" text-anchor="middle" style="white-space: pre;" direction="ltr">3</text></g><g transform="translate(238.77297626539234 321.92682290342) rotate(0 40.5 22.5)"><text x="40.5" y="32" font-family="Virgil, Segoe UI Emoji" font-size="36px" fill="#000000" text-anchor="middle" style="white-space: pre;" direction="ltr">4</text></g><g stroke-linecap="round" transform="translate(455.81516594432446 298.69392928582727) rotate(0 45.73289361759271 45.73289361759271)"><path d="M0 0 L91.47 0 L91.47 91.47 L0 91.47" stroke="none" stroke-width="0" fill="#15aabf"></path><path d="M0 0 C31.91 0, 63.82 0, 91.47 0 M0 0 C27.9 0, 55.8 0, 91.47 0 M91.47 0 C91.47 25.22, 91.47 50.44, 91.47 91.47 M91.47 0 C91.47 20.37, 91.47 40.74, 91.47 91.47 M91.47 91.47 C65.77 91.47, 40.08 91.47, 0 91.47 M91.47 91.47 C62.95 91.47, 34.44 91.47, 0 91.47 M0 91.47 C0 59.79, 0 28.11, 0 0 M0 91.47 C0 61.5, 0 31.53, 0 0" stroke="#000000" stroke-width="1" fill="none"></path></g><g transform="translate(460.81516594432446 321.92682290342) rotate(0 40.5 22.5)"><text x="40.5" y="32" font-family="Virgil, Segoe UI Emoji" font-size="36px" fill="#000000" text-anchor="middle" style="white-space: pre;" direction="ltr">6</text></g><g stroke-linecap="round" transform="translate(566.8362607837905 298.69392928582727) rotate(0 45.73289361759271 45.73289361759271)"><path d="M0 0 L91.47 0 L91.47 91.47 L0 91.47" stroke="none" stroke-width="0" fill="#fab005"></path><path d="M0 0 C19.38 0, 38.76 0, 91.47 0 M0 0 C25.98 0, 51.96 0, 91.47 0 M91.47 0 C91.47 31.13, 91.47 62.25, 91.47 91.47 M91.47 0 C91.47 21.53, 91.47 43.05, 91.47 91.47 M91.47 91.47 C58.16 91.47, 24.85 91.47, 0 91.47 M91.47 91.47 C58.01 91.47, 24.54 91.47, 0 91.47 M0 91.47 C0 71.76, 0 52.05, 0 0 M0 91.47 C0 65.77, 0 40.07, 0 0" stroke="#000000" stroke-width="1" fill="none"></path></g><g transform="translate(571.8362607837905 321.92682290342) rotate(0 40.5 22.5)"><text x="40.5" y="32" font-family="Virgil, Segoe UI Emoji" font-size="36px" fill="#000000" text-anchor="middle" style="white-space: pre;" direction="ltr">5</text></g><g transform="translate(691.5578469818627 324.2324057938607) rotate(0 102.5 22.5)"><text x="0" y="32" font-family="Virgil, Segoe UI Emoji" font-size="36px" fill="#000000" text-anchor="start" style="white-space: pre;" direction="ltr">4 / 1.3 = 3</text></g><g stroke-linecap="round" transform="translate(12.555787606600916 415.5863147919896) rotate(0 45.73289361759271 45.73289361759271)"><path d="M0 0 L91.47 0 L91.47 91.47 L0 91.47" stroke="none" stroke-width="0" fill="#82c91e"></path><path d="M0 0 C35.12 0, 70.23 0, 91.47 0 M0 0 C26.09 0, 52.18 0, 91.47 0 M91.47 0 C91.47 32.14, 91.47 64.27, 91.47 91.47 M91.47 0 C91.47 21.29, 91.47 42.57, 91.47 91.47 M91.47 91.47 C70.3 91.47, 49.14 91.47, 0 91.47 M91.47 91.47 C57.88 91.47, 24.3 91.47, 0 91.47 M0 91.47 C0 63.47, 0 35.47, 0 0 M0 91.47 C0 60, 0 28.52, 0 0" stroke="#000000" stroke-width="1" fill="none"></path></g><g stroke-linecap="round" transform="translate(123.57688244606697 414.3192084095823) rotate(0 46 47)"><path d="M0 0 L92 0 L92 94 L0 94" stroke="none" stroke-width="0" fill="#15aabf"></path><path d="M0 0 C28.23 0, 56.45 0, 92 0 M0 0 C29.54 0, 59.08 0, 92 0 M92 0 C92 24.34, 92 48.68, 92 94 M92 0 C92 21.87, 92 43.74, 92 94 M92 94 C67.18 94, 42.35 94, 0 94 M92 94 C55.42 94, 18.84 94, 0 94 M0 94 C0 56.73, 0 19.47, 0 0 M0 94 C0 66.14, 0 38.28, 0 0" stroke="#000000" stroke-width="1" fill="none"></path></g><g stroke-linecap="round" transform="translate(346.1532848898137 415.5863147919896) rotate(0 45.73289361759271 45.73289361759271)"><path d="M0 0 L91.47 0 L91.47 91.47 L0 91.47" stroke="none" stroke-width="0" fill="#15aabf"></path><path d="M0 0 C29.68 0, 59.36 0, 91.47 0 M0 0 C23.65 0, 47.3 0, 91.47 0 M91.47 0 C91.47 36.56, 91.47 73.12, 91.47 91.47 M91.47 0 C91.47 21.35, 91.47 42.7, 91.47 91.47 M91.47 91.47 C72.74 91.47, 54.02 91.47, 0 91.47 M91.47 91.47 C72.89 91.47, 54.32 91.47, 0 91.47 M0 91.47 C0 57.48, 0 23.5, 0 0 M0 91.47 C0 66.5, 0 41.53, 0 0" stroke="#000000" stroke-width="1" fill="none"></path></g><g stroke-linecap="round" transform="translate(235.13219005034762 415.5863147919896) rotate(0 45.73289361759271 45.73289361759271)"><path d="M0 0 L91.47 0 L91.47 91.47 L0 91.47" stroke="none" stroke-width="0" fill="#82c91e"></path><path d="M0 0 C32.19 0, 64.38 0, 91.47 0 M0 0 C27.01 0, 54.03 0, 91.47 0 M91.47 0 C91.47 24.09, 91.47 48.18, 91.47 91.47 M91.47 0 C91.47 23.57, 91.47 47.14, 91.47 91.47 M91.47 91.47 C63.95 91.47, 36.44 91.47, 0 91.47 M91.47 91.47 C70.31 91.47, 49.15 91.47, 0 91.47 M0 91.47 C0 66.67, 0 41.87, 0 0 M0 91.47 C0 59.77, 0 28.07, 0 0" stroke="#000000" stroke-width="1" fill="none"></path></g><g transform="translate(17.555787606600916 438.8192084095823) rotate(0 40.5 22.5)"><text x="40.5" y="32" font-family="Virgil, Segoe UI Emoji" font-size="36px" fill="#000000" text-anchor="middle" style="white-space: pre;" direction="ltr">2</text></g><g transform="translate(128.57688244606697 438.8192084095823) rotate(0 41 22.5)"><text x="41" y="32" font-family="Virgil, Segoe UI Emoji" font-size="36px" fill="#000000" text-anchor="middle" style="white-space: pre;" direction="ltr">1</text></g><g transform="translate(351.1532848898137 438.8192084095823) rotate(0 40.5 22.5)"><text x="40.5" y="32" font-family="Virgil, Segoe UI Emoji" font-size="36px" fill="#000000" text-anchor="middle" style="white-space: pre;" direction="ltr">3</text></g><g transform="translate(240.13219005034762 438.8192084095823) rotate(0 40.5 22.5)"><text x="40.5" y="32" font-family="Virgil, Segoe UI Emoji" font-size="36px" fill="#000000" text-anchor="middle" style="white-space: pre;" direction="ltr">4</text></g><g stroke-linecap="round" transform="translate(457.17437972927974 415.5863147919896) rotate(0 45.73289361759271 45.73289361759271)"><path d="M0 0 L91.47 0 L91.47 91.47 L0 91.47" stroke="none" stroke-width="0" fill="#82c91e"></path><path d="M0 0 C18.65 0, 37.29 0, 91.47 0 M0 0 C30.78 0, 61.56 0, 91.47 0 M91.47 0 C91.47 29.37, 91.47 58.74, 91.47 91.47 M91.47 0 C91.47 34.28, 91.47 68.56, 91.47 91.47 M91.47 91.47 C71.37 91.47, 51.28 91.47, 0 91.47 M91.47 91.47 C70.31 91.47, 49.15 91.47, 0 91.47 M0 91.47 C0 56.55, 0 21.64, 0 0 M0 91.47 C0 58.4, 0 25.33, 0 0" stroke="#000000" stroke-width="1" fill="none"></path></g><g transform="translate(462.17437972927974 438.8192084095823) rotate(0 40.5 22.5)"><text x="40.5" y="32" font-family="Virgil, Segoe UI Emoji" font-size="36px" fill="#000000" text-anchor="middle" style="white-space: pre;" direction="ltr">6</text></g><g stroke-linecap="round" transform="translate(568.1954745687458 415.5863147919896) rotate(0 45.73289361759271 45.73289361759271)"><path d="M0 0 L91.47 0 L91.47 91.47 L0 91.47" stroke="none" stroke-width="0" fill="#15aabf"></path><path d="M0 0 C28.54 0, 57.08 0, 91.47 0 M0 0 C26.16 0, 52.32 0, 91.47 0 M91.47 0 C91.47 31.97, 91.47 63.94, 91.47 91.47 M91.47 0 C91.47 31.02, 91.47 62.04, 91.47 91.47 M91.47 91.47 C56.2 91.47, 20.93 91.47, 0 91.47 M91.47 91.47 C71.49 91.47, 51.52 91.47, 0 91.47 M0 91.47 C0 68.4, 0 45.33, 0 0 M0 91.47 C0 70.51, 0 49.55, 0 0" stroke="#000000" stroke-width="1" fill="none"></path></g><g transform="translate(573.1954745687458 438.8192084095823) rotate(0 40.5 22.5)"><text x="40.5" y="32" font-family="Virgil, Segoe UI Emoji" font-size="36px" fill="#000000" text-anchor="middle" style="white-space: pre;" direction="ltr">5</text></g><g transform="translate(691.5578469818627 438.4063637301123) rotate(0 104 22.5)"><text x="0" y="32" font-family="Virgil, Segoe UI Emoji" font-size="36px" fill="#000000" text-anchor="start" style="white-space: pre;" direction="ltr">3 / 1.3 = 2</text></g><g stroke-linecap="round" transform="translate(12.555787606600916 525.6826313733751) rotate(0 45.73289361759271 45.73289361759271)"><path d="M0 0 L91.47 0 L91.47 91.47 L0 91.47" stroke="none" stroke-width="0" fill="#82c91e"></path><path d="M0 0 C18.83 0, 37.67 0, 91.47 0 M0 0 C25.46 0, 50.92 0, 91.47 0 M91.47 0 C91.47 33.42, 91.47 66.85, 91.47 91.47 M91.47 0 C91.47 35.47, 91.47 70.94, 91.47 91.47 M91.47 91.47 C71.65 91.47, 51.84 91.47, 0 91.47 M91.47 91.47 C72.06 91.47, 52.66 91.47, 0 91.47 M0 91.47 C0 58.08, 0 24.7, 0 0 M0 91.47 C0 72.4, 0 53.33, 0 0" stroke="#000000" stroke-width="1" fill="none"></path></g><g stroke-linecap="round" transform="translate(124.93609623102247 524.4155249909678) rotate(0 46 47)"><path d="M0 0 L92 0 L92 94 L0 94" stroke="none" stroke-width="0" fill="#82c91e"></path><path d="M0 0 C28.44 0, 56.89 0, 92 0 M0 0 C31.54 0, 63.07 0, 92 0 M92 0 C92 32.6, 92 65.21, 92 94 M92 0 C92 32.33, 92 64.66, 92 94 M92 94 C55.88 94, 19.76 94, 0 94 M92 94 C61.53 94, 31.07 94, 0 94 M0 94 C0 67.97, 0 41.94, 0 0 M0 94 C0 62.37, 0 30.74, 0 0" stroke="#000000" stroke-width="1" fill="none"></path></g><g stroke-linecap="round" transform="translate(346.1532848898137 525.6826313733751) rotate(0 45.73289361759271 45.73289361759271)"><path d="M0 0 L91.47 0 L91.47 91.47 L0 91.47" stroke="none" stroke-width="0" fill="#82c91e"></path><path d="M0 0 C23.44 0, 46.88 0, 91.47 0 M0 0 C29.55 0, 59.11 0, 91.47 0 M91.47 0 C91.47 20.24, 91.47 40.48, 91.47 91.47 M91.47 0 C91.47 30.12, 91.47 60.24, 91.47 91.47 M91.47 91.47 C56.18 91.47, 20.89 91.47, 0 91.47 M91.47 91.47 C62.41 91.47, 33.35 91.47, 0 91.47 M0 91.47 C0 72.69, 0 53.91, 0 0 M0 91.47 C0 64.46, 0 37.46, 0 0" stroke="#000000" stroke-width="1" fill="none"></path></g><g stroke-linecap="round" transform="translate(235.13219005034762 525.6826313733751) rotate(0 45.73289361759271 45.73289361759271)"><path d="M0 0 L91.47 0 L91.47 91.47 L0 91.47" stroke="none" stroke-width="0" fill="#82c91e"></path><path d="M0 0 C26.97 0, 53.94 0, 91.47 0 M0 0 C23.71 0, 47.42 0, 91.47 0 M91.47 0 C91.47 23.92, 91.47 47.83, 91.47 91.47 M91.47 0 C91.47 32.82, 91.47 65.63, 91.47 91.47 M91.47 91.47 C64.58 91.47, 37.69 91.47, 0 91.47 M91.47 91.47 C58.39 91.47, 25.32 91.47, 0 91.47 M0 91.47 C0 66.51, 0 41.55, 0 0 M0 91.47 C0 68.63, 0 45.8, 0 0" stroke="#000000" stroke-width="1" fill="none"></path></g><g transform="translate(17.555787606600916 548.9155249909678) rotate(0 40.5 22.5)"><text x="40.5" y="32" font-family="Virgil, Segoe UI Emoji" font-size="36px" fill="#000000" text-anchor="middle" style="white-space: pre;" direction="ltr">2</text></g><g transform="translate(129.93609623102247 548.9155249909678) rotate(0 41 22.5)"><text x="41" y="32" font-family="Virgil, Segoe UI Emoji" font-size="36px" fill="#000000" text-anchor="middle" style="white-space: pre;" direction="ltr">1</text></g><g transform="translate(351.1532848898137 548.9155249909678) rotate(0 40.5 22.5)"><text x="40.5" y="32" font-family="Virgil, Segoe UI Emoji" font-size="36px" fill="#000000" text-anchor="middle" style="white-space: pre;" direction="ltr">3</text></g><g transform="translate(240.13219005034762 548.9155249909678) rotate(0 40.5 22.5)"><text x="40.5" y="32" font-family="Virgil, Segoe UI Emoji" font-size="36px" fill="#000000" text-anchor="middle" style="white-space: pre;" direction="ltr">4</text></g><g stroke-linecap="round" transform="translate(457.17437972927974 525.6826313733751) rotate(0 45.73289361759271 45.73289361759271)"><path d="M0 0 L91.47 0 L91.47 91.47 L0 91.47" stroke="none" stroke-width="0" fill="#82c91e"></path><path d="M0 0 C34.56 0, 69.12 0, 91.47 0 M0 0 C20.23 0, 40.46 0, 91.47 0 M91.47 0 C91.47 31.16, 91.47 62.32, 91.47 91.47 M91.47 0 C91.47 21.64, 91.47 43.28, 91.47 91.47 M91.47 91.47 C70.75 91.47, 50.04 91.47, 0 91.47 M91.47 91.47 C69.9 91.47, 48.34 91.47, 0 91.47 M0 91.47 C0 69.46, 0 47.45, 0 0 M0 91.47 C0 66.25, 0 41.04, 0 0" stroke="#000000" stroke-width="1" fill="none"></path></g><g transform="translate(462.17437972927974 548.9155249909678) rotate(0 40.5 22.5)"><text x="40.5" y="32" font-family="Virgil, Segoe UI Emoji" font-size="36px" fill="#000000" text-anchor="middle" style="white-space: pre;" direction="ltr">6</text></g><g stroke-linecap="round" transform="translate(568.1954745687458 525.6826313733751) rotate(0 45.73289361759271 45.73289361759271)"><path d="M0 0 L91.47 0 L91.47 91.47 L0 91.47" stroke="none" stroke-width="0" fill="#82c91e"></path><path d="M0 0 C25.55 0, 51.11 0, 91.47 0 M0 0 C33.93 0, 67.86 0, 91.47 0 M91.47 0 C91.47 21.52, 91.47 43.03, 91.47 91.47 M91.47 0 C91.47 27.05, 91.47 54.1, 91.47 91.47 M91.47 91.47 C71.17 91.47, 50.88 91.47, 0 91.47 M91.47 91.47 C66.64 91.47, 41.81 91.47, 0 91.47 M0 91.47 C0 64.52, 0 37.57, 0 0 M0 91.47 C0 63.57, 0 35.67, 0 0" stroke="#000000" stroke-width="1" fill="none"></path></g><g transform="translate(573.1954745687458 548.9155249909678) rotate(0 40.5 22.5)"><text x="40.5" y="32" font-family="Virgil, Segoe UI Emoji" font-size="36px" fill="#000000" text-anchor="middle" style="white-space: pre;" direction="ltr">5</text></g><g transform="translate(691.5578469818627 548.5026803114978) rotate(0 96.5 22.5)"><text x="0" y="32" font-family="Virgil, Segoe UI Emoji" font-size="36px" fill="#000000" text-anchor="start" style="white-space: pre;" direction="ltr">2 / 1.3 = 1</text></g><g stroke-linecap="round" transform="translate(13.915001391556416 637.1381617397157) rotate(0 45.73289361759271 45.73289361759271)"><path d="M0 0 C34.62 0, 69.23 0, 91.47 0 M0 0 C19.94 0, 39.88 0, 91.47 0 M91.47 0 C91.47 22.38, 91.47 44.76, 91.47 91.47 M91.47 0 C91.47 27.36, 91.47 54.73, 91.47 91.47 M91.47 91.47 C62.72 91.47, 33.96 91.47, 0 91.47 M91.47 91.47 C59.81 91.47, 28.15 91.47, 0 91.47 M0 91.47 C0 66.97, 0 42.47, 0 0 M0 91.47 C0 60.29, 0 29.12, 0 0" stroke="#000000" stroke-width="1" fill="none"></path></g><g stroke-linecap="round" transform="translate(126.29531001597798 635.8710553573084) rotate(0 46 47)"><path d="M0 0 C34.96 0, 69.92 0, 92 0 M0 0 C34.01 0, 68.02 0, 92 0 M92 0 C92 33.8, 92 67.59, 92 94 M92 0 C92 37.13, 92 74.25, 92 94 M92 94 C65.88 94, 39.77 94, 0 94 M92 94 C70.65 94, 49.29 94, 0 94 M0 94 C0 69.7, 0 45.4, 0 0 M0 94 C0 71.62, 0 49.23, 0 0" stroke="#000000" stroke-width="1" fill="none"></path></g><g stroke-linecap="round" transform="translate(347.5124986747692 637.1381617397157) rotate(0 45.73289361759271 45.73289361759271)"><path d="M0 0 C21.11 0, 42.23 0, 91.47 0 M0 0 C26.92 0, 53.84 0, 91.47 0 M91.47 0 C91.47 22.67, 91.47 45.35, 91.47 91.47 M91.47 0 C91.47 27.62, 91.47 55.25, 91.47 91.47 M91.47 91.47 C70.78 91.47, 50.09 91.47, 0 91.47 M91.47 91.47 C64.7 91.47, 37.93 91.47, 0 91.47 M0 91.47 C0 64.38, 0 37.3, 0 0 M0 91.47 C0 55.04, 0 18.61, 0 0" stroke="#000000" stroke-width="1" fill="none"></path></g><g stroke-linecap="round" transform="translate(236.49140383530312 637.1381617397157) rotate(0 45.73289361759271 45.73289361759271)"><path d="M0 0 C18.62 0, 37.25 0, 91.47 0 M0 0 C18.91 0, 37.83 0, 91.47 0 M91.47 0 C91.47 18.97, 91.47 37.94, 91.47 91.47 M91.47 0 C91.47 19.22, 91.47 38.44, 91.47 91.47 M91.47 91.47 C67.33 91.47, 43.2 91.47, 0 91.47 M91.47 91.47 C64.71 91.47, 37.95 91.47, 0 91.47 M0 91.47 C0 61.43, 0 31.4, 0 0 M0 91.47 C0 58.44, 0 25.42, 0 0" stroke="#000000" stroke-width="1" fill="none"></path></g><g transform="translate(18.915001391556416 660.3710553573084) rotate(0 40.5 22.5)"><text x="40.5" y="32" font-family="Virgil, Segoe UI Emoji" font-size="36px" fill="#000000" text-anchor="middle" style="white-space: pre;" direction="ltr">1</text></g><g transform="translate(131.29531001597798 660.3710553573084) rotate(0 41 22.5)"><text x="41" y="32" font-family="Virgil, Segoe UI Emoji" font-size="36px" fill="#000000" text-anchor="middle" style="white-space: pre;" direction="ltr">2</text></g><g transform="translate(352.5124986747692 660.3710553573084) rotate(0 40.5 22.5)"><text x="40.5" y="32" font-family="Virgil, Segoe UI Emoji" font-size="36px" fill="#000000" text-anchor="middle" style="white-space: pre;" direction="ltr">4</text></g><g transform="translate(241.49140383530312 660.3710553573084) rotate(0 40.5 22.5)"><text x="40.5" y="32" font-family="Virgil, Segoe UI Emoji" font-size="36px" fill="#000000" text-anchor="middle" style="white-space: pre;" direction="ltr">3</text></g><g stroke-linecap="round" transform="translate(458.53359351423524 637.1381617397157) rotate(0 45.73289361759271 45.73289361759271)"><path d="M0 0 C26.5 0, 52.99 0, 91.47 0 M0 0 C23.41 0, 46.81 0, 91.47 0 M91.47 0 C91.47 31.14, 91.47 62.29, 91.47 91.47 M91.47 0 C91.47 33.1, 91.47 66.2, 91.47 91.47 M91.47 91.47 C70.8 91.47, 50.14 91.47, 0 91.47 M91.47 91.47 C63.81 91.47, 36.15 91.47, 0 91.47 M0 91.47 C0 70.75, 0 50.03, 0 0 M0 91.47 C0 67.74, 0 44.01, 0 0" stroke="#000000" stroke-width="1" fill="none"></path></g><g transform="translate(463.53359351423524 660.3710553573084) rotate(0 40.5 22.5)"><text x="40.5" y="32" font-family="Virgil, Segoe UI Emoji" font-size="36px" fill="#000000" text-anchor="middle" style="white-space: pre;" direction="ltr">5</text></g><g stroke-linecap="round" transform="translate(569.5546883537013 637.1381617397157) rotate(0 45.73289361759271 45.73289361759271)"><path d="M0 0 C25.68 0, 51.35 0, 91.47 0 M0 0 C31.99 0, 63.99 0, 91.47 0 M91.47 0 C91.47 24.68, 91.47 49.36, 91.47 91.47 M91.47 0 C91.47 36.11, 91.47 72.22, 91.47 91.47 M91.47 91.47 C68.47 91.47, 45.47 91.47, 0 91.47 M91.47 91.47 C64.8 91.47, 38.14 91.47, 0 91.47 M0 91.47 C0 58.91, 0 26.35, 0 0 M0 91.47 C0 57.45, 0 23.43, 0 0" stroke="#000000" stroke-width="1" fill="none"></path></g><g transform="translate(574.5546883537013 660.3710553573084) rotate(0 40.5 22.5)"><text x="40.5" y="32" font-family="Virgil, Segoe UI Emoji" font-size="36px" fill="#000000" text-anchor="middle" style="white-space: pre;" direction="ltr">6</text></g></svg>