<svg version="1.1" xmlns="http://www.w3.org/2000/svg" viewBox="0 0 909.140599901239 685.9622867466105" width="909.140599901239" height="685.9622867466105">
  <!-- svg-source:excalidraw -->
  
  <defs>
    <style>
      @font-face {
        font-family: "Virgil";
        src: url("https://excalidraw.com/Virgil.woff2");
      }
      @font-face {
        font-family: "Cascadia";
        src: url("https://excalidraw.com/Cascadia.woff2");
      }
    </style>
  </defs>
  <rect x="0" y="0" width="909.140599901239" height="685.9622867466105" fill="#ffffff"></rect><g stroke-linecap="round" transform="translate(10 148.8730958716547) rotate(0 45.73289361759271 45.73289361759271)"><path d="M0 0 C26.82 0, 53.65 0, 91.47 0 M0 0 C27.11 0, 54.22 0, 91.47 0 M91.47 0 C91.47 34.66, 91.47 69.31, 91.47 91.47 M91.47 0 C91.47 20.18, 91.47 40.35, 91.47 91.47 M91.47 91.47 C60.27 91.47, 29.07 91.47, 0 91.47 M91.47 91.47 C59.28 91.47, 27.1 91.47, 0 91.47 M0 91.47 C0 66.1, 0 40.74, 0 0 M0 91.47 C0 60.75, 0 30.03, 0 0" stroke="#000000" stroke-width="1" fill="none"></path></g><g stroke-linecap="round" transform="translate(120.43439785607075 147.6059894892474) rotate(0 46 47)"><path d="M0 0 C25.4 0, 50.8 0, 92 0 M0 0 C35.94 0, 71.89 0, 92 0 M92 0 C92 20.06, 92 40.12, 92 94 M92 0 C92 24.8, 92 49.6, 92 94 M92 94 C64.25 94, 36.49 94, 0 94 M92 94 C70.26 94, 48.52 94, 0 94 M0 94 C0 62.83, 0 31.66, 0 0 M0 94 C0 67.45, 0 40.91, 0 0" stroke="#000000" stroke-width="1" fill="none"></path></g><g stroke-linecap="round" transform="translate(341.8374063330268 147.67652205000905) rotate(0 45.73289361759271 45.73289361759271)"><path d="M0 0 C29.88 0, 59.77 0, 91.47 0 M0 0 C29.07 0, 58.14 0, 91.47 0 M91.47 0 C91.47 35.22, 91.47 70.45, 91.47 91.47 M91.47 0 C91.47 35.03, 91.47 70.06, 91.47 91.47 M91.47 91.47 C61.88 91.47, 32.29 91.47, 0 91.47 M91.47 91.47 C68.52 91.47, 45.57 91.47, 0 91.47 M0 91.47 C0 69.11, 0 46.76, 0 0 M0 91.47 C0 63.5, 0 35.54, 0 0" stroke="#000000" stroke-width="1" fill="none"></path></g><g stroke-linecap="round" transform="translate(231.40300847695607 148.8730958716547) rotate(0 45.73289361759271 45.73289361759271)"><path d="M0 0 C26.69 0, 53.38 0, 91.47 0 M0 0 C18.87 0, 37.74 0, 91.47 0 M91.47 0 C91.47 20.98, 91.47 41.95, 91.47 91.47 M91.47 0 C91.47 19.67, 91.47 39.33, 91.47 91.47 M91.47 91.47 C65.26 91.47, 39.06 91.47, 0 91.47 M91.47 91.47 C56.28 91.47, 21.09 91.47, 0 91.47 M0 91.47 C0 64.34, 0 37.21, 0 0 M0 91.47 C0 55.72, 0 19.97, 0 0" stroke="#000000" stroke-width="1" fill="none"></path></g><g transform="translate(15 172.1059894892474) rotate(0 40.5 22.5)"><text x="40.5" y="32" font-family="Virgil, Segoe UI Emoji" font-size="36px" fill="#000000" text-anchor="middle" style="white-space: pre;" direction="ltr">2</text></g><g transform="translate(125.43439785607075 172.1059894892474) rotate(0 41 22.5)"><text x="41" y="32" font-family="Virgil, Segoe UI Emoji" font-size="36px" fill="#000000" text-anchor="middle" style="white-space: pre;" direction="ltr">1</text></g><g transform="translate(346.8374063330268 170.90941566760176) rotate(0 40.5 22.5)"><text x="40.5" y="32" font-family="Virgil, Segoe UI Emoji" font-size="36px" fill="#000000" text-anchor="middle" style="white-space: pre;" direction="ltr">3</text></g><g transform="translate(236.40300847695607 172.1059894892474) rotate(0 40.5 22.5)"><text x="40.5" y="32" font-family="Virgil, Segoe UI Emoji" font-size="36px" fill="#000000" text-anchor="middle" style="white-space: pre;" direction="ltr">4</text></g><g stroke-linecap="round" transform="translate(452.27180418909757 148.8730958716547) rotate(0 45.73289361759271 45.73289361759271)"><path d="M0 0 C23.12 0, 46.24 0, 91.47 0 M0 0 C30.21 0, 60.43 0, 91.47 0 M91.47 0 C91.47 24.2, 91.47 48.4, 91.47 91.47 M91.47 0 C91.47 28.42, 91.47 56.83, 91.47 91.47 M91.47 91.47 C70.93 91.47, 50.39 91.47, 0 91.47 M91.47 91.47 C55.09 91.47, 18.71 91.47, 0 91.47 M0 91.47 C0 64, 0 36.53, 0 0 M0 91.47 C0 60.21, 0 28.96, 0 0" stroke="#000000" stroke-width="1" fill="none"></path></g><g transform="translate(457.27180418909757 172.1059894892474) rotate(0 40.5 22.5)"><text x="40.5" y="32" font-family="Virgil, Segoe UI Emoji" font-size="36px" fill="#000000" text-anchor="middle" style="white-space: pre;" direction="ltr">6</text></g><g stroke-linecap="round" transform="translate(562.7062020451683 148.8730958716547) rotate(0 45.73289361759271 45.73289361759271)"><path d="M0 0 C22.81 0, 45.61 0, 91.47 0 M0 0 C27.81 0, 55.62 0, 91.47 0 M91.47 0 C91.47 21.35, 91.47 42.71, 91.47 91.47 M91.47 0 C91.47 20.81, 91.47 41.62, 91.47 91.47 M91.47 91.47 C69.43 91.47, 47.39 91.47, 0 91.47 M91.47 91.47 C70.31 91.47, 49.15 91.47, 0 91.47 M0 91.47 C0 59.94, 0 28.41, 0 0 M0 91.47 C0 63.62, 0 35.77, 0 0" stroke="#000000" stroke-width="1" fill="none"></path></g><g transform="translate(567.7062020451683 172.1059894892474) rotate(0 40.5 22.5)"><text x="40.5" y="32" font-family="Virgil, Segoe UI Emoji" font-size="36px" fill="#000000" text-anchor="middle" style="white-space: pre;" direction="ltr">5</text></g><g transform="translate(673.140599901239 172.1059894892474) rotate(0 110.5 22.5)"><text x="0" y="32" font-family="Virgil, Segoe UI Emoji" font-size="36px" fill="#000000" text-anchor="start" style="white-space: pre;" direction="ltr">6 / 1.3 = 4 </text></g><g stroke-linecap="round" transform="translate(11.196573821645643 300.83797122064954) rotate(0 45.73289361759271 45.73289361759271)"><path d="M0 0 C25.69 0, 51.39 0, 91.47 0 M0 0 C25.74 0, 51.48 0, 91.47 0 M91.47 0 C91.47 35.4, 91.47 70.79, 91.47 91.47 M91.47 0 C91.47 25.01, 91.47 50.02, 91.47 91.47 M91.47 91.47 C68.56 91.47, 45.65 91.47, 0 91.47 M91.47 91.47 C60.99 91.47, 30.52 91.47, 0 91.47 M0 91.47 C0 66.46, 0 41.45, 0 0 M0 91.47 C0 70.75, 0 50.03, 0 0" stroke="#000000" stroke-width="1" fill="none"></path></g><g stroke-linecap="round" transform="translate(121.63097167771639 299.57086483824224) rotate(0 46 47)"><path d="M0 0 C24.47 0, 48.93 0, 92 0 M0 0 C32 0, 64 0, 92 0 M92 0 C92 27.95, 92 55.9, 92 94 M92 0 C92 31.9, 92 63.79, 92 94 M92 94 C66.73 94, 41.47 94, 0 94 M92 94 C68.84 94, 45.68 94, 0 94 M0 94 C0 61.75, 0 29.49, 0 0 M0 94 C0 63.02, 0 32.03, 0 0" stroke="#000000" stroke-width="1" fill="none"></path></g><g stroke-linecap="round" transform="translate(343.03398015467246 300.83797122064954) rotate(0 45.73289361759271 45.73289361759271)"><path d="M0 0 C21.36 0, 42.71 0, 91.47 0 M0 0 C18.74 0, 37.48 0, 91.47 0 M91.47 0 C91.47 18.47, 91.47 36.93, 91.47 91.47 M91.47 0 C91.47 29.44, 91.47 58.87, 91.47 91.47 M91.47 91.47 C63.18 91.47, 34.9 91.47, 0 91.47 M91.47 91.47 C66.41 91.47, 41.36 91.47, 0 91.47 M0 91.47 C0 67.44, 0 43.42, 0 0 M0 91.47 C0 67.16, 0 42.85, 0 0" stroke="#000000" stroke-width="1" fill="none"></path></g><g stroke-linecap="round" transform="translate(232.59958229860172 300.83797122064954) rotate(0 45.73289361759271 45.73289361759271)"><path d="M0 0 C23.5 0, 47 0, 91.47 0 M0 0 C21 0, 42.01 0, 91.47 0 M91.47 0 C91.47 28.58, 91.47 57.17, 91.47 91.47 M91.47 0 C91.47 23.44, 91.47 46.88, 91.47 91.47 M91.47 91.47 C58.47 91.47, 25.48 91.47, 0 91.47 M91.47 91.47 C60.62 91.47, 29.77 91.47, 0 91.47 M0 91.47 C0 64.98, 0 38.5, 0 0 M0 91.47 C0 62.34, 0 33.22, 0 0" stroke="#000000" stroke-width="1" fill="none"></path></g><g transform="translate(16.196573821645643 324.07086483824224) rotate(0 40.5 22.5)"><text x="40.5" y="32" font-family="Virgil, Segoe UI Emoji" font-size="36px" fill="#000000" text-anchor="middle" style="white-space: pre;" direction="ltr">2</text></g><g transform="translate(126.63097167771639 324.07086483824224) rotate(0 41 22.5)"><text x="41" y="32" font-family="Virgil, Segoe UI Emoji" font-size="36px" fill="#000000" text-anchor="middle" style="white-space: pre;" direction="ltr">1</text></g><g transform="translate(348.03398015467246 324.07086483824224) rotate(0 40.5 22.5)"><text x="40.5" y="32" font-family="Virgil, Segoe UI Emoji" font-size="36px" fill="#000000" text-anchor="middle" style="white-space: pre;" direction="ltr">3</text></g><g transform="translate(237.59958229860172 324.07086483824224) rotate(0 40.5 22.5)"><text x="40.5" y="32" font-family="Virgil, Segoe UI Emoji" font-size="36px" fill="#000000" text-anchor="middle" style="white-space: pre;" direction="ltr">4</text></g><g stroke-linecap="round" transform="translate(453.4683780107432 300.83797122064954) rotate(0 45.73289361759271 45.73289361759271)"><path d="M0 0 C23.74 0, 47.48 0, 91.47 0 M0 0 C29.71 0, 59.43 0, 91.47 0 M91.47 0 C91.47 24.01, 91.47 48.03, 91.47 91.47 M91.47 0 C91.47 27.09, 91.47 54.17, 91.47 91.47 M91.47 91.47 C72.54 91.47, 53.61 91.47, 0 91.47 M91.47 91.47 C62 91.47, 32.53 91.47, 0 91.47 M0 91.47 C0 58.06, 0 24.66, 0 0 M0 91.47 C0 66.45, 0 41.42, 0 0" stroke="#000000" stroke-width="1" fill="none"></path></g><g transform="translate(458.4683780107432 324.07086483824224) rotate(0 40.5 22.5)"><text x="40.5" y="32" font-family="Virgil, Segoe UI Emoji" font-size="36px" fill="#000000" text-anchor="middle" style="white-space: pre;" direction="ltr">6</text></g><g stroke-linecap="round" transform="translate(563.902775866814 300.83797122064954) rotate(0 45.73289361759271 45.73289361759271)"><path d="M0 0 C28.54 0, 57.07 0, 91.47 0 M0 0 C20.72 0, 41.43 0, 91.47 0 M91.47 0 C91.47 23.03, 91.47 46.06, 91.47 91.47 M91.47 0 C91.47 22.84, 91.47 45.68, 91.47 91.47 M91.47 91.47 C56.12 91.47, 20.77 91.47, 0 91.47 M91.47 91.47 C66.47 91.47, 41.47 91.47, 0 91.47 M0 91.47 C0 55.48, 0 19.49, 0 0 M0 91.47 C0 63.43, 0 35.4, 0 0" stroke="#000000" stroke-width="1" fill="none"></path></g><g transform="translate(568.902775866814 324.07086483824224) rotate(0 40.5 22.5)"><text x="40.5" y="32" font-family="Virgil, Segoe UI Emoji" font-size="36px" fill="#000000" text-anchor="middle" style="white-space: pre;" direction="ltr">5</text></g><g transform="translate(674.3371737228847 324.07086483824224) rotate(0 111.5 22.5)"><text x="0" y="32" font-family="Virgil, Segoe UI Emoji" font-size="36px" fill="#000000" text-anchor="start" style="white-space: pre;" direction="ltr">4 / 1.3 = 3 </text></g><g stroke-linecap="round" transform="translate(11.196573821645643 440.83710835318806) rotate(0 45.73289361759271 45.73289361759271)"><path d="M0 0 C24.44 0, 48.88 0, 91.47 0 M0 0 C25.77 0, 51.55 0, 91.47 0 M91.47 0 C91.47 23.34, 91.47 46.69, 91.47 91.47 M91.47 0 C91.47 27.39, 91.47 54.77, 91.47 91.47 M91.47 91.47 C62.63 91.47, 33.8 91.47, 0 91.47 M91.47 91.47 C72.41 91.47, 53.35 91.47, 0 91.47 M0 91.47 C0 70.86, 0 50.25, 0 0 M0 91.47 C0 65.31, 0 39.15, 0 0" stroke="#000000" stroke-width="1" fill="none"></path></g><g stroke-linecap="round" transform="translate(121.63097167771639 439.57000197078077) rotate(0 46 47)"><path d="M0 0 C20.98 0, 41.95 0, 92 0 M0 0 C22.76 0, 45.51 0, 92 0 M92 0 C92 36.9, 92 73.8, 92 94 M92 0 C92 26.8, 92 53.61, 92 94 M92 94 C58.09 94, 24.18 94, 0 94 M92 94 C64.09 94, 36.18 94, 0 94 M0 94 C0 72.81, 0 51.62, 0 0 M0 94 C0 64.26, 0 34.53, 0 0" stroke="#000000" stroke-width="1" fill="none"></path></g><g stroke-linecap="round" transform="translate(343.03398015467246 440.83710835318806) rotate(0 45.73289361759271 45.73289361759271)"><path d="M0 0 C18.55 0, 37.1 0, 91.47 0 M0 0 C23.69 0, 47.38 0, 91.47 0 M91.47 0 C91.47 25.5, 91.47 51, 91.47 91.47 M91.47 0 C91.47 23.36, 91.47 46.72, 91.47 91.47 M91.47 91.47 C72.76 91.47, 54.06 91.47, 0 91.47 M91.47 91.47 C63.38 91.47, 35.29 91.47, 0 91.47 M0 91.47 C0 71.21, 0 50.95, 0 0 M0 91.47 C0 56.34, 0 21.21, 0 0" stroke="#000000" stroke-width="1" fill="none"></path></g><g stroke-linecap="round" transform="translate(232.59958229860172 440.83710835318806) rotate(0 45.73289361759271 45.73289361759271)"><path d="M0 0 C22.47 0, 44.94 0, 91.47 0 M0 0 C22.43 0, 44.87 0, 91.47 0 M91.47 0 C91.47 31, 91.47 61.99, 91.47 91.47 M91.47 0 C91.47 20.21, 91.47 40.42, 91.47 91.47 M91.47 91.47 C67.48 91.47, 43.49 91.47, 0 91.47 M91.47 91.47 C57.73 91.47, 24 91.47, 0 91.47 M0 91.47 C0 62.99, 0 34.52, 0 0 M0 91.47 C0 70.14, 0 48.81, 0 0" stroke="#000000" stroke-width="1" fill="none"></path></g><g transform="translate(16.196573821645643 464.07000197078077) rotate(0 40.5 22.5)"><text x="40.5" y="32" font-family="Virgil, Segoe UI Emoji" font-size="36px" fill="#000000" text-anchor="middle" style="white-space: pre;" direction="ltr">2</text></g><g transform="translate(126.63097167771639 464.07000197078077) rotate(0 41 22.5)"><text x="41" y="32" font-family="Virgil, Segoe UI Emoji" font-size="36px" fill="#000000" text-anchor="middle" style="white-space: pre;" direction="ltr">1</text></g><g transform="translate(348.03398015467246 464.07000197078077) rotate(0 40.5 22.5)"><text x="40.5" y="32" font-family="Virgil, Segoe UI Emoji" font-size="36px" fill="#000000" text-anchor="middle" style="white-space: pre;" direction="ltr">3</text></g><g transform="translate(237.59958229860172 464.07000197078077) rotate(0 40.5 22.5)"><text x="40.5" y="32" font-family="Virgil, Segoe UI Emoji" font-size="36px" fill="#000000" text-anchor="middle" style="white-space: pre;" direction="ltr">4</text></g><g stroke-linecap="round" transform="translate(453.4683780107432 440.83710835318806) rotate(0 45.73289361759271 45.73289361759271)"><path d="M0 0 C23.28 0, 46.56 0, 91.47 0 M0 0 C33.46 0, 66.92 0, 91.47 0 M91.47 0 C91.47 35.65, 91.47 71.3, 91.47 91.47 M91.47 0 C91.47 21.82, 91.47 43.63, 91.47 91.47 M91.47 91.47 C61.76 91.47, 32.05 91.47, 0 91.47 M91.47 91.47 C67.11 91.47, 42.76 91.47, 0 91.47 M0 91.47 C0 69.31, 0 47.15, 0 0 M0 91.47 C0 59.76, 0 28.05, 0 0" stroke="#000000" stroke-width="1" fill="none"></path></g><g transform="translate(458.4683780107432 464.07000197078077) rotate(0 40.5 22.5)"><text x="40.5" y="32" font-family="Virgil, Segoe UI Emoji" font-size="36px" fill="#000000" text-anchor="middle" style="white-space: pre;" direction="ltr">6</text></g><g stroke-linecap="round" transform="translate(563.902775866814 440.83710835318806) rotate(0 45.73289361759271 45.73289361759271)"><path d="M0 0 C29.02 0, 58.04 0, 91.47 0 M0 0 C33.98 0, 67.96 0, 91.47 0 M91.47 0 C91.47 19.33, 91.47 38.66, 91.47 91.47 M91.47 0 C91.47 29.78, 91.47 59.56, 91.47 91.47 M91.47 91.47 C67.6 91.47, 43.73 91.47, 0 91.47 M91.47 91.47 C57.57 91.47, 23.67 91.47, 0 91.47 M0 91.47 C0 72.04, 0 52.62, 0 0 M0 91.47 C0 55.18, 0 18.89, 0 0" stroke="#000000" stroke-width="1" fill="none"></path></g><g transform="translate(568.902775866814 464.07000197078077) rotate(0 40.5 22.5)"><text x="40.5" y="32" font-family="Virgil, Segoe UI Emoji" font-size="36px" fill="#000000" text-anchor="middle" style="white-space: pre;" direction="ltr">5</text></g><g transform="translate(673.140599901239 464.07000197078077) rotate(0 113 22.5)"><text x="0" y="32" font-family="Virgil, Segoe UI Emoji" font-size="36px" fill="#000000" text-anchor="start" style="white-space: pre;" direction="ltr">3 / 1.3 = 2 </text></g><g stroke-linecap="round" transform="translate(12.393147643291286 583.2293931290178) rotate(0 45.73289361759271 45.73289361759271)"><path d="M0 0 C32.88 0, 65.75 0, 91.47 0 M0 0 C33.29 0, 66.58 0, 91.47 0 M91.47 0 C91.47 28.98, 91.47 57.95, 91.47 91.47 M91.47 0 C91.47 35.54, 91.47 71.09, 91.47 91.47 M91.47 91.47 C70.61 91.47, 49.75 91.47, 0 91.47 M91.47 91.47 C65.32 91.47, 39.16 91.47, 0 91.47 M0 91.47 C0 61.63, 0 31.79, 0 0 M0 91.47 C0 55.37, 0 19.28, 0 0" stroke="#000000" stroke-width="1" fill="none"></path></g><g stroke-linecap="round" transform="translate(122.82754549936203 581.9622867466105) rotate(0 46 47)"><path d="M0 0 C19.04 0, 38.08 0, 92 0 M0 0 C29.25 0, 58.51 0, 92 0 M92 0 C92 32.95, 92 65.9, 92 94 M92 0 C92 31.3, 92 62.61, 92 94 M92 94 C62.83 94, 33.65 94, 0 94 M92 94 C56.44 94, 20.89 94, 0 94 M0 94 C0 71.78, 0 49.56, 0 0 M0 94 C0 69.96, 0 45.93, 0 0" stroke="#000000" stroke-width="1" fill="none"></path></g><g stroke-linecap="round" transform="translate(344.2305539763181 583.2293931290178) rotate(0 45.73289361759271 45.73289361759271)"><path d="M0 0 C30.03 0, 60.06 0, 91.47 0 M0 0 C28.82 0, 57.64 0, 91.47 0 M91.47 0 C91.47 19.9, 91.47 39.8, 91.47 91.47 M91.47 0 C91.47 31.84, 91.47 63.68, 91.47 91.47 M91.47 91.47 C61.99 91.47, 32.51 91.47, 0 91.47 M91.47 91.47 C72.27 91.47, 53.08 91.47, 0 91.47 M0 91.47 C0 69.5, 0 47.54, 0 0 M0 91.47 C0 64.43, 0 37.4, 0 0" stroke="#000000" stroke-width="1" fill="none"></path></g><g stroke-linecap="round" transform="translate(233.79615612024736 583.2293931290178) rotate(0 45.73289361759271 45.73289361759271)"><path d="M0 0 C29.75 0, 59.5 0, 91.47 0 M0 0 C31.46 0, 62.93 0, 91.47 0 M91.47 0 C91.47 35.41, 91.47 70.83, 91.47 91.47 M91.47 0 C91.47 19.79, 91.47 39.57, 91.47 91.47 M91.47 91.47 C70.88 91.47, 50.29 91.47, 0 91.47 M91.47 91.47 C68.43 91.47, 45.4 91.47, 0 91.47 M0 91.47 C0 65.46, 0 39.46, 0 0 M0 91.47 C0 56.47, 0 21.48, 0 0" stroke="#000000" stroke-width="1" fill="none"></path></g><g transform="translate(17.393147643291286 606.4622867466105) rotate(0 40.5 22.5)"><text x="40.5" y="32" font-family="Virgil, Segoe UI Emoji" font-size="36px" fill="#000000" text-anchor="middle" style="white-space: pre;" direction="ltr">1</text></g><g transform="translate(127.82754549936203 606.4622867466105) rotate(0 41 22.5)"><text x="41" y="32" font-family="Virgil, Segoe UI Emoji" font-size="36px" fill="#000000" text-anchor="middle" style="white-space: pre;" direction="ltr">2</text></g><g transform="translate(349.2305539763181 606.4622867466105) rotate(0 40.5 22.5)"><text x="40.5" y="32" font-family="Virgil, Segoe UI Emoji" font-size="36px" fill="#000000" text-anchor="middle" style="white-space: pre;" direction="ltr">4</text></g><g transform="translate(238.79615612024736 606.4622867466105) rotate(0 40.5 22.5)"><text x="40.5" y="32" font-family="Virgil, Segoe UI Emoji" font-size="36px" fill="#000000" text-anchor="middle" style="white-space: pre;" direction="ltr">3</text></g><g stroke-linecap="round" transform="translate(454.66495183238885 583.2293931290178) rotate(0 45.73289361759271 45.73289361759271)"><path d="M0 0 C19.48 0, 38.96 0, 91.47 0 M0 0 C29.43 0, 58.85 0, 91.47 0 M91.47 0 C91.47 22.93, 91.47 45.86, 91.47 91.47 M91.47 0 C91.47 35.76, 91.47 71.51, 91.47 91.47 M91.47 91.47 C68.84 91.47, 46.22 91.47, 0 91.47 M91.47 91.47 C59.77 91.47, 28.07 91.47, 0 91.47 M0 91.47 C0 67.7, 0 43.93, 0 0 M0 91.47 C0 65.49, 0 39.51, 0 0" stroke="#000000" stroke-width="1" fill="none"></path></g><g transform="translate(459.66495183238885 606.4622867466105) rotate(0 40.5 22.5)"><text x="40.5" y="32" font-family="Virgil, Segoe UI Emoji" font-size="36px" fill="#000000" text-anchor="middle" style="white-space: pre;" direction="ltr">5</text></g><g stroke-linecap="round" transform="translate(565.0993496884596 583.2293931290178) rotate(0 45.73289361759271 45.73289361759271)"><path d="M0 0 C27.05 0, 54.1 0, 91.47 0 M0 0 C25.33 0, 50.65 0, 91.47 0 M91.47 0 C91.47 30.97, 91.47 61.94, 91.47 91.47 M91.47 0 C91.47 27.75, 91.47 55.5, 91.47 91.47 M91.47 91.47 C63.25 91.47, 35.04 91.47, 0 91.47 M91.47 91.47 C65.4 91.47, 39.33 91.47, 0 91.47 M0 91.47 C0 70.34, 0 49.22, 0 0 M0 91.47 C0 65.02, 0 38.58, 0 0" stroke="#000000" stroke-width="1" fill="none"></path></g><g transform="translate(570.0993496884596 606.4622867466105) rotate(0 40.5 22.5)"><text x="40.5" y="32" font-family="Virgil, Segoe UI Emoji" font-size="36px" fill="#000000" text-anchor="middle" style="white-space: pre;" direction="ltr">6</text></g><g transform="translate(674.3371737228847 606.4622867466105) rotate(0 105 22.5)"><text x="0" y="32" font-family="Virgil, Segoe UI Emoji" font-size="36px" fill="#000000" text-anchor="start" style="white-space: pre;" direction="ltr">3 / 1.3 = 1 </text></g><g stroke-linecap="round"><g transform="translate(56.90508175374066 146.75565584529335) rotate(0 219.57129627197287 -16.163570815065555)"><path d="M0 0 C36.1 -5.38, 143.39 -31.51, 216.58 -32.31 C289.77 -33.11, 402.05 -9.37, 439.14 -4.79 M0 0 C36.1 -5.38, 143.39 -31.51, 216.58 -32.31 C289.77 -33.11, 402.05 -9.37, 439.14 -4.79" stroke="#000000" stroke-width="1" fill="none"></path></g></g><g stroke-linecap="round"><g transform="translate(56.90508175374066 298.72053119428824) rotate(0 165.1271873870968 -9.573453156662827)"><path d="M0 0 C28.92 -3.39, 118.46 -20.54, 173.5 -20.34 C228.55 -20.14, 304.13 -2.39, 330.25 1.2 M0 0 C28.92 -3.39, 118.46 -20.54, 173.5 -20.34 C228.55 -20.14, 304.13 -2.39, 330.25 1.2" stroke="#000000" stroke-width="1" fill="none"></path></g></g><g stroke-linecap="round"><g transform="translate(55.70850793209502 435.1299468618899) rotate(0 114.27279996715765 -3.0145362575387225)"><path d="M0 0 C18.35 -1.79, 71.99 -11.57, 110.08 -10.77 C148.18 -9.97, 208.8 2.19, 228.55 4.79 M0 0 C18.35 -1.79, 71.99 -11.57, 110.08 -10.77 C148.18 -9.97, 208.8 2.19, 228.55 4.79" stroke="#000000" stroke-width="1" fill="none"></path></g></g><g stroke-linecap="round"><g transform="translate(164.5967257018474 144.36250820200212) rotate(0 223.16101773690968 -16.153746592215995)"><path d="M0 0 C40.68 -5.38, 169.71 -32.31, 244.1 -32.31 C318.49 -32.31, 412.62 -5.38, 446.32 0 M0 0 C40.68 -5.38, 169.71 -32.31, 244.1 -32.31 C318.49 -32.31, 412.62 -5.38, 446.32 0" stroke="#000000" stroke-width="1" fill="none"></path></g></g><g stroke-linecap="round"><g transform="translate(168.18644716678432 292.7376620860601) rotate(0 164.52890047627386 -9.583794649783789)"><path d="M0 0 C27.72 -3.99, 111.48 -24.73, 166.32 -23.93 C221.17 -23.13, 301.94 0, 329.06 4.79 M0 0 C27.72 -3.99, 111.48 -24.73, 166.32 -23.93 C221.17 -23.13, 301.94 0, 329.06 4.79" stroke="#000000" stroke-width="1" fill="none"></path></g></g><g stroke-linecap="round"><g transform="translate(280.6643864014734 295.1308097293513) rotate(0 166.92204811956515 -7.187845987337814)"><path d="M0 0 C26.32 -2.99, 102.31 -18.55, 157.95 -17.95 C213.59 -17.35, 304.53 0, 333.84 3.59 M0 0 C26.32 -2.99, 102.31 -18.55, 157.95 -17.95 C213.59 -17.35, 304.53 0, 333.84 3.59" stroke="#000000" stroke-width="1" fill="none"></path></g></g><g stroke-linecap="round"><g transform="translate(165.79329952349303 435.1299468618899) rotate(0 110.08479159139779 -4.797494862581189)"><path d="M0 0 C18.55 -2.19, 74.59 -13.76, 111.28 -13.16 C147.98 -12.56, 202.02 0.8, 220.17 3.59 M0 0 C18.55 -2.19, 74.59 -13.76, 111.28 -13.16 C147.98 -12.56, 202.02 0.8, 220.17 3.59" stroke="#000000" stroke-width="1" fill="none"></path></g></g><g stroke-linecap="round"><g transform="translate(280.6643864014734 435.1299468618899) rotate(0 110.08479159139779 -4.791897324891892)"><path d="M0 0 C17.95 -1.99, 71 -12.36, 107.69 -11.97 C144.39 -11.57, 201.42 0, 220.17 2.39 M0 0 C17.95 -1.99, 71 -12.36, 107.69 -11.97 C144.39 -11.57, 201.42 0, 220.17 2.39" stroke="#000000" stroke-width="1" fill="none"></path></g></g><g stroke-linecap="round"><g transform="translate(385.9628827062886 438.71966832682676) rotate(0 112.47793923468907 -9.5734531566628)"><path d="M0 0 C21.74 -3.39, 92.93 -20.54, 130.43 -20.34 C167.92 -20.14, 209.2 -2.39, 224.96 1.2 M0 0 C21.74 -3.39, 92.93 -20.54, 130.43 -20.34 C167.92 -20.14, 209.2 -2.39, 224.96 1.2" stroke="#000000" stroke-width="1" fill="none"></path></g></g><g stroke-linecap="round"><g transform="translate(56.90508175374066 579.9153792810109) rotate(0 56.83725652816736 -7.180761909739175)"><path d="M0 0 C9.77 -2.39, 39.69 -14.16, 58.63 -14.36 C77.58 -14.56, 104.5 -3.39, 113.67 -1.2 M0 0 C9.77 -2.39, 39.69 -14.16, 58.63 -14.36 C77.58 -14.56, 104.5 -3.39, 113.67 -1.2" stroke="#000000" stroke-width="1" fill="none"></path></g></g><g stroke-linecap="round"><g transform="translate(169.38302098842996 578.7188054593653) rotate(0 56.23896961734454 -5.386028739349825)"><path d="M0 0 C10.57 -1.99, 44.67 -12.17, 63.42 -11.97 C82.16 -11.77, 104.3 -1, 112.48 1.2 M0 0 C10.57 -1.99, 44.67 -12.17, 63.42 -11.97 C82.16 -11.77, 104.3 -1, 112.48 1.2" stroke="#000000" stroke-width="1" fill="none"></path></g></g><g stroke-linecap="round"><g transform="translate(279.46781257982775 577.5222316377196) rotate(0 56.83725652816736 -5.386028739349769)"><path d="M0 0 C10.17 -1.99, 42.08 -12.17, 61.03 -11.97 C79.97 -11.77, 104.9 -1, 113.67 1.2 M0 0 C10.17 -1.99, 42.08 -12.17, 61.03 -11.97 C79.97 -11.77, 104.9 -1, 113.67 1.2" stroke="#000000" stroke-width="1" fill="none"></path></g></g><g stroke-linecap="round"><g transform="translate(393.14232563616247 579.9153792810109) rotate(0 53.24753506323043 -4.787896706265627)"><path d="M0 0 C9.57 -1.79, 39.69 -10.97, 57.44 -10.77 C75.18 -10.57, 98.32 -0.8, 106.5 1.2 M0 0 C9.57 -1.79, 39.69 -10.97, 57.44 -10.77 C75.18 -10.57, 98.32 -0.8, 106.5 1.2" stroke="#000000" stroke-width="1" fill="none"></path></g></g><g stroke-linecap="round"><g transform="translate(500.83396958426897 581.1119531026566) rotate(0 56.23896961734454 -5.984470527911242)"><path d="M0 0 C9.57 -1.99, 38.69 -11.77, 57.44 -11.97 C76.18 -12.17, 103.3 -2.99, 112.48 -1.2 M0 0 C9.57 -1.99, 38.69 -11.77, 57.44 -11.97 C76.18 -12.17, 103.3 -2.99, 112.48 -1.2" stroke="#000000" stroke-width="1" fill="none"></path></g></g><g stroke-linecap="round" transform="translate(15.982869108227987 11.267106382407292) rotate(0 45.73289361759271 45.73289361759271)"><path d="M0 0 C33.28 0, 66.56 0, 91.47 0 M0 0 C34.58 0, 69.15 0, 91.47 0 M91.47 0 C91.47 23.03, 91.47 46.05, 91.47 91.47 M91.47 0 C91.47 31.91, 91.47 63.83, 91.47 91.47 M91.47 91.47 C68.22 91.47, 44.97 91.47, 0 91.47 M91.47 91.47 C63.82 91.47, 36.17 91.47, 0 91.47 M0 91.47 C0 58.62, 0 25.78, 0 0 M0 91.47 C0 56.35, 0 21.24, 0 0" stroke="#000000" stroke-width="1" fill="none"></path></g><g stroke-linecap="round" transform="translate(126.41726696429873 10) rotate(0 46 47)"><path d="M0 0 C19.91 0, 39.83 0, 92 0 M0 0 C33.84 0, 67.67 0, 92 0 M92 0 C92 20.16, 92 40.33, 92 94 M92 0 C92 19.43, 92 38.86, 92 94 M92 94 C55.4 94, 18.79 94, 0 94 M92 94 C64.78 94, 37.55 94, 0 94 M0 94 C0 60.74, 0 27.48, 0 0 M0 94 C0 65.45, 0 36.91, 0 0" stroke="#000000" stroke-width="1" fill="none"></path></g><g stroke-linecap="round" transform="translate(347.8202754412548 11.267106382407292) rotate(0 45.73289361759271 45.73289361759271)"><path d="M0 0 C22.5 0, 45 0, 91.47 0 M0 0 C20.72 0, 41.44 0, 91.47 0 M91.47 0 C91.47 35.45, 91.47 70.9, 91.47 91.47 M91.47 0 C91.47 30.03, 91.47 60.06, 91.47 91.47 M91.47 91.47 C58.67 91.47, 25.88 91.47, 0 91.47 M91.47 91.47 C60.31 91.47, 29.15 91.47, 0 91.47 M0 91.47 C0 58.15, 0 24.84, 0 0 M0 91.47 C0 60.78, 0 30.1, 0 0" stroke="#000000" stroke-width="1" fill="none"></path></g><g stroke-linecap="round" transform="translate(237.38587758518406 11.267106382407292) rotate(0 45.73289361759271 45.73289361759271)"><path d="M0 0 C28.9 0, 57.79 0, 91.47 0 M0 0 C19.49 0, 38.97 0, 91.47 0 M91.47 0 C91.47 25.53, 91.47 51.07, 91.47 91.47 M91.47 0 C91.47 20.56, 91.47 41.12, 91.47 91.47 M91.47 91.47 C59.89 91.47, 28.32 91.47, 0 91.47 M91.47 91.47 C69.21 91.47, 46.95 91.47, 0 91.47 M0 91.47 C0 58.86, 0 26.26, 0 0 M0 91.47 C0 70.83, 0 50.19, 0 0" stroke="#000000" stroke-width="1" fill="none"></path></g><g transform="translate(20.982869108227987 34.5) rotate(0 40.5 22.5)"><text x="40.5" y="32" font-family="Virgil, Segoe UI Emoji" font-size="36px" fill="#000000" text-anchor="middle" style="white-space: pre;" direction="ltr">6</text></g><g transform="translate(131.41726696429873 34.5) rotate(0 41 22.5)"><text x="41" y="32" font-family="Virgil, Segoe UI Emoji" font-size="36px" fill="#000000" text-anchor="middle" style="white-space: pre;" direction="ltr">5</text></g><g transform="translate(352.8202754412548 34.5) rotate(0 40.5 22.5)"><text x="40.5" y="32" font-family="Virgil, Segoe UI Emoji" font-size="36px" fill="#000000" text-anchor="middle" style="white-space: pre;" direction="ltr">3</text></g><g transform="translate(242.38587758518406 34.5) rotate(0 40.5 22.5)"><text x="40.5" y="32" font-family="Virgil, Segoe UI Emoji" font-size="36px" fill="#000000" text-anchor="middle" style="white-space: pre;" direction="ltr">4</text></g><g stroke-linecap="round" transform="translate(458.25467329732555 10.070532560761649) rotate(0 45.73289361759271 45.73289361759271)"><path d="M0 0 C25.81 0, 51.63 0, 91.47 0 M0 0 C24.79 0, 49.58 0, 91.47 0 M91.47 0 C91.47 27.71, 91.47 55.43, 91.47 91.47 M91.47 0 C91.47 32.01, 91.47 64.03, 91.47 91.47 M91.47 91.47 C72.7 91.47, 53.94 91.47, 0 91.47 M91.47 91.47 C55.73 91.47, 19.99 91.47, 0 91.47 M0 91.47 C0 64.31, 0 37.15, 0 0 M0 91.47 C0 55.46, 0 19.46, 0 0" stroke="#000000" stroke-width="1" fill="none"></path></g><g transform="translate(463.25467329732555 33.30342617835436) rotate(0 40.5 22.5)"><text x="40.5" y="32" font-family="Virgil, Segoe UI Emoji" font-size="36px" fill="#000000" text-anchor="middle" style="white-space: pre;" direction="ltr">2</text></g><g stroke-linecap="round" transform="translate(568.6890711533963 11.267106382407292) rotate(0 45.73289361759271 45.73289361759271)"><path d="M0 0 C33.2 0, 66.39 0, 91.47 0 M0 0 C33.2 0, 66.4 0, 91.47 0 M91.47 0 C91.47 23.67, 91.47 47.34, 91.47 91.47 M91.47 0 C91.47 18.57, 91.47 37.15, 91.47 91.47 M91.47 91.47 C61.95 91.47, 32.43 91.47, 0 91.47 M91.47 91.47 C72.16 91.47, 52.86 91.47, 0 91.47 M0 91.47 C0 56.67, 0 21.87, 0 0 M0 91.47 C0 71.94, 0 52.4, 0 0" stroke="#000000" stroke-width="1" fill="none"></path></g><g transform="translate(573.6890711533963 34.5) rotate(0 40.5 22.5)"><text x="40.5" y="32" font-family="Virgil, Segoe UI Emoji" font-size="36px" fill="#000000" text-anchor="middle" style="white-space: pre;" direction="ltr">1</text></g></svg>