<svg version="1.1" xmlns="http://www.w3.org/2000/svg" viewBox="0 0 911.9086968962525 551.0894114434504" width="911.9086968962525" height="551.0894114434504">
  <!-- svg-source:excalidraw -->
  
  <defs>
    <style class="style-fonts">
      @font-face {
        font-family: "Virgil";
        src: url("https://excalidraw.com/Virgil.woff2");
      }
      @font-face {
        font-family: "Cascadia";
        src: url("https://excalidraw.com/Cascadia.woff2");
      }
    </style>
  </defs>
  <rect x="0" y="0" width="911.9086968962525" height="551.0894114434504" fill="#ffffff"></rect><g stroke-linecap="round" transform="translate(225.58020735904344 43.49547868997968) rotate(0 46 46)"><path d="M0 0 C27.2 0, 54.41 0, 92 0 M0 0 C21.49 0, 42.99 0, 92 0 M92 0 C92 27.74, 92 55.49, 92 92 M92 0 C92 21.05, 92 42.09, 92 92 M92 92 C55.87 92, 19.74 92, 0 92 M92 92 C62.32 92, 32.63 92, 0 92 M0 92 C0 58.33, 0 24.65, 0 0 M0 92 C0 62.46, 0 32.91, 0 0" stroke="#000000" stroke-width="4" fill="none"></path></g><g transform="translate(265.58020735904347 66.99547868997968) rotate(0 6 22.5)"><text x="6" y="32" font-family="Virgil, Segoe UI Emoji" font-size="36px" fill="#000000" text-anchor="middle" style="white-space: pre;" direction="ltr">1</text></g><g transform="translate(265.08020735904347 10.000000000000057) rotate(0 6.5 10)"><text x="6.5" y="14" font-family="Virgil, Segoe UI Emoji" font-size="16px" fill="#000000" text-anchor="middle" style="white-space: pre;" direction="ltr">0</text></g><g stroke-linecap="round" transform="translate(341.5402752551346 43.49547868997968) rotate(0 46 46)"><path d="M0 0 C27.57 0, 55.13 0, 92 0 M0 0 C29.42 0, 58.83 0, 92 0 M92 0 C92 29.32, 92 58.65, 92 92 M92 0 C92 34.91, 92 69.81, 92 92 M92 92 C62.33 92, 32.66 92, 0 92 M92 92 C61.37 92, 30.74 92, 0 92 M0 92 C0 72.09, 0 52.17, 0 0 M0 92 C0 57.99, 0 23.98, 0 0" stroke="#000000" stroke-width="4" fill="none"></path></g><g transform="translate(373.5402752551347 66.99547868997968) rotate(0 14 22.5)"><text x="14" y="32" font-family="Virgil, Segoe UI Emoji" font-size="36px" fill="#000000" text-anchor="middle" style="white-space: pre;" direction="ltr">2</text></g><g transform="translate(384.5402752551346 10.000000000000057) rotate(0 3 10)"><text x="3" y="14" font-family="Virgil, Segoe UI Emoji" font-size="16px" fill="#000000" text-anchor="middle" style="white-space: pre;" direction="ltr">1</text></g><g stroke-linecap="round" transform="translate(457.5003431512257 43.49547868997968) rotate(0 46 46)"><path d="M0 0 C19.87 0, 39.75 0, 92 0 M0 0 C22.24 0, 44.48 0, 92 0 M92 0 C92 19.38, 92 38.76, 92 92 M92 0 C92 21.79, 92 43.58, 92 92 M92 92 C66.52 92, 41.05 92, 0 92 M92 92 C72.41 92, 52.82 92, 0 92 M0 92 C0 64.89, 0 37.79, 0 0 M0 92 C0 71.08, 0 50.17, 0 0" stroke="#000000" stroke-width="4" fill="none"></path></g><g transform="translate(497.5003431512257 66.99547868997968) rotate(0 6 22.5)"><text x="6" y="32" font-family="Virgil, Segoe UI Emoji" font-size="36px" fill="#000000" text-anchor="middle" style="white-space: pre;" direction="ltr">1</text></g><g transform="translate(497.0003431512257 10.000000000000057) rotate(0 6.5 10)"><text x="6.5" y="14" font-family="Virgil, Segoe UI Emoji" font-size="16px" fill="#000000" text-anchor="middle" style="white-space: pre;" direction="ltr">2</text></g><g stroke-linecap="round" transform="translate(573.4604110473169 43.49547868997968) rotate(0 46 46)"><path d="M0 0 C23.64 0, 47.29 0, 92 0 M0 0 C25.88 0, 51.75 0, 92 0 M92 0 C92 24.12, 92 48.24, 92 92 M92 0 C92 34.69, 92 69.38, 92 92 M92 92 C64.01 92, 36.03 92, 0 92 M92 92 C65.09 92, 38.18 92, 0 92 M0 92 C0 73.34, 0 54.68, 0 0 M0 92 C0 60.98, 0 29.97, 0 0" stroke="#000000" stroke-width="4" fill="none"></path></g><g transform="translate(605.4604110473169 66.99547868997968) rotate(0 14 22.5)"><text x="14" y="32" font-family="Virgil, Segoe UI Emoji" font-size="36px" fill="#000000" text-anchor="middle" style="white-space: pre;" direction="ltr">2</text></g><g transform="translate(612.9604110473169 10.000000000000057) rotate(0 6.5 10)"><text x="6.5" y="14" font-family="Virgil, Segoe UI Emoji" font-size="16px" fill="#000000" text-anchor="middle" style="white-space: pre;" direction="ltr">3</text></g><g stroke-linecap="round" transform="translate(689.4204789434082 43.49547868997962) rotate(0 46 46)"><path d="M0 0 C22.89 0, 45.78 0, 92 0 M0 0 C23.95 0, 47.91 0, 92 0 M92 0 C92 26.5, 92 52.99, 92 92 M92 0 C92 32.29, 92 64.57, 92 92 M92 92 C55.38 92, 18.76 92, 0 92 M92 92 C72.62 92, 53.23 92, 0 92 M0 92 C0 73.2, 0 54.39, 0 0 M0 92 C0 65.71, 0 39.43, 0 0" stroke="#000000" stroke-width="4" fill="none"></path></g><g transform="translate(714.4204789434082 66.99547868997962) rotate(0 21 22.5)"><text x="21" y="32" font-family="Virgil, Segoe UI Emoji" font-size="36px" fill="#000000" text-anchor="middle" style="white-space: pre;" direction="ltr">-2</text></g><g transform="translate(729.4204789434082 10) rotate(0 6 10)"><text x="6" y="14" font-family="Virgil, Segoe UI Emoji" font-size="16px" fill="#000000" text-anchor="middle" style="white-space: pre;" direction="ltr">4</text></g><g stroke-linecap="round" transform="translate(805.3805468394994 43.49547868997962) rotate(0 46 46)"><path d="M0 0 C34.28 0, 68.55 0, 92 0 M0 0 C32.3 0, 64.59 0, 92 0 M92 0 C92 25.13, 92 50.26, 92 92 M92 0 C92 36.22, 92 72.44, 92 92 M92 92 C70.09 92, 48.17 92, 0 92 M92 92 C62.08 92, 32.16 92, 0 92 M0 92 C0 67.7, 0 43.39, 0 0 M0 92 C0 63.23, 0 34.45, 0 0" stroke="#000000" stroke-width="4" fill="none"></path></g><g transform="translate(837.8805468394994 66.99547868997962) rotate(0 13.5 22.5)"><text x="13.5" y="32" font-family="Virgil, Segoe UI Emoji" font-size="36px" fill="#000000" text-anchor="middle" style="white-space: pre;" direction="ltr">3</text></g><g transform="translate(845.3805468394994 10) rotate(0 6 10)"><text x="6" y="14" font-family="Virgil, Segoe UI Emoji" font-size="16px" fill="#000000" text-anchor="middle" style="white-space: pre;" direction="ltr">5</text></g><g transform="translate(10 205.04372394810065) rotate(0 99.00000000000001 15)"><text x="99" y="21" font-family="Virgil, Segoe UI Emoji" font-size="23.2302881377066px" fill="#000000" text-anchor="middle" style="white-space: pre;" direction="ltr">maior - menor + 1</text></g><g stroke-linecap="round" transform="translate(223.46522667175478 178.3471442887033) rotate(0 46 46)"><path d="M0 0 C22.55 0, 45.1 0, 92 0 M0 0 C19.42 0, 38.85 0, 92 0 M92 0 C92 28.04, 92 56.08, 92 92 M92 0 C92 28.35, 92 56.69, 92 92 M92 92 C58.96 92, 25.93 92, 0 92 M92 92 C56.37 92, 20.74 92, 0 92 M0 92 C0 66, 0 40, 0 0 M0 92 C0 65.55, 0 39.09, 0 0" stroke="#000000" stroke-width="4" fill="none"></path></g><g transform="translate(255.96522667175478 201.8471442887033) rotate(0 13.5 22.5)"><text x="13.5" y="32" font-family="Virgil, Segoe UI Emoji" font-size="36px" fill="#000000" text-anchor="middle" style="white-space: pre;" direction="ltr">0</text></g><g transform="translate(262.96522667175475 144.85166559872368) rotate(0 6.5 10)"><text x="6.5" y="14" font-family="Virgil, Segoe UI Emoji" font-size="16px" fill="#000000" text-anchor="middle" style="white-space: pre;" direction="ltr">0</text></g><g stroke-linecap="round" transform="translate(339.425294567846 178.3471442887033) rotate(0 45.99999999999997 46)"><path d="M0 0 C32.12 0, 64.25 0, 92 0 M0 0 C22.56 0, 45.12 0, 92 0 M92 0 C92 33.2, 92 66.39, 92 92 M92 0 C92 24.53, 92 49.05, 92 92 M92 92 C63.13 92, 34.26 92, 0 92 M92 92 C67.5 92, 43 92, 0 92 M0 92 C0 71.8, 0 51.6, 0 0 M0 92 C0 56.24, 0 20.48, 0 0" stroke="#000000" stroke-width="4" fill="none"></path></g><g transform="translate(371.925294567846 201.8471442887033) rotate(0 13.5 22.5)"><text x="13.5" y="32" font-family="Virgil, Segoe UI Emoji" font-size="36px" fill="#000000" text-anchor="middle" style="white-space: pre;" direction="ltr">0</text></g><g transform="translate(382.425294567846 144.85166559872368) rotate(0 3 10)"><text x="3" y="14" font-family="Virgil, Segoe UI Emoji" font-size="16px" fill="#000000" text-anchor="middle" style="white-space: pre;" direction="ltr">1</text></g><g stroke-linecap="round" transform="translate(455.3853624639371 178.3471442887033) rotate(0 46 46)"><path d="M0 0 C19.52 0, 39.04 0, 92 0 M0 0 C35.19 0, 70.39 0, 92 0 M92 0 C92 35.53, 92 71.06, 92 92 M92 0 C92 21.8, 92 43.6, 92 92 M92 92 C56.21 92, 20.42 92, 0 92 M92 92 C59.35 92, 26.7 92, 0 92 M0 92 C0 61.22, 0 30.44, 0 0 M0 92 C0 57.93, 0 23.85, 0 0" stroke="#000000" stroke-width="4" fill="none"></path></g><g transform="translate(487.8853624639371 201.8471442887033) rotate(0 13.5 22.5)"><text x="13.5" y="32" font-family="Virgil, Segoe UI Emoji" font-size="36px" fill="#000000" text-anchor="middle" style="white-space: pre;" direction="ltr">0</text></g><g transform="translate(494.8853624639371 144.85166559872368) rotate(0 6.5 10)"><text x="6.5" y="14" font-family="Virgil, Segoe UI Emoji" font-size="16px" fill="#000000" text-anchor="middle" style="white-space: pre;" direction="ltr">2</text></g><g stroke-linecap="round" transform="translate(571.3454303600283 178.3471442887033) rotate(0 46 46)"><path d="M0 0 C34.63 0, 69.25 0, 92 0 M0 0 C36.61 0, 73.23 0, 92 0 M92 0 C92 25.22, 92 50.43, 92 92 M92 0 C92 33.16, 92 66.32, 92 92 M92 92 C71.81 92, 51.62 92, 0 92 M92 92 C62.58 92, 33.15 92, 0 92 M0 92 C0 64.91, 0 37.83, 0 0 M0 92 C0 65.84, 0 39.67, 0 0" stroke="#000000" stroke-width="4" fill="none"></path></g><g transform="translate(603.8454303600283 201.8471442887033) rotate(0 13.5 22.5)"><text x="13.5" y="32" font-family="Virgil, Segoe UI Emoji" font-size="36px" fill="#000000" text-anchor="middle" style="white-space: pre;" direction="ltr">0</text></g><g transform="translate(610.8454303600283 144.85166559872368) rotate(0 6.5 10)"><text x="6.5" y="14" font-family="Virgil, Segoe UI Emoji" font-size="16px" fill="#000000" text-anchor="middle" style="white-space: pre;" direction="ltr">3</text></g><g stroke-linecap="round" transform="translate(687.3054982561196 178.34714428870325) rotate(0 46 46)"><path d="M0 0 C18.53 0, 37.05 0, 92 0 M0 0 C32.54 0, 65.09 0, 92 0 M92 0 C92 32.26, 92 64.52, 92 92 M92 0 C92 36.78, 92 73.57, 92 92 M92 92 C56.28 92, 20.55 92, 0 92 M92 92 C65.86 92, 39.73 92, 0 92 M0 92 C0 61.64, 0 31.27, 0 0 M0 92 C0 57.67, 0 23.33, 0 0" stroke="#000000" stroke-width="4" fill="none"></path></g><g transform="translate(719.8054982561196 201.84714428870325) rotate(0 13.5 22.5)"><text x="13.5" y="32" font-family="Virgil, Segoe UI Emoji" font-size="36px" fill="#000000" text-anchor="middle" style="white-space: pre;" direction="ltr">0</text></g><g transform="translate(727.3054982561196 144.85166559872363) rotate(0 6 10)"><text x="6" y="14" font-family="Virgil, Segoe UI Emoji" font-size="16px" fill="#000000" text-anchor="middle" style="white-space: pre;" direction="ltr">4</text></g><g stroke-linecap="round" transform="translate(803.2655661522108 178.34714428870325) rotate(0 46 46)"><path d="M0 0 C28.03 0, 56.06 0, 92 0 M0 0 C28.41 0, 56.83 0, 92 0 M92 0 C92 29.02, 92 58.04, 92 92 M92 0 C92 32.14, 92 64.27, 92 92 M92 92 C67.35 92, 42.7 92, 0 92 M92 92 C61.07 92, 30.14 92, 0 92 M0 92 C0 57.29, 0 22.59, 0 0 M0 92 C0 66.32, 0 40.64, 0 0" stroke="#000000" stroke-width="4" fill="none"></path></g><g transform="translate(835.7655661522108 201.84714428870325) rotate(0 13.5 22.5)"><text x="13.5" y="32" font-family="Virgil, Segoe UI Emoji" font-size="36px" fill="#000000" text-anchor="middle" style="white-space: pre;" direction="ltr">0</text></g><g transform="translate(843.2655661522108 144.85166559872363) rotate(0 6 10)"><text x="6" y="14" font-family="Virgil, Segoe UI Emoji" font-size="16px" fill="#000000" text-anchor="middle" style="white-space: pre;" direction="ltr">4</text></g><g stroke-linecap="round" transform="translate(227.0895907112945 313.2449097408588) rotate(0 46 46)"><path d="M0 0 C29.27 0, 58.53 0, 92 0 M0 0 C21.84 0, 43.67 0, 92 0 M92 0 C92 33.64, 92 67.28, 92 92 M92 0 C92 30.16, 92 60.32, 92 92 M92 92 C72.41 92, 52.81 92, 0 92 M92 92 C68.45 92, 44.89 92, 0 92 M0 92 C0 57.83, 0 23.66, 0 0 M0 92 C0 58.71, 0 25.43, 0 0" stroke="#000000" stroke-width="4" fill="none"></path></g><g transform="translate(267.0895907112945 336.7449097408588) rotate(0 6 22.5)"><text x="6" y="32" font-family="Virgil, Segoe UI Emoji" font-size="36px" fill="#000000" text-anchor="middle" style="white-space: pre;" direction="ltr">1</text></g><g transform="translate(266.5895907112945 279.74943105087914) rotate(0 6.5 10)"><text x="6.5" y="14" font-family="Virgil, Segoe UI Emoji" font-size="16px" fill="#000000" text-anchor="middle" style="white-space: pre;" direction="ltr">0</text></g><g stroke-linecap="round" transform="translate(343.0496586073857 313.2449097408588) rotate(0 46.00000000000003 46)"><path d="M0 0 C24.81 0, 49.61 0, 92 0 M0 0 C23.39 0, 46.77 0, 92 0 M92 0 C92 34.33, 92 68.67, 92 92 M92 0 C92 28.8, 92 57.61, 92 92 M92 92 C60.18 92, 28.36 92, 0 92 M92 92 C63.85 92, 35.69 92, 0 92 M0 92 C0 59.11, 0 26.23, 0 0 M0 92 C0 69.26, 0 46.51, 0 0" stroke="#000000" stroke-width="4" fill="none"></path></g><g transform="translate(375.5496586073857 336.7449097408588) rotate(0 13.5 22.5)"><text x="13.5" y="32" font-family="Virgil, Segoe UI Emoji" font-size="36px" fill="#000000" text-anchor="middle" style="white-space: pre;" direction="ltr">0</text></g><g transform="translate(386.0496586073857 279.74943105087914) rotate(0 3 10)"><text x="3" y="14" font-family="Virgil, Segoe UI Emoji" font-size="16px" fill="#000000" text-anchor="middle" style="white-space: pre;" direction="ltr">1</text></g><g stroke-linecap="round" transform="translate(459.0097265034768 313.2449097408588) rotate(0 46 46)"><path d="M0 0 C36.22 0, 72.43 0, 92 0 M0 0 C25.03 0, 50.07 0, 92 0 M92 0 C92 19.97, 92 39.94, 92 92 M92 0 C92 29.33, 92 58.66, 92 92 M92 92 C60.17 92, 28.34 92, 0 92 M92 92 C57.58 92, 23.16 92, 0 92 M0 92 C0 65.03, 0 38.07, 0 0 M0 92 C0 65.12, 0 38.23, 0 0" stroke="#000000" stroke-width="4" fill="none"></path></g><g transform="translate(491.5097265034768 336.7449097408588) rotate(0 13.5 22.5)"><text x="13.5" y="32" font-family="Virgil, Segoe UI Emoji" font-size="36px" fill="#000000" text-anchor="middle" style="white-space: pre;" direction="ltr">0</text></g><g transform="translate(498.5097265034768 279.74943105087914) rotate(0 6.5 10)"><text x="6.5" y="14" font-family="Virgil, Segoe UI Emoji" font-size="16px" fill="#000000" text-anchor="middle" style="white-space: pre;" direction="ltr">2</text></g><g stroke-linecap="round" transform="translate(574.9697943995681 313.2449097408588) rotate(0 46 46)"><path d="M0 0 C21.48 0, 42.96 0, 92 0 M0 0 C25.46 0, 50.91 0, 92 0 M92 0 C92 19.32, 92 38.64, 92 92 M92 0 C92 20.15, 92 40.3, 92 92 M92 92 C59.35 92, 26.7 92, 0 92 M92 92 C72.37 92, 52.74 92, 0 92 M0 92 C0 63.65, 0 35.3, 0 0 M0 92 C0 71.8, 0 51.61, 0 0" stroke="#000000" stroke-width="4" fill="none"></path></g><g transform="translate(614.9697943995681 336.7449097408588) rotate(0 6 22.5)"><text x="6" y="32" font-family="Virgil, Segoe UI Emoji" font-size="36px" fill="#000000" text-anchor="middle" style="white-space: pre;" direction="ltr">1</text></g><g transform="translate(614.4697943995681 279.74943105087914) rotate(0 6.5 10)"><text x="6.5" y="14" font-family="Virgil, Segoe UI Emoji" font-size="16px" fill="#000000" text-anchor="middle" style="white-space: pre;" direction="ltr">3</text></g><g stroke-linecap="round" transform="translate(690.9298622956593 313.2449097408587) rotate(0 46 46)"><path d="M0 0 C32.01 0, 64.02 0, 92 0 M0 0 C28.38 0, 56.76 0, 92 0 M92 0 C92 28.94, 92 57.89, 92 92 M92 0 C92 32.95, 92 65.91, 92 92 M92 92 C64.55 92, 37.09 92, 0 92 M92 92 C58.61 92, 25.23 92, 0 92 M0 92 C0 59.72, 0 27.44, 0 0 M0 92 C0 59.49, 0 26.97, 0 0" stroke="#000000" stroke-width="4" fill="none"></path></g><g transform="translate(722.9298622956593 336.7449097408587) rotate(0 14 22.5)"><text x="14" y="32" font-family="Virgil, Segoe UI Emoji" font-size="36px" fill="#000000" text-anchor="middle" style="white-space: pre;" direction="ltr">2</text></g><g transform="translate(730.9298622956593 279.74943105087914) rotate(0 6 10)"><text x="6" y="14" font-family="Virgil, Segoe UI Emoji" font-size="16px" fill="#000000" text-anchor="middle" style="white-space: pre;" direction="ltr">4</text></g><g stroke-linecap="round" transform="translate(806.8899301917505 313.2449097408587) rotate(0 46 46)"><path d="M0 0 C29.5 0, 59.01 0, 92 0 M0 0 C27.89 0, 55.79 0, 92 0 M92 0 C92 23.26, 92 46.52, 92 92 M92 0 C92 26.85, 92 53.69, 92 92 M92 92 C64.77 92, 37.54 92, 0 92 M92 92 C56.27 92, 20.54 92, 0 92 M0 92 C0 64.61, 0 37.22, 0 0 M0 92 C0 58.83, 0 25.66, 0 0" stroke="#000000" stroke-width="4" fill="none"></path></g><g transform="translate(846.8899301917505 336.7449097408587) rotate(0 6 22.5)"><text x="6" y="32" font-family="Virgil, Segoe UI Emoji" font-size="36px" fill="#000000" text-anchor="middle" style="white-space: pre;" direction="ltr">1</text></g><g transform="translate(846.8899301917505 279.74943105087914) rotate(0 6 10)"><text x="6" y="14" font-family="Virgil, Segoe UI Emoji" font-size="16px" fill="#000000" text-anchor="middle" style="white-space: pre;" direction="ltr">4</text></g><g transform="translate(59.68734028189115 336.298685419344) rotate(0 76.5 15)"><text x="76.5" y="21" font-family="Virgil, Segoe UI Emoji" font-size="23.2302881377066px" fill="#000000" text-anchor="middle" style="white-space: pre;" direction="ltr">valor - menor</text></g><g transform="translate(44.62165681613399 472.1431871219355) rotate(0 81 15)"><text x="81" y="21" font-family="Virgil, Segoe UI Emoji" font-size="23.2302881377066px" fill="#000000" text-anchor="middle" style="white-space: pre;" direction="ltr">índice + menor</text></g><g stroke-linecap="round" transform="translate(230.10835741579652 449.08941144345044) rotate(0 46 46)"><path d="M0 0 C26.2 0, 52.39 0, 92 0 M0 0 C30.54 0, 61.07 0, 92 0 M92 0 C92 31.65, 92 63.31, 92 92 M92 0 C92 21.43, 92 42.85, 92 92 M92 92 C61.88 92, 31.76 92, 0 92 M92 92 C72.7 92, 53.39 92, 0 92 M0 92 C0 71.66, 0 51.32, 0 0 M0 92 C0 61.86, 0 31.71, 0 0" stroke="#000000" stroke-width="4" fill="none"></path></g><g transform="translate(270.1083574157965 472.58941144345044) rotate(0 6 22.5)"><text x="6" y="32" font-family="Virgil, Segoe UI Emoji" font-size="36px" fill="#000000" text-anchor="middle" style="white-space: pre;" direction="ltr">1</text></g><g transform="translate(269.6083574157965 415.59393275347077) rotate(0 6.5 10)"><text x="6.5" y="14" font-family="Virgil, Segoe UI Emoji" font-size="16px" fill="#000000" text-anchor="middle" style="white-space: pre;" direction="ltr">0</text></g><g stroke-linecap="round" transform="translate(346.0684253118877 449.08941144345044) rotate(0 46.00000000000003 46)"><path d="M0 0 C25.67 0, 51.35 0, 92 0 M0 0 C30.25 0, 60.49 0, 92 0 M92 0 C92 27.38, 92 54.76, 92 92 M92 0 C92 31.8, 92 63.61, 92 92 M92 92 C70.05 92, 48.11 92, 0 92 M92 92 C61.38 92, 30.75 92, 0 92 M0 92 C0 61.29, 0 30.58, 0 0 M0 92 C0 67.26, 0 42.52, 0 0" stroke="#000000" stroke-width="4" fill="none"></path></g><g transform="translate(378.5684253118877 472.58941144345044) rotate(0 13.5 22.5)"><text x="13.5" y="32" font-family="Virgil, Segoe UI Emoji" font-size="36px" fill="#000000" text-anchor="middle" style="white-space: pre;" direction="ltr">0</text></g><g transform="translate(389.0684253118877 415.59393275347077) rotate(0 3 10)"><text x="3" y="14" font-family="Virgil, Segoe UI Emoji" font-size="16px" fill="#000000" text-anchor="middle" style="white-space: pre;" direction="ltr">1</text></g><g stroke-linecap="round" transform="translate(462.02849320797884 449.08941144345044) rotate(0 46 46)"><path d="M0 0 C20.95 0, 41.9 0, 92 0 M0 0 C35.53 0, 71.05 0, 92 0 M92 0 C92 20.56, 92 41.13, 92 92 M92 0 C92 22.6, 92 45.2, 92 92 M92 92 C66.25 92, 40.5 92, 0 92 M92 92 C66.92 92, 41.84 92, 0 92 M0 92 C0 69.49, 0 46.98, 0 0 M0 92 C0 71.87, 0 51.74, 0 0" stroke="#000000" stroke-width="4" fill="none"></path></g><g transform="translate(494.52849320797884 472.58941144345044) rotate(0 13.5 22.5)"><text x="13.5" y="32" font-family="Virgil, Segoe UI Emoji" font-size="36px" fill="#000000" text-anchor="middle" style="white-space: pre;" direction="ltr">0</text></g><g transform="translate(501.52849320797884 415.59393275347077) rotate(0 6.5 10)"><text x="6.5" y="14" font-family="Virgil, Segoe UI Emoji" font-size="16px" fill="#000000" text-anchor="middle" style="white-space: pre;" direction="ltr">2</text></g><g stroke-linecap="round" transform="translate(577.9885611040701 449.08941144345044) rotate(0 46 46)"><path d="M0 0 C30.31 0, 60.62 0, 92 0 M0 0 C27.88 0, 55.76 0, 92 0 M92 0 C92 33.53, 92 67.07, 92 92 M92 0 C92 31.02, 92 62.03, 92 92 M92 92 C64.9 92, 37.8 92, 0 92 M92 92 C69.79 92, 47.59 92, 0 92 M0 92 C0 72.28, 0 52.57, 0 0 M0 92 C0 65.22, 0 38.45, 0 0" stroke="#000000" stroke-width="4" fill="none"></path></g><g transform="translate(617.9885611040701 472.58941144345044) rotate(0 6 22.5)"><text x="6" y="32" font-family="Virgil, Segoe UI Emoji" font-size="36px" fill="#000000" text-anchor="middle" style="white-space: pre;" direction="ltr">1</text></g><g transform="translate(617.4885611040701 415.59393275347077) rotate(0 6.5 10)"><text x="6.5" y="14" font-family="Virgil, Segoe UI Emoji" font-size="16px" fill="#000000" text-anchor="middle" style="white-space: pre;" direction="ltr">3</text></g><g stroke-linecap="round" transform="translate(693.9486290001613 449.08941144345033) rotate(0 46 46)"><path d="M0 0 C25.33 0, 50.66 0, 92 0 M0 0 C30.57 0, 61.14 0, 92 0 M92 0 C92 19.74, 92 39.48, 92 92 M92 0 C92 29.25, 92 58.49, 92 92 M92 92 C56.14 92, 20.27 92, 0 92 M92 92 C64.96 92, 37.92 92, 0 92 M0 92 C0 61.65, 0 31.31, 0 0 M0 92 C0 58.22, 0 24.44, 0 0" stroke="#000000" stroke-width="4" fill="none"></path></g><g transform="translate(725.9486290001613 472.58941144345033) rotate(0 14 22.5)"><text x="14" y="32" font-family="Virgil, Segoe UI Emoji" font-size="36px" fill="#000000" text-anchor="middle" style="white-space: pre;" direction="ltr">2</text></g><g transform="translate(733.9486290001613 415.59393275347077) rotate(0 6 10)"><text x="6" y="14" font-family="Virgil, Segoe UI Emoji" font-size="16px" fill="#000000" text-anchor="middle" style="white-space: pre;" direction="ltr">4</text></g><g stroke-linecap="round" transform="translate(809.9086968962525 449.08941144345033) rotate(0 46 46)"><path d="M0 0 C29.98 0, 59.96 0, 92 0 M0 0 C18.66 0, 37.31 0, 92 0 M92 0 C92 30.26, 92 60.52, 92 92 M92 0 C92 36.43, 92 72.86, 92 92 M92 92 C65.97 92, 39.94 92, 0 92 M92 92 C64.03 92, 36.05 92, 0 92 M0 92 C0 67.03, 0 42.07, 0 0 M0 92 C0 71.33, 0 50.66, 0 0" stroke="#000000" stroke-width="4" fill="none"></path></g><g transform="translate(849.9086968962525 472.58941144345033) rotate(0 6 22.5)"><text x="6" y="32" font-family="Virgil, Segoe UI Emoji" font-size="36px" fill="#000000" text-anchor="middle" style="white-space: pre;" direction="ltr">1</text></g><g transform="translate(849.9086968962525 415.59393275347077) rotate(0 6 10)"><text x="6" y="14" font-family="Virgil, Segoe UI Emoji" font-size="16px" fill="#000000" text-anchor="middle" style="white-space: pre;" direction="ltr">4</text></g></svg>