<svg version="1.1" xmlns="http://www.w3.org/2000/svg" viewBox="0 0 250.00858356475067 236.78125288051575" width="250.00858356475067" height="236.78125288051575">
  <!-- svg-source:excalidraw -->
  
  <defs>
    <style class="style-fonts">
      @font-face {
        font-family: "Virgil";
        src: url("https://excalidraw.com/Virgil.woff2");
      }
      @font-face {
        font-family: "Cascadia";
        src: url("https://excalidraw.com/Cascadia.woff2");
      }
    </style>
  </defs>
  <g stroke-linecap="round" transform="translate(10 10.734851704679727) rotate(0 22.04555114039141 22.04555114039144)"><path d="M0 0 L44.09 0 L44.09 44.09 L0 44.09" stroke="none" stroke-width="0" fill="#40c057"></path><path d="M0 0 C12.81 0, 25.62 0, 44.09 0 M0 0 C12.3 0, 24.6 0, 44.09 0 M44.09 0 C44.09 12.28, 44.09 24.55, 44.09 44.09 M44.09 0 C44.09 8.88, 44.09 17.75, 44.09 44.09 M44.09 44.09 C28.1 44.09, 12.1 44.09, 0 44.09 M44.09 44.09 C29.55 44.09, 15.01 44.09, 0 44.09 M0 44.09 C0 29.62, 0 15.15, 0 0 M0 44.09 C0 31.17, 0 18.24, 0 0" stroke="#000000" stroke-width="1" fill="none"></path></g><g transform="translate(25.045551140391467 20.280402845071137) rotate(0 7 12.5)"><text x="7" y="18" font-family="Virgil, Segoe UI Emoji" font-size="20px" fill="#000000" text-anchor="middle" style="white-space: pre;" direction="ltr">5</text></g><g stroke-linecap="round" transform="translate(70.99269148841631 10.734851704679727) rotate(0 22.04555114039141 22.04555114039144)"><path d="M0 0 L44.09 0 L44.09 44.09 L0 44.09" stroke="none" stroke-width="0" fill="#40c057"></path><path d="M0 0 C15.69 0, 31.37 0, 44.09 0 M0 0 C17.48 0, 34.96 0, 44.09 0 M44.09 0 C44.09 12.88, 44.09 25.77, 44.09 44.09 M44.09 0 C44.09 9.03, 44.09 18.06, 44.09 44.09 M44.09 44.09 C27.74 44.09, 11.39 44.09, 0 44.09 M44.09 44.09 C27.48 44.09, 10.87 44.09, 0 44.09 M0 44.09 C0 31.78, 0 19.46, 0 0 M0 44.09 C0 32.21, 0 20.33, 0 0" stroke="#000000" stroke-width="1" fill="none"></path></g><g transform="translate(85.53824262880778 20.280402845071137) rotate(0 7.5 12.5)"><text x="7.5" y="18" font-family="Virgil, Segoe UI Emoji" font-size="20px" fill="#000000" text-anchor="middle" style="white-space: pre;" direction="ltr">4</text></g><g stroke-linecap="round" transform="translate(132.72023468151224 10.734851704679727) rotate(0 22.04555114039141 22.04555114039144)"><path d="M0 0 C15.81 0, 31.63 0, 44.09 0 M0 0 C9.87 0, 19.74 0, 44.09 0 M44.09 0 C44.09 15.27, 44.09 30.55, 44.09 44.09 M44.09 0 C44.09 11.75, 44.09 23.5, 44.09 44.09 M44.09 44.09 C27.51 44.09, 10.93 44.09, 0 44.09 M44.09 44.09 C28.05 44.09, 12 44.09, 0 44.09 M0 44.09 C0 32.5, 0 20.9, 0 0 M0 44.09 C0 27.48, 0 10.88, 0 0" stroke="#000000" stroke-width="1" fill="none"></path></g><g transform="translate(146.7657858219037 20.280402845071137) rotate(0 8 12.5)"><text x="8" y="18" font-family="Virgil, Segoe UI Emoji" font-size="20px" fill="#000000" text-anchor="middle" style="white-space: pre;" direction="ltr">3</text></g><g stroke-linecap="round" transform="translate(193.71292616992855 10) rotate(0 22.04555114039141 22.04555114039144)"><path d="M0 0 C14.1 0, 28.2 0, 44.09 0 M0 0 C10.37 0, 20.73 0, 44.09 0 M44.09 0 C44.09 9.26, 44.09 18.51, 44.09 44.09 M44.09 0 C44.09 10.46, 44.09 20.91, 44.09 44.09 M44.09 44.09 C33.26 44.09, 22.42 44.09, 0 44.09 M44.09 44.09 C27.84 44.09, 11.59 44.09, 0 44.09 M0 44.09 C0 26.67, 0 9.25, 0 0 M0 44.09 C0 27.84, 0 11.6, 0 0" stroke="#000000" stroke-width="1" fill="none"></path></g><g transform="translate(207.75847731032002 19.54555114039141) rotate(0 8 12.5)"><text x="8" y="18" font-family="Virgil, Segoe UI Emoji" font-size="20px" fill="#000000" text-anchor="middle" style="white-space: pre;" direction="ltr">2</text></g><g stroke-linecap="round" transform="translate(11.469703409359454 65.11387785097855) rotate(0 22.04555114039141 22.04555114039144)"><path d="M0 0 C16.31 0, 32.62 0, 44.09 0 M0 0 C13.38 0, 26.76 0, 44.09 0 M44.09 0 C44.09 9.91, 44.09 19.82, 44.09 44.09 M44.09 0 C44.09 9.36, 44.09 18.71, 44.09 44.09 M44.09 44.09 C31.5 44.09, 18.92 44.09, 0 44.09 M44.09 44.09 C31.19 44.09, 18.29 44.09, 0 44.09 M0 44.09 C0 26.87, 0 9.64, 0 0 M0 44.09 C0 29.19, 0 14.28, 0 0" stroke="#000000" stroke-width="1" fill="none"></path></g><g transform="translate(26.01525454975092 74.65942899137002) rotate(0 7.5 12.5)"><text x="7.5" y="18" font-family="Virgil, Segoe UI Emoji" font-size="20px" fill="#000000" text-anchor="middle" style="white-space: pre;" direction="ltr">4</text></g><g stroke-linecap="round" transform="translate(72.46239489777577 65.11387785097855) rotate(0 22.04555114039141 22.04555114039144)"><path d="M0 0 L44.09 0 L44.09 44.09 L0 44.09" stroke="none" stroke-width="0" fill="#40c057"></path><path d="M0 0 C11.28 0, 22.55 0, 44.09 0 M0 0 C15.1 0, 30.2 0, 44.09 0 M44.09 0 C44.09 12.36, 44.09 24.73, 44.09 44.09 M44.09 0 C44.09 12.03, 44.09 24.06, 44.09 44.09 M44.09 44.09 C31.32 44.09, 18.55 44.09, 0 44.09 M44.09 44.09 C30.2 44.09, 16.31 44.09, 0 44.09 M0 44.09 C0 34.15, 0 24.22, 0 0 M0 44.09 C0 34.07, 0 24.04, 0 0" stroke="#000000" stroke-width="1" fill="none"></path></g><g transform="translate(87.50794603816723 74.65942899137002) rotate(0 7 12.5)"><text x="7" y="18" font-family="Virgil, Segoe UI Emoji" font-size="20px" fill="#000000" text-anchor="middle" style="white-space: pre;" direction="ltr">5</text></g><g stroke-linecap="round" transform="translate(134.1899380908717 65.11387785097855) rotate(0 22.04555114039141 22.04555114039144)"><path d="M0 0 L44.09 0 L44.09 44.09 L0 44.09" stroke="none" stroke-width="0" fill="#40c057"></path><path d="M0 0 C9.97 0, 19.95 0, 44.09 0 M0 0 C14.44 0, 28.88 0, 44.09 0 M44.09 0 C44.09 11.94, 44.09 23.88, 44.09 44.09 M44.09 0 C44.09 9.25, 44.09 18.5, 44.09 44.09 M44.09 44.09 C32.54 44.09, 20.99 44.09, 0 44.09 M44.09 44.09 C27.66 44.09, 11.23 44.09, 0 44.09 M0 44.09 C0 34.37, 0 24.65, 0 0 M0 44.09 C0 28.01, 0 11.93, 0 0" stroke="#000000" stroke-width="1" fill="none"></path></g><g transform="translate(148.23548923126316 74.65942899136996) rotate(0 8 12.5)"><text x="8" y="18" font-family="Virgil, Segoe UI Emoji" font-size="20px" fill="#000000" text-anchor="middle" style="white-space: pre;" direction="ltr">3</text></g><g stroke-linecap="round" transform="translate(195.182629579288 64.37902614629883) rotate(0 22.04555114039141 22.04555114039144)"><path d="M0 0 C9.47 0, 18.95 0, 44.09 0 M0 0 C9.62 0, 19.24 0, 44.09 0 M44.09 0 C44.09 9.08, 44.09 18.15, 44.09 44.09 M44.09 0 C44.09 16.79, 44.09 33.57, 44.09 44.09 M44.09 44.09 C29.13 44.09, 14.17 44.09, 0 44.09 M44.09 44.09 C27.7 44.09, 11.31 44.09, 0 44.09 M0 44.09 C0 31.34, 0 18.59, 0 0 M0 44.09 C0 28.44, 0 12.78, 0 0" stroke="#000000" stroke-width="1" fill="none"></path></g><g transform="translate(209.22818071967947 73.92457728669024) rotate(0 8 12.5)"><text x="8" y="18" font-family="Virgil, Segoe UI Emoji" font-size="20px" fill="#000000" text-anchor="middle" style="white-space: pre;" direction="ltr">2</text></g><g stroke-linecap="round" transform="translate(12.20455511403918 121.69745911131662) rotate(0 22.045551140391467 22.04555114039144)"><path d="M0 0 L44.09 0 L44.09 44.09 L0 44.09" stroke="none" stroke-width="0" fill="#40c057"></path><path d="M0 0 C14.71 0, 29.42 0, 44.09 0 M0 0 C15.09 0, 30.17 0, 44.09 0 M44.09 0 C44.09 13.02, 44.09 26.04, 44.09 44.09 M44.09 0 C44.09 11.46, 44.09 22.92, 44.09 44.09 M44.09 44.09 C31.04 44.09, 17.98 44.09, 0 44.09 M44.09 44.09 C27.34 44.09, 10.58 44.09, 0 44.09 M0 44.09 C0 31.79, 0 19.5, 0 0 M0 44.09 C0 34.13, 0 24.17, 0 0" stroke="#000000" stroke-width="1" fill="none"></path></g><g transform="translate(26.750106254430648 131.24301025170809) rotate(0 7.5 12.5)"><text x="7.5" y="18" font-family="Virgil, Segoe UI Emoji" font-size="20px" fill="#000000" text-anchor="middle" style="white-space: pre;" direction="ltr">4</text></g><g stroke-linecap="round" transform="translate(73.1972466024555 121.69745911131662) rotate(0 22.045551140391467 22.04555114039144)"><path d="M0 0 L44.09 0 L44.09 44.09 L0 44.09" stroke="none" stroke-width="0" fill="#40c057"></path><path d="M0 0 C11.38 0, 22.77 0, 44.09 0 M0 0 C17.55 0, 35.11 0, 44.09 0 M44.09 0 C44.09 17.41, 44.09 34.82, 44.09 44.09 M44.09 0 C44.09 11.52, 44.09 23.04, 44.09 44.09 M44.09 44.09 C34.82 44.09, 25.54 44.09, 0 44.09 M44.09 44.09 C30.48 44.09, 16.86 44.09, 0 44.09 M0 44.09 C0 34.69, 0 25.29, 0 0 M0 44.09 C0 29.53, 0 14.98, 0 0" stroke="#000000" stroke-width="1" fill="none"></path></g><g transform="translate(87.24279774284696 131.24301025170809) rotate(0 8 12.5)"><text x="8" y="18" font-family="Virgil, Segoe UI Emoji" font-size="20px" fill="#000000" text-anchor="middle" style="white-space: pre;" direction="ltr">3</text></g><g stroke-linecap="round" transform="translate(134.92478979555142 121.69745911131662) rotate(0 22.045551140391467 22.04555114039144)"><path d="M0 0 C15.33 0, 30.66 0, 44.09 0 M0 0 C11.91 0, 23.81 0, 44.09 0 M44.09 0 C44.09 17.16, 44.09 34.32, 44.09 44.09 M44.09 0 C44.09 13.76, 44.09 27.52, 44.09 44.09 M44.09 44.09 C27.4 44.09, 10.71 44.09, 0 44.09 M44.09 44.09 C31.78 44.09, 19.47 44.09, 0 44.09 M0 44.09 C0 34.64, 0 25.19, 0 0 M0 44.09 C0 35.19, 0 26.28, 0 0" stroke="#000000" stroke-width="1" fill="none"></path></g><g transform="translate(149.9703409359429 131.24301025170809) rotate(0 7 12.5)"><text x="7" y="18" font-family="Virgil, Segoe UI Emoji" font-size="20px" fill="#000000" text-anchor="middle" style="white-space: pre;" direction="ltr">5</text></g><g stroke-linecap="round" transform="translate(195.91748128396773 120.96260740663689) rotate(0 22.045551140391467 22.04555114039144)"><path d="M0 0 C15.93 0, 31.87 0, 44.09 0 M0 0 C16.22 0, 32.44 0, 44.09 0 M44.09 0 C44.09 10.43, 44.09 20.85, 44.09 44.09 M44.09 0 C44.09 15.39, 44.09 30.78, 44.09 44.09 M44.09 44.09 C30.55 44.09, 17.01 44.09, 0 44.09 M44.09 44.09 C35.08 44.09, 26.06 44.09, 0 44.09 M0 44.09 C0 31.43, 0 18.76, 0 0 M0 44.09 C0 27.3, 0 10.51, 0 0" stroke="#000000" stroke-width="1" fill="none"></path></g><g transform="translate(209.9630324243592 130.5081585470283) rotate(0 7.999999999999943 12.5)"><text x="8" y="18" font-family="Virgil, Segoe UI Emoji" font-size="20px" fill="#000000" text-anchor="middle" style="white-space: pre;" direction="ltr">2</text></g><g stroke-linecap="round" transform="translate(12.20455511403918 182.69015059973282) rotate(0 22.045551140391467 22.045551140391467)"><path d="M0 0 L44.09 0 L44.09 44.09 L0 44.09" stroke="none" stroke-width="0" fill="#40c057"></path><path d="M0 0 C11.66 0, 23.31 0, 44.09 0 M0 0 C16.1 0, 32.19 0, 44.09 0 M44.09 0 C44.09 13, 44.09 26, 44.09 44.09 M44.09 0 C44.09 9.75, 44.09 19.5, 44.09 44.09 M44.09 44.09 C28.5 44.09, 12.91 44.09, 0 44.09 M44.09 44.09 C26.87 44.09, 9.66 44.09, 0 44.09 M0 44.09 C0 27.01, 0 9.93, 0 0 M0 44.09 C0 34.79, 0 25.48, 0 0" stroke="#000000" stroke-width="1" fill="none"></path></g><g transform="translate(26.250106254430648 192.23570174012428) rotate(0 8 12.5)"><text x="8" y="18" font-family="Virgil, Segoe UI Emoji" font-size="20px" fill="#000000" text-anchor="middle" style="white-space: pre;" direction="ltr">3</text></g><g stroke-linecap="round" transform="translate(73.1972466024555 182.69015059973282) rotate(0 22.045551140391467 22.045551140391467)"><path d="M0 0 L44.09 0 L44.09 44.09 L0 44.09" stroke="none" stroke-width="0" fill="#40c057"></path><path d="M0 0 C8.84 0, 17.69 0, 44.09 0 M0 0 C13.22 0, 26.44 0, 44.09 0 M44.09 0 C44.09 11.26, 44.09 22.53, 44.09 44.09 M44.09 0 C44.09 15.83, 44.09 31.65, 44.09 44.09 M44.09 44.09 C34.78 44.09, 25.46 44.09, 0 44.09 M44.09 44.09 C26.64 44.09, 9.18 44.09, 0 44.09 M0 44.09 C0 27.3, 0 10.5, 0 0 M0 44.09 C0 33.01, 0 21.93, 0 0" stroke="#000000" stroke-width="1" fill="none"></path></g><g transform="translate(87.74279774284696 192.23570174012428) rotate(0 7.5 12.5)"><text x="7.5" y="18" font-family="Virgil, Segoe UI Emoji" font-size="20px" fill="#000000" text-anchor="middle" style="white-space: pre;" direction="ltr">4</text></g><g stroke-linecap="round" transform="translate(134.92478979555142 182.69015059973282) rotate(0 22.045551140391467 22.045551140391467)"><path d="M0 0 C14 0, 27.99 0, 44.09 0 M0 0 C14.02 0, 28.04 0, 44.09 0 M44.09 0 C44.09 12.08, 44.09 24.16, 44.09 44.09 M44.09 0 C44.09 17.43, 44.09 34.86, 44.09 44.09 M44.09 44.09 C28.1 44.09, 12.1 44.09, 0 44.09 M44.09 44.09 C27.82 44.09, 11.55 44.09, 0 44.09 M0 44.09 C0 33.61, 0 23.13, 0 0 M0 44.09 C0 34.94, 0 25.8, 0 0" stroke="#000000" stroke-width="1" fill="none"></path></g><g transform="translate(149.9703409359429 192.23570174012428) rotate(0 7 12.5)"><text x="7" y="18" font-family="Virgil, Segoe UI Emoji" font-size="20px" fill="#000000" text-anchor="middle" style="white-space: pre;" direction="ltr">5</text></g><g stroke-linecap="round" transform="translate(195.91748128396773 181.9552988950531) rotate(0 22.045551140391467 22.04555114039141)"><path d="M0 0 C12.67 0, 25.34 0, 44.09 0 M0 0 C13.89 0, 27.77 0, 44.09 0 M44.09 0 C44.09 15.41, 44.09 30.82, 44.09 44.09 M44.09 0 C44.09 16.5, 44.09 33, 44.09 44.09 M44.09 44.09 C27.17 44.09, 10.25 44.09, 0 44.09 M44.09 44.09 C32.97 44.09, 21.84 44.09, 0 44.09 M0 44.09 C0 28.22, 0 12.34, 0 0 M0 44.09 C0 32.18, 0 20.26, 0 0" stroke="#000000" stroke-width="1" fill="none"></path></g><g transform="translate(209.9630324243592 191.5008500354445) rotate(0 7.999999999999943 12.5)"><text x="8" y="18" font-family="Virgil, Segoe UI Emoji" font-size="20px" fill="#000000" text-anchor="middle" style="white-space: pre;" direction="ltr">2</text></g></svg>