<svg version="1.1" xmlns="http://www.w3.org/2000/svg" viewBox="0 0 444.7449082770138 343.86799256122345" width="444.7449082770138" height="343.86799256122345">
  <!-- svg-source:excalidraw -->
  
  <defs>
    <style>
      @font-face {
        font-family: "Virgil";
        src: url("https://excalidraw.com/Virgil.woff2");
      }
      @font-face {
        font-family: "Cascadia";
        src: url("https://excalidraw.com/Cascadia.woff2");
      }
    </style>
  </defs>
  <rect x="0" y="0" width="444.7449082770138" height="343.86799256122345" fill="#ffffff"></rect><g stroke-linecap="round" transform="translate(245.733424093743 10) rotate(0 31.32493698542976 31.32493698542976)"><path d="M62.65 31.32 C62.65 33.14, 62.49 34.98, 62.17 36.76 C61.86 38.55, 61.38 40.33, 60.76 42.04 C60.14 43.74, 59.36 45.42, 58.45 46.99 C57.55 48.56, 56.49 50.07, 55.32 51.46 C54.16 52.85, 52.85 54.16, 51.46 55.32 C50.07 56.49, 48.56 57.55, 46.99 58.45 C45.42 59.36, 43.74 60.14, 42.04 60.76 C40.33 61.38, 38.55 61.86, 36.76 62.17 C34.98 62.49, 33.14 62.65, 31.32 62.65 C29.51 62.65, 27.67 62.49, 25.89 62.17 C24.1 61.86, 22.32 61.38, 20.61 60.76 C18.91 60.14, 17.23 59.36, 15.66 58.45 C14.09 57.55, 12.58 56.49, 11.19 55.32 C9.8 54.16, 8.49 52.85, 7.33 51.46 C6.16 50.07, 5.1 48.56, 4.2 46.99 C3.29 45.42, 2.51 43.74, 1.89 42.04 C1.27 40.33, 0.79 38.55, 0.48 36.76 C0.16 34.98, 0 33.14, 0 31.32 C0 29.51, 0.16 27.67, 0.48 25.89 C0.79 24.1, 1.27 22.32, 1.89 20.61 C2.51 18.91, 3.29 17.23, 4.2 15.66 C5.1 14.09, 6.16 12.58, 7.33 11.19 C8.49 9.8, 9.8 8.49, 11.19 7.33 C12.58 6.16, 14.09 5.1, 15.66 4.2 C17.23 3.29, 18.91 2.51, 20.61 1.89 C22.32 1.27, 24.1 0.79, 25.89 0.48 C27.67 0.16, 29.51 0, 31.32 0 C33.14 0, 34.98 0.16, 36.76 0.48 C38.55 0.79, 40.33 1.27, 42.04 1.89 C43.74 2.51, 45.42 3.29, 46.99 4.2 C48.56 5.1, 50.07 6.16, 51.46 7.33 C52.85 8.49, 54.16 9.8, 55.32 11.19 C56.49 12.58, 57.55 14.09, 58.45 15.66 C59.36 17.23, 60.14 18.91, 60.76 20.61 C61.38 22.32, 61.86 24.1, 62.17 25.89 C62.49 27.67, 62.57 30.42, 62.65 31.32 C62.73 32.23, 62.73 30.42, 62.65 31.32" stroke="#000000" stroke-width="4" fill="none"></path></g><g transform="translate(270.5583610791721 29.82493698542976) rotate(0 6.5 11.5)"><text x="6.5" y="18" font-family="Helvetica, Segoe UI Emoji" font-size="20px" fill="#000000" text-anchor="middle" style="white-space: pre;" direction="ltr">6</text></g><g stroke-linecap="round" transform="translate(132.11416112964173 134.23788567102656) rotate(0 31.324936985429815 31.32493698542976)"><path d="M62.65 31.32 C62.65 33.14, 62.49 34.98, 62.17 36.76 C61.86 38.55, 61.38 40.33, 60.76 42.04 C60.14 43.74, 59.36 45.42, 58.45 46.99 C57.55 48.56, 56.49 50.07, 55.32 51.46 C54.16 52.85, 52.85 54.16, 51.46 55.32 C50.07 56.49, 48.56 57.55, 46.99 58.45 C45.42 59.36, 43.74 60.14, 42.04 60.76 C40.33 61.38, 38.55 61.86, 36.76 62.17 C34.98 62.49, 33.14 62.65, 31.32 62.65 C29.51 62.65, 27.67 62.49, 25.89 62.17 C24.1 61.86, 22.32 61.38, 20.61 60.76 C18.91 60.14, 17.23 59.36, 15.66 58.45 C14.09 57.55, 12.58 56.49, 11.19 55.32 C9.8 54.16, 8.49 52.85, 7.33 51.46 C6.16 50.07, 5.1 48.56, 4.2 46.99 C3.29 45.42, 2.51 43.74, 1.89 42.04 C1.27 40.33, 0.79 38.55, 0.48 36.76 C0.16 34.98, 0 33.14, 0 31.32 C0 29.51, 0.16 27.67, 0.48 25.89 C0.79 24.1, 1.27 22.32, 1.89 20.61 C2.51 18.91, 3.29 17.23, 4.2 15.66 C5.1 14.09, 6.16 12.58, 7.33 11.19 C8.49 9.8, 9.8 8.49, 11.19 7.33 C12.58 6.16, 14.09 5.1, 15.66 4.2 C17.23 3.29, 18.91 2.51, 20.61 1.89 C22.32 1.27, 24.1 0.79, 25.89 0.48 C27.67 0.16, 29.51 0, 31.32 0 C33.14 0, 34.98 0.16, 36.76 0.48 C38.55 0.79, 40.33 1.27, 42.04 1.89 C43.74 2.51, 45.42 3.29, 46.99 4.2 C48.56 5.1, 50.07 6.16, 51.46 7.33 C52.85 8.49, 54.16 9.8, 55.32 11.19 C56.49 12.58, 57.55 14.09, 58.45 15.66 C59.36 17.23, 60.14 18.91, 60.76 20.61 C61.38 22.32, 61.86 24.1, 62.17 25.89 C62.49 27.67, 62.57 30.42, 62.65 31.32 C62.73 32.23, 62.73 30.42, 62.65 31.32" stroke="#000000" stroke-width="4" fill="none"></path></g><g transform="translate(156.9390981150715 154.06282265645632) rotate(0 6.500000000000057 11.5)"><text x="6.5" y="18" font-family="Helvetica, Segoe UI Emoji" font-size="20px" fill="#000000" text-anchor="middle" style="white-space: pre;" direction="ltr">5</text></g><g stroke-linecap="round" transform="translate(372.0950343061543 141.67092156587432) rotate(0 31.32493698542976 31.32493698542976)"><path d="M62.65 31.32 C62.65 33.14, 62.49 34.98, 62.17 36.76 C61.86 38.55, 61.38 40.33, 60.76 42.04 C60.14 43.74, 59.36 45.42, 58.45 46.99 C57.55 48.56, 56.49 50.07, 55.32 51.46 C54.16 52.85, 52.85 54.16, 51.46 55.32 C50.07 56.49, 48.56 57.55, 46.99 58.45 C45.42 59.36, 43.74 60.14, 42.04 60.76 C40.33 61.38, 38.55 61.86, 36.76 62.17 C34.98 62.49, 33.14 62.65, 31.32 62.65 C29.51 62.65, 27.67 62.49, 25.89 62.17 C24.1 61.86, 22.32 61.38, 20.61 60.76 C18.91 60.14, 17.23 59.36, 15.66 58.45 C14.09 57.55, 12.58 56.49, 11.19 55.32 C9.8 54.16, 8.49 52.85, 7.33 51.46 C6.16 50.07, 5.1 48.56, 4.2 46.99 C3.29 45.42, 2.51 43.74, 1.89 42.04 C1.27 40.33, 0.79 38.55, 0.48 36.76 C0.16 34.98, 0 33.14, 0 31.32 C0 29.51, 0.16 27.67, 0.48 25.89 C0.79 24.1, 1.27 22.32, 1.89 20.61 C2.51 18.91, 3.29 17.23, 4.2 15.66 C5.1 14.09, 6.16 12.58, 7.33 11.19 C8.49 9.8, 9.8 8.49, 11.19 7.33 C12.58 6.16, 14.09 5.1, 15.66 4.2 C17.23 3.29, 18.91 2.51, 20.61 1.89 C22.32 1.27, 24.1 0.79, 25.89 0.48 C27.67 0.16, 29.51 0, 31.32 0 C33.14 0, 34.98 0.16, 36.76 0.48 C38.55 0.79, 40.33 1.27, 42.04 1.89 C43.74 2.51, 45.42 3.29, 46.99 4.2 C48.56 5.1, 50.07 6.16, 51.46 7.33 C52.85 8.49, 54.16 9.8, 55.32 11.19 C56.49 12.58, 57.55 14.09, 58.45 15.66 C59.36 17.23, 60.14 18.91, 60.76 20.61 C61.38 22.32, 61.86 24.1, 62.17 25.89 C62.49 27.67, 62.57 30.42, 62.65 31.32 C62.73 32.23, 62.73 30.42, 62.65 31.32" stroke="#000000" stroke-width="4" fill="none"></path></g><g transform="translate(396.91997129158403 161.49585855130408) rotate(0 6.5 11.5)"><text x="6.5" y="18" font-family="Helvetica, Segoe UI Emoji" font-size="20px" fill="#000000" text-anchor="middle" style="white-space: pre;" direction="ltr">4</text></g><g stroke-linecap="round" transform="translate(10 264.84694496620887) rotate(0 31.32493698542976 31.32493698542976)"><path d="M62.65 31.32 C62.65 33.14, 62.49 34.98, 62.17 36.76 C61.86 38.55, 61.38 40.33, 60.76 42.04 C60.14 43.74, 59.36 45.42, 58.45 46.99 C57.55 48.56, 56.49 50.07, 55.32 51.46 C54.16 52.85, 52.85 54.16, 51.46 55.32 C50.07 56.49, 48.56 57.55, 46.99 58.45 C45.42 59.36, 43.74 60.14, 42.04 60.76 C40.33 61.38, 38.55 61.86, 36.76 62.17 C34.98 62.49, 33.14 62.65, 31.32 62.65 C29.51 62.65, 27.67 62.49, 25.89 62.17 C24.1 61.86, 22.32 61.38, 20.61 60.76 C18.91 60.14, 17.23 59.36, 15.66 58.45 C14.09 57.55, 12.58 56.49, 11.19 55.32 C9.8 54.16, 8.49 52.85, 7.33 51.46 C6.16 50.07, 5.1 48.56, 4.2 46.99 C3.29 45.42, 2.51 43.74, 1.89 42.04 C1.27 40.33, 0.79 38.55, 0.48 36.76 C0.16 34.98, 0 33.14, 0 31.32 C0 29.51, 0.16 27.67, 0.48 25.89 C0.79 24.1, 1.27 22.32, 1.89 20.61 C2.51 18.91, 3.29 17.23, 4.2 15.66 C5.1 14.09, 6.16 12.58, 7.33 11.19 C8.49 9.8, 9.8 8.49, 11.19 7.33 C12.58 6.16, 14.09 5.1, 15.66 4.2 C17.23 3.29, 18.91 2.51, 20.61 1.89 C22.32 1.27, 24.1 0.79, 25.89 0.48 C27.67 0.16, 29.51 0, 31.32 0 C33.14 0, 34.98 0.16, 36.76 0.48 C38.55 0.79, 40.33 1.27, 42.04 1.89 C43.74 2.51, 45.42 3.29, 46.99 4.2 C48.56 5.1, 50.07 6.16, 51.46 7.33 C52.85 8.49, 54.16 9.8, 55.32 11.19 C56.49 12.58, 57.55 14.09, 58.45 15.66 C59.36 17.23, 60.14 18.91, 60.76 20.61 C61.38 22.32, 61.86 24.1, 62.17 25.89 C62.49 27.67, 62.57 30.42, 62.65 31.32 C62.73 32.23, 62.73 30.42, 62.65 31.32" stroke="#000000" stroke-width="4" fill="none"></path></g><g transform="translate(34.82493698542976 284.6718819516386) rotate(0 6.5 11.5)"><text x="6.5" y="18" font-family="Helvetica, Segoe UI Emoji" font-size="20px" fill="#000000" text-anchor="middle" style="white-space: pre;" direction="ltr">3</text></g><g stroke-linecap="round" transform="translate(180.9598255814983 271.21811859036393) rotate(0 31.32493698542976 31.32493698542976)"><path d="M62.65 31.32 C62.65 33.14, 62.49 34.98, 62.17 36.76 C61.86 38.55, 61.38 40.33, 60.76 42.04 C60.14 43.74, 59.36 45.42, 58.45 46.99 C57.55 48.56, 56.49 50.07, 55.32 51.46 C54.16 52.85, 52.85 54.16, 51.46 55.32 C50.07 56.49, 48.56 57.55, 46.99 58.45 C45.42 59.36, 43.74 60.14, 42.04 60.76 C40.33 61.38, 38.55 61.86, 36.76 62.17 C34.98 62.49, 33.14 62.65, 31.32 62.65 C29.51 62.65, 27.67 62.49, 25.89 62.17 C24.1 61.86, 22.32 61.38, 20.61 60.76 C18.91 60.14, 17.23 59.36, 15.66 58.45 C14.09 57.55, 12.58 56.49, 11.19 55.32 C9.8 54.16, 8.49 52.85, 7.33 51.46 C6.16 50.07, 5.1 48.56, 4.2 46.99 C3.29 45.42, 2.51 43.74, 1.89 42.04 C1.27 40.33, 0.79 38.55, 0.48 36.76 C0.16 34.98, 0 33.14, 0 31.32 C0 29.51, 0.16 27.67, 0.48 25.89 C0.79 24.1, 1.27 22.32, 1.89 20.61 C2.51 18.91, 3.29 17.23, 4.2 15.66 C5.1 14.09, 6.16 12.58, 7.33 11.19 C8.49 9.8, 9.8 8.49, 11.19 7.33 C12.58 6.16, 14.09 5.1, 15.66 4.2 C17.23 3.29, 18.91 2.51, 20.61 1.89 C22.32 1.27, 24.1 0.79, 25.89 0.48 C27.67 0.16, 29.51 0, 31.32 0 C33.14 0, 34.98 0.16, 36.76 0.48 C38.55 0.79, 40.33 1.27, 42.04 1.89 C43.74 2.51, 45.42 3.29, 46.99 4.2 C48.56 5.1, 50.07 6.16, 51.46 7.33 C52.85 8.49, 54.16 9.8, 55.32 11.19 C56.49 12.58, 57.55 14.09, 58.45 15.66 C59.36 17.23, 60.14 18.91, 60.76 20.61 C61.38 22.32, 61.86 24.1, 62.17 25.89 C62.49 27.67, 62.57 30.42, 62.65 31.32 C62.73 32.23, 62.73 30.42, 62.65 31.32" stroke="#000000" stroke-width="4" fill="none"></path></g><g transform="translate(205.78476256692807 291.0430555757937) rotate(0 6.5 11.5)"><text x="6.5" y="18" font-family="Helvetica, Segoe UI Emoji" font-size="20px" fill="#000000" text-anchor="middle" style="white-space: pre;" direction="ltr">2</text></g><g stroke-linecap="round" transform="translate(328.5586812077611 268.0325317782863) rotate(0 31.32493698542976 31.32493698542976)"><path d="M62.65 31.32 C62.65 33.14, 62.49 34.98, 62.17 36.76 C61.86 38.55, 61.38 40.33, 60.76 42.04 C60.14 43.74, 59.36 45.42, 58.45 46.99 C57.55 48.56, 56.49 50.07, 55.32 51.46 C54.16 52.85, 52.85 54.16, 51.46 55.32 C50.07 56.49, 48.56 57.55, 46.99 58.45 C45.42 59.36, 43.74 60.14, 42.04 60.76 C40.33 61.38, 38.55 61.86, 36.76 62.17 C34.98 62.49, 33.14 62.65, 31.32 62.65 C29.51 62.65, 27.67 62.49, 25.89 62.17 C24.1 61.86, 22.32 61.38, 20.61 60.76 C18.91 60.14, 17.23 59.36, 15.66 58.45 C14.09 57.55, 12.58 56.49, 11.19 55.32 C9.8 54.16, 8.49 52.85, 7.33 51.46 C6.16 50.07, 5.1 48.56, 4.2 46.99 C3.29 45.42, 2.51 43.74, 1.89 42.04 C1.27 40.33, 0.79 38.55, 0.48 36.76 C0.16 34.98, 0 33.14, 0 31.32 C0 29.51, 0.16 27.67, 0.48 25.89 C0.79 24.1, 1.27 22.32, 1.89 20.61 C2.51 18.91, 3.29 17.23, 4.2 15.66 C5.1 14.09, 6.16 12.58, 7.33 11.19 C8.49 9.8, 9.8 8.49, 11.19 7.33 C12.58 6.16, 14.09 5.1, 15.66 4.2 C17.23 3.29, 18.91 2.51, 20.61 1.89 C22.32 1.27, 24.1 0.79, 25.89 0.48 C27.67 0.16, 29.51 0, 31.32 0 C33.14 0, 34.98 0.16, 36.76 0.48 C38.55 0.79, 40.33 1.27, 42.04 1.89 C43.74 2.51, 45.42 3.29, 46.99 4.2 C48.56 5.1, 50.07 6.16, 51.46 7.33 C52.85 8.49, 54.16 9.8, 55.32 11.19 C56.49 12.58, 57.55 14.09, 58.45 15.66 C59.36 17.23, 60.14 18.91, 60.76 20.61 C61.38 22.32, 61.86 24.1, 62.17 25.89 C62.49 27.67, 62.57 30.42, 62.65 31.32 C62.73 32.23, 62.73 30.42, 62.65 31.32" stroke="#000000" stroke-width="4" fill="none"></path></g><g transform="translate(353.38361819319084 287.85746876371604) rotate(0 6.5 11.5)"><text x="6.5" y="18" font-family="Helvetica, Segoe UI Emoji" font-size="20px" fill="#000000" text-anchor="middle" style="white-space: pre;" direction="ltr">1</text></g><g stroke-linecap="round"><g transform="translate(253.16645998859076 65.21683807600675) rotate(0 -34.51052379750752 37.16517947423881)"><path d="M0 0 C-11.5 12.39, -57.52 61.94, -69.02 74.33 M0 0 C-11.5 12.39, -57.52 61.94, -69.02 74.33" stroke="#000000" stroke-width="4" fill="none"></path></g></g><g stroke-linecap="round"><g transform="translate(302.0121244404461 62.03125126392888) rotate(0 38.227041744931284 43.5363530983941)"><path d="M0 0 C12.74 14.51, 63.71 72.56, 76.45 87.07 M0 0 C12.74 14.51, 63.71 72.56, 76.45 87.07" stroke="#000000" stroke-width="4" fill="none"></path></g></g><g stroke-linecap="round"><g transform="translate(138.5581092968082 187.41414324796187) rotate(0 -37.19260141428799 42.4414921194541)"><path d="M0 0 C-12.4 14.15, -61.99 70.74, -74.39 84.88 M0 0 C-12.4 14.15, -61.99 70.74, -74.39 84.88" stroke="#000000" stroke-width="4" fill="none"></path></g></g><g stroke-linecap="round"><g transform="translate(179.89796331080584 193.70217282980366) rotate(0 12.742347248310352 38.227041744931284)"><path d="M0 0 C4.25 12.74, 21.24 63.71, 25.48 76.45 M0 0 C4.25 12.74, 21.24 63.71, 25.48 76.45" stroke="#000000" stroke-width="4" fill="none"></path></g></g><g stroke-linecap="round"><g transform="translate(393.33227972000464 202.1970709953439) rotate(0 -13.273278383656702 33.44866152681493)"><path d="M0 0 C-4.42 11.15, -22.12 55.75, -26.55 66.9 M0 0 C-4.42 11.15, -22.12 55.75, -26.55 66.9" stroke="#000000" stroke-width="4" fill="none"></path></g></g></svg>