<svg version="1.1" xmlns="http://www.w3.org/2000/svg" viewBox="0 0 588.0175359057329 290.85629234621206" width="588.0175359057329" height="290.85629234621206">
  <!-- svg-source:excalidraw -->
  
  <defs>
    <style>
      @font-face {
        font-family: "Virgil";
        src: url("https://excalidraw.com/Virgil.woff2");
      }
      @font-face {
        font-family: "Cascadia";
        src: url("https://excalidraw.com/Cascadia.woff2");
      }
    </style>
  </defs>
  <rect x="0" y="0" width="588.0175359057329" height="290.85629234621206" fill="#ffffff"></rect><g stroke-linecap="round" transform="translate(408.54669747088917 126.43008927580331) rotate(0 35 32)"><path d="M0 0 C17.57 0, 35.13 0, 70 0 M0 0 C21.73 0, 43.46 0, 70 0 M70 0 C70 21, 70 41.99, 70 64 M70 0 C70 17.25, 70 34.5, 70 64 M70 64 C45.25 64, 20.5 64, 0 64 M70 64 C46.03 64, 22.06 64, 0 64 M0 64 C0 50.4, 0 36.8, 0 0 M0 64 C0 40.01, 0 16.02, 0 0" stroke="#000000" stroke-width="4" fill="none"></path></g><g transform="translate(437.04669747088917 146.9300892758033) rotate(0 6.5 11.5)"><text x="6.5" y="18" font-family="Helvetica, Segoe UI Emoji" font-size="20px" fill="#000000" text-anchor="middle" style="white-space: pre;" direction="ltr">2</text></g><g stroke-linecap="round" transform="translate(110.13418216635804 126.43008927580331) rotate(0 35 32)"><path d="M0 0 C25.88 0, 51.76 0, 70 0 M0 0 C14.09 0, 28.18 0, 70 0 M70 0 C70 24.67, 70 49.34, 70 64 M70 0 C70 13.06, 70 26.12, 70 64 M70 64 C43.82 64, 17.63 64, 0 64 M70 64 C45.26 64, 20.52 64, 0 64 M0 64 C0 43.31, 0 22.62, 0 0 M0 64 C0 39.5, 0 15, 0 0" stroke="#000000" stroke-width="4" fill="none"></path></g><g transform="translate(138.63418216635804 146.9300892758033) rotate(0 6.5 11.5)"><text x="6.5" y="18" font-family="Helvetica, Segoe UI Emoji" font-size="20px" fill="#000000" text-anchor="middle" style="white-space: pre;" direction="ltr">5</text></g><g stroke-linecap="round" transform="translate(10.663343731514402 126.43008927580331) rotate(0 35 32)"><path d="M0 0 C22.2 0, 44.4 0, 70 0 M0 0 C26.84 0, 53.68 0, 70 0 M70 0 C70 18.11, 70 36.23, 70 64 M70 0 C70 22.52, 70 45.03, 70 64 M70 64 C53.74 64, 37.47 64, 0 64 M70 64 C45.01 64, 20.01 64, 0 64 M0 64 C0 46.82, 0 29.64, 0 0 M0 64 C0 50.71, 0 37.42, 0 0" stroke="#000000" stroke-width="4" fill="none"></path></g><g transform="translate(39.1633437315144 146.9300892758033) rotate(0 6.5 11.5)"><text x="6.5" y="18" font-family="Helvetica, Segoe UI Emoji" font-size="20px" fill="#000000" text-anchor="middle" style="white-space: pre;" direction="ltr">6</text></g><g stroke-linecap="round" transform="translate(309.0758590360455 126.43008927580331) rotate(0 35 32)"><path d="M0 0 C22.62 0, 45.24 0, 70 0 M0 0 C18.97 0, 37.94 0, 70 0 M70 0 C70 24.39, 70 48.78, 70 64 M70 0 C70 16.58, 70 33.16, 70 64 M70 64 C49.39 64, 28.78 64, 0 64 M70 64 C45.04 64, 20.09 64, 0 64 M0 64 C0 45.16, 0 26.32, 0 0 M0 64 C0 48.98, 0 33.96, 0 0" stroke="#000000" stroke-width="4" fill="none"></path></g><g transform="translate(337.5758590360455 146.9300892758033) rotate(0 6.5 11.5)"><text x="6.5" y="18" font-family="Helvetica, Segoe UI Emoji" font-size="20px" fill="#000000" text-anchor="middle" style="white-space: pre;" direction="ltr">3</text></g><g stroke-linecap="round" transform="translate(508.01753590573287 126.43008927580331) rotate(0 35 32)"><path d="M0 0 C19.29 0, 38.58 0, 70 0 M0 0 C27.68 0, 55.36 0, 70 0 M70 0 C70 22.26, 70 44.52, 70 64 M70 0 C70 21.7, 70 43.41, 70 64 M70 64 C50.13 64, 30.26 64, 0 64 M70 64 C43.94 64, 17.88 64, 0 64 M0 64 C0 47.66, 0 31.32, 0 0 M0 64 C0 50.15, 0 36.29, 0 0" stroke="#000000" stroke-width="4" fill="none"></path></g><g transform="translate(536.5175359057329 146.9300892758033) rotate(0 6.5 11.5)"><text x="6.5" y="18" font-family="Helvetica, Segoe UI Emoji" font-size="20px" fill="#000000" text-anchor="middle" style="white-space: pre;" direction="ltr">1</text></g><g stroke-linecap="round" transform="translate(209.6050206012017 126.43008927580331) rotate(0 35 32)"><path d="M0 0 C15.39 0, 30.78 0, 70 0 M0 0 C21.37 0, 42.74 0, 70 0 M70 0 C70 16.6, 70 33.2, 70 64 M70 0 C70 23.85, 70 47.7, 70 64 M70 64 C43.24 64, 16.47 64, 0 64 M70 64 C46.06 64, 22.12 64, 0 64 M0 64 C0 43.95, 0 23.9, 0 0 M0 64 C0 40.16, 0 16.32, 0 0" stroke="#000000" stroke-width="4" fill="none"></path></g><g transform="translate(238.1050206012017 146.9300892758033) rotate(0 6.5 11.5)"><text x="6.5" y="18" font-family="Helvetica, Segoe UI Emoji" font-size="20px" fill="#000000" text-anchor="middle" style="white-space: pre;" direction="ltr">4</text></g><g transform="translate(10 10) rotate(0 35.000000000000014 11.5)"><text x="35" y="18" font-family="Helvetica, Segoe UI Emoji" font-size="20px" fill="#000000" text-anchor="middle" style="white-space: pre;" direction="ltr">2 * i + 1</text></g><g transform="translate(10.684207719125709 42.1577627989077) rotate(0 34.999999999999986 11.5)"><text x="35" y="18" font-family="Helvetica, Segoe UI Emoji" font-size="20px" fill="#000000" text-anchor="middle" style="white-space: pre;" direction="ltr">2 * i + 2</text></g><g transform="translate(37.400058535631246 97.92246969700454) rotate(0 6.5 11.5)"><text x="6.5" y="18" font-family="Helvetica, Segoe UI Emoji" font-size="20px" fill="#000000" text-anchor="middle" style="white-space: pre;" direction="ltr">0</text></g><g transform="translate(136.724158871889 98.70454922721137) rotate(0 6.5 11.5)"><text x="6.5" y="18" font-family="Helvetica, Segoe UI Emoji" font-size="20px" fill="#000000" text-anchor="middle" style="white-space: pre;" direction="ltr">1</text></g><g transform="translate(237.61241826856022 97.922469697005) rotate(0 6.5 11.5)"><text x="6.5" y="18" font-family="Helvetica, Segoe UI Emoji" font-size="20px" fill="#000000" text-anchor="middle" style="white-space: pre;" direction="ltr">2</text></g><g transform="translate(338.5006776652315 97.92246969700545) rotate(0 6.5 11.5)"><text x="6.5" y="18" font-family="Helvetica, Segoe UI Emoji" font-size="20px" fill="#000000" text-anchor="middle" style="white-space: pre;" direction="ltr">3</text></g><g transform="translate(436.2606189410757 98.70454922721183) rotate(0 6.5 11.5)"><text x="6.5" y="18" font-family="Helvetica, Segoe UI Emoji" font-size="20px" fill="#000000" text-anchor="middle" style="white-space: pre;" direction="ltr">4</text></g><g transform="translate(537.9309578679537 100.26870828762549) rotate(0 6.5 11.5)"><text x="6.5" y="18" font-family="Helvetica, Segoe UI Emoji" font-size="20px" fill="#000000" text-anchor="middle" style="white-space: pre;" direction="ltr">5</text></g><g stroke-linecap="round"><g transform="translate(45.109846493273494 193.7832337926534) rotate(0 47.78380218116412 33.985059434794834)"><path d="M0 0 C7.79 11.33, 30.79 67.07, 46.72 67.96 C62.65 68.84, 87.43 15.75, 95.57 5.31 M0 0 C7.79 11.33, 30.79 67.07, 46.72 67.96 C62.65 68.84, 87.43 15.75, 95.57 5.31" stroke="#000000" stroke-width="4" fill="none"></path></g><g transform="translate(45.109846493273494 193.7832337926534) rotate(0 47.78380218116412 33.985059434794834)"><path d="M89.69 34.73 C91.44 25.96, 93.19 17.2, 95.57 5.31 M89.69 34.73 C91 28.17, 92.31 21.61, 95.57 5.31" stroke="#000000" stroke-width="4" fill="none"></path></g><g transform="translate(45.109846493273494 193.7832337926534) rotate(0 47.78380218116412 33.985059434794834)"><path d="M72.15 24.07 C79.13 18.48, 86.11 12.89, 95.57 5.31 M72.15 24.07 C77.37 19.88, 82.6 15.7, 95.57 5.31" stroke="#000000" stroke-width="4" fill="none"></path></g></g><g stroke-linecap="round"><g transform="translate(35.55308605704067 200.15440741680845) rotate(0 103.53157139252234 40.35094246470169)"><path d="M0 0 C12.03 13.45, 37.7 80.52, 72.21 80.7 C106.72 80.88, 184.59 14.34, 207.06 1.06 M0 0 C12.03 13.45, 37.7 80.52, 72.21 80.7 C106.72 80.88, 184.59 14.34, 207.06 1.06" stroke="#000000" stroke-width="4" fill="none"></path></g><g transform="translate(35.55308605704067 200.15440741680845) rotate(0 103.53157139252234 40.35094246470169)"><path d="M190.02 25.75 C195.8 17.37, 201.59 9, 207.06 1.06 M190.02 25.75 C196.8 15.92, 203.59 6.1, 207.06 1.06" stroke="#000000" stroke-width="4" fill="none"></path></g><g transform="translate(35.55308605704067 200.15440741680845) rotate(0 103.53157139252234 40.35094246470169)"><path d="M178.14 9.02 C187.95 6.32, 197.77 3.62, 207.06 1.06 M178.14 9.02 C189.65 5.85, 201.16 2.68, 207.06 1.06" stroke="#000000" stroke-width="4" fill="none"></path></g></g><g stroke-linecap="round"><g transform="translate(147.04862447975702 118.3910125734833) rotate(0 95.56760436232832 -38.23731125466679)"><path d="M0 0 C17.34 -14.16, 72.21 -86.36, 104.06 -84.95 C135.92 -83.53, 176.62 -7.08, 191.14 8.49 M0 0 C17.34 -14.16, 72.21 -86.36, 104.06 -84.95 C135.92 -83.53, 176.62 -7.08, 191.14 8.49" stroke="#000000" stroke-width="4" fill="none"></path></g><g transform="translate(147.04862447975702 118.3910125734833) rotate(0 95.56760436232832 -38.23731125466679)"><path d="M166.38 -8.45 C174.09 -3.17, 181.8 2.1, 191.14 8.49 M166.38 -8.45 C172.65 -4.16, 178.91 0.13, 191.14 8.49" stroke="#000000" stroke-width="4" fill="none"></path></g><g transform="translate(147.04862447975702 118.3910125734833) rotate(0 95.56760436232832 -38.23731125466679)"><path d="M183.06 -20.4 C185.57 -11.4, 188.09 -2.4, 191.14 8.49 M183.06 -20.4 C185.1 -13.08, 187.15 -5.77, 191.14 8.49" stroke="#000000" stroke-width="4" fill="none"></path></g></g><g stroke-linecap="round"><g transform="translate(148.1104867504495 120.51473711486824) rotate(0 139.10395746072237 -49.37782687521417)"><path d="M0 0 C22.12 -16.99, 86.36 -102.47, 132.73 -101.94 C179.1 -101.41, 253.96 -14.34, 278.21 3.19 M0 0 C22.12 -16.99, 86.36 -102.47, 132.73 -101.94 C179.1 -101.41, 253.96 -14.34, 278.21 3.19" stroke="#000000" stroke-width="4" fill="none"></path></g><g transform="translate(148.1104867504495 120.51473711486824) rotate(0 139.10395746072237 -49.37782687521417)"><path d="M250.45 -8.19 C259.36 -4.54, 268.28 -0.88, 278.21 3.19 M250.45 -8.19 C259.05 -4.67, 267.66 -1.14, 278.21 3.19" stroke="#000000" stroke-width="4" fill="none"></path></g><g transform="translate(148.1104867504495 120.51473711486824) rotate(0 139.10395746072237 -49.37782687521417)"><path d="M264.26 -23.37 C268.74 -14.84, 273.22 -6.32, 278.21 3.19 M264.26 -23.37 C268.58 -15.14, 272.9 -6.91, 278.21 3.19" stroke="#000000" stroke-width="4" fill="none"></path></g></g><g stroke-linecap="round"><g transform="translate(248.98740246624052 193.7832337926534) rotate(0 145.47513108487755 25.487290319343174)"><path d="M0 0 C25.66 8.49, 105.48 50.44, 153.97 50.97 C202.46 51.5, 268.12 11.15, 290.95 3.19 M0 0 C25.66 8.49, 105.48 50.44, 153.97 50.97 C202.46 51.5, 268.12 11.15, 290.95 3.19" stroke="#000000" stroke-width="4" fill="none"></path></g><g transform="translate(248.98740246624052 193.7832337926534) rotate(0 145.47513108487755 25.487290319343174)"><path d="M269.57 24.24 C275.39 18.51, 281.21 12.78, 290.95 3.19 M269.57 24.24 C274.01 19.87, 278.44 15.51, 290.95 3.19" stroke="#000000" stroke-width="4" fill="none"></path></g><g transform="translate(248.98740246624052 193.7832337926534) rotate(0 145.47513108487755 25.487290319343174)"><path d="M261.05 5.57 C269.18 4.92, 277.32 4.27, 290.95 3.19 M261.05 5.57 C267.25 5.08, 273.44 4.58, 290.95 3.19" stroke="#000000" stroke-width="4" fill="none"></path></g></g></svg>