<svg version="1.1" xmlns="http://www.w3.org/2000/svg" viewBox="0 0 459.6687693340634 451.29275258254404" width="459.6687693340634" height="451.29275258254404">
  <!-- svg-source:excalidraw -->
  
  <defs>
    <style>
      @font-face {
        font-family: "Virgil";
        src: url("https://excalidraw.com/Virgil.woff2");
      }
      @font-face {
        font-family: "Cascadia";
        src: url("https://excalidraw.com/Cascadia.woff2");
      }
    </style>
  </defs>
  <rect x="0" y="0" width="459.6687693340634" height="451.29275258254404" fill="#ffffff"></rect><g stroke-linecap="round" transform="translate(10 10) rotate(0 45.73289361759271 45.73289361759271)"><path d="M0 0 L91.47 0 L91.47 91.47 L0 91.47" stroke="none" stroke-width="0" fill="#82c91e"></path><path d="M0 0 C26.84 0, 53.69 0, 91.47 0 M0 0 C20.29 0, 40.57 0, 91.47 0 M91.47 0 C91.47 23.09, 91.47 46.18, 91.47 91.47 M91.47 0 C91.47 35.3, 91.47 70.59, 91.47 91.47 M91.47 91.47 C66.6 91.47, 41.73 91.47, 0 91.47 M91.47 91.47 C58.01 91.47, 24.54 91.47, 0 91.47 M0 91.47 C0 69.16, 0 46.86, 0 0 M0 91.47 C0 71.59, 0 51.72, 0 0" stroke="#000000" stroke-width="1" fill="none"></path></g><g stroke-linecap="round" transform="translate(124.87108687798036 10) rotate(0 45.73289361759271 45.73289361759271)"><path d="M0 0 C21.81 0, 43.62 0, 91.47 0 M0 0 C25.29 0, 50.58 0, 91.47 0 M91.47 0 C91.47 35.25, 91.47 70.49, 91.47 91.47 M91.47 0 C91.47 19.26, 91.47 38.53, 91.47 91.47 M91.47 91.47 C58.75 91.47, 26.04 91.47, 0 91.47 M91.47 91.47 C55.31 91.47, 19.16 91.47, 0 91.47 M0 91.47 C0 57.69, 0 23.92, 0 0 M0 91.47 C0 60.85, 0 30.24, 0 0" stroke="#000000" stroke-width="1" fill="none"></path></g><g stroke-linecap="round" transform="translate(242.135321399252 10) rotate(0 45.73289361759271 45.73289361759271)"><path d="M0 0 C34.27 0, 68.53 0, 91.47 0 M0 0 C34.4 0, 68.81 0, 91.47 0 M91.47 0 C91.47 29.3, 91.47 58.59, 91.47 91.47 M91.47 0 C91.47 30.84, 91.47 61.67, 91.47 91.47 M91.47 91.47 C56.33 91.47, 21.19 91.47, 0 91.47 M91.47 91.47 C57.95 91.47, 24.42 91.47, 0 91.47 M0 91.47 C0 72.71, 0 53.96, 0 0 M0 91.47 C0 67.34, 0 43.21, 0 0" stroke="#000000" stroke-width="1" fill="none"></path></g><g stroke-linecap="round" transform="translate(355.8098344555867 10) rotate(0 45.73289361759271 45.73289361759271)"><path d="M0 0 C21.28 0, 42.55 0, 91.47 0 M0 0 C36.54 0, 73.08 0, 91.47 0 M91.47 0 C91.47 23.68, 91.47 47.37, 91.47 91.47 M91.47 0 C91.47 28, 91.47 55.99, 91.47 91.47 M91.47 91.47 C60.97 91.47, 30.46 91.47, 0 91.47 M91.47 91.47 C71.11 91.47, 50.76 91.47, 0 91.47 M0 91.47 C0 61.93, 0 32.39, 0 0 M0 91.47 C0 55.72, 0 19.98, 0 0" stroke="#000000" stroke-width="1" fill="none"></path></g><g transform="translate(15 33.23289361759271) rotate(0 40.5 22.5)"><text x="40.5" y="32" font-family="Virgil, Segoe UI Emoji" font-size="36px" fill="#000000" text-anchor="middle" style="white-space: pre;" direction="ltr">4</text></g><g transform="translate(129.87108687798036 33.23289361759271) rotate(0 40.5 22.5)"><text x="40.5" y="32" font-family="Virgil, Segoe UI Emoji" font-size="36px" fill="#000000" text-anchor="middle" style="white-space: pre;" direction="ltr">3</text></g><g transform="translate(247.135321399252 33.23289361759271) rotate(0 40.5 22.5)"><text x="40.5" y="32" font-family="Virgil, Segoe UI Emoji" font-size="36px" fill="#000000" text-anchor="middle" style="white-space: pre;" direction="ltr">2</text></g><g transform="translate(360.8098344555867 33.23289361759271) rotate(0 40.5 22.5)"><text x="40.5" y="32" font-family="Virgil, Segoe UI Emoji" font-size="36px" fill="#000000" text-anchor="middle" style="white-space: pre;" direction="ltr">1</text></g><g stroke-linecap="round" transform="translate(10 127.26423452127165) rotate(0 45.73289361759271 45.73289361759271)"><path d="M0 0 L91.47 0 L91.47 91.47 L0 91.47" stroke="none" stroke-width="0" fill="#82c91e"></path><path d="M0 0 C34.16 0, 68.32 0, 91.47 0 M0 0 C22.6 0, 45.19 0, 91.47 0 M91.47 0 C91.47 18.79, 91.47 37.57, 91.47 91.47 M91.47 0 C91.47 24.26, 91.47 48.51, 91.47 91.47 M91.47 91.47 C71.72 91.47, 51.98 91.47, 0 91.47 M91.47 91.47 C66.32 91.47, 41.18 91.47, 0 91.47 M0 91.47 C0 68.44, 0 45.41, 0 0 M0 91.47 C0 69.8, 0 48.13, 0 0" stroke="#000000" stroke-width="1" fill="none"></path></g><g stroke-linecap="round" transform="translate(124.87108687798036 127.26423452127165) rotate(0 45.73289361759271 45.73289361759271)"><path d="M0 0 L91.47 0 L91.47 91.47 L0 91.47" stroke="none" stroke-width="0" fill="#82c91e"></path><path d="M0 0 C31.6 0, 63.19 0, 91.47 0 M0 0 C29.7 0, 59.4 0, 91.47 0 M91.47 0 C91.47 33.05, 91.47 66.09, 91.47 91.47 M91.47 0 C91.47 18.83, 91.47 37.65, 91.47 91.47 M91.47 91.47 C72.99 91.47, 54.51 91.47, 0 91.47 M91.47 91.47 C64.51 91.47, 37.55 91.47, 0 91.47 M0 91.47 C0 67.09, 0 42.72, 0 0 M0 91.47 C0 69.62, 0 47.77, 0 0" stroke="#000000" stroke-width="1" fill="none"></path></g><g stroke-linecap="round" transform="translate(242.135321399252 127.26423452127165) rotate(0 45.73289361759271 45.73289361759271)"><path d="M0 0 C31.52 0, 63.03 0, 91.47 0 M0 0 C23.02 0, 46.04 0, 91.47 0 M91.47 0 C91.47 23.29, 91.47 46.59, 91.47 91.47 M91.47 0 C91.47 34.38, 91.47 68.76, 91.47 91.47 M91.47 91.47 C60.47 91.47, 29.48 91.47, 0 91.47 M91.47 91.47 C67.42 91.47, 43.38 91.47, 0 91.47 M0 91.47 C0 56.99, 0 22.51, 0 0 M0 91.47 C0 55.32, 0 19.18, 0 0" stroke="#000000" stroke-width="1" fill="none"></path></g><g stroke-linecap="round" transform="translate(355.8098344555867 127.26423452127165) rotate(0 45.73289361759271 45.73289361759271)"><path d="M0 0 C19.61 0, 39.21 0, 91.47 0 M0 0 C36.31 0, 72.61 0, 91.47 0 M91.47 0 C91.47 33.73, 91.47 67.46, 91.47 91.47 M91.47 0 C91.47 20.38, 91.47 40.77, 91.47 91.47 M91.47 91.47 C71.27 91.47, 51.08 91.47, 0 91.47 M91.47 91.47 C65.96 91.47, 40.44 91.47, 0 91.47 M0 91.47 C0 66.29, 0 41.11, 0 0 M0 91.47 C0 61.59, 0 31.72, 0 0" stroke="#000000" stroke-width="1" fill="none"></path></g><g transform="translate(15 150.49712813886435) rotate(0 40.5 22.5)"><text x="40.5" y="32" font-family="Virgil, Segoe UI Emoji" font-size="36px" fill="#000000" text-anchor="middle" style="white-space: pre;" direction="ltr">3</text></g><g transform="translate(129.87108687798036 150.49712813886435) rotate(0 40.5 22.5)"><text x="40.5" y="32" font-family="Virgil, Segoe UI Emoji" font-size="36px" fill="#000000" text-anchor="middle" style="white-space: pre;" direction="ltr">4</text></g><g transform="translate(247.135321399252 150.49712813886435) rotate(0 40.5 22.5)"><text x="40.5" y="32" font-family="Virgil, Segoe UI Emoji" font-size="36px" fill="#000000" text-anchor="middle" style="white-space: pre;" direction="ltr">2</text></g><g transform="translate(360.8098344555867 150.49712813886435) rotate(0 40.5 22.5)"><text x="40.5" y="32" font-family="Virgil, Segoe UI Emoji" font-size="36px" fill="#000000" text-anchor="middle" style="white-space: pre;" direction="ltr">1</text></g><g stroke-linecap="round" transform="translate(12.393147643291286 239.74217375596078) rotate(0 45.73289361759271 45.73289361759271)"><path d="M0 0 L91.47 0 L91.47 91.47 L0 91.47" stroke="none" stroke-width="0" fill="#82c91e"></path><path d="M0 0 C23.24 0, 46.48 0, 91.47 0 M0 0 C19.19 0, 38.39 0, 91.47 0 M91.47 0 C91.47 31.97, 91.47 63.94, 91.47 91.47 M91.47 0 C91.47 24.78, 91.47 49.57, 91.47 91.47 M91.47 91.47 C58.3 91.47, 25.14 91.47, 0 91.47 M91.47 91.47 C63.53 91.47, 35.59 91.47, 0 91.47 M0 91.47 C0 59.56, 0 27.65, 0 0 M0 91.47 C0 65.67, 0 39.87, 0 0" stroke="#000000" stroke-width="1" fill="none"></path></g><g stroke-linecap="round" transform="translate(127.26423452127165 239.74217375596078) rotate(0 45.73289361759271 45.73289361759271)"><path d="M0 0 L91.47 0 L91.47 91.47 L0 91.47" stroke="none" stroke-width="0" fill="#82c91e"></path><path d="M0 0 C35.41 0, 70.83 0, 91.47 0 M0 0 C24.62 0, 49.25 0, 91.47 0 M91.47 0 C91.47 31.4, 91.47 62.81, 91.47 91.47 M91.47 0 C91.47 19.51, 91.47 39.01, 91.47 91.47 M91.47 91.47 C65.07 91.47, 38.67 91.47, 0 91.47 M91.47 91.47 C60.18 91.47, 28.9 91.47, 0 91.47 M0 91.47 C0 61.26, 0 31.05, 0 0 M0 91.47 C0 65.63, 0 39.79, 0 0" stroke="#000000" stroke-width="1" fill="none"></path></g><g stroke-linecap="round" transform="translate(244.5284690425433 239.74217375596078) rotate(0 45.73289361759271 45.73289361759271)"><path d="M0 0 L91.47 0 L91.47 91.47 L0 91.47" stroke="none" stroke-width="0" fill="#82c91e"></path><path d="M0 0 C21.05 0, 42.1 0, 91.47 0 M0 0 C32.46 0, 64.91 0, 91.47 0 M91.47 0 C91.47 27.09, 91.47 54.18, 91.47 91.47 M91.47 0 C91.47 26.63, 91.47 53.25, 91.47 91.47 M91.47 91.47 C59.63 91.47, 27.8 91.47, 0 91.47 M91.47 91.47 C58.36 91.47, 25.26 91.47, 0 91.47 M0 91.47 C0 61.4, 0 31.34, 0 0 M0 91.47 C0 57.72, 0 23.98, 0 0" stroke="#000000" stroke-width="1" fill="none"></path></g><g stroke-linecap="round" transform="translate(358.202982098878 239.74217375596078) rotate(0 45.73289361759271 45.73289361759271)"><path d="M0 0 C30.14 0, 60.29 0, 91.47 0 M0 0 C24.48 0, 48.95 0, 91.47 0 M91.47 0 C91.47 29.21, 91.47 58.42, 91.47 91.47 M91.47 0 C91.47 19.87, 91.47 39.75, 91.47 91.47 M91.47 91.47 C65.15 91.47, 38.84 91.47, 0 91.47 M91.47 91.47 C63.22 91.47, 34.98 91.47, 0 91.47 M0 91.47 C0 60.34, 0 29.21, 0 0 M0 91.47 C0 57.15, 0 22.84, 0 0" stroke="#000000" stroke-width="1" fill="none"></path></g><g transform="translate(17.393147643291286 262.9750673735535) rotate(0 40.5 22.5)"><text x="40.5" y="32" font-family="Virgil, Segoe UI Emoji" font-size="36px" fill="#000000" text-anchor="middle" style="white-space: pre;" direction="ltr">2</text></g><g transform="translate(132.26423452127165 262.9750673735535) rotate(0 40.5 22.5)"><text x="40.5" y="32" font-family="Virgil, Segoe UI Emoji" font-size="36px" fill="#000000" text-anchor="middle" style="white-space: pre;" direction="ltr">3</text></g><g transform="translate(249.5284690425433 262.9750673735535) rotate(0 40.5 22.5)"><text x="40.5" y="32" font-family="Virgil, Segoe UI Emoji" font-size="36px" fill="#000000" text-anchor="middle" style="white-space: pre;" direction="ltr">4</text></g><g transform="translate(363.202982098878 262.9750673735535) rotate(0 40.5 22.5)"><text x="40.5" y="32" font-family="Virgil, Segoe UI Emoji" font-size="36px" fill="#000000" text-anchor="middle" style="white-space: pre;" direction="ltr">1</text></g><g stroke-linecap="round" transform="translate(12.393147643291286 349.8269653473586) rotate(0 45.73289361759271 45.73289361759271)"><path d="M0 0 L91.47 0 L91.47 91.47 L0 91.47" stroke="none" stroke-width="0" fill="#82c91e"></path><path d="M0 0 C24.84 0, 49.68 0, 91.47 0 M0 0 C19.56 0, 39.12 0, 91.47 0 M91.47 0 C91.47 29.94, 91.47 59.89, 91.47 91.47 M91.47 0 C91.47 36.13, 91.47 72.25, 91.47 91.47 M91.47 91.47 C61.49 91.47, 31.51 91.47, 0 91.47 M91.47 91.47 C56.16 91.47, 20.86 91.47, 0 91.47 M0 91.47 C0 55.03, 0 18.59, 0 0 M0 91.47 C0 60.2, 0 28.94, 0 0" stroke="#000000" stroke-width="1" fill="none"></path></g><g stroke-linecap="round" transform="translate(127.26423452127165 349.8269653473586) rotate(0 45.73289361759271 45.73289361759271)"><path d="M0 0 L91.47 0 L91.47 91.47 L0 91.47" stroke="none" stroke-width="0" fill="#82c91e"></path><path d="M0 0 C24.95 0, 49.89 0, 91.47 0 M0 0 C25.7 0, 51.4 0, 91.47 0 M91.47 0 C91.47 35.05, 91.47 70.11, 91.47 91.47 M91.47 0 C91.47 32.78, 91.47 65.56, 91.47 91.47 M91.47 91.47 C67.51 91.47, 43.56 91.47, 0 91.47 M91.47 91.47 C62.32 91.47, 33.17 91.47, 0 91.47 M0 91.47 C0 71.83, 0 52.19, 0 0 M0 91.47 C0 70.09, 0 48.72, 0 0" stroke="#000000" stroke-width="1" fill="none"></path></g><g stroke-linecap="round" transform="translate(244.5284690425433 349.8269653473586) rotate(0 45.73289361759271 45.73289361759271)"><path d="M0 0 L91.47 0 L91.47 91.47 L0 91.47" stroke="none" stroke-width="0" fill="#82c91e"></path><path d="M0 0 C33.63 0, 67.27 0, 91.47 0 M0 0 C36.1 0, 72.2 0, 91.47 0 M91.47 0 C91.47 32.75, 91.47 65.5, 91.47 91.47 M91.47 0 C91.47 23.1, 91.47 46.19, 91.47 91.47 M91.47 91.47 C71.26 91.47, 51.04 91.47, 0 91.47 M91.47 91.47 C55.77 91.47, 20.07 91.47, 0 91.47 M0 91.47 C0 61.11, 0 30.75, 0 0 M0 91.47 C0 70.11, 0 48.75, 0 0" stroke="#000000" stroke-width="1" fill="none"></path></g><g stroke-linecap="round" transform="translate(358.202982098878 349.8269653473586) rotate(0 45.73289361759271 45.73289361759271)"><path d="M0 0 L91.47 0 L91.47 91.47 L0 91.47" stroke="none" stroke-width="0" fill="#82c91e"></path><path d="M0 0 C20.22 0, 40.44 0, 91.47 0 M0 0 C32.85 0, 65.7 0, 91.47 0 M91.47 0 C91.47 31.5, 91.47 63.01, 91.47 91.47 M91.47 0 C91.47 29.22, 91.47 58.43, 91.47 91.47 M91.47 91.47 C57.46 91.47, 23.45 91.47, 0 91.47 M91.47 91.47 C63.63 91.47, 35.79 91.47, 0 91.47 M0 91.47 C0 69.03, 0 46.59, 0 0 M0 91.47 C0 59.04, 0 26.61, 0 0" stroke="#000000" stroke-width="1" fill="none"></path></g><g transform="translate(17.393147643291286 373.05985896495133) rotate(0 40.5 22.5)"><text x="40.5" y="32" font-family="Virgil, Segoe UI Emoji" font-size="36px" fill="#000000" text-anchor="middle" style="white-space: pre;" direction="ltr">1</text></g><g transform="translate(132.26423452127165 373.05985896495133) rotate(0 40.5 22.5)"><text x="40.5" y="32" font-family="Virgil, Segoe UI Emoji" font-size="36px" fill="#000000" text-anchor="middle" style="white-space: pre;" direction="ltr">2</text></g><g transform="translate(249.5284690425433 373.05985896495133) rotate(0 40.5 22.5)"><text x="40.5" y="32" font-family="Virgil, Segoe UI Emoji" font-size="36px" fill="#000000" text-anchor="middle" style="white-space: pre;" direction="ltr">3</text></g><g transform="translate(363.202982098878 373.05985896495133) rotate(0 40.5 22.5)"><text x="40.5" y="32" font-family="Virgil, Segoe UI Emoji" font-size="36px" fill="#000000" text-anchor="middle" style="white-space: pre;" direction="ltr">4</text></g></svg>