<svg version="1.1" xmlns="http://www.w3.org/2000/svg" viewBox="0 0 1015.0585350174206 1499.7594990739822" width="1015.0585350174206" height="1499.7594990739822">
  <!-- svg-source:excalidraw -->
  
  <defs>
    <style>
      @font-face {
        font-family: "Virgil";
        src: url("https://excalidraw.com/Virgil.woff2");
      }
      @font-face {
        font-family: "Cascadia";
        src: url("https://excalidraw.com/Cascadia.woff2");
      }
    </style>
  </defs>
  <rect x="0" y="0" width="1015.0585350174206" height="1499.7594990739822" fill="#ffffff"></rect><g stroke-linecap="round" transform="translate(299.1899845529047 239.51172918736927) rotate(0 34 33.5)"><path d="M0 0 C16.79 0, 33.58 0, 68 0 M0 0 C22.36 0, 44.72 0, 68 0 M68 0 C68 19.99, 68 39.98, 68 67 M68 0 C68 14.96, 68 29.93, 68 67 M68 67 C48.32 67, 28.65 67, 0 67 M68 67 C54.17 67, 40.34 67, 0 67 M0 67 C0 52.79, 0 38.57, 0 0 M0 67 C0 44.46, 0 21.91, 0 0" stroke="#000000" stroke-width="1" fill="none"></path></g><g stroke-linecap="round" transform="translate(383.18998455290483 239.51172918736927) rotate(0 34 33.5)"><path d="M0 0 C15.98 0, 31.95 0, 68 0 M0 0 C16.91 0, 33.81 0, 68 0 M68 0 C68 19.5, 68 39.01, 68 67 M68 0 C68 24.02, 68 48.04, 68 67 M68 67 C52.37 67, 36.74 67, 0 67 M68 67 C42.3 67, 16.6 67, 0 67 M0 67 C0 49.93, 0 32.87, 0 0 M0 67 C0 50.41, 0 33.82, 0 0" stroke="#000000" stroke-width="1" fill="none"></path></g><g stroke-linecap="round" transform="translate(467.18998455290495 239.51172918736927) rotate(0 34 33.5)"><path d="M0 0 C13.9 0, 27.8 0, 68 0 M0 0 C22.58 0, 45.16 0, 68 0 M68 0 C68 19.68, 68 39.36, 68 67 M68 0 C68 19.6, 68 39.21, 68 67 M68 67 C46.43 67, 24.85 67, 0 67 M68 67 C45.47 67, 22.94 67, 0 67 M0 67 C0 44.68, 0 22.35, 0 0 M0 67 C0 45.66, 0 24.31, 0 0" stroke="#000000" stroke-width="1" fill="none"></path></g><g stroke-linecap="round" transform="translate(551.1899845529051 239.51172918736927) rotate(0 34 33.5)"><path d="M0 0 C18.38 0, 36.77 0, 68 0 M0 0 C26.45 0, 52.89 0, 68 0 M68 0 C68 25.22, 68 50.44, 68 67 M68 0 C68 19.25, 68 38.49, 68 67 M68 67 C41.1 67, 14.2 67, 0 67 M68 67 C44.4 67, 20.81 67, 0 67 M0 67 C0 52.07, 0 37.15, 0 0 M0 67 C0 53.26, 0 39.52, 0 0" stroke="#000000" stroke-width="1" fill="none"></path></g><g stroke-linecap="round" transform="translate(635.1899845529051 239.51172918736927) rotate(0 34 33.5)"><path d="M0 0 C18.14 0, 36.28 0, 68 0 M0 0 C26.74 0, 53.48 0, 68 0 M68 0 C68 13.86, 68 27.73, 68 67 M68 0 C68 15.99, 68 31.98, 68 67 M68 67 C48.56 67, 29.11 67, 0 67 M68 67 C54.24 67, 40.47 67, 0 67 M0 67 C0 44.99, 0 22.98, 0 0 M0 67 C0 41.81, 0 16.61, 0 0" stroke="#000000" stroke-width="1" fill="none"></path></g><g stroke-linecap="round" transform="translate(719.1899845529053 239.51172918736927) rotate(0 34.00000000000006 33.5)"><path d="M0 0 C24.38 0, 48.76 0, 68 0 M0 0 C25.02 0, 50.04 0, 68 0 M68 0 C68 22.38, 68 44.76, 68 67 M68 0 C68 18.06, 68 36.13, 68 67 M68 67 C44.96 67, 21.91 67, 0 67 M68 67 C45.21 67, 22.42 67, 0 67 M0 67 C0 42.13, 0 17.26, 0 0 M0 67 C0 42.42, 0 17.85, 0 0" stroke="#000000" stroke-width="1" fill="none"></path></g><g transform="translate(304.1899845529047 260.51172918736927) rotate(0 29 12.5)"><text x="29" y="18" font-family="Virgil, Segoe UI Emoji" font-size="20px" fill="#000000" text-anchor="middle" style="white-space: pre;" direction="ltr">6</text></g><g transform="translate(388.18998455290483 260.51172918736927) rotate(0 29 12.5)"><text x="29" y="18" font-family="Virgil, Segoe UI Emoji" font-size="20px" fill="#000000" text-anchor="middle" style="white-space: pre;" direction="ltr">5</text></g><g transform="translate(472.18998455290495 260.51172918736927) rotate(0 29 12.5)"><text x="29" y="18" font-family="Virgil, Segoe UI Emoji" font-size="20px" fill="#000000" text-anchor="middle" style="white-space: pre;" direction="ltr">4</text></g><g transform="translate(556.1899845529051 260.51172918736927) rotate(0 29 12.5)"><text x="29" y="18" font-family="Virgil, Segoe UI Emoji" font-size="20px" fill="#000000" text-anchor="middle" style="white-space: pre;" direction="ltr">3</text></g><g transform="translate(640.1899845529051 260.51172918736927) rotate(0 29 12.5)"><text x="29" y="18" font-family="Virgil, Segoe UI Emoji" font-size="20px" fill="#000000" text-anchor="middle" style="white-space: pre;" direction="ltr">2</text></g><g transform="translate(724.1899845529053 260.51172918736927) rotate(0 29.000000000000057 12.5)"><text x="29" y="18" font-family="Virgil, Segoe UI Emoji" font-size="20px" fill="#000000" text-anchor="middle" style="white-space: pre;" direction="ltr">1</text></g><g transform="translate(121.05853501742064 10) rotate(0 442 81)"><text x="0" y="113" font-family="Virgil, Segoe UI Emoji" font-size="128.03945094414541px" fill="#000000" text-anchor="start" style="white-space: pre;" direction="ltr">MERGE SORT</text></g><g transform="translate(372.2050477082544 324.38092569269224) rotate(0 165.5 34.500000000000014)"><text x="165.5" y="18" font-family="Helvetica, Segoe UI Emoji" font-size="20px" fill="#000000" text-anchor="middle" style="white-space: pre;" direction="ltr">Se esquerda &lt; direita</text><text x="165.5" y="41" font-family="Helvetica, Segoe UI Emoji" font-size="20px" fill="#000000" text-anchor="middle" style="white-space: pre;" direction="ltr">m = esquerda + (direita - esquerda)/2</text><text x="165.5" y="64" font-family="Helvetica, Segoe UI Emoji" font-size="20px" fill="#000000" text-anchor="middle" style="white-space: pre;" direction="ltr"></text></g><g stroke-linecap="round" transform="translate(202.7933230352698 434.47126933539477) rotate(0 34 33.5)"><path d="M0 0 C24.52 0, 49.05 0, 68 0 M0 0 C15.56 0, 31.12 0, 68 0 M68 0 C68 15.85, 68 31.71, 68 67 M68 0 C68 25.87, 68 51.74, 68 67 M68 67 C43.32 67, 18.65 67, 0 67 M68 67 C49.38 67, 30.75 67, 0 67 M0 67 C0 50.77, 0 34.54, 0 0 M0 67 C0 49.89, 0 32.78, 0 0" stroke="#000000" stroke-width="1" fill="none"></path></g><g stroke-linecap="round" transform="translate(286.7933230352699 434.47126933539477) rotate(0 34 33.5)"><path d="M0 0 C23.7 0, 47.4 0, 68 0 M0 0 C14.07 0, 28.14 0, 68 0 M68 0 C68 25.58, 68 51.15, 68 67 M68 0 C68 18.03, 68 36.06, 68 67 M68 67 C41.48 67, 14.96 67, 0 67 M68 67 C46.05 67, 24.1 67, 0 67 M0 67 C0 43.57, 0 20.14, 0 0 M0 67 C0 44.08, 0 21.16, 0 0" stroke="#000000" stroke-width="1" fill="none"></path></g><g stroke-linecap="round" transform="translate(370.79332303527 434.47126933539477) rotate(0 34 33.5)"><path d="M0 0 C18.12 0, 36.24 0, 68 0 M0 0 C22.07 0, 44.13 0, 68 0 M68 0 C68 23.83, 68 47.66, 68 67 M68 0 C68 19.83, 68 39.65, 68 67 M68 67 C47.79 67, 27.58 67, 0 67 M68 67 C47.34 67, 26.69 67, 0 67 M0 67 C0 49.09, 0 31.18, 0 0 M0 67 C0 44.75, 0 22.5, 0 0" stroke="#000000" stroke-width="1" fill="none"></path></g><g transform="translate(207.7933230352698 455.47126933539477) rotate(0 29 12.5)"><text x="29" y="18" font-family="Virgil, Segoe UI Emoji" font-size="20px" fill="#000000" text-anchor="middle" style="white-space: pre;" direction="ltr">6</text></g><g transform="translate(291.7933230352699 455.47126933539477) rotate(0 29 12.5)"><text x="29" y="18" font-family="Virgil, Segoe UI Emoji" font-size="20px" fill="#000000" text-anchor="middle" style="white-space: pre;" direction="ltr">5</text></g><g transform="translate(375.79332303527 455.47126933539477) rotate(0 29 12.5)"><text x="29" y="18" font-family="Virgil, Segoe UI Emoji" font-size="20px" fill="#000000" text-anchor="middle" style="white-space: pre;" direction="ltr">4</text></g><g stroke-linecap="round" transform="translate(616.1764979355801 431.2219436662611) rotate(0 34 33.5)"><path d="M0 0 C18.31 0, 36.62 0, 68 0 M0 0 C19.11 0, 38.22 0, 68 0 M68 0 C68 16.58, 68 33.17, 68 67 M68 0 C68 13.64, 68 27.28, 68 67 M68 67 C44.25 67, 20.49 67, 0 67 M68 67 C50.11 67, 32.22 67, 0 67 M0 67 C0 49.76, 0 32.52, 0 0 M0 67 C0 51.09, 0 35.18, 0 0" stroke="#000000" stroke-width="1" fill="none"></path></g><g stroke-linecap="round" transform="translate(700.1764979355803 431.2219436662611) rotate(0 33.99999999999994 33.5)"><path d="M0 0 C24.79 0, 49.57 0, 68 0 M0 0 C19.5 0, 39 0, 68 0 M68 0 C68 22.17, 68 44.34, 68 67 M68 0 C68 21.89, 68 43.77, 68 67 M68 67 C49.99 67, 31.97 67, 0 67 M68 67 C50.78 67, 33.55 67, 0 67 M0 67 C0 50.84, 0 34.68, 0 0 M0 67 C0 45.68, 0 24.37, 0 0" stroke="#000000" stroke-width="1" fill="none"></path></g><g stroke-linecap="round" transform="translate(784.1764979355803 431.2219436662611) rotate(0 34 33.5)"><path d="M0 0 C14.84 0, 29.68 0, 68 0 M0 0 C26.3 0, 52.61 0, 68 0 M68 0 C68 26.38, 68 52.76, 68 67 M68 0 C68 14.16, 68 28.33, 68 67 M68 67 C43.53 67, 19.06 67, 0 67 M68 67 C43.39 67, 18.78 67, 0 67 M0 67 C0 40.66, 0 14.33, 0 0 M0 67 C0 46.07, 0 25.15, 0 0" stroke="#000000" stroke-width="1" fill="none"></path></g><g transform="translate(621.1764979355801 452.2219436662611) rotate(0 29 12.5)"><text x="29" y="18" font-family="Virgil, Segoe UI Emoji" font-size="20px" fill="#000000" text-anchor="middle" style="white-space: pre;" direction="ltr">3</text></g><g transform="translate(705.1764979355803 452.2219436662611) rotate(0 28.999999999999943 12.5)"><text x="29" y="18" font-family="Virgil, Segoe UI Emoji" font-size="20px" fill="#000000" text-anchor="middle" style="white-space: pre;" direction="ltr">2</text></g><g transform="translate(789.1764979355803 452.2219436662611) rotate(0 29 12.5)"><text x="29" y="18" font-family="Virgil, Segoe UI Emoji" font-size="20px" fill="#000000" text-anchor="middle" style="white-space: pre;" direction="ltr">1</text></g><g transform="translate(367.8726134827428 520.4235743970958) rotate(0 165.5 34.5)"><text x="165.5" y="18" font-family="Helvetica, Segoe UI Emoji" font-size="20px" fill="#000000" text-anchor="middle" style="white-space: pre;" direction="ltr">Se esquerda &lt; direita</text><text x="165.5" y="41" font-family="Helvetica, Segoe UI Emoji" font-size="20px" fill="#000000" text-anchor="middle" style="white-space: pre;" direction="ltr">m = esquerda + (direita - esquerda)/2</text><text x="165.5" y="64" font-family="Helvetica, Segoe UI Emoji" font-size="20px" fill="#000000" text-anchor="middle" style="white-space: pre;" direction="ltr"></text></g><g stroke-linecap="round" transform="translate(76.06962193905315 625.6399295360977) rotate(0 34 33.5)"><path d="M0 0 C24.47 0, 48.95 0, 68 0 M0 0 C19.16 0, 38.31 0, 68 0 M68 0 C68 23.4, 68 46.81, 68 67 M68 0 C68 25.35, 68 50.69, 68 67 M68 67 C49.97 67, 31.95 67, 0 67 M68 67 C52.65 67, 37.31 67, 0 67 M0 67 C0 43.66, 0 20.32, 0 0 M0 67 C0 47.81, 0 28.62, 0 0" stroke="#000000" stroke-width="1" fill="none"></path></g><g stroke-linecap="round" transform="translate(160.06962193905326 625.6399295360977) rotate(0 34 33.5)"><path d="M0 0 C20.48 0, 40.96 0, 68 0 M0 0 C17.8 0, 35.59 0, 68 0 M68 0 C68 25.12, 68 50.24, 68 67 M68 0 C68 20.52, 68 41.05, 68 67 M68 67 C49.58 67, 31.16 67, 0 67 M68 67 C48.04 67, 28.07 67, 0 67 M0 67 C0 42.26, 0 17.51, 0 0 M0 67 C0 40.79, 0 14.58, 0 0" stroke="#000000" stroke-width="1" fill="none"></path></g><g transform="translate(81.06962193905315 646.6399295360977) rotate(0 29 12.5)"><text x="29" y="18" font-family="Virgil, Segoe UI Emoji" font-size="20px" fill="#000000" text-anchor="middle" style="white-space: pre;" direction="ltr">6</text></g><g transform="translate(165.06962193905326 646.6399295360977) rotate(0 29 12.5)"><text x="29" y="18" font-family="Virgil, Segoe UI Emoji" font-size="20px" fill="#000000" text-anchor="middle" style="white-space: pre;" direction="ltr">5</text></g><g stroke-linecap="round" transform="translate(372.95954014802595 625.6399295360977) rotate(0 34 33.5)"><path d="M0 0 C16.36 0, 32.72 0, 68 0 M0 0 C27.13 0, 54.26 0, 68 0 M68 0 C68 15.16, 68 30.32, 68 67 M68 0 C68 17.57, 68 35.14, 68 67 M68 67 C45.21 67, 22.43 67, 0 67 M68 67 C45.95 67, 23.9 67, 0 67 M0 67 C0 42.16, 0 17.32, 0 0 M0 67 C0 49.97, 0 32.93, 0 0" stroke="#000000" stroke-width="1" fill="none"></path></g><g transform="translate(377.95954014802595 646.6399295360977) rotate(0 29 12.5)"><text x="29" y="18" font-family="Virgil, Segoe UI Emoji" font-size="20px" fill="#000000" text-anchor="middle" style="white-space: pre;" direction="ltr">4</text></g><g stroke-linecap="round" transform="translate(619.425823604714 625.6399295360977) rotate(0 34 33.5)"><path d="M0 0 C16.41 0, 32.82 0, 68 0 M0 0 C24.99 0, 49.97 0, 68 0 M68 0 C68 16.12, 68 32.24, 68 67 M68 0 C68 17.86, 68 35.73, 68 67 M68 67 C47.83 67, 27.67 67, 0 67 M68 67 C47.64 67, 27.29 67, 0 67 M0 67 C0 46.75, 0 26.5, 0 0 M0 67 C0 48.91, 0 30.81, 0 0" stroke="#000000" stroke-width="1" fill="none"></path></g><g stroke-linecap="round" transform="translate(703.425823604714 625.6399295360977) rotate(0 34 33.5)"><path d="M0 0 C17.42 0, 34.84 0, 68 0 M0 0 C16.06 0, 32.11 0, 68 0 M68 0 C68 19.98, 68 39.97, 68 67 M68 0 C68 20.02, 68 40.04, 68 67 M68 67 C42.91 67, 17.81 67, 0 67 M68 67 C51.49 67, 34.97 67, 0 67 M0 67 C0 52.33, 0 37.67, 0 0 M0 67 C0 48.82, 0 30.63, 0 0" stroke="#000000" stroke-width="1" fill="none"></path></g><g transform="translate(624.425823604714 646.6399295360977) rotate(0 29 12.5)"><text x="29" y="18" font-family="Virgil, Segoe UI Emoji" font-size="20px" fill="#000000" text-anchor="middle" style="white-space: pre;" direction="ltr">3</text></g><g transform="translate(708.425823604714 646.6399295360977) rotate(0 29 12.5)"><text x="29" y="18" font-family="Virgil, Segoe UI Emoji" font-size="20px" fill="#000000" text-anchor="middle" style="white-space: pre;" direction="ltr">2</text></g><g stroke-linecap="round" transform="translate(880.5731594532151 625.6399295360977) rotate(0 34 33.5)"><path d="M0 0 C23.57 0, 47.13 0, 68 0 M0 0 C19.32 0, 38.65 0, 68 0 M68 0 C68 20.88, 68 41.77, 68 67 M68 0 C68 26.15, 68 52.3, 68 67 M68 67 C53.9 67, 39.79 67, 0 67 M68 67 C53.39 67, 38.78 67, 0 67 M0 67 C0 46.8, 0 26.61, 0 0 M0 67 C0 51.73, 0 36.45, 0 0" stroke="#000000" stroke-width="1" fill="none"></path></g><g transform="translate(885.5731594532151 646.6399295360977) rotate(0 29 12.5)"><text x="29" y="18" font-family="Virgil, Segoe UI Emoji" font-size="20px" fill="#000000" text-anchor="middle" style="white-space: pre;" direction="ltr">1</text></g><g transform="translate(106.84345139566409 712.1337888759874) rotate(0 165.5 34.5)"><text x="165.5" y="18" font-family="Helvetica, Segoe UI Emoji" font-size="20px" fill="#000000" text-anchor="middle" style="white-space: pre;" direction="ltr">Se esquerda &lt; direita</text><text x="165.5" y="41" font-family="Helvetica, Segoe UI Emoji" font-size="20px" fill="#000000" text-anchor="middle" style="white-space: pre;" direction="ltr">m = esquerda + (direita - esquerda)/2</text><text x="165.5" y="64" font-family="Helvetica, Segoe UI Emoji" font-size="20px" fill="#000000" text-anchor="middle" style="white-space: pre;" direction="ltr"></text></g><g transform="translate(618.0706900060422 714.3000059887434) rotate(0 165.5 34.5)"><text x="165.5" y="18" font-family="Helvetica, Segoe UI Emoji" font-size="20px" fill="#000000" text-anchor="middle" style="white-space: pre;" direction="ltr">Se esquerda &lt; direita</text><text x="165.5" y="41" font-family="Helvetica, Segoe UI Emoji" font-size="20px" fill="#000000" text-anchor="middle" style="white-space: pre;" direction="ltr">m = esquerda + (direita - esquerda)/2</text><text x="165.5" y="64" font-family="Helvetica, Segoe UI Emoji" font-size="20px" fill="#000000" text-anchor="middle" style="white-space: pre;" direction="ltr"></text></g><g stroke-linecap="round" transform="translate(10 807.6021670075882) rotate(0 34 33.5)"><path d="M0 0 C22.61 0, 45.21 0, 68 0 M0 0 C19.84 0, 39.68 0, 68 0 M68 0 C68 16.45, 68 32.9, 68 67 M68 0 C68 26.31, 68 52.61, 68 67 M68 67 C51.71 67, 35.41 67, 0 67 M68 67 C49.31 67, 30.63 67, 0 67 M0 67 C0 48.71, 0 30.41, 0 0 M0 67 C0 46.32, 0 25.64, 0 0" stroke="#000000" stroke-width="1" fill="none"></path></g><g transform="translate(15 828.6021670075882) rotate(0 29 12.5)"><text x="29" y="18" font-family="Virgil, Segoe UI Emoji" font-size="20px" fill="#000000" text-anchor="middle" style="white-space: pre;" direction="ltr">6</text></g><g stroke-linecap="round" transform="translate(162.23583905180908 807.6021670075882) rotate(0 34 33.5)"><path d="M0 0 C16.48 0, 32.97 0, 68 0 M0 0 C17.98 0, 35.97 0, 68 0 M68 0 C68 14.49, 68 28.97, 68 67 M68 0 C68 18.42, 68 36.84, 68 67 M68 67 C48.83 67, 29.67 67, 0 67 M68 67 C41.44 67, 14.88 67, 0 67 M0 67 C0 42.04, 0 17.07, 0 0 M0 67 C0 52.48, 0 37.96, 0 0" stroke="#000000" stroke-width="1" fill="none"></path></g><g transform="translate(167.23583905180908 828.6021670075882) rotate(0 29 12.5)"><text x="29" y="18" font-family="Virgil, Segoe UI Emoji" font-size="20px" fill="#000000" text-anchor="middle" style="white-space: pre;" direction="ltr">5</text></g><g stroke-linecap="round" transform="translate(618.342715048336 807.6021670075882) rotate(0 34 33.5)"><path d="M0 0 C15.49 0, 30.99 0, 68 0 M0 0 C22.2 0, 44.4 0, 68 0 M68 0 C68 25.11, 68 50.22, 68 67 M68 0 C68 17, 68 34, 68 67 M68 67 C49.68 67, 31.36 67, 0 67 M68 67 C54.21 67, 40.42 67, 0 67 M0 67 C0 40.65, 0 14.31, 0 0 M0 67 C0 43.85, 0 20.7, 0 0" stroke="#000000" stroke-width="1" fill="none"></path></g><g transform="translate(623.342715048336 828.6021670075882) rotate(0 29 12.5)"><text x="29" y="18" font-family="Virgil, Segoe UI Emoji" font-size="20px" fill="#000000" text-anchor="middle" style="white-space: pre;" direction="ltr">3</text></g><g stroke-linecap="round" transform="translate(772.7447712129008 807.6021670075882) rotate(0 34 33.5)"><path d="M0 0 C18.97 0, 37.94 0, 68 0 M0 0 C21.64 0, 43.29 0, 68 0 M68 0 C68 19.43, 68 38.87, 68 67 M68 0 C68 16.77, 68 33.55, 68 67 M68 67 C42.65 67, 17.3 67, 0 67 M68 67 C51.78 67, 35.56 67, 0 67 M0 67 C0 49.21, 0 31.42, 0 0 M0 67 C0 41.81, 0 16.62, 0 0" stroke="#000000" stroke-width="1" fill="none"></path></g><g transform="translate(777.7447712129008 828.6021670075882) rotate(0 29 12.5)"><text x="29" y="18" font-family="Virgil, Segoe UI Emoji" font-size="20px" fill="#000000" text-anchor="middle" style="white-space: pre;" direction="ltr">2</text></g><g stroke-linecap="round"><g transform="translate(317.169233439925 321.5119404654277) rotate(0 -8.268983146679261 43.70748234673346)"><path d="M0 0 C-2.76 14.57, -13.78 72.85, -16.54 87.41 M0 0 C-2.76 14.57, -13.78 72.85, -16.54 87.41" stroke="#000000" stroke-width="4" fill="none"></path></g><g transform="translate(317.169233439925 321.5119404654277) rotate(0 -8.268983146679261 43.70748234673346)"><path d="M-21.38 57.81 C-19.73 67.87, -18.09 77.94, -16.54 87.41 M-21.38 57.81 C-19.58 68.79, -17.79 79.77, -16.54 87.41" stroke="#000000" stroke-width="4" fill="none"></path></g><g transform="translate(317.169233439925 321.5119404654277) rotate(0 -8.268983146679261 43.70748234673346)"><path d="M-1.22 61.62 C-6.42 70.39, -11.63 79.16, -16.54 87.41 M-1.22 61.62 C-6.9 71.19, -12.58 80.75, -16.54 87.41" stroke="#000000" stroke-width="4" fill="none"></path></g></g><g stroke-linecap="round"><g transform="translate(756.6066235205965 326.23707369210166) rotate(0 -1.181283306668547 38.98234912005955)"><path d="M0 0 C-0.39 12.99, -1.97 64.97, -2.36 77.96 M0 0 C-0.39 12.99, -1.97 64.97, -2.36 77.96" stroke="#000000" stroke-width="4" fill="none"></path></g><g transform="translate(756.6066235205965 326.23707369210166) rotate(0 -1.181283306668547 38.98234912005955)"><path d="M-11.76 49.48 C-8.12 60.53, -4.47 71.59, -2.36 77.96 M-11.76 49.48 C-9.62 55.97, -7.48 62.46, -2.36 77.96" stroke="#000000" stroke-width="4" fill="none"></path></g><g transform="translate(756.6066235205965 326.23707369210166) rotate(0 -1.181283306668547 38.98234912005955)"><path d="M8.75 50.1 C4.44 60.91, 0.12 71.73, -2.36 77.96 M8.75 50.1 C6.22 56.45, 3.69 62.79, -2.36 77.96" stroke="#000000" stroke-width="4" fill="none"></path></g></g><g stroke-linecap="round"><g transform="translate(246.29223503981672 522.3301025990679) rotate(0 -21.263099520032483 41.344915733396476)"><path d="M0 0 C-7.09 13.78, -35.44 68.91, -42.53 82.69 M0 0 C-7.09 13.78, -35.44 68.91, -42.53 82.69" stroke="#000000" stroke-width="4" fill="none"></path></g><g transform="translate(246.29223503981672 522.3301025990679) rotate(0 -21.263099520032483 41.344915733396476)"><path d="M-38.76 52.93 C-40.08 63.36, -41.4 73.79, -42.53 82.69 M-38.76 52.93 C-39.91 62.02, -41.06 71.12, -42.53 82.69" stroke="#000000" stroke-width="4" fill="none"></path></g><g transform="translate(246.29223503981672 522.3301025990679) rotate(0 -21.263099520032483 41.344915733396476)"><path d="M-20.51 62.31 C-28.23 69.46, -35.94 76.6, -42.53 82.69 M-20.51 62.31 C-27.24 68.54, -33.97 74.77, -42.53 82.69" stroke="#000000" stroke-width="4" fill="none"></path></g></g><g stroke-linecap="round"><g transform="translate(737.7060906139009 519.9675359857308) rotate(0 -10.631549760016242 41.34491573339653)"><path d="M0 0 C-3.54 13.78, -17.72 68.91, -21.26 82.69 M0 0 C-3.54 13.78, -17.72 68.91, -21.26 82.69" stroke="#000000" stroke-width="4" fill="none"></path></g><g transform="translate(737.7060906139009 519.9675359857308) rotate(0 -10.631549760016242 41.34491573339653)"><path d="M-24.18 52.83 C-23.32 61.61, -22.47 70.38, -21.26 82.69 M-24.18 52.83 C-23.02 64.7, -21.86 76.58, -21.26 82.69" stroke="#000000" stroke-width="4" fill="none"></path></g><g transform="translate(737.7060906139009 519.9675359857308) rotate(0 -10.631549760016242 41.34491573339653)"><path d="M-4.31 57.94 C-9.29 65.21, -14.27 72.49, -21.26 82.69 M-4.31 57.94 C-11.05 67.78, -17.79 77.62, -21.26 82.69" stroke="#000000" stroke-width="4" fill="none"></path></g></g><g stroke-linecap="round"><g transform="translate(822.7584886940308 522.3301025990679) rotate(0 30.713365973380178 40.16363242672804)"><path d="M0 0 C10.24 13.39, 51.19 66.94, 61.43 80.33 M0 0 C10.24 13.39, 51.19 66.94, 61.43 80.33" stroke="#000000" stroke-width="4" fill="none"></path></g><g transform="translate(822.7584886940308 522.3301025990679) rotate(0 30.713365973380178 40.16363242672804)"><path d="M36.15 64.17 C45.27 70, 54.39 75.83, 61.43 80.33 M36.15 64.17 C41.35 67.49, 46.55 70.82, 61.43 80.33" stroke="#000000" stroke-width="4" fill="none"></path></g><g transform="translate(822.7584886940308 522.3301025990679) rotate(0 30.713365973380178 40.16363242672804)"><path d="M52.45 51.7 C55.69 62.03, 58.93 72.36, 61.43 80.33 M52.45 51.7 C54.3 57.59, 56.15 63.48, 61.43 80.33" stroke="#000000" stroke-width="4" fill="none"></path></g></g><g stroke-linecap="round"><g transform="translate(319.5318000532621 522.3301025990679) rotate(0 21.263099520032483 40.16363242672804)"><path d="M0 0 C7.09 13.39, 35.44 66.94, 42.53 80.33 M0 0 C7.09 13.39, 35.44 66.94, 42.53 80.33" stroke="#000000" stroke-width="4" fill="none"></path></g><g transform="translate(319.5318000532621 522.3301025990679) rotate(0 21.263099520032483 40.16363242672804)"><path d="M20.27 60.21 C26.33 65.7, 32.4 71.18, 42.53 80.33 M20.27 60.21 C25.58 65.01, 30.89 69.81, 42.53 80.33" stroke="#000000" stroke-width="4" fill="none"></path></g><g transform="translate(319.5318000532621 522.3301025990679) rotate(0 21.263099520032483 40.16363242672804)"><path d="M38.4 50.61 C39.53 58.71, 40.65 66.81, 42.53 80.33 M38.4 50.61 C39.39 57.7, 40.37 64.8, 42.53 80.33" stroke="#000000" stroke-width="4" fill="none"></path></g></g><g stroke-linecap="round"><g transform="translate(78.55000549289394 713.6979982793603) rotate(0 -13.098780381318903 41.11916483647383)"><path d="M0 0 C-4.37 13.71, -21.83 68.53, -26.2 82.24 M0 0 C-4.37 13.71, -21.83 68.53, -26.2 82.24" stroke="#000000" stroke-width="4" fill="none"></path></g><g transform="translate(78.55000549289394 713.6979982793603) rotate(0 -13.098780381318903 41.11916483647383)"><path d="M-27.42 52.26 C-26.94 64.06, -26.46 75.85, -26.2 82.24 M-27.42 52.26 C-27.1 59.96, -26.79 67.65, -26.2 82.24" stroke="#000000" stroke-width="4" fill="none"></path></g><g transform="translate(78.55000549289394 713.6979982793603) rotate(0 -13.098780381318903 41.11916483647383)"><path d="M-7.86 58.49 C-15.08 67.84, -22.29 77.18, -26.2 82.24 M-7.86 58.49 C-12.57 64.59, -17.27 70.68, -26.2 82.24" stroke="#000000" stroke-width="4" fill="none"></path></g></g><g stroke-linecap="round"><g transform="translate(135.25160421298057 711.3354316660234) rotate(0 11.812833066684675 37.80106581339106)"><path d="M0 0 C3.94 12.6, 19.69 63, 23.63 75.6 M0 0 C3.94 12.6, 19.69 63, 23.63 75.6" stroke="#000000" stroke-width="4" fill="none"></path></g><g transform="translate(135.25160421298057 711.3354316660234) rotate(0 11.812833066684675 37.80106581339106)"><path d="M5.42 51.76 C9.69 57.34, 13.95 62.93, 23.63 75.6 M5.42 51.76 C10.29 58.13, 15.15 64.5, 23.63 75.6" stroke="#000000" stroke-width="4" fill="none"></path></g><g transform="translate(135.25160421298057 711.3354316660234) rotate(0 11.812833066684675 37.80106581339106)"><path d="M25.01 45.63 C24.69 52.66, 24.36 59.68, 23.63 75.6 M25.01 45.63 C24.64 53.64, 24.27 61.65, 23.63 75.6" stroke="#000000" stroke-width="4" fill="none"></path></g></g><g stroke-linecap="round"><g transform="translate(631.3905930137385 704.2477318260126) rotate(0 0 42.52619904006491)"><path d="M0 0 C0 14.18, 0 70.88, 0 85.05 M0 0 C0 14.18, 0 70.88, 0 85.05" stroke="#000000" stroke-width="4" fill="none"></path></g><g transform="translate(631.3905930137385 704.2477318260126) rotate(0 0 42.52619904006491)"><path d="M-10.26 56.86 C-7.97 63.14, -5.69 69.43, 0 85.05 M-10.26 56.86 C-7.28 65.04, -4.3 73.23, 0 85.05" stroke="#000000" stroke-width="4" fill="none"></path></g><g transform="translate(631.3905930137385 704.2477318260126) rotate(0 0 42.52619904006491)"><path d="M10.26 56.86 C7.97 63.14, 5.69 69.43, 0 85.05 M10.26 56.86 C7.28 65.04, 4.3 73.23, 0 85.05" stroke="#000000" stroke-width="4" fill="none"></path></g></g><g stroke-linecap="round"><g transform="translate(749.5189236805857 694.7974653726646) rotate(0 14.175399680021542 47.251332266738814)"><path d="M0 0 C4.73 15.75, 23.63 78.75, 28.35 94.5 M0 0 C4.73 15.75, 23.63 78.75, 28.35 94.5" stroke="#000000" stroke-width="4" fill="none"></path></g><g transform="translate(749.5189236805857 694.7974653726646) rotate(0 14.175399680021542 47.251332266738814)"><path d="M10.42 70.45 C16.72 78.9, 23.02 87.35, 28.35 94.5 M10.42 70.45 C16.49 78.59, 22.56 86.73, 28.35 94.5" stroke="#000000" stroke-width="4" fill="none"></path></g><g transform="translate(749.5189236805857 694.7974653726646) rotate(0 14.175399680021542 47.251332266738814)"><path d="M30.08 64.55 C29.47 75.07, 28.86 85.59, 28.35 94.5 M30.08 64.55 C29.49 74.69, 28.91 84.83, 28.35 94.5" stroke="#000000" stroke-width="4" fill="none"></path></g></g><g stroke-linecap="round" transform="translate(115.10856507203698 960.4873525669148) rotate(0 34 33.5)"><path d="M0 0 C20.93 0, 41.86 0, 68 0 M0 0 C18.32 0, 36.63 0, 68 0 M68 0 C68 24.68, 68 49.36, 68 67 M68 0 C68 20.35, 68 40.7, 68 67 M68 67 C52.27 67, 36.54 67, 0 67 M68 67 C51.37 67, 34.74 67, 0 67 M0 67 C0 42.02, 0 17.04, 0 0 M0 67 C0 50.41, 0 33.81, 0 0" stroke="#000000" stroke-width="1" fill="none"></path></g><g transform="translate(120.10856507203698 981.4873525669148) rotate(0 29 12.5)"><text x="29" y="18" font-family="Virgil, Segoe UI Emoji" font-size="20px" fill="#000000" text-anchor="middle" style="white-space: pre;" direction="ltr">6</text></g><g stroke-linecap="round" transform="translate(26.550236867906733 960.4873525669148) rotate(0 34 33.5)"><path d="M0 0 C23.79 0, 47.58 0, 68 0 M0 0 C18.5 0, 36.99 0, 68 0 M68 0 C68 26.58, 68 53.16, 68 67 M68 0 C68 20.04, 68 40.09, 68 67 M68 67 C51.03 67, 34.06 67, 0 67 M68 67 C44.35 67, 20.7 67, 0 67 M0 67 C0 47.7, 0 28.41, 0 0 M0 67 C0 44.29, 0 21.59, 0 0" stroke="#000000" stroke-width="1" fill="none"></path></g><g transform="translate(31.550236867906733 981.4873525669148) rotate(0 29 12.5)"><text x="29" y="18" font-family="Virgil, Segoe UI Emoji" font-size="20px" fill="#000000" text-anchor="middle" style="white-space: pre;" direction="ltr">5</text></g><g stroke-linecap="round" transform="translate(654.2587524044227 960.4873525669148) rotate(0 34 33.5)"><path d="M0 0 C13.95 0, 27.9 0, 68 0 M0 0 C25.49 0, 50.97 0, 68 0 M68 0 C68 17.06, 68 34.12, 68 67 M68 0 C68 19.42, 68 38.83, 68 67 M68 67 C50.89 67, 33.78 67, 0 67 M68 67 C50.92 67, 33.83 67, 0 67 M0 67 C0 49.24, 0 31.49, 0 0 M0 67 C0 47.28, 0 27.55, 0 0" stroke="#000000" stroke-width="1" fill="none"></path></g><g transform="translate(659.2587524044227 981.4873525669148) rotate(0 29 12.5)"><text x="29" y="18" font-family="Virgil, Segoe UI Emoji" font-size="20px" fill="#000000" text-anchor="middle" style="white-space: pre;" direction="ltr">2</text></g><g stroke-linecap="round" transform="translate(738.7397986763058 960.4873525669148) rotate(0 34 33.5)"><path d="M0 0 C13.64 0, 27.28 0, 68 0 M0 0 C23.6 0, 47.2 0, 68 0 M68 0 C68 23.57, 68 47.15, 68 67 M68 0 C68 15.71, 68 31.41, 68 67 M68 67 C42.83 67, 17.65 67, 0 67 M68 67 C47.9 67, 27.79 67, 0 67 M0 67 C0 50.93, 0 34.85, 0 0 M0 67 C0 48.11, 0 29.21, 0 0" stroke="#000000" stroke-width="1" fill="none"></path></g><g transform="translate(743.7397986763058 981.4873525669148) rotate(0 29 12.5)"><text x="29" y="18" font-family="Virgil, Segoe UI Emoji" font-size="20px" fill="#000000" text-anchor="middle" style="white-space: pre;" direction="ltr">3</text></g><g stroke-linecap="round"><g transform="translate(114.01932264506371 879.9647449842607) rotate(0 -4.201655192791804 37.23339918282659)"><path d="M0 0 C-1.4 12.41, -7 62.06, -8.4 74.47 M0 0 C-1.4 12.41, -7 62.06, -8.4 74.47" stroke="#000000" stroke-width="4" fill="none"></path></g><g transform="translate(114.01932264506371 879.9647449842607) rotate(0 -4.201655192791804 37.23339918282659)"><path d="M-15.44 45.3 C-12.67 56.78, -9.9 68.25, -8.4 74.47 M-15.44 45.3 C-13.07 55.11, -10.71 64.91, -8.4 74.47" stroke="#000000" stroke-width="4" fill="none"></path></g><g transform="translate(114.01932264506371 879.9647449842607) rotate(0 -4.201655192791804 37.23339918282659)"><path d="M4.95 47.6 C-0.3 58.17, -5.56 68.74, -8.4 74.47 M4.95 47.6 C0.46 56.63, -4.03 65.66, -8.4 74.47" stroke="#000000" stroke-width="4" fill="none"></path></g></g><g stroke-linecap="round"><g transform="translate(727.4711297018619 870.4094208868028) rotate(0 0 35.35469916059429)"><path d="M0 0 C0 11.78, 0 58.92, 0 70.71 M0 0 C0 11.78, 0 58.92, 0 70.71" stroke="#000000" stroke-width="4" fill="none"></path></g><g transform="translate(727.4711297018619 870.4094208868028) rotate(0 0 35.35469916059429)"><path d="M-10.26 42.52 C-7.08 51.25, -3.9 59.98, 0 70.71 M-10.26 42.52 C-7.25 50.8, -4.24 59.07, 0 70.71" stroke="#000000" stroke-width="4" fill="none"></path></g><g transform="translate(727.4711297018619 870.4094208868028) rotate(0 0 35.35469916059429)"><path d="M10.26 42.52 C7.08 51.25, 3.9 59.98, 0 70.71 M10.26 42.52 C7.25 50.8, 4.24 59.07, 0 70.71" stroke="#000000" stroke-width="4" fill="none"></path></g></g><g stroke-linecap="round" transform="translate(206.8396764076329 1139.9219057892283) rotate(0 34 33.5)"><path d="M0 0 C15.72 0, 31.44 0, 68 0 M0 0 C19.27 0, 38.54 0, 68 0 M68 0 C68 25.84, 68 51.68, 68 67 M68 0 C68 15.98, 68 31.95, 68 67 M68 67 C48.87 67, 29.73 67, 0 67 M68 67 C43.02 67, 18.04 67, 0 67 M0 67 C0 45.37, 0 23.75, 0 0 M0 67 C0 42.48, 0 17.95, 0 0" stroke="#000000" stroke-width="1" fill="none"></path></g><g transform="translate(211.8396764076329 1160.9219057892283) rotate(0 29 12.5)"><text x="29" y="18" font-family="Virgil, Segoe UI Emoji" font-size="20px" fill="#000000" text-anchor="middle" style="white-space: pre;" direction="ltr">6</text></g><g stroke-linecap="round" transform="translate(118.2813482035026 1139.9219057892283) rotate(0 34 33.5)"><path d="M0 0 C14.44 0, 28.88 0, 68 0 M0 0 C13.83 0, 27.67 0, 68 0 M68 0 C68 26.07, 68 52.14, 68 67 M68 0 C68 14.77, 68 29.54, 68 67 M68 67 C51.39 67, 34.79 67, 0 67 M68 67 C54.05 67, 40.09 67, 0 67 M0 67 C0 49.53, 0 32.07, 0 0 M0 67 C0 50.66, 0 34.32, 0 0" stroke="#000000" stroke-width="1" fill="none"></path></g><g transform="translate(123.2813482035026 1160.9219057892283) rotate(0 29 12.5)"><text x="29" y="18" font-family="Virgil, Segoe UI Emoji" font-size="20px" fill="#000000" text-anchor="middle" style="white-space: pre;" direction="ltr">5</text></g><g stroke-linecap="round" transform="translate(25.145743000557957 1139.9219057892283) rotate(0 34 33.5)"><path d="M0 0 C13.66 0, 27.31 0, 68 0 M0 0 C21.42 0, 42.84 0, 68 0 M68 0 C68 25.21, 68 50.43, 68 67 M68 0 C68 18.26, 68 36.52, 68 67 M68 67 C54.34 67, 40.67 67, 0 67 M68 67 C42.8 67, 17.6 67, 0 67 M0 67 C0 52.85, 0 38.7, 0 0 M0 67 C0 46.19, 0 25.38, 0 0" stroke="#000000" stroke-width="1" fill="none"></path></g><g transform="translate(30.145743000557957 1160.9219057892283) rotate(0 29 12.5)"><text x="29" y="18" font-family="Virgil, Segoe UI Emoji" font-size="20px" fill="#000000" text-anchor="middle" style="white-space: pre;" direction="ltr">4</text></g><g stroke-linecap="round" transform="translate(673.3694005993386 1139.9219057892283) rotate(0 34 33.5)"><path d="M0 0 C18.04 0, 36.07 0, 68 0 M0 0 C18.2 0, 36.4 0, 68 0 M68 0 C68 20.28, 68 40.55, 68 67 M68 0 C68 19.92, 68 39.84, 68 67 M68 67 C42.56 67, 17.12 67, 0 67 M68 67 C53.76 67, 39.52 67, 0 67 M0 67 C0 40.81, 0 14.62, 0 0 M0 67 C0 52.12, 0 37.24, 0 0" stroke="#000000" stroke-width="1" fill="none"></path></g><g transform="translate(678.3694005993386 1160.9219057892283) rotate(0 29 12.5)"><text x="29" y="18" font-family="Virgil, Segoe UI Emoji" font-size="20px" fill="#000000" text-anchor="middle" style="white-space: pre;" direction="ltr">2</text></g><g stroke-linecap="round" transform="translate(757.8504468712217 1139.9219057892283) rotate(0 34 33.5)"><path d="M0 0 C21.43 0, 42.87 0, 68 0 M0 0 C18.59 0, 37.19 0, 68 0 M68 0 C68 21.21, 68 42.42, 68 67 M68 0 C68 25.07, 68 50.14, 68 67 M68 67 C49.32 67, 30.63 67, 0 67 M68 67 C52.24 67, 36.49 67, 0 67 M0 67 C0 45.8, 0 24.61, 0 0 M0 67 C0 48.24, 0 29.48, 0 0" stroke="#000000" stroke-width="1" fill="none"></path></g><g transform="translate(762.8504468712217 1160.9219057892283) rotate(0 29 12.5)"><text x="29" y="18" font-family="Virgil, Segoe UI Emoji" font-size="20px" fill="#000000" text-anchor="middle" style="white-space: pre;" direction="ltr">3</text></g><g stroke-linecap="round" transform="translate(586.2691772515116 1139.9219057892283) rotate(0 34 33.5)"><path d="M0 0 C16.83 0, 33.65 0, 68 0 M0 0 C16.44 0, 32.88 0, 68 0 M68 0 C68 19.41, 68 38.82, 68 67 M68 0 C68 23.47, 68 46.94, 68 67 M68 67 C44.84 67, 21.68 67, 0 67 M68 67 C44.31 67, 20.61 67, 0 67 M0 67 C0 42.43, 0 17.86, 0 0 M0 67 C0 49.49, 0 31.99, 0 0" stroke="#000000" stroke-width="1" fill="none"></path></g><g transform="translate(591.2691772515116 1160.9219057892283) rotate(0 29 12.5)"><text x="29" y="18" font-family="Virgil, Segoe UI Emoji" font-size="20px" fill="#000000" text-anchor="middle" style="white-space: pre;" direction="ltr">1</text></g><g stroke-linecap="round"><g transform="translate(404.50117520778434 702.2357167715436) rotate(0 -61.15407422373073 204.4839356855993)"><path d="M0 0 C-20.38 68.16, -101.92 340.81, -122.31 408.97 M0 0 C-20.38 68.16, -101.92 340.81, -122.31 408.97" stroke="#000000" stroke-width="4" fill="none"></path></g><g transform="translate(404.50117520778434 702.2357167715436) rotate(0 -61.15407422373073 204.4839356855993)"><path d="M-124.06 379.02 C-123.57 387.37, -123.08 395.72, -122.31 408.97 M-124.06 379.02 C-123.63 386.47, -123.19 393.91, -122.31 408.97" stroke="#000000" stroke-width="4" fill="none"></path></g><g transform="translate(404.50117520778434 702.2357167715436) rotate(0 -61.15407422373073 204.4839356855993)"><path d="M-104.4 384.9 C-109.39 391.61, -114.39 398.32, -122.31 408.97 M-104.4 384.9 C-108.85 390.88, -113.3 396.87, -122.31 408.97" stroke="#000000" stroke-width="4" fill="none"></path></g></g><g stroke-linecap="round"><g transform="translate(87.2644151721816 1032.8499305435873) rotate(0 2.8665972292374136 40.13236120932322)"><path d="M0 0 C0.96 13.38, 4.78 66.89, 5.73 80.26 M0 0 C0.96 13.38, 4.78 66.89, 5.73 80.26" stroke="#000000" stroke-width="4" fill="none"></path></g><g transform="translate(87.2644151721816 1032.8499305435873) rotate(0 2.8665972292374136 40.13236120932322)"><path d="M-6.51 52.88 C-2.43 62.01, 1.66 71.15, 5.73 80.26 M-6.51 52.88 C-4.05 58.38, -1.59 63.88, 5.73 80.26" stroke="#000000" stroke-width="4" fill="none"></path></g><g transform="translate(87.2644151721816 1032.8499305435873) rotate(0 2.8665972292374136 40.13236120932322)"><path d="M13.96 51.41 C11.21 61.04, 8.47 70.67, 5.73 80.26 M13.96 51.41 C12.31 57.21, 10.65 63.01, 5.73 80.26" stroke="#000000" stroke-width="4" fill="none"></path></g></g><g stroke-linecap="round"><g transform="translate(951.0657135823769 698.4135871325605) rotate(0 -60.198541813985 208.30606532458245)"><path d="M0 0 C-20.07 69.44, -100.33 347.18, -120.4 416.61 M0 0 C-20.07 69.44, -100.33 347.18, -120.4 416.61" stroke="#000000" stroke-width="4" fill="none"></path></g><g transform="translate(951.0657135823769 698.4135871325605) rotate(0 -60.198541813985 208.30606532458245)"><path d="M-122.43 386.68 C-121.7 397.45, -120.97 408.22, -120.4 416.61 M-122.43 386.68 C-121.65 398.16, -120.87 409.65, -120.4 416.61" stroke="#000000" stroke-width="4" fill="none"></path></g><g transform="translate(951.0657135823769 698.4135871325605) rotate(0 -60.198541813985 208.30606532458245)"><path d="M-102.71 392.38 C-109.08 401.1, -115.44 409.82, -120.4 416.61 M-102.71 392.38 C-109.5 401.68, -116.28 410.97, -120.4 416.61" stroke="#000000" stroke-width="4" fill="none"></path></g></g><g stroke-linecap="round"><g transform="translate(712.1826111459293 1042.4052546410453) rotate(0 -1.9498374512762098 46.82108807754372)"><path d="M0 0 C-0.65 15.61, -3.25 78.04, -3.9 93.64 M0 0 C-0.65 15.61, -3.25 78.04, -3.9 93.64" stroke="#000000" stroke-width="4" fill="none"></path></g><g transform="translate(712.1826111459293 1042.4052546410453) rotate(0 -1.9498374512762098 46.82108807754372)"><path d="M-12.98 65.05 C-10.1 74.12, -7.22 83.19, -3.9 93.64 M-12.98 65.05 C-11.03 71.2, -9.07 77.35, -3.9 93.64" stroke="#000000" stroke-width="4" fill="none"></path></g><g transform="translate(712.1826111459293 1042.4052546410453) rotate(0 -1.9498374512762098 46.82108807754372)"><path d="M7.53 65.9 C3.9 74.7, 0.28 83.5, -3.9 93.64 M7.53 65.9 C5.07 71.87, 2.61 77.84, -3.9 93.64" stroke="#000000" stroke-width="4" fill="none"></path></g></g><g stroke-linecap="round" transform="translate(327.3032673754421 1422.7594990739822) rotate(0 34 33.5)"><path d="M0 0 C23.17 0, 46.35 0, 68 0 M0 0 C21.76 0, 43.52 0, 68 0 M68 0 C68 18.9, 68 37.8, 68 67 M68 0 C68 23.83, 68 47.66, 68 67 M68 67 C49.79 67, 31.57 67, 0 67 M68 67 C41.11 67, 14.21 67, 0 67 M0 67 C0 48.64, 0 30.27, 0 0 M0 67 C0 52.06, 0 37.12, 0 0" stroke="#000000" stroke-width="1" fill="none"></path></g><g transform="translate(332.3032673754421 1443.7594990739822) rotate(0 29 12.5)"><text x="29" y="18" font-family="Virgil, Segoe UI Emoji" font-size="20px" fill="#000000" text-anchor="middle" style="white-space: pre;" direction="ltr">2</text></g><g stroke-linecap="round" transform="translate(421.8843491053155 1422.7594990739822) rotate(0 34 33.5)"><path d="M0 0 C17.43 0, 34.85 0, 68 0 M0 0 C25.56 0, 51.11 0, 68 0 M68 0 C68 20.5, 68 41.01, 68 67 M68 0 C68 14.43, 68 28.85, 68 67 M68 67 C53.71 67, 39.42 67, 0 67 M68 67 C50.98 67, 33.96 67, 0 67 M0 67 C0 49.67, 0 32.35, 0 0 M0 67 C0 46.58, 0 26.16, 0 0" stroke="#000000" stroke-width="1" fill="none"></path></g><g transform="translate(426.8843491053155 1443.7594990739822) rotate(0 29 12.5)"><text x="29" y="18" font-family="Virgil, Segoe UI Emoji" font-size="20px" fill="#000000" text-anchor="middle" style="white-space: pre;" direction="ltr">3</text></g><g stroke-linecap="round" transform="translate(232.7221856455687 1422.7594990739822) rotate(0 34 33.5)"><path d="M0 0 C25.06 0, 50.11 0, 68 0 M0 0 C25.47 0, 50.94 0, 68 0 M68 0 C68 25.57, 68 51.14, 68 67 M68 0 C68 26.23, 68 52.45, 68 67 M68 67 C51.03 67, 34.07 67, 0 67 M68 67 C45.08 67, 22.16 67, 0 67 M0 67 C0 47.77, 0 28.55, 0 0 M0 67 C0 50.16, 0 33.32, 0 0" stroke="#000000" stroke-width="1" fill="none"></path></g><g transform="translate(237.7221856455687 1443.7594990739822) rotate(0 29 12.5)"><text x="29" y="18" font-family="Virgil, Segoe UI Emoji" font-size="20px" fill="#000000" text-anchor="middle" style="white-space: pre;" direction="ltr">1</text></g><g stroke-linecap="round" transform="translate(705.6275942949358 1422.7594990739822) rotate(0 34.00000000000006 33.5)"><path d="M0 0 C19.4 0, 38.81 0, 68 0 M0 0 C16.9 0, 33.8 0, 68 0 M68 0 C68 18.13, 68 36.27, 68 67 M68 0 C68 19.8, 68 39.6, 68 67 M68 67 C50.88 67, 33.77 67, 0 67 M68 67 C52.9 67, 37.81 67, 0 67 M0 67 C0 48.26, 0 29.52, 0 0 M0 67 C0 42.36, 0 17.71, 0 0" stroke="#000000" stroke-width="1" fill="none"></path></g><g transform="translate(710.6275942949358 1443.7594990739822) rotate(0 29.000000000000057 12.5)"><text x="29" y="18" font-family="Virgil, Segoe UI Emoji" font-size="20px" fill="#000000" text-anchor="middle" style="white-space: pre;" direction="ltr">6</text></g><g stroke-linecap="round" transform="translate(611.0465125650624 1422.7594990739822) rotate(0 34 33.5)"><path d="M0 0 C14.6 0, 29.2 0, 68 0 M0 0 C18.97 0, 37.94 0, 68 0 M68 0 C68 16.74, 68 33.47, 68 67 M68 0 C68 21.56, 68 43.12, 68 67 M68 67 C50.95 67, 33.9 67, 0 67 M68 67 C52.03 67, 36.06 67, 0 67 M0 67 C0 40.71, 0 14.42, 0 0 M0 67 C0 45.64, 0 24.28, 0 0" stroke="#000000" stroke-width="1" fill="none"></path></g><g transform="translate(616.0465125650624 1443.7594990739822) rotate(0 29 12.5)"><text x="29" y="18" font-family="Virgil, Segoe UI Emoji" font-size="20px" fill="#000000" text-anchor="middle" style="white-space: pre;" direction="ltr">5</text></g><g stroke-linecap="round" transform="translate(516.465430835189 1422.7594990739822) rotate(0 34 33.5)"><path d="M0 0 C19.75 0, 39.5 0, 68 0 M0 0 C14.26 0, 28.52 0, 68 0 M68 0 C68 15.73, 68 31.46, 68 67 M68 0 C68 15.68, 68 31.35, 68 67 M68 67 C43.46 67, 18.92 67, 0 67 M68 67 C45.8 67, 23.59 67, 0 67 M0 67 C0 52.86, 0 38.72, 0 0 M0 67 C0 53.26, 0 39.53, 0 0" stroke="#000000" stroke-width="1" fill="none"></path></g><g transform="translate(521.465430835189 1443.7594990739822) rotate(0 29 12.5)"><text x="29" y="18" font-family="Virgil, Segoe UI Emoji" font-size="20px" fill="#000000" text-anchor="middle" style="white-space: pre;" direction="ltr">4</text></g><g stroke-linecap="round"><g transform="translate(186.63978578574387 1223.9564124927456) rotate(0 118.4860188084782 87.90898169661261)"><path d="M0 0 C39.5 29.3, 197.48 146.51, 236.97 175.82 M0 0 C39.5 29.3, 197.48 146.51, 236.97 175.82" stroke="#000000" stroke-width="4" fill="none"></path></g><g transform="translate(186.63978578574387 1223.9564124927456) rotate(0 118.4860188084782 87.90898169661261)"><path d="M208.22 167.26 C216.89 169.84, 225.57 172.42, 236.97 175.82 M208.22 167.26 C214.14 169.02, 220.06 170.79, 236.97 175.82" stroke="#000000" stroke-width="4" fill="none"></path></g><g transform="translate(186.63978578574387 1223.9564124927456) rotate(0 118.4860188084782 87.90898169661261)"><path d="M220.45 150.78 C225.43 158.34, 230.42 165.89, 236.97 175.82 M220.45 150.78 C223.85 155.94, 227.25 161.09, 236.97 175.82" stroke="#000000" stroke-width="4" fill="none"></path></g></g><g stroke-linecap="round"><g transform="translate(696.8940925899965 1223.9564124927456) rotate(0 -42.998958438560635 87.90898169661273)"><path d="M0 0 C-14.33 29.3, -71.66 146.51, -86 175.82 M0 0 C-14.33 29.3, -71.66 146.51, -86 175.82" stroke="#000000" stroke-width="4" fill="none"></path></g><g transform="translate(696.8940925899965 1223.9564124927456) rotate(0 -42.998958438560635 87.90898169661273)"><path d="M-82.83 145.99 C-83.62 153.43, -84.41 160.87, -86 175.82 M-82.83 145.99 C-83.73 154.51, -84.64 163.04, -86 175.82" stroke="#000000" stroke-width="4" fill="none"></path></g><g transform="translate(696.8940925899965 1223.9564124927456) rotate(0 -42.998958438560635 87.90898169661273)"><path d="M-64.39 155 C-69.79 160.2, -75.18 165.39, -86 175.82 M-64.39 155 C-70.57 160.95, -76.74 166.9, -86 175.82" stroke="#000000" stroke-width="4" fill="none"></path></g></g></svg>