<svg version="1.1" xmlns="http://www.w3.org/2000/svg" viewBox="0 0 458 392.3350515463917" width="458" height="392.3350515463917">
  <!-- svg-source:excalidraw -->
  
  <defs>
    <style class="style-fonts">
      @font-face {
        font-family: "Virgil";
        src: url("https://excalidraw.com/Virgil.woff2");
      }
      @font-face {
        font-family: "Cascadia";
        src: url("https://excalidraw.com/Cascadia.woff2");
      }
    </style>
  </defs>
  <g stroke-linecap="round" transform="translate(90 67.33505154639172) rotate(0 27 28)"><path d="M0 0 C13.3 0, 26.61 0, 54 0 M0 0 C20.24 0, 40.49 0, 54 0 M54 0 C54 18.9, 54 37.79, 54 56 M54 0 C54 20.75, 54 41.49, 54 56 M54 56 C39.07 56, 24.13 56, 0 56 M54 56 C39.11 56, 24.21 56, 0 56 M0 56 C0 35.54, 0 15.08, 0 0 M0 56 C0 39.24, 0 22.49, 0 0" stroke="#000000" stroke-width="1" fill="none"></path></g><g transform="translate(109.5 82.83505154639172) rotate(0 7.5 12.5)"><text x="7.5" y="18" font-family="Virgil, Segoe UI Emoji" font-size="20px" fill="#000000" text-anchor="middle" style="white-space: pre;" direction="ltr">4</text></g><g stroke-linecap="round" transform="translate(173.33333333333326 67.33505154639172) rotate(0 27 28)"><path d="M0 0 C20.59 0, 41.19 0, 54 0 M0 0 C14.98 0, 29.97 0, 54 0 M54 0 C54 15.16, 54 30.32, 54 56 M54 0 C54 12.63, 54 25.26, 54 56 M54 56 C34.62 56, 15.24 56, 0 56 M54 56 C42.13 56, 30.25 56, 0 56 M0 56 C0 44.03, 0 32.06, 0 0 M0 56 C0 40.8, 0 25.6, 0 0" stroke="#000000" stroke-width="1" fill="none"></path></g><g transform="translate(192.33333333333326 82.83505154639172) rotate(0 8 12.5)"><text x="8" y="18" font-family="Virgil, Segoe UI Emoji" font-size="20px" fill="#000000" text-anchor="middle" style="white-space: pre;" direction="ltr">3</text></g><g stroke-linecap="round" transform="translate(256.66666666666663 67.33505154639172) rotate(0 27 28)"><path d="M0 0 C11.8 0, 23.61 0, 54 0 M0 0 C12.55 0, 25.1 0, 54 0 M54 0 C54 19.73, 54 39.46, 54 56 M54 0 C54 15.65, 54 31.3, 54 56 M54 56 C32.71 56, 11.41 56, 0 56 M54 56 C34.39 56, 14.77 56, 0 56 M0 56 C0 36.21, 0 16.42, 0 0 M0 56 C0 37.95, 0 19.9, 0 0" stroke="#000000" stroke-width="1" fill="none"></path></g><g transform="translate(275.66666666666663 82.83505154639172) rotate(0 8 12.5)"><text x="8" y="18" font-family="Virgil, Segoe UI Emoji" font-size="20px" fill="#000000" text-anchor="middle" style="white-space: pre;" direction="ltr">2</text></g><g stroke-linecap="round" transform="translate(340 67.33505154639172) rotate(0 27 28)"><path d="M0 0 C13.13 0, 26.26 0, 54 0 M0 0 C17.42 0, 34.84 0, 54 0 M54 0 C54 22.05, 54 44.11, 54 56 M54 0 C54 20.36, 54 40.73, 54 56 M54 56 C33.97 56, 13.95 56, 0 56 M54 56 C41.28 56, 28.55 56, 0 56 M0 56 C0 33.66, 0 11.32, 0 0 M0 56 C0 43.12, 0 30.25, 0 0" stroke="#000000" stroke-width="1" fill="none"></path></g><g transform="translate(363.5 82.83505154639172) rotate(0 3.5 12.5)"><text x="3.5" y="18" font-family="Virgil, Segoe UI Emoji" font-size="20px" fill="#000000" text-anchor="middle" style="white-space: pre;" direction="ltr">1</text></g><g transform="translate(80 10) rotate(0 156.5 20)"><text x="156.5" y="14" font-family="Virgil, Segoe UI Emoji" font-size="16.134020618556708px" fill="#000000" text-anchor="middle" style="white-space: pre;" direction="ltr">Se esquerda &lt; direita</text><text x="156.5" y="34" font-family="Virgil, Segoe UI Emoji" font-size="16.134020618556708px" fill="#000000" text-anchor="middle" style="white-space: pre;" direction="ltr">m = esquerda + (direita - esquerda)/2</text></g><g stroke-linecap="round" transform="translate(42 144.33505154639172) rotate(0 27 28)"><path d="M0 0 C13.36 0, 26.73 0, 54 0 M0 0 C20.9 0, 41.8 0, 54 0 M54 0 C54 11.66, 54 23.33, 54 56 M54 0 C54 18.07, 54 36.14, 54 56 M54 56 C40.32 56, 26.64 56, 0 56 M54 56 C42.93 56, 31.85 56, 0 56 M0 56 C0 37.06, 0 18.13, 0 0 M0 56 C0 34.37, 0 12.74, 0 0" stroke="#000000" stroke-width="1" fill="none"></path></g><g transform="translate(61.5 159.83505154639172) rotate(0 7.5 12.5)"><text x="7.5" y="18" font-family="Virgil, Segoe UI Emoji" font-size="20px" fill="#000000" text-anchor="middle" style="white-space: pre;" direction="ltr">4</text></g><g stroke-linecap="round" transform="translate(125.33333333333326 144.33505154639172) rotate(0 27 28)"><path d="M0 0 C11.61 0, 23.22 0, 54 0 M0 0 C19.41 0, 38.82 0, 54 0 M54 0 C54 22.26, 54 44.51, 54 56 M54 0 C54 20.93, 54 41.87, 54 56 M54 56 C40.68 56, 27.36 56, 0 56 M54 56 C36.81 56, 19.62 56, 0 56 M0 56 C0 39.42, 0 22.85, 0 0 M0 56 C0 33.69, 0 11.38, 0 0" stroke="#000000" stroke-width="1" fill="none"></path></g><g transform="translate(144.33333333333326 159.83505154639172) rotate(0 8 12.5)"><text x="8" y="18" font-family="Virgil, Segoe UI Emoji" font-size="20px" fill="#000000" text-anchor="middle" style="white-space: pre;" direction="ltr">3</text></g><g stroke-linecap="round" transform="translate(281.66666666666663 144.33505154639172) rotate(0 27 28)"><path d="M0 0 C18.97 0, 37.94 0, 54 0 M0 0 C15.88 0, 31.77 0, 54 0 M54 0 C54 18.39, 54 36.79, 54 56 M54 0 C54 16.68, 54 33.36, 54 56 M54 56 C38.02 56, 22.04 56, 0 56 M54 56 C35.16 56, 16.31 56, 0 56 M0 56 C0 39.17, 0 22.34, 0 0 M0 56 C0 37.74, 0 19.48, 0 0" stroke="#000000" stroke-width="1" fill="none"></path></g><g transform="translate(300.66666666666663 159.83505154639172) rotate(0 8 12.5)"><text x="8" y="18" font-family="Virgil, Segoe UI Emoji" font-size="20px" fill="#000000" text-anchor="middle" style="white-space: pre;" direction="ltr">2</text></g><g stroke-linecap="round" transform="translate(365 144.33505154639172) rotate(0 27 28)"><path d="M0 0 C19.34 0, 38.68 0, 54 0 M0 0 C15.61 0, 31.22 0, 54 0 M54 0 C54 22.1, 54 44.21, 54 56 M54 0 C54 15.6, 54 31.2, 54 56 M54 56 C34.46 56, 14.91 56, 0 56 M54 56 C40.17 56, 26.35 56, 0 56 M0 56 C0 40.04, 0 24.08, 0 0 M0 56 C0 34.12, 0 12.25, 0 0" stroke="#000000" stroke-width="1" fill="none"></path></g><g transform="translate(388.5 159.83505154639172) rotate(0 3.5 12.5)"><text x="3.5" y="18" font-family="Virgil, Segoe UI Emoji" font-size="20px" fill="#000000" text-anchor="middle" style="white-space: pre;" direction="ltr">1</text></g><g stroke-linecap="round" transform="translate(10 228.33505154639172) rotate(0 27 28)"><path d="M0 0 C15.43 0, 30.85 0, 54 0 M0 0 C16.81 0, 33.62 0, 54 0 M54 0 C54 19.37, 54 38.74, 54 56 M54 0 C54 21.29, 54 42.58, 54 56 M54 56 C33.82 56, 13.64 56, 0 56 M54 56 C35.81 56, 17.61 56, 0 56 M0 56 C0 35.68, 0 15.37, 0 0 M0 56 C0 37.93, 0 19.85, 0 0" stroke="#000000" stroke-width="1" fill="none"></path></g><g transform="translate(29.5 243.83505154639172) rotate(0 7.5 12.5)"><text x="7.5" y="18" font-family="Virgil, Segoe UI Emoji" font-size="20px" fill="#000000" text-anchor="middle" style="white-space: pre;" direction="ltr">4</text></g><g stroke-linecap="round" transform="translate(138 228.33505154639172) rotate(0 27 28)"><path d="M0 0 C15.97 0, 31.94 0, 54 0 M0 0 C13.01 0, 26.02 0, 54 0 M54 0 C54 14.75, 54 29.5, 54 56 M54 0 C54 20.39, 54 40.78, 54 56 M54 56 C40.37 56, 26.73 56, 0 56 M54 56 C34.64 56, 15.28 56, 0 56 M0 56 C0 43.52, 0 31.03, 0 0 M0 56 C0 40.98, 0 25.97, 0 0" stroke="#000000" stroke-width="1" fill="none"></path></g><g transform="translate(157 243.83505154639172) rotate(0 8 12.5)"><text x="8" y="18" font-family="Virgil, Segoe UI Emoji" font-size="20px" fill="#000000" text-anchor="middle" style="white-space: pre;" direction="ltr">3</text></g><g stroke-linecap="round" transform="translate(266 228.33505154639172) rotate(0 27 28)"><path d="M0 0 C19.75 0, 39.5 0, 54 0 M0 0 C15.16 0, 30.32 0, 54 0 M54 0 C54 11.51, 54 23.02, 54 56 M54 0 C54 21.62, 54 43.24, 54 56 M54 56 C38.91 56, 23.82 56, 0 56 M54 56 C32.4 56, 10.81 56, 0 56 M0 56 C0 39.86, 0 23.72, 0 0 M0 56 C0 39.54, 0 23.09, 0 0" stroke="#000000" stroke-width="1" fill="none"></path></g><g transform="translate(285 243.83505154639172) rotate(0 8 12.5)"><text x="8" y="18" font-family="Virgil, Segoe UI Emoji" font-size="20px" fill="#000000" text-anchor="middle" style="white-space: pre;" direction="ltr">2</text></g><g stroke-linecap="round" transform="translate(394 228.33505154639172) rotate(0 27 28)"><path d="M0 0 C15.83 0, 31.66 0, 54 0 M0 0 C10.88 0, 21.76 0, 54 0 M54 0 C54 16.6, 54 33.21, 54 56 M54 0 C54 20.45, 54 40.89, 54 56 M54 56 C34.83 56, 15.65 56, 0 56 M54 56 C38.96 56, 23.93 56, 0 56 M0 56 C0 40, 0 24, 0 0 M0 56 C0 41.12, 0 26.24, 0 0" stroke="#000000" stroke-width="1" fill="none"></path></g><g transform="translate(417.5 243.83505154639172) rotate(0 3.5 12.5)"><text x="3.5" y="18" font-family="Virgil, Segoe UI Emoji" font-size="20px" fill="#000000" text-anchor="middle" style="white-space: pre;" direction="ltr">1</text></g><g stroke-linecap="round" transform="translate(82 326.3350515463917) rotate(0 27 28)"><path d="M0 0 C12.06 0, 24.12 0, 54 0 M0 0 C13.85 0, 27.71 0, 54 0 M54 0 C54 18.25, 54 36.49, 54 56 M54 0 C54 12.05, 54 24.09, 54 56 M54 56 C39.86 56, 25.72 56, 0 56 M54 56 C41.07 56, 28.14 56, 0 56 M0 56 C0 38.23, 0 20.47, 0 0 M0 56 C0 42.32, 0 28.63, 0 0" stroke="#000000" stroke-width="1" fill="none"></path></g><g transform="translate(105.5 341.8350515463917) rotate(0 3.5 12.5)"><text x="3.5" y="18" font-family="Virgil, Segoe UI Emoji" font-size="20px" fill="#000000" text-anchor="middle" style="white-space: pre;" direction="ltr">1</text></g><g stroke-linecap="round" transform="translate(165.33333333333326 326.3350515463917) rotate(0 27 28)"><path d="M0 0 C17.4 0, 34.81 0, 54 0 M0 0 C19.01 0, 38.01 0, 54 0 M54 0 C54 15.82, 54 31.65, 54 56 M54 0 C54 19.22, 54 38.44, 54 56 M54 56 C37.74 56, 21.49 56, 0 56 M54 56 C37.44 56, 20.88 56, 0 56 M0 56 C0 36.84, 0 17.69, 0 0 M0 56 C0 36.56, 0 17.11, 0 0" stroke="#000000" stroke-width="1" fill="none"></path></g><g transform="translate(184.33333333333326 341.8350515463917) rotate(0 8 12.5)"><text x="8" y="18" font-family="Virgil, Segoe UI Emoji" font-size="20px" fill="#000000" text-anchor="middle" style="white-space: pre;" direction="ltr">2</text></g><g stroke-linecap="round" transform="translate(248.66666666666663 326.3350515463917) rotate(0 27 28)"><path d="M0 0 C17.78 0, 35.56 0, 54 0 M0 0 C20.28 0, 40.57 0, 54 0 M54 0 C54 13.94, 54 27.87, 54 56 M54 0 C54 19.77, 54 39.55, 54 56 M54 56 C38.62 56, 23.23 56, 0 56 M54 56 C33.05 56, 12.09 56, 0 56 M0 56 C0 41.71, 0 27.41, 0 0 M0 56 C0 44.76, 0 33.53, 0 0" stroke="#000000" stroke-width="1" fill="none"></path></g><g transform="translate(267.66666666666663 341.8350515463917) rotate(0 8 12.5)"><text x="8" y="18" font-family="Virgil, Segoe UI Emoji" font-size="20px" fill="#000000" text-anchor="middle" style="white-space: pre;" direction="ltr">3</text></g><g stroke-linecap="round" transform="translate(332 326.3350515463917) rotate(0 27 28)"><path d="M0 0 C18.2 0, 36.4 0, 54 0 M0 0 C20.39 0, 40.79 0, 54 0 M54 0 C54 16.47, 54 32.93, 54 56 M54 0 C54 22.03, 54 44.05, 54 56 M54 56 C37.29 56, 20.59 56, 0 56 M54 56 C38.84 56, 23.69 56, 0 56 M0 56 C0 43.15, 0 30.31, 0 0 M0 56 C0 44.8, 0 33.59, 0 0" stroke="#000000" stroke-width="1" fill="none"></path></g><g transform="translate(351.5 341.8350515463917) rotate(0 7.5 12.5)"><text x="7.5" y="18" font-family="Virgil, Segoe UI Emoji" font-size="20px" fill="#000000" text-anchor="middle" style="white-space: pre;" direction="ltr">4</text></g></svg>