<svg version="1.1" xmlns="http://www.w3.org/2000/svg" viewBox="0 0 209.7204262481357 244.0955737125031" width="209.7204262481357" height="244.0955737125031">
  <!-- svg-source:excalidraw -->
  
  <defs>
    <style class="style-fonts">
      @font-face {
        font-family: "Virgil";
        src: url("https://excalidraw.com/Virgil.woff2");
      }
      @font-face {
        font-family: "Cascadia";
        src: url("https://excalidraw.com/Cascadia.woff2");
      }
    </style>
  </defs>
  <g stroke-linecap="round" transform="translate(164.8303335566294 10) rotate(0 17.314228754968212 17.5)"><path d="M0 0 L34.63 0 L34.63 35 L0 35" stroke="none" stroke-width="0" fill="#82c91e"></path><path d="M0 0 C13.84 0, 27.69 0, 34.63 0 M0 0 C12.76 0, 25.52 0, 34.63 0 M34.63 0 C34.63 12.42, 34.63 24.85, 34.63 35 M34.63 0 C34.63 8.68, 34.63 17.36, 34.63 35 M34.63 35 C24.35 35, 14.07 35, 0 35 M34.63 35 C26.35 35, 18.08 35, 0 35 M0 35 C0 26.83, 0 18.67, 0 0 M0 35 C0 21.22, 0 7.43, 0 0" stroke="#000000" stroke-width="1" fill="none"></path></g><g transform="translate(174.6445623115976 15) rotate(0 7.5 12.5)"><text x="7.5" y="18" font-family="Virgil, Segoe UI Emoji" font-size="20px" fill="#000000" text-anchor="middle" style="white-space: pre;" direction="ltr">4</text></g><g stroke-linecap="round" transform="translate(26.766612448368164 10) rotate(0 17.314228754968212 17.5)"><path d="M0 0 C7.83 0, 15.66 0, 34.63 0 M0 0 C10.27 0, 20.54 0, 34.63 0 M34.63 0 C34.63 11.54, 34.63 23.09, 34.63 35 M34.63 0 C34.63 11.53, 34.63 23.05, 34.63 35 M34.63 35 C22.53 35, 10.43 35, 0 35 M34.63 35 C27.13 35, 19.64 35, 0 35 M0 35 C0 26.7, 0 18.4, 0 0 M0 35 C0 22.3, 0 9.6, 0 0" stroke="#000000" stroke-width="1" fill="none"></path></g><g transform="translate(37.08084120333638 15) rotate(0 7 12.5)"><text x="7" y="18" font-family="Virgil, Segoe UI Emoji" font-size="20px" fill="#000000" text-anchor="middle" style="white-space: pre;" direction="ltr">5</text></g><g stroke-linecap="round" transform="translate(72.78785281778858 10) rotate(0 17.314228754968212 17.5)"><path d="M0 0 C7.38 0, 14.77 0, 34.63 0 M0 0 C12.49 0, 24.99 0, 34.63 0 M34.63 0 C34.63 7.63, 34.63 15.26, 34.63 35 M34.63 0 C34.63 10.09, 34.63 20.18, 34.63 35 M34.63 35 C21.81 35, 8.99 35, 0 35 M34.63 35 C22.24 35, 9.85 35, 0 35 M0 35 C0 27.91, 0 20.82, 0 0 M0 35 C0 26.03, 0 17.06, 0 0" stroke="#000000" stroke-width="1" fill="none"></path></g><g transform="translate(82.10208157275679 15) rotate(0 8 12.5)"><text x="8" y="18" font-family="Virgil, Segoe UI Emoji" font-size="20px" fill="#000000" text-anchor="middle" style="white-space: pre;" direction="ltr">2</text></g><g stroke-linecap="round" transform="translate(118.80909318720899 10) rotate(0 17.314228754968212 17.5)"><path d="M0 0 C9.66 0, 19.33 0, 34.63 0 M0 0 C9.01 0, 18.01 0, 34.63 0 M34.63 0 C34.63 9.16, 34.63 18.32, 34.63 35 M34.63 0 C34.63 8.74, 34.63 17.49, 34.63 35 M34.63 35 C27.07 35, 19.51 35, 0 35 M34.63 35 C26.32 35, 18.01 35, 0 35 M0 35 C0 26.61, 0 18.22, 0 0 M0 35 C0 26.14, 0 17.29, 0 0" stroke="#000000" stroke-width="1" fill="none"></path></g><g transform="translate(132.6233219421772 15) rotate(0 3.5 12.5)"><text x="3.5" y="18" font-family="Virgil, Segoe UI Emoji" font-size="20px" fill="#000000" text-anchor="middle" style="white-space: pre;" direction="ltr">1</text></g><g stroke-linecap="round"><g transform="translate(10.115208285979293 10.081110160414369) rotate(0 -0.057604142989646334 18.417273171844244)"><path d="M0 0 C-0.02 6.14, -0.1 30.7, -0.12 36.83 M0 0 C-0.02 6.14, -0.1 30.7, -0.12 36.83" stroke="#0b7285" stroke-width="1" fill="none"></path></g></g><g stroke-linecap="round"><g transform="translate(20.13830358612472 10.081110160414369) rotate(0 -0.057604142989646334 18.417273171844244)"><path d="M0 0 C-0.02 6.14, -0.1 30.7, -0.12 36.83 M0 0 C-0.02 6.14, -0.1 30.7, -0.12 36.83" stroke="#5c940d" stroke-width="1" fill="none"></path></g></g><g stroke-linecap="round" transform="translate(164.8303335566294 53.535920126101985) rotate(0 17.314228754968212 17.5)"><path d="M0 0 L34.63 0 L34.63 35 L0 35" stroke="none" stroke-width="0" fill="#82c91e"></path><path d="M0 0 C7.82 0, 15.65 0, 34.63 0 M0 0 C10.77 0, 21.55 0, 34.63 0 M34.63 0 C34.63 9.45, 34.63 18.89, 34.63 35 M34.63 0 C34.63 10.18, 34.63 20.37, 34.63 35 M34.63 35 C20.91 35, 7.19 35, 0 35 M34.63 35 C21.43 35, 8.22 35, 0 35 M0 35 C0 26.45, 0 17.9, 0 0 M0 35 C0 27.58, 0 20.16, 0 0" stroke="#000000" stroke-width="1" fill="none"></path></g><g transform="translate(174.6445623115976 58.535920126101985) rotate(0 7.5 12.5)"><text x="7.5" y="18" font-family="Virgil, Segoe UI Emoji" font-size="20px" fill="#000000" text-anchor="middle" style="white-space: pre;" direction="ltr">4</text></g><g stroke-linecap="round" transform="translate(26.766612448368164 53.535920126101985) rotate(0 17.314228754968212 17.5)"><path d="M0 0 C9.68 0, 19.37 0, 34.63 0 M0 0 C9.55 0, 19.09 0, 34.63 0 M34.63 0 C34.63 8.41, 34.63 16.81, 34.63 35 M34.63 0 C34.63 7.05, 34.63 14.09, 34.63 35 M34.63 35 C25.58 35, 16.54 35, 0 35 M34.63 35 C27.55 35, 20.48 35, 0 35 M0 35 C0 27.02, 0 19.04, 0 0 M0 35 C0 23.73, 0 12.47, 0 0" stroke="#000000" stroke-width="1" fill="none"></path></g><g transform="translate(37.08084120333638 58.535920126101985) rotate(0 7 12.5)"><text x="7" y="18" font-family="Virgil, Segoe UI Emoji" font-size="20px" fill="#000000" text-anchor="middle" style="white-space: pre;" direction="ltr">5</text></g><g stroke-linecap="round" transform="translate(72.78785281778858 53.535920126101985) rotate(0 17.314228754968212 17.5)"><path d="M0 0 C11.38 0, 22.75 0, 34.63 0 M0 0 C13.64 0, 27.27 0, 34.63 0 M34.63 0 C34.63 9.03, 34.63 18.06, 34.63 35 M34.63 0 C34.63 9.82, 34.63 19.64, 34.63 35 M34.63 35 C22.12 35, 9.6 35, 0 35 M34.63 35 C25.33 35, 16.03 35, 0 35 M0 35 C0 23.42, 0 11.84, 0 0 M0 35 C0 23.62, 0 12.24, 0 0" stroke="#000000" stroke-width="1" fill="none"></path></g><g transform="translate(82.10208157275679 58.535920126101985) rotate(0 8 12.5)"><text x="8" y="18" font-family="Virgil, Segoe UI Emoji" font-size="20px" fill="#000000" text-anchor="middle" style="white-space: pre;" direction="ltr">2</text></g><g stroke-linecap="round" transform="translate(118.80909318720899 53.535920126101985) rotate(0 17.314228754968212 17.5)"><path d="M0 0 C8.06 0, 16.11 0, 34.63 0 M0 0 C9.54 0, 19.07 0, 34.63 0 M34.63 0 C34.63 8.64, 34.63 17.29, 34.63 35 M34.63 0 C34.63 11.97, 34.63 23.93, 34.63 35 M34.63 35 C22.69 35, 10.75 35, 0 35 M34.63 35 C20.8 35, 6.97 35, 0 35 M0 35 C0 23.06, 0 11.11, 0 0 M0 35 C0 24.55, 0 14.1, 0 0" stroke="#000000" stroke-width="1" fill="none"></path></g><g transform="translate(132.6233219421772 58.535920126101985) rotate(0 3.5 12.5)"><text x="3.5" y="18" font-family="Virgil, Segoe UI Emoji" font-size="20px" fill="#000000" text-anchor="middle" style="white-space: pre;" direction="ltr">1</text></g><g stroke-linecap="round"><g transform="translate(10.115208285979293 53.61703028651635) rotate(0 -0.057604142989646334 18.417273171844244)"><path d="M0 0 C-0.02 6.14, -0.1 30.7, -0.12 36.83 M0 0 C-0.02 6.14, -0.1 30.7, -0.12 36.83" stroke="#0b7285" stroke-width="1" fill="none"></path></g></g><g stroke-linecap="round"><g transform="translate(66.98673937399542 53.14381376340657) rotate(0 -0.057604142989646334 18.417273171844244)"><path d="M0 0 C-0.02 6.14, -0.1 30.7, -0.12 36.83 M0 0 C-0.02 6.14, -0.1 30.7, -0.12 36.83" stroke="#5c940d" stroke-width="1" fill="none"></path></g></g><g stroke-linecap="round" transform="translate(164.35711703351956 103.69687157574123) rotate(0 17.314228754968212 17.5)"><path d="M0 0 L34.63 0 L34.63 35 L0 35" stroke="none" stroke-width="0" fill="#82c91e"></path><path d="M0 0 C13.14 0, 26.28 0, 34.63 0 M0 0 C8.7 0, 17.4 0, 34.63 0 M34.63 0 C34.63 10.99, 34.63 21.98, 34.63 35 M34.63 0 C34.63 10.46, 34.63 20.92, 34.63 35 M34.63 35 C21.85 35, 9.07 35, 0 35 M34.63 35 C23.01 35, 11.38 35, 0 35 M0 35 C0 24.79, 0 14.59, 0 0 M0 35 C0 22.74, 0 10.48, 0 0" stroke="#000000" stroke-width="1" fill="none"></path></g><g transform="translate(174.17134578848777 108.69687157574123) rotate(0 7.5 12.5)"><text x="7.5" y="18" font-family="Virgil, Segoe UI Emoji" font-size="20px" fill="#000000" text-anchor="middle" style="white-space: pre;" direction="ltr">4</text></g><g stroke-linecap="round" transform="translate(25.820179402148483 103.69687157574123) rotate(0 17.314228754968212 17.5)"><path d="M0 0 C9.39 0, 18.78 0, 34.63 0 M0 0 C10.94 0, 21.88 0, 34.63 0 M34.63 0 C34.63 8.57, 34.63 17.13, 34.63 35 M34.63 0 C34.63 8.98, 34.63 17.96, 34.63 35 M34.63 35 C25.3 35, 15.96 35, 0 35 M34.63 35 C27.6 35, 20.57 35, 0 35 M0 35 C0 24.96, 0 14.92, 0 0 M0 35 C0 26.39, 0 17.78, 0 0" stroke="#000000" stroke-width="1" fill="none"></path></g><g transform="translate(35.134408157116695 108.69687157574123) rotate(0 8 12.5)"><text x="8" y="18" font-family="Virgil, Segoe UI Emoji" font-size="20px" fill="#000000" text-anchor="middle" style="white-space: pre;" direction="ltr">2</text></g><g stroke-linecap="round" transform="translate(72.31463629467873 103.69687157574123) rotate(0 17.314228754968212 17.5)"><path d="M0 0 C12.26 0, 24.51 0, 34.63 0 M0 0 C10.85 0, 21.71 0, 34.63 0 M34.63 0 C34.63 8.32, 34.63 16.64, 34.63 35 M34.63 0 C34.63 8.06, 34.63 16.12, 34.63 35 M34.63 35 C21.71 35, 8.79 35, 0 35 M34.63 35 C21.75 35, 8.88 35, 0 35 M0 35 C0 25.14, 0 15.28, 0 0 M0 35 C0 24.12, 0 13.24, 0 0" stroke="#000000" stroke-width="1" fill="none"></path></g><g transform="translate(82.62886504964695 108.69687157574123) rotate(0 7 12.5)"><text x="7" y="18" font-family="Virgil, Segoe UI Emoji" font-size="20px" fill="#000000" text-anchor="middle" style="white-space: pre;" direction="ltr">5</text></g><g stroke-linecap="round" transform="translate(118.33587666409915 103.69687157574123) rotate(0 17.314228754968212 17.5)"><path d="M0 0 C13.4 0, 26.8 0, 34.63 0 M0 0 C8.77 0, 17.53 0, 34.63 0 M34.63 0 C34.63 7.32, 34.63 14.65, 34.63 35 M34.63 0 C34.63 12.52, 34.63 25.03, 34.63 35 M34.63 35 C25.53 35, 16.43 35, 0 35 M34.63 35 C22.79 35, 10.95 35, 0 35 M0 35 C0 23.54, 0 12.08, 0 0 M0 35 C0 27.49, 0 19.98, 0 0" stroke="#000000" stroke-width="1" fill="none"></path></g><g transform="translate(132.15010541906736 108.69687157574123) rotate(0 3.5 12.5)"><text x="3.5" y="18" font-family="Virgil, Segoe UI Emoji" font-size="20px" fill="#000000" text-anchor="middle" style="white-space: pre;" direction="ltr">1</text></g><g stroke-linecap="round"><g transform="translate(66.42797453604601 103.30476521304581) rotate(0 -0.057604142989646334 18.417273171844244)"><path d="M0 0 C-0.02 6.14, -0.1 30.7, -0.12 36.83 M0 0 C-0.02 6.14, -0.1 30.7, -0.12 36.83" stroke="#0b7285" stroke-width="1" fill="none"></path></g></g><g stroke-linecap="round"><g transform="translate(111.94230906942687 103.30476521304581) rotate(0 -0.057604142989646334 18.417273171844244)"><path d="M0 0 C-0.02 6.14, -0.1 30.7, -0.12 36.83 M0 0 C-0.02 6.14, -0.1 30.7, -0.12 36.83" stroke="#5c940d" stroke-width="1" fill="none"></path></g></g><g stroke-linecap="round" transform="translate(164.35711703351956 149.12565779428246) rotate(0 17.314228754968212 17.5)"><path d="M0 0 L34.63 0 L34.63 35 L0 35" stroke="none" stroke-width="0" fill="#82c91e"></path><path d="M0 0 C12.63 0, 25.25 0, 34.63 0 M0 0 C10.99 0, 21.97 0, 34.63 0 M34.63 0 C34.63 7.86, 34.63 15.71, 34.63 35 M34.63 0 C34.63 13.54, 34.63 27.07, 34.63 35 M34.63 35 C26.42 35, 18.22 35, 0 35 M34.63 35 C23.69 35, 12.74 35, 0 35 M0 35 C0 24.67, 0 14.34, 0 0 M0 35 C0 23.82, 0 12.64, 0 0" stroke="#000000" stroke-width="1" fill="none"></path></g><g transform="translate(174.17134578848777 154.12565779428246) rotate(0 7.5 12.5)"><text x="7.5" y="18" font-family="Virgil, Segoe UI Emoji" font-size="20px" fill="#000000" text-anchor="middle" style="white-space: pre;" direction="ltr">4</text></g><g stroke-linecap="round" transform="translate(25.820179402148483 149.12565779428246) rotate(0 17.314228754968212 17.5)"><path d="M0 0 C8.8 0, 17.6 0, 34.63 0 M0 0 C12.51 0, 25.01 0, 34.63 0 M34.63 0 C34.63 7.36, 34.63 14.71, 34.63 35 M34.63 0 C34.63 12.89, 34.63 25.78, 34.63 35 M34.63 35 C22.17 35, 9.71 35, 0 35 M34.63 35 C21.18 35, 7.73 35, 0 35 M0 35 C0 22.85, 0 10.7, 0 0 M0 35 C0 25.14, 0 15.29, 0 0" stroke="#000000" stroke-width="1" fill="none"></path></g><g transform="translate(39.634408157116695 154.12565779428246) rotate(0 3.5 12.5)"><text x="3.5" y="18" font-family="Virgil, Segoe UI Emoji" font-size="20px" fill="#000000" text-anchor="middle" style="white-space: pre;" direction="ltr">1</text></g><g stroke-linecap="round" transform="translate(72.31463629467873 149.12565779428246) rotate(0 17.314228754968212 17.5)"><path d="M0 0 C13.22 0, 26.45 0, 34.63 0 M0 0 C12.43 0, 24.86 0, 34.63 0 M34.63 0 C34.63 10.6, 34.63 21.2, 34.63 35 M34.63 0 C34.63 7.46, 34.63 14.92, 34.63 35 M34.63 35 C24.74 35, 14.85 35, 0 35 M34.63 35 C24.46 35, 14.29 35, 0 35 M0 35 C0 26.97, 0 18.93, 0 0 M0 35 C0 25.63, 0 16.26, 0 0" stroke="#000000" stroke-width="1" fill="none"></path></g><g transform="translate(81.62886504964695 154.12565779428246) rotate(0 8 12.5)"><text x="8" y="18" font-family="Virgil, Segoe UI Emoji" font-size="20px" fill="#000000" text-anchor="middle" style="white-space: pre;" direction="ltr">2</text></g><g stroke-linecap="round" transform="translate(118.33587666409915 149.12565779428246) rotate(0 17.314228754968212 17.5)"><path d="M0 0 C12.09 0, 24.17 0, 34.63 0 M0 0 C12.79 0, 25.58 0, 34.63 0 M34.63 0 C34.63 11.84, 34.63 23.68, 34.63 35 M34.63 0 C34.63 9.64, 34.63 19.29, 34.63 35 M34.63 35 C22.21 35, 9.79 35, 0 35 M34.63 35 C25.36 35, 16.09 35, 0 35 M0 35 C0 25.2, 0 15.4, 0 0 M0 35 C0 23.25, 0 11.49, 0 0" stroke="#000000" stroke-width="1" fill="none"></path></g><g transform="translate(128.65010541906736 154.12565779428246) rotate(0 7 12.5)"><text x="7" y="18" font-family="Virgil, Segoe UI Emoji" font-size="20px" fill="#000000" text-anchor="middle" style="white-space: pre;" direction="ltr">5</text></g><g stroke-linecap="round"><g transform="translate(111.8567607545873 148.73355143158705) rotate(0 -0.057604142989646334 18.417273171844244)"><path d="M0 0 C-0.02 6.14, -0.1 30.7, -0.12 36.83 M0 0 C-0.02 6.14, -0.1 30.7, -0.12 36.83" stroke="#0b7285" stroke-width="1" fill="none"></path></g></g><g stroke-linecap="round"><g transform="translate(158.79074485729757 148.26033490847726) rotate(0 -0.057604142989646334 18.417273171844244)"><path d="M0 0 C-0.02 6.14, -0.1 30.7, -0.12 36.83 M0 0 C-0.02 6.14, -0.1 30.7, -0.12 36.83" stroke="#5c940d" stroke-width="1" fill="none"></path></g></g><g stroke-linecap="round" transform="translate(165.09196873819928 199.0955737125031) rotate(0 17.314228754968212 17.5)"><path d="M0 0 C7.96 0, 15.91 0, 34.63 0 M0 0 C10.12 0, 20.24 0, 34.63 0 M34.63 0 C34.63 12.5, 34.63 25, 34.63 35 M34.63 0 C34.63 11.2, 34.63 22.4, 34.63 35 M34.63 35 C22.38 35, 10.14 35, 0 35 M34.63 35 C25.68 35, 16.72 35, 0 35 M0 35 C0 23.78, 0 12.56, 0 0 M0 35 C0 23.58, 0 12.16, 0 0" stroke="#000000" stroke-width="1" fill="none"></path></g><g transform="translate(175.4061974931675 204.0955737125031) rotate(0 7 12.5)"><text x="7" y="18" font-family="Virgil, Segoe UI Emoji" font-size="20px" fill="#000000" text-anchor="middle" style="white-space: pre;" direction="ltr">5</text></g><g stroke-linecap="round" transform="translate(26.55503110682821 199.0955737125031) rotate(0 17.314228754968212 17.5)"><path d="M0 0 C8.03 0, 16.05 0, 34.63 0 M0 0 C12.86 0, 25.72 0, 34.63 0 M34.63 0 C34.63 8.17, 34.63 16.34, 34.63 35 M34.63 0 C34.63 10.27, 34.63 20.54, 34.63 35 M34.63 35 C22.43 35, 10.24 35, 0 35 M34.63 35 C26.53 35, 18.43 35, 0 35 M0 35 C0 27.99, 0 20.97, 0 0 M0 35 C0 24.26, 0 13.53, 0 0" stroke="#000000" stroke-width="1" fill="none"></path></g><g transform="translate(40.36925986179642 204.0955737125031) rotate(0 3.5 12.5)"><text x="3.5" y="18" font-family="Virgil, Segoe UI Emoji" font-size="20px" fill="#000000" text-anchor="middle" style="white-space: pre;" direction="ltr">1</text></g><g stroke-linecap="round" transform="translate(73.04948799935846 199.0955737125031) rotate(0 17.314228754968212 17.5)"><path d="M0 0 C13.79 0, 27.57 0, 34.63 0 M0 0 C8.78 0, 17.56 0, 34.63 0 M34.63 0 C34.63 10.97, 34.63 21.95, 34.63 35 M34.63 0 C34.63 7.12, 34.63 14.24, 34.63 35 M34.63 35 C25.81 35, 17 35, 0 35 M34.63 35 C24.02 35, 13.4 35, 0 35 M0 35 C0 22.09, 0 9.18, 0 0 M0 35 C0 22.84, 0 10.68, 0 0" stroke="#000000" stroke-width="1" fill="none"></path></g><g transform="translate(82.36371675432667 204.0955737125031) rotate(0 8 12.5)"><text x="8" y="18" font-family="Virgil, Segoe UI Emoji" font-size="20px" fill="#000000" text-anchor="middle" style="white-space: pre;" direction="ltr">2</text></g><g stroke-linecap="round" transform="translate(119.07072836877887 199.0955737125031) rotate(0 17.314228754968212 17.5)"><path d="M0 0 C10.99 0, 21.99 0, 34.63 0 M0 0 C9.27 0, 18.54 0, 34.63 0 M34.63 0 C34.63 11.07, 34.63 22.14, 34.63 35 M34.63 0 C34.63 7.69, 34.63 15.39, 34.63 35 M34.63 35 C22.47 35, 10.32 35, 0 35 M34.63 35 C21.89 35, 9.15 35, 0 35 M0 35 C0 24.54, 0 14.08, 0 0 M0 35 C0 27.21, 0 19.42, 0 0" stroke="#000000" stroke-width="1" fill="none"></path></g><g transform="translate(128.88495712374709 204.0955737125031) rotate(0 7.5 12.5)"><text x="7.5" y="18" font-family="Virgil, Segoe UI Emoji" font-size="20px" fill="#000000" text-anchor="middle" style="white-space: pre;" direction="ltr">4</text></g></svg>