<svg version="1.1" xmlns="http://www.w3.org/2000/svg" viewBox="0 0 877.7078461692673 1517.4644653590756" width="877.7078461692673" height="1517.4644653590756">
  <!-- svg-source:excalidraw -->
  
  <defs>
    <style>
      @font-face {
        font-family: "Virgil";
        src: url("https://excalidraw.com/Virgil.woff2");
      }
      @font-face {
        font-family: "Cascadia";
        src: url("https://excalidraw.com/Cascadia.woff2");
      }
    </style>
  </defs>
  <rect x="0" y="0" width="877.7078461692673" height="1517.4644653590756" fill="#ffffff"></rect><g stroke-linecap="round" transform="translate(174.22254199082556 300.16580834453276) rotate(0 34 33.5)"><path d="M0 0 C21.35 0, 42.69 0, 68 0 M0 0 C15.71 0, 31.41 0, 68 0 M68 0 C68 24.63, 68 49.25, 68 67 M68 0 C68 24.64, 68 49.27, 68 67 M68 67 C45.47 67, 22.95 67, 0 67 M68 67 C43.31 67, 18.63 67, 0 67 M0 67 C0 43.12, 0 19.25, 0 0 M0 67 C0 43.95, 0 20.9, 0 0" stroke="#000000" stroke-width="1" fill="none"></path></g><g stroke-linecap="round" transform="translate(258.2225419908257 300.16580834453276) rotate(0 34 33.5)"><path d="M0 0 C17.33 0, 34.67 0, 68 0 M0 0 C19.59 0, 39.17 0, 68 0 M68 0 C68 17.63, 68 35.26, 68 67 M68 0 C68 13.98, 68 27.95, 68 67 M68 67 C49.79 67, 31.58 67, 0 67 M68 67 C41.31 67, 14.62 67, 0 67 M0 67 C0 43.77, 0 20.54, 0 0 M0 67 C0 51.22, 0 35.44, 0 0" stroke="#000000" stroke-width="1" fill="none"></path></g><g stroke-linecap="round" transform="translate(342.2225419908258 300.16580834453276) rotate(0 34 33.5)"><path d="M0 0 C24.84 0, 49.69 0, 68 0 M0 0 C17.86 0, 35.72 0, 68 0 M68 0 C68 22.41, 68 44.83, 68 67 M68 0 C68 13.57, 68 27.15, 68 67 M68 67 C45.66 67, 23.33 67, 0 67 M68 67 C50.69 67, 33.37 67, 0 67 M0 67 C0 46.6, 0 26.19, 0 0 M0 67 C0 48.23, 0 29.45, 0 0" stroke="#000000" stroke-width="1" fill="none"></path></g><g stroke-linecap="round" transform="translate(426.2225419908259 300.16580834453276) rotate(0 34 33.5)"><path d="M0 0 C17.43 0, 34.85 0, 68 0 M0 0 C25.56 0, 51.11 0, 68 0 M68 0 C68 20.5, 68 41.01, 68 67 M68 0 C68 14.43, 68 28.85, 68 67 M68 67 C53.71 67, 39.42 67, 0 67 M68 67 C50.98 67, 33.96 67, 0 67 M0 67 C0 49.67, 0 32.35, 0 0 M0 67 C0 46.58, 0 26.16, 0 0" stroke="#000000" stroke-width="1" fill="none"></path></g><g stroke-linecap="round" transform="translate(510.222541990826 300.16580834453276) rotate(0 34 33.5)"><path d="M0 0 C23.17 0, 46.35 0, 68 0 M0 0 C21.76 0, 43.52 0, 68 0 M68 0 C68 18.9, 68 37.8, 68 67 M68 0 C68 23.83, 68 47.66, 68 67 M68 67 C49.79 67, 31.57 67, 0 67 M68 67 C41.11 67, 14.21 67, 0 67 M0 67 C0 48.64, 0 30.27, 0 0 M0 67 C0 52.06, 0 37.12, 0 0" stroke="#000000" stroke-width="1" fill="none"></path></g><g stroke-linecap="round" transform="translate(594.2225419908261 300.16580834453276) rotate(0 33.99999999999994 33.5)"><path d="M0 0 L68 0 L68 67 L0 67" stroke="none" stroke-width="0" fill="#fa5252"></path><path d="M0 0 C25.06 0, 50.11 0, 68 0 M0 0 C25.47 0, 50.94 0, 68 0 M68 0 C68 25.57, 68 51.14, 68 67 M68 0 C68 26.23, 68 52.45, 68 67 M68 67 C51.03 67, 34.07 67, 0 67 M68 67 C45.08 67, 22.16 67, 0 67 M0 67 C0 47.77, 0 28.55, 0 0 M0 67 C0 50.16, 0 33.32, 0 0" stroke="#000000" stroke-width="1" fill="none"></path></g><g transform="translate(179.22254199082556 321.16580834453276) rotate(0 29 12.5)"><text x="29" y="18" font-family="Virgil, Segoe UI Emoji" font-size="20px" fill="#000000" text-anchor="middle" style="white-space: pre;" direction="ltr">6</text></g><g transform="translate(263.2225419908257 321.16580834453276) rotate(0 29 12.5)"><text x="29" y="18" font-family="Virgil, Segoe UI Emoji" font-size="20px" fill="#000000" text-anchor="middle" style="white-space: pre;" direction="ltr">5</text></g><g transform="translate(347.2225419908258 321.16580834453276) rotate(0 29 12.5)"><text x="29" y="18" font-family="Virgil, Segoe UI Emoji" font-size="20px" fill="#000000" text-anchor="middle" style="white-space: pre;" direction="ltr">1</text></g><g transform="translate(431.2225419908259 321.16580834453276) rotate(0 29 12.5)"><text x="29" y="18" font-family="Virgil, Segoe UI Emoji" font-size="20px" fill="#000000" text-anchor="middle" style="white-space: pre;" direction="ltr">3</text></g><g transform="translate(515.222541990826 321.16580834453276) rotate(0 29 12.5)"><text x="29" y="18" font-family="Virgil, Segoe UI Emoji" font-size="20px" fill="#000000" text-anchor="middle" style="white-space: pre;" direction="ltr">2</text></g><g transform="translate(599.2225419908261 321.16580834453276) rotate(0 28.999999999999943 12.5)"><text x="29" y="18" font-family="Virgil, Segoe UI Emoji" font-size="20px" fill="#000000" text-anchor="middle" style="white-space: pre;" direction="ltr">4</text></g><g transform="translate(202.4043601726438 269.66580834453276) rotate(0 7.5 12.5)"><text x="0" y="18" font-family="Virgil, Segoe UI Emoji" font-size="20px" fill="#000000" text-anchor="start" style="white-space: pre;" direction="ltr">0</text></g><g transform="translate(286.7679965362803 270.66580834453276) rotate(0 3 12.5)"><text x="0" y="18" font-family="Virgil, Segoe UI Emoji" font-size="20px" fill="#000000" text-anchor="start" style="white-space: pre;" direction="ltr">1</text></g><g transform="translate(372.1316328999168 271.66580834453276) rotate(0 7.5 12.5)"><text x="0" y="18" font-family="Virgil, Segoe UI Emoji" font-size="20px" fill="#000000" text-anchor="start" style="white-space: pre;" direction="ltr">2</text></g><g transform="translate(455.49526926355327 270.66580834453276) rotate(0 7.5 12.5)"><text x="0" y="18" font-family="Virgil, Segoe UI Emoji" font-size="20px" fill="#000000" text-anchor="start" style="white-space: pre;" direction="ltr">3</text></g><g transform="translate(538.8589056271898 270.66580834453276) rotate(0 7 12.5)"><text x="0" y="18" font-family="Virgil, Segoe UI Emoji" font-size="20px" fill="#000000" text-anchor="start" style="white-space: pre;" direction="ltr">4</text></g><g transform="translate(623.040723809008 271.66580834453276) rotate(0 6.5 12.5)"><text x="0" y="18" font-family="Virgil, Segoe UI Emoji" font-size="20px" fill="#000000" text-anchor="start" style="white-space: pre;" direction="ltr">5</text></g><g stroke-linecap="round"><g transform="translate(167.22254199082556 298.66580834453276) rotate(0 0 35)"><path d="M0 0 C0 11.67, 0 58.33, 0 70 M0 0 C0 11.67, 0 58.33, 0 70" stroke="#5c940d" stroke-width="4" fill="none"></path></g></g><g stroke-linecap="round"><g transform="translate(152.12282766098735 298.66580834453276) rotate(0 0 35)"><path d="M0 0 C0 11.67, 0 58.33, 0 70 M0 0 C0 11.67, 0 58.33, 0 70" stroke="#1864ab" stroke-width="4" fill="none"></path></g></g><g stroke-linecap="round" transform="translate(175.99897897080655 380.99369093366727) rotate(0 34 33.5)"><path d="M0 0 C17.99 0, 35.97 0, 68 0 M0 0 C15.7 0, 31.4 0, 68 0 M68 0 C68 25.34, 68 50.69, 68 67 M68 0 C68 24.03, 68 48.07, 68 67 M68 67 C51.14 67, 34.28 67, 0 67 M68 67 C53.25 67, 38.5 67, 0 67 M0 67 C0 44.49, 0 21.99, 0 0 M0 67 C0 49.51, 0 32.03, 0 0" stroke="#000000" stroke-width="1" fill="none"></path></g><g stroke-linecap="round" transform="translate(259.99897897080666 380.99369093366727) rotate(0 34 33.5)"><path d="M0 0 C22.4 0, 44.8 0, 68 0 M0 0 C20.86 0, 41.72 0, 68 0 M68 0 C68 22.96, 68 45.91, 68 67 M68 0 C68 20.26, 68 40.52, 68 67 M68 67 C45.2 67, 22.4 67, 0 67 M68 67 C54.25 67, 40.5 67, 0 67 M0 67 C0 46.61, 0 26.22, 0 0 M0 67 C0 49.8, 0 32.6, 0 0" stroke="#000000" stroke-width="1" fill="none"></path></g><g stroke-linecap="round" transform="translate(343.9989789708068 380.99369093366727) rotate(0 34 33.5)"><path d="M0 0 C19.05 0, 38.1 0, 68 0 M0 0 C23.73 0, 47.45 0, 68 0 M68 0 C68 21.61, 68 43.21, 68 67 M68 0 C68 13.79, 68 27.58, 68 67 M68 67 C53.81 67, 39.62 67, 0 67 M68 67 C48.38 67, 28.75 67, 0 67 M0 67 C0 42.42, 0 17.83, 0 0 M0 67 C0 40.45, 0 13.89, 0 0" stroke="#000000" stroke-width="1" fill="none"></path></g><g stroke-linecap="round" transform="translate(427.9989789708069 380.99369093366727) rotate(0 34 33.5)"><path d="M0 0 C22.61 0, 45.22 0, 68 0 M0 0 C20.69 0, 41.38 0, 68 0 M68 0 C68 24.7, 68 49.4, 68 67 M68 0 C68 23.29, 68 46.58, 68 67 M68 67 C51.36 67, 34.72 67, 0 67 M68 67 C44.46 67, 20.91 67, 0 67 M0 67 C0 52.46, 0 37.92, 0 0 M0 67 C0 46.86, 0 26.72, 0 0" stroke="#000000" stroke-width="1" fill="none"></path></g><g stroke-linecap="round" transform="translate(511.998978970807 380.99369093366727) rotate(0 34 33.5)"><path d="M0 0 C23.48 0, 46.96 0, 68 0 M0 0 C25.7 0, 51.39 0, 68 0 M68 0 C68 16.56, 68 33.13, 68 67 M68 0 C68 16.28, 68 32.57, 68 67 M68 67 C47.11 67, 26.22 67, 0 67 M68 67 C43.54 67, 19.08 67, 0 67 M0 67 C0 46.45, 0 25.89, 0 0 M0 67 C0 48.04, 0 29.08, 0 0" stroke="#000000" stroke-width="1" fill="none"></path></g><g stroke-linecap="round" transform="translate(595.9989789708071 380.99369093366727) rotate(0 34 33.5)"><path d="M0 0 L68 0 L68 67 L0 67" stroke="none" stroke-width="0" fill="#fa5252"></path><path d="M0 0 C16.06 0, 32.13 0, 68 0 M0 0 C24.99 0, 49.99 0, 68 0 M68 0 C68 23.78, 68 47.57, 68 67 M68 0 C68 18.63, 68 37.26, 68 67 M68 67 C43.34 67, 18.68 67, 0 67 M68 67 C43.35 67, 18.69 67, 0 67 M0 67 C0 42.69, 0 18.38, 0 0 M0 67 C0 41.28, 0 15.56, 0 0" stroke="#000000" stroke-width="1" fill="none"></path></g><g transform="translate(180.99897897080655 401.99369093366727) rotate(0 29 12.5)"><text x="29" y="18" font-family="Virgil, Segoe UI Emoji" font-size="20px" fill="#000000" text-anchor="middle" style="white-space: pre;" direction="ltr">6</text></g><g transform="translate(264.99897897080666 401.99369093366727) rotate(0 29 12.5)"><text x="29" y="18" font-family="Virgil, Segoe UI Emoji" font-size="20px" fill="#000000" text-anchor="middle" style="white-space: pre;" direction="ltr">5</text></g><g transform="translate(348.9989789708068 401.99369093366727) rotate(0 29 12.5)"><text x="29" y="18" font-family="Virgil, Segoe UI Emoji" font-size="20px" fill="#000000" text-anchor="middle" style="white-space: pre;" direction="ltr">1</text></g><g transform="translate(432.9989789708069 401.99369093366727) rotate(0 29 12.5)"><text x="29" y="18" font-family="Virgil, Segoe UI Emoji" font-size="20px" fill="#000000" text-anchor="middle" style="white-space: pre;" direction="ltr">3</text></g><g transform="translate(516.998978970807 401.99369093366727) rotate(0 29 12.5)"><text x="29" y="18" font-family="Virgil, Segoe UI Emoji" font-size="20px" fill="#000000" text-anchor="middle" style="white-space: pre;" direction="ltr">2</text></g><g transform="translate(600.9989789708071 401.99369093366727) rotate(0 29 12.5)"><text x="29" y="18" font-family="Virgil, Segoe UI Emoji" font-size="20px" fill="#000000" text-anchor="middle" style="white-space: pre;" direction="ltr">4</text></g><g stroke-linecap="round"><g transform="translate(254.2679540098934 378.6054724436768) rotate(0 0 35)"><path d="M0 0 C0 11.67, 0 58.33, 0 70 M0 0 C0 11.67, 0 58.33, 0 70" stroke="#5c940d" stroke-width="4" fill="none"></path></g></g><g stroke-linecap="round"><g transform="translate(167.22254199082568 378.60547244367683) rotate(0 0 35)"><path d="M0 0 C0 11.67, 0 58.33, 0 70 M0 0 C0 11.67, 0 58.33, 0 70" stroke="#1864ab" stroke-width="4" fill="none"></path></g></g><g stroke-linecap="round" transform="translate(175.99897897080655 465.37444748276374) rotate(0 34 33.5)"><path d="M0 0 C22.67 0, 45.34 0, 68 0 M0 0 C19.48 0, 38.96 0, 68 0 M68 0 C68 19.14, 68 38.29, 68 67 M68 0 C68 23.94, 68 47.87, 68 67 M68 67 C44.45 67, 20.9 67, 0 67 M68 67 C44.48 67, 20.95 67, 0 67 M0 67 C0 50.24, 0 33.47, 0 0 M0 67 C0 50.7, 0 34.41, 0 0" stroke="#000000" stroke-width="1" fill="none"></path></g><g stroke-linecap="round" transform="translate(259.99897897080666 465.37444748276374) rotate(0 34 33.5)"><path d="M0 0 C18.29 0, 36.59 0, 68 0 M0 0 C23.8 0, 47.6 0, 68 0 M68 0 C68 17.81, 68 35.63, 68 67 M68 0 C68 18.9, 68 37.79, 68 67 M68 67 C49.32 67, 30.64 67, 0 67 M68 67 C51.07 67, 34.15 67, 0 67 M0 67 C0 50.71, 0 34.43, 0 0 M0 67 C0 46.33, 0 25.66, 0 0" stroke="#000000" stroke-width="1" fill="none"></path></g><g stroke-linecap="round" transform="translate(343.9989789708068 465.37444748276374) rotate(0 34 33.5)"><path d="M0 0 C23.07 0, 46.14 0, 68 0 M0 0 C20.58 0, 41.16 0, 68 0 M68 0 C68 22.66, 68 45.32, 68 67 M68 0 C68 22.21, 68 44.43, 68 67 M68 67 C45.69 67, 23.37 67, 0 67 M68 67 C49.23 67, 30.45 67, 0 67 M0 67 C0 49.17, 0 31.35, 0 0 M0 67 C0 45.95, 0 24.9, 0 0" stroke="#000000" stroke-width="1" fill="none"></path></g><g stroke-linecap="round" transform="translate(427.9989789708069 465.37444748276374) rotate(0 34 33.5)"><path d="M0 0 C14.04 0, 28.07 0, 68 0 M0 0 C17.38 0, 34.76 0, 68 0 M68 0 C68 20.33, 68 40.66, 68 67 M68 0 C68 26.52, 68 53.04, 68 67 M68 67 C51.93 67, 35.86 67, 0 67 M68 67 C50.62 67, 33.24 67, 0 67 M0 67 C0 49.01, 0 31.02, 0 0 M0 67 C0 47.83, 0 28.67, 0 0" stroke="#000000" stroke-width="1" fill="none"></path></g><g stroke-linecap="round" transform="translate(511.998978970807 465.37444748276374) rotate(0 34 33.5)"><path d="M0 0 C19.4 0, 38.79 0, 68 0 M0 0 C21.69 0, 43.38 0, 68 0 M68 0 C68 19.2, 68 38.4, 68 67 M68 0 C68 16.21, 68 32.41, 68 67 M68 67 C45.89 67, 23.78 67, 0 67 M68 67 C49.59 67, 31.19 67, 0 67 M0 67 C0 42.36, 0 17.72, 0 0 M0 67 C0 41.33, 0 15.66, 0 0" stroke="#000000" stroke-width="1" fill="none"></path></g><g stroke-linecap="round" transform="translate(595.9989789708071 465.37444748276374) rotate(0 34 33.5)"><path d="M0 0 L68 0 L68 67 L0 67" stroke="none" stroke-width="0" fill="#fa5252"></path><path d="M0 0 C17.61 0, 35.21 0, 68 0 M0 0 C16.06 0, 32.11 0, 68 0 M68 0 C68 23.64, 68 47.28, 68 67 M68 0 C68 16.63, 68 33.26, 68 67 M68 67 C52.17 67, 36.35 67, 0 67 M68 67 C47.98 67, 27.97 67, 0 67 M0 67 C0 49.22, 0 31.45, 0 0 M0 67 C0 51.45, 0 35.91, 0 0" stroke="#000000" stroke-width="1" fill="none"></path></g><g transform="translate(180.99897897080655 486.37444748276374) rotate(0 29 12.5)"><text x="29" y="18" font-family="Virgil, Segoe UI Emoji" font-size="20px" fill="#000000" text-anchor="middle" style="white-space: pre;" direction="ltr">6</text></g><g transform="translate(264.99897897080666 486.37444748276374) rotate(0 29 12.5)"><text x="29" y="18" font-family="Virgil, Segoe UI Emoji" font-size="20px" fill="#000000" text-anchor="middle" style="white-space: pre;" direction="ltr">5</text></g><g transform="translate(348.9989789708068 486.37444748276374) rotate(0 29 12.5)"><text x="29" y="18" font-family="Virgil, Segoe UI Emoji" font-size="20px" fill="#000000" text-anchor="middle" style="white-space: pre;" direction="ltr">1</text></g><g transform="translate(432.9989789708069 486.37444748276374) rotate(0 29 12.5)"><text x="29" y="18" font-family="Virgil, Segoe UI Emoji" font-size="20px" fill="#000000" text-anchor="middle" style="white-space: pre;" direction="ltr">3</text></g><g transform="translate(516.998978970807 486.37444748276374) rotate(0 29 12.5)"><text x="29" y="18" font-family="Virgil, Segoe UI Emoji" font-size="20px" fill="#000000" text-anchor="middle" style="white-space: pre;" direction="ltr">2</text></g><g transform="translate(600.9989789708071 486.37444748276374) rotate(0 29 12.5)"><text x="29" y="18" font-family="Virgil, Segoe UI Emoji" font-size="20px" fill="#000000" text-anchor="middle" style="white-space: pre;" direction="ltr">4</text></g><g stroke-linecap="round"><g transform="translate(336.87227357900895 465.6508844627447) rotate(0 0 35)"><path d="M0 0 C0 11.67, 0 58.33, 0 70 M0 0 C0 11.67, 0 58.33, 0 70" stroke="#5c940d" stroke-width="4" fill="none"></path></g></g><g stroke-linecap="round"><g transform="translate(167.22254199082568 462.9862289927733) rotate(0 0 35)"><path d="M0 0 C0 11.67, 0 58.33, 0 70 M0 0 C0 11.67, 0 58.33, 0 70" stroke="#1864ab" stroke-width="4" fill="none"></path></g></g><g stroke-linecap="round" transform="translate(175.99897897080655 547.9787670518792) rotate(0 34 33.50000000000003)"><path d="M0 0 C17.64 0, 35.28 0, 68 0 M0 0 C13.86 0, 27.73 0, 68 0 M68 0 C68 20.46, 68 40.92, 68 67 M68 0 C68 26.03, 68 52.05, 68 67 M68 67 C53.74 67, 39.48 67, 0 67 M68 67 C48.02 67, 28.04 67, 0 67 M0 67 C0 51.62, 0 36.25, 0 0 M0 67 C0 42.67, 0 18.34, 0 0" stroke="#000000" stroke-width="1" fill="none"></path></g><g stroke-linecap="round" transform="translate(259.99897897080666 547.9787670518792) rotate(0 34 33.50000000000003)"><path d="M0 0 C15.81 0, 31.62 0, 68 0 M0 0 C18.58 0, 37.17 0, 68 0 M68 0 C68 18.36, 68 36.72, 68 67 M68 0 C68 16.39, 68 32.78, 68 67 M68 67 C44.04 67, 20.08 67, 0 67 M68 67 C46.58 67, 25.16 67, 0 67 M0 67 C0 48.94, 0 30.87, 0 0 M0 67 C0 48.39, 0 29.77, 0 0" stroke="#000000" stroke-width="1" fill="none"></path></g><g stroke-linecap="round" transform="translate(343.9989789708068 547.9787670518792) rotate(0 34 33.50000000000003)"><path d="M0 0 C26.27 0, 52.54 0, 68 0 M0 0 C14.83 0, 29.66 0, 68 0 M68 0 C68 15.46, 68 30.93, 68 67 M68 0 C68 13.91, 68 27.81, 68 67 M68 67 C48.38 67, 28.75 67, 0 67 M68 67 C43.37 67, 18.74 67, 0 67 M0 67 C0 49.57, 0 32.14, 0 0 M0 67 C0 52.1, 0 37.2, 0 0" stroke="#000000" stroke-width="1" fill="none"></path></g><g stroke-linecap="round" transform="translate(427.9989789708069 547.9787670518792) rotate(0 34 33.50000000000003)"><path d="M0 0 C21.06 0, 42.13 0, 68 0 M0 0 C18.5 0, 36.99 0, 68 0 M68 0 C68 16.52, 68 33.03, 68 67 M68 0 C68 19.22, 68 38.44, 68 67 M68 67 C52.32 67, 36.63 67, 0 67 M68 67 C53.62 67, 39.23 67, 0 67 M0 67 C0 45.96, 0 24.92, 0 0 M0 67 C0 51.59, 0 36.18, 0 0" stroke="#000000" stroke-width="1" fill="none"></path></g><g stroke-linecap="round" transform="translate(511.998978970807 547.9787670518792) rotate(0 34 33.50000000000003)"><path d="M0 0 C20.41 0, 40.82 0, 68 0 M0 0 C22.7 0, 45.4 0, 68 0 M68 0 C68 18.67, 68 37.33, 68 67 M68 0 C68 22.06, 68 44.11, 68 67 M68 67 C43.84 67, 19.67 67, 0 67 M68 67 C44.34 67, 20.69 67, 0 67 M0 67 C0 47.78, 0 28.55, 0 0 M0 67 C0 52.61, 0 38.23, 0 0" stroke="#000000" stroke-width="1" fill="none"></path></g><g stroke-linecap="round" transform="translate(595.9989789708071 547.9787670518792) rotate(0 34 33.50000000000003)"><path d="M0 0 L68 0 L68 67 L0 67" stroke="none" stroke-width="0" fill="#fa5252"></path><path d="M0 0 C20.23 0, 40.46 0, 68 0 M0 0 C19.25 0, 38.5 0, 68 0 M68 0 C68 13.75, 68 27.5, 68 67 M68 0 C68 15.66, 68 31.32, 68 67 M68 67 C44.99 67, 21.98 67, 0 67 M68 67 C48.9 67, 29.81 67, 0 67 M0 67 C0 52.84, 0 38.68, 0 0 M0 67 C0 41.08, 0 15.16, 0 0" stroke="#000000" stroke-width="1" fill="none"></path></g><g transform="translate(180.99897897080655 568.9787670518792) rotate(0 29 12.5)"><text x="29" y="18" font-family="Virgil, Segoe UI Emoji" font-size="20px" fill="#000000" text-anchor="middle" style="white-space: pre;" direction="ltr">1</text></g><g transform="translate(264.99897897080666 568.9787670518792) rotate(0 29 12.5)"><text x="29" y="18" font-family="Virgil, Segoe UI Emoji" font-size="20px" fill="#000000" text-anchor="middle" style="white-space: pre;" direction="ltr">5</text></g><g transform="translate(348.9989789708068 568.9787670518792) rotate(0 29 12.5)"><text x="29" y="18" font-family="Virgil, Segoe UI Emoji" font-size="20px" fill="#000000" text-anchor="middle" style="white-space: pre;" direction="ltr">6</text></g><g transform="translate(432.9989789708069 568.9787670518792) rotate(0 29 12.5)"><text x="29" y="18" font-family="Virgil, Segoe UI Emoji" font-size="20px" fill="#000000" text-anchor="middle" style="white-space: pre;" direction="ltr">3</text></g><g transform="translate(516.998978970807 568.9787670518792) rotate(0 29 12.5)"><text x="29" y="18" font-family="Virgil, Segoe UI Emoji" font-size="20px" fill="#000000" text-anchor="middle" style="white-space: pre;" direction="ltr">2</text></g><g transform="translate(600.9989789708071 568.9787670518792) rotate(0 29 12.5)"><text x="29" y="18" font-family="Virgil, Segoe UI Emoji" font-size="20px" fill="#000000" text-anchor="middle" style="white-space: pre;" direction="ltr">4</text></g><g stroke-linecap="round"><g transform="translate(419.4765931481244 545.5905485618887) rotate(0 0 35)"><path d="M0 0 C0 11.67, 0 58.33, 0 70 M0 0 C0 11.67, 0 58.33, 0 70" stroke="#5c940d" stroke-width="4" fill="none"></path></g></g><g stroke-linecap="round"><g transform="translate(252.49151702991264 547.3669855418698) rotate(0 0 35.00000000000003)"><path d="M0 0 C0 11.67, 0 58.33, 0 70 M0 0 C0 11.67, 0 58.33, 0 70" stroke="#1864ab" stroke-width="4" fill="none"></path></g></g><g stroke-linecap="round" transform="translate(175.110760480816 633.2477420909661) rotate(0 34 33.5)"><path d="M0 0 C17.35 0, 34.69 0, 68 0 M0 0 C24.75 0, 49.51 0, 68 0 M68 0 C68 17.28, 68 34.56, 68 67 M68 0 C68 16.91, 68 33.83, 68 67 M68 67 C47.61 67, 27.22 67, 0 67 M68 67 C53.73 67, 39.46 67, 0 67 M0 67 C0 53.1, 0 39.21, 0 0 M0 67 C0 42.36, 0 17.72, 0 0" stroke="#000000" stroke-width="1" fill="none"></path></g><g stroke-linecap="round" transform="translate(259.1107604808161 633.2477420909661) rotate(0 34 33.5)"><path d="M0 0 C22.48 0, 44.96 0, 68 0 M0 0 C15.01 0, 30.01 0, 68 0 M68 0 C68 18.21, 68 36.41, 68 67 M68 0 C68 17.33, 68 34.66, 68 67 M68 67 C54.32 67, 40.64 67, 0 67 M68 67 C44.43 67, 20.86 67, 0 67 M0 67 C0 48.99, 0 30.98, 0 0 M0 67 C0 44.36, 0 21.72, 0 0" stroke="#000000" stroke-width="1" fill="none"></path></g><g stroke-linecap="round" transform="translate(343.1107604808162 633.2477420909661) rotate(0 34 33.5)"><path d="M0 0 C24.91 0, 49.82 0, 68 0 M0 0 C16.75 0, 33.49 0, 68 0 M68 0 C68 23.65, 68 47.31, 68 67 M68 0 C68 19.14, 68 38.28, 68 67 M68 67 C53.73 67, 39.46 67, 0 67 M68 67 C43.56 67, 19.12 67, 0 67 M0 67 C0 49.38, 0 31.77, 0 0 M0 67 C0 44.24, 0 21.48, 0 0" stroke="#000000" stroke-width="1" fill="none"></path></g><g stroke-linecap="round" transform="translate(427.11076048081634 633.2477420909661) rotate(0 34 33.5)"><path d="M0 0 C14.51 0, 29.02 0, 68 0 M0 0 C25.38 0, 50.77 0, 68 0 M68 0 C68 15.95, 68 31.9, 68 67 M68 0 C68 26.04, 68 52.09, 68 67 M68 67 C47.16 67, 26.32 67, 0 67 M68 67 C46.46 67, 24.92 67, 0 67 M0 67 C0 48.62, 0 30.24, 0 0 M0 67 C0 50.54, 0 34.09, 0 0" stroke="#000000" stroke-width="1" fill="none"></path></g><g stroke-linecap="round" transform="translate(511.11076048081645 633.2477420909661) rotate(0 34 33.5)"><path d="M0 0 C16.36 0, 32.73 0, 68 0 M0 0 C16.31 0, 32.63 0, 68 0 M68 0 C68 17.35, 68 34.7, 68 67 M68 0 C68 13.43, 68 26.87, 68 67 M68 67 C51.29 67, 34.58 67, 0 67 M68 67 C51.89 67, 35.79 67, 0 67 M0 67 C0 50.95, 0 34.9, 0 0 M0 67 C0 43.57, 0 20.15, 0 0" stroke="#000000" stroke-width="1" fill="none"></path></g><g stroke-linecap="round" transform="translate(595.1107604808166 633.2477420909661) rotate(0 34 33.5)"><path d="M0 0 L68 0 L68 67 L0 67" stroke="none" stroke-width="0" fill="#fa5252"></path><path d="M0 0 C25.1 0, 50.2 0, 68 0 M0 0 C13.99 0, 27.98 0, 68 0 M68 0 C68 18.61, 68 37.22, 68 67 M68 0 C68 16.56, 68 33.13, 68 67 M68 67 C41.45 67, 14.9 67, 0 67 M68 67 C47.41 67, 26.81 67, 0 67 M0 67 C0 48.14, 0 29.27, 0 0 M0 67 C0 48.06, 0 29.11, 0 0" stroke="#000000" stroke-width="1" fill="none"></path></g><g transform="translate(180.110760480816 654.2477420909661) rotate(0 29 12.5)"><text x="29" y="18" font-family="Virgil, Segoe UI Emoji" font-size="20px" fill="#000000" text-anchor="middle" style="white-space: pre;" direction="ltr">1</text></g><g transform="translate(264.1107604808161 654.2477420909661) rotate(0 29 12.5)"><text x="29" y="18" font-family="Virgil, Segoe UI Emoji" font-size="20px" fill="#000000" text-anchor="middle" style="white-space: pre;" direction="ltr">3</text></g><g transform="translate(348.1107604808162 654.2477420909661) rotate(0 29 12.5)"><text x="29" y="18" font-family="Virgil, Segoe UI Emoji" font-size="20px" fill="#000000" text-anchor="middle" style="white-space: pre;" direction="ltr">6</text></g><g transform="translate(432.11076048081634 654.2477420909661) rotate(0 29 12.5)"><text x="29" y="18" font-family="Virgil, Segoe UI Emoji" font-size="20px" fill="#000000" text-anchor="middle" style="white-space: pre;" direction="ltr">5</text></g><g transform="translate(516.1107604808165 654.2477420909661) rotate(0 29 12.5)"><text x="29" y="18" font-family="Virgil, Segoe UI Emoji" font-size="20px" fill="#000000" text-anchor="middle" style="white-space: pre;" direction="ltr">2</text></g><g transform="translate(600.1107604808166 654.2477420909661) rotate(0 29 12.5)"><text x="29" y="18" font-family="Virgil, Segoe UI Emoji" font-size="20px" fill="#000000" text-anchor="middle" style="white-space: pre;" direction="ltr">4</text></g><g stroke-linecap="round"><g transform="translate(503.8573496972207 631.7477420909661) rotate(0 0 35)"><path d="M0 0 C0 11.67, 0 58.33, 0 70 M0 0 C0 11.67, 0 58.33, 0 70" stroke="#5c940d" stroke-width="4" fill="none"></path></g></g><g stroke-linecap="round"><g transform="translate(335.0958365990281 633.5241790709472) rotate(0 0 35)"><path d="M0 0 C0 11.67, 0 58.33, 0 70 M0 0 C0 11.67, 0 58.33, 0 70" stroke="#1864ab" stroke-width="4" fill="none"></path></g></g><g stroke-linecap="round" transform="translate(175.110760480816 714.9638431700912) rotate(0 34 33.5)"><path d="M0 0 C14.92 0, 29.84 0, 68 0 M0 0 C19.48 0, 38.96 0, 68 0 M68 0 C68 17.11, 68 34.21, 68 67 M68 0 C68 21.85, 68 43.69, 68 67 M68 67 C41.19 67, 14.37 67, 0 67 M68 67 C48.86 67, 29.72 67, 0 67 M0 67 C0 45.06, 0 23.13, 0 0 M0 67 C0 42.04, 0 17.07, 0 0" stroke="#000000" stroke-width="1" fill="none"></path></g><g stroke-linecap="round" transform="translate(259.1107604808161 714.9638431700912) rotate(0 34 33.5)"><path d="M0 0 C17.11 0, 34.22 0, 68 0 M0 0 C17.42 0, 34.85 0, 68 0 M68 0 C68 19.44, 68 38.88, 68 67 M68 0 C68 13.44, 68 26.88, 68 67 M68 67 C40.81 67, 13.62 67, 0 67 M68 67 C48.81 67, 29.63 67, 0 67 M0 67 C0 45.14, 0 23.27, 0 0 M0 67 C0 52.83, 0 38.66, 0 0" stroke="#000000" stroke-width="1" fill="none"></path></g><g stroke-linecap="round" transform="translate(343.1107604808162 714.9638431700912) rotate(0 34 33.5)"><path d="M0 0 C24.12 0, 48.25 0, 68 0 M0 0 C13.95 0, 27.89 0, 68 0 M68 0 C68 15.74, 68 31.48, 68 67 M68 0 C68 23.61, 68 47.22, 68 67 M68 67 C48.91 67, 29.82 67, 0 67 M68 67 C42.99 67, 17.98 67, 0 67 M0 67 C0 43.85, 0 20.71, 0 0 M0 67 C0 43.57, 0 20.13, 0 0" stroke="#000000" stroke-width="1" fill="none"></path></g><g stroke-linecap="round" transform="translate(427.11076048081634 714.9638431700912) rotate(0 34 33.5)"><path d="M0 0 C13.63 0, 27.26 0, 68 0 M0 0 C25.79 0, 51.59 0, 68 0 M68 0 C68 15.26, 68 30.52, 68 67 M68 0 C68 18.03, 68 36.06, 68 67 M68 67 C54.35 67, 40.7 67, 0 67 M68 67 C43.63 67, 19.26 67, 0 67 M0 67 C0 51.35, 0 35.71, 0 0 M0 67 C0 44.89, 0 22.78, 0 0" stroke="#000000" stroke-width="1" fill="none"></path></g><g stroke-linecap="round" transform="translate(511.11076048081645 714.9638431700912) rotate(0 34 33.5)"><path d="M0 0 C21.88 0, 43.76 0, 68 0 M0 0 C19.53 0, 39.07 0, 68 0 M68 0 C68 23.19, 68 46.39, 68 67 M68 0 C68 24.96, 68 49.92, 68 67 M68 67 C51.6 67, 35.19 67, 0 67 M68 67 C42.19 67, 16.38 67, 0 67 M0 67 C0 51.25, 0 35.49, 0 0 M0 67 C0 48.74, 0 30.48, 0 0" stroke="#000000" stroke-width="1" fill="none"></path></g><g stroke-linecap="round" transform="translate(595.1107604808166 714.9638431700912) rotate(0 34 33.5)"><path d="M0 0 L68 0 L68 67 L0 67" stroke="none" stroke-width="0" fill="#fa5252"></path><path d="M0 0 C23.65 0, 47.3 0, 68 0 M0 0 C21.41 0, 42.82 0, 68 0 M68 0 C68 22.89, 68 45.78, 68 67 M68 0 C68 22.37, 68 44.74, 68 67 M68 67 C51.98 67, 35.95 67, 0 67 M68 67 C49.06 67, 30.13 67, 0 67 M0 67 C0 45.22, 0 23.45, 0 0 M0 67 C0 40.8, 0 14.6, 0 0" stroke="#000000" stroke-width="1" fill="none"></path></g><g transform="translate(180.110760480816 735.9638431700912) rotate(0 29 12.5)"><text x="29" y="18" font-family="Virgil, Segoe UI Emoji" font-size="20px" fill="#000000" text-anchor="middle" style="white-space: pre;" direction="ltr">1</text></g><g transform="translate(264.1107604808161 735.9638431700912) rotate(0 29 12.5)"><text x="29" y="18" font-family="Virgil, Segoe UI Emoji" font-size="20px" fill="#000000" text-anchor="middle" style="white-space: pre;" direction="ltr">3</text></g><g transform="translate(348.1107604808162 735.9638431700912) rotate(0 29 12.5)"><text x="29" y="18" font-family="Virgil, Segoe UI Emoji" font-size="20px" fill="#000000" text-anchor="middle" style="white-space: pre;" direction="ltr">2</text></g><g transform="translate(432.11076048081634 735.9638431700912) rotate(0 29 12.5)"><text x="29" y="18" font-family="Virgil, Segoe UI Emoji" font-size="20px" fill="#000000" text-anchor="middle" style="white-space: pre;" direction="ltr">5</text></g><g transform="translate(516.1107604808165 735.9638431700912) rotate(0 29 12.5)"><text x="29" y="18" font-family="Virgil, Segoe UI Emoji" font-size="20px" fill="#000000" text-anchor="middle" style="white-space: pre;" direction="ltr">6</text></g><g transform="translate(600.1107604808166 735.9638431700912) rotate(0 29 12.5)"><text x="29" y="18" font-family="Virgil, Segoe UI Emoji" font-size="20px" fill="#000000" text-anchor="middle" style="white-space: pre;" direction="ltr">4</text></g><g stroke-linecap="round"><g transform="translate(586.4616692663362 714.3520616600815) rotate(0 0 35)"><path d="M0 0 C0 11.67, 0 58.33, 0 70 M0 0 C0 11.67, 0 58.33, 0 70" stroke="#5c940d" stroke-width="4" fill="none"></path></g></g><g stroke-linecap="round"><g transform="translate(419.4765931481246 715.2402801500721) rotate(0 0 35)"><path d="M0 0 C0 11.67, 0 58.33, 0 70 M0 0 C0 11.67, 0 58.33, 0 70" stroke="#1864ab" stroke-width="4" fill="none"></path></g></g><g stroke-linecap="round" transform="translate(175.99897897080655 799.3445997191875) rotate(0 34 33.5)"><path d="M0 0 C19.31 0, 38.61 0, 68 0 M0 0 C19.13 0, 38.27 0, 68 0 M68 0 C68 17.37, 68 34.73, 68 67 M68 0 C68 15.73, 68 31.47, 68 67 M68 67 C42.92 67, 17.84 67, 0 67 M68 67 C51.86 67, 35.71 67, 0 67 M0 67 C0 53.12, 0 39.24, 0 0 M0 67 C0 45.88, 0 24.76, 0 0" stroke="#000000" stroke-width="1" fill="none"></path></g><g stroke-linecap="round" transform="translate(259.99897897080666 799.3445997191875) rotate(0 34 33.5)"><path d="M0 0 C25.5 0, 51 0, 68 0 M0 0 C21.82 0, 43.63 0, 68 0 M68 0 C68 21.93, 68 43.86, 68 67 M68 0 C68 24.21, 68 48.41, 68 67 M68 67 C43.04 67, 18.08 67, 0 67 M68 67 C53.35 67, 38.7 67, 0 67 M0 67 C0 51.12, 0 35.25, 0 0 M0 67 C0 53.17, 0 39.34, 0 0" stroke="#000000" stroke-width="1" fill="none"></path></g><g stroke-linecap="round" transform="translate(343.9989789708068 799.3445997191875) rotate(0 34 33.5)"><path d="M0 0 C13.72 0, 27.43 0, 68 0 M0 0 C22.59 0, 45.19 0, 68 0 M68 0 C68 23.45, 68 46.91, 68 67 M68 0 C68 24.28, 68 48.56, 68 67 M68 67 C44.44 67, 20.88 67, 0 67 M68 67 C47.66 67, 27.31 67, 0 67 M0 67 C0 44.55, 0 22.1, 0 0 M0 67 C0 49.61, 0 32.22, 0 0" stroke="#000000" stroke-width="1" fill="none"></path></g><g stroke-linecap="round" transform="translate(427.9989789708069 799.3445997191875) rotate(0 34 33.5)"><path d="M0 0 L68 0 L68 67 L0 67" stroke="none" stroke-width="0" fill="#fa5252"></path><path d="M0 0 C16.44 0, 32.88 0, 68 0 M0 0 C26.01 0, 52.03 0, 68 0 M68 0 C68 17.76, 68 35.52, 68 67 M68 0 C68 17.21, 68 34.43, 68 67 M68 67 C40.87 67, 13.75 67, 0 67 M68 67 C45.51 67, 23.03 67, 0 67 M0 67 C0 46.86, 0 26.73, 0 0 M0 67 C0 47.85, 0 28.7, 0 0" stroke="#000000" stroke-width="1" fill="none"></path></g><g stroke-linecap="round" transform="translate(511.998978970807 799.3445997191875) rotate(0 34 33.5)"><path d="M0 0 C14.1 0, 28.2 0, 68 0 M0 0 C22.9 0, 45.8 0, 68 0 M68 0 C68 24.06, 68 48.13, 68 67 M68 0 C68 15.26, 68 30.53, 68 67 M68 67 C40.95 67, 13.89 67, 0 67 M68 67 C53.37 67, 38.73 67, 0 67 M0 67 C0 50.95, 0 34.91, 0 0 M0 67 C0 41.97, 0 16.94, 0 0" stroke="#000000" stroke-width="1" fill="none"></path></g><g stroke-linecap="round" transform="translate(595.9989789708071 799.3445997191875) rotate(0 34 33.5)"><path d="M0 0 C20.78 0, 41.56 0, 68 0 M0 0 C18.62 0, 37.25 0, 68 0 M68 0 C68 13.93, 68 27.85, 68 67 M68 0 C68 23.2, 68 46.41, 68 67 M68 67 C49.11 67, 30.22 67, 0 67 M68 67 C50.13 67, 32.26 67, 0 67 M0 67 C0 48.03, 0 29.05, 0 0 M0 67 C0 50.81, 0 34.61, 0 0" stroke="#000000" stroke-width="1" fill="none"></path></g><g transform="translate(180.99897897080655 820.3445997191875) rotate(0 29 12.5)"><text x="29" y="18" font-family="Virgil, Segoe UI Emoji" font-size="20px" fill="#000000" text-anchor="middle" style="white-space: pre;" direction="ltr">1</text></g><g transform="translate(264.99897897080666 820.3445997191875) rotate(0 29 12.5)"><text x="29" y="18" font-family="Virgil, Segoe UI Emoji" font-size="20px" fill="#000000" text-anchor="middle" style="white-space: pre;" direction="ltr">3</text></g><g transform="translate(348.9989789708068 820.3445997191875) rotate(0 29 12.5)"><text x="29" y="18" font-family="Virgil, Segoe UI Emoji" font-size="20px" fill="#000000" text-anchor="middle" style="white-space: pre;" direction="ltr">2</text></g><g transform="translate(432.9989789708069 820.3445997191875) rotate(0 29 12.5)"><text x="29" y="18" font-family="Virgil, Segoe UI Emoji" font-size="20px" fill="#000000" text-anchor="middle" style="white-space: pre;" direction="ltr">4</text></g><g transform="translate(516.998978970807 820.3445997191875) rotate(0 29 12.5)"><text x="29" y="18" font-family="Virgil, Segoe UI Emoji" font-size="20px" fill="#000000" text-anchor="middle" style="white-space: pre;" direction="ltr">6</text></g><g transform="translate(600.9989789708071 820.3445997191875) rotate(0 29 12.5)"><text x="29" y="18" font-family="Virgil, Segoe UI Emoji" font-size="20px" fill="#000000" text-anchor="middle" style="white-space: pre;" direction="ltr">5</text></g><g stroke-linecap="round" transform="translate(32.82633500993336 993.1925152980186) rotate(0 34 33.5)"><path d="M0 0 C18.45 0, 36.89 0, 68 0 M0 0 C17.62 0, 35.24 0, 68 0 M68 0 C68 21.15, 68 42.29, 68 67 M68 0 C68 13.76, 68 27.52, 68 67 M68 67 C53.91 67, 39.81 67, 0 67 M68 67 C41.78 67, 15.56 67, 0 67 M0 67 C0 45.91, 0 24.82, 0 0 M0 67 C0 42.25, 0 17.51, 0 0" stroke="#000000" stroke-width="1" fill="none"></path></g><g stroke-linecap="round" transform="translate(116.82633500993347 993.1925152980186) rotate(0 34 33.5)"><path d="M0 0 C20.57 0, 41.14 0, 68 0 M0 0 C23.57 0, 47.15 0, 68 0 M68 0 C68 26.74, 68 53.48, 68 67 M68 0 C68 17.53, 68 35.07, 68 67 M68 67 C51.17 67, 34.34 67, 0 67 M68 67 C43.22 67, 18.45 67, 0 67 M0 67 C0 43.29, 0 19.59, 0 0 M0 67 C0 42.46, 0 17.92, 0 0" stroke="#000000" stroke-width="1" fill="none"></path></g><g stroke-linecap="round" transform="translate(200.8263350099336 993.1925152980186) rotate(0 34 33.5)"><path d="M0 0 L68 0 L68 67 L0 67" stroke="none" stroke-width="0" fill="#fa5252"></path><path d="M0 0 C17.92 0, 35.84 0, 68 0 M0 0 C22.03 0, 44.06 0, 68 0 M68 0 C68 18.24, 68 36.48, 68 67 M68 0 C68 16.99, 68 33.97, 68 67 M68 67 C41.64 67, 15.29 67, 0 67 M68 67 C46.7 67, 25.41 67, 0 67 M0 67 C0 50.24, 0 33.48, 0 0 M0 67 C0 52.94, 0 38.89, 0 0" stroke="#000000" stroke-width="1" fill="none"></path></g><g transform="translate(37.82633500993336 1014.1925152980186) rotate(0 29 12.5)"><text x="29" y="18" font-family="Virgil, Segoe UI Emoji" font-size="20px" fill="#000000" text-anchor="middle" style="white-space: pre;" direction="ltr">1</text></g><g transform="translate(121.82633500993347 1014.1925152980186) rotate(0 29 12.5)"><text x="29" y="18" font-family="Virgil, Segoe UI Emoji" font-size="20px" fill="#000000" text-anchor="middle" style="white-space: pre;" direction="ltr">3</text></g><g transform="translate(205.8263350099336 1014.1925152980186) rotate(0 29 12.5)"><text x="29" y="18" font-family="Virgil, Segoe UI Emoji" font-size="20px" fill="#000000" text-anchor="middle" style="white-space: pre;" direction="ltr">2</text></g><g stroke-linecap="round" transform="translate(683.2556804665668 993.1925152980186) rotate(0 34 33.5)"><path d="M0 0 C25.29 0, 50.58 0, 68 0 M0 0 C20.51 0, 41.02 0, 68 0 M68 0 C68 13.63, 68 27.25, 68 67 M68 0 C68 24.33, 68 48.65, 68 67 M68 67 C54.24 67, 40.48 67, 0 67 M68 67 C51.1 67, 34.19 67, 0 67 M0 67 C0 47.96, 0 28.93, 0 0 M0 67 C0 48.8, 0 30.61, 0 0" stroke="#000000" stroke-width="1" fill="none"></path></g><g stroke-linecap="round" transform="translate(767.2556804665668 993.1925152980186) rotate(0 34 33.5)"><path d="M0 0 L68 0 L68 67 L0 67" stroke="none" stroke-width="0" fill="#fa5252"></path><path d="M0 0 C18.18 0, 36.36 0, 68 0 M0 0 C24.68 0, 49.35 0, 68 0 M68 0 C68 15.49, 68 30.99, 68 67 M68 0 C68 25.54, 68 51.08, 68 67 M68 67 C52.21 67, 36.42 67, 0 67 M68 67 C48.69 67, 29.38 67, 0 67 M0 67 C0 51.63, 0 36.26, 0 0 M0 67 C0 45.52, 0 24.03, 0 0" stroke="#000000" stroke-width="1" fill="none"></path></g><g transform="translate(688.2556804665668 1014.1925152980186) rotate(0 29 12.5)"><text x="29" y="18" font-family="Virgil, Segoe UI Emoji" font-size="20px" fill="#000000" text-anchor="middle" style="white-space: pre;" direction="ltr">6</text></g><g transform="translate(772.2556804665668 1014.1925152980186) rotate(0 29 12.5)"><text x="29" y="18" font-family="Virgil, Segoe UI Emoji" font-size="20px" fill="#000000" text-anchor="middle" style="white-space: pre;" direction="ltr">5</text></g><g stroke-linecap="round"><g transform="translate(353.6154803734978 874.934308510698) rotate(0 -34.97945525443794 48.24140791234299)"><path d="M0 0 C-11.66 16.08, -58.3 80.4, -69.96 96.48 M0 0 C-11.66 16.08, -58.3 80.4, -69.96 96.48" stroke="#000000" stroke-width="4" fill="none"></path></g><g transform="translate(353.6154803734978 874.934308510698) rotate(0 -34.97945525443794 48.24140791234299)"><path d="M-61.72 67.64 C-63.77 74.83, -65.83 82.02, -69.96 96.48 M-61.72 67.64 C-63.41 73.57, -65.11 79.49, -69.96 96.48" stroke="#000000" stroke-width="4" fill="none"></path></g><g transform="translate(353.6154803734978 874.934308510698) rotate(0 -34.97945525443794 48.24140791234299)"><path d="M-45.1 79.68 C-51.3 83.87, -57.5 88.06, -69.96 96.48 M-45.1 79.68 C-50.21 83.14, -55.32 86.59, -69.96 96.48" stroke="#000000" stroke-width="4" fill="none"></path></g></g><g stroke-linecap="round"><g transform="translate(519.7471510341838 878.4189857839592) rotate(0 69.97436076887669 52.00535840645563)"><path d="M0 0 C23.32 17.34, 116.62 86.68, 139.95 104.01 M0 0 C23.32 17.34, 116.62 86.68, 139.95 104.01" stroke="#000000" stroke-width="4" fill="none"></path></g><g transform="translate(519.7471510341838 878.4189857839592) rotate(0 69.97436076887669 52.00535840645563)"><path d="M111.2 95.43 C120.51 98.21, 129.82 100.99, 139.95 104.01 M111.2 95.43 C121.26 98.43, 131.32 101.44, 139.95 104.01" stroke="#000000" stroke-width="4" fill="none"></path></g><g transform="translate(519.7471510341838 878.4189857839592) rotate(0 69.97436076887669 52.00535840645563)"><path d="M123.44 78.96 C128.79 87.07, 134.13 95.19, 139.95 104.01 M123.44 78.96 C129.22 87.73, 135 96.49, 139.95 104.01" stroke="#000000" stroke-width="4" fill="none"></path></g></g><g stroke-linecap="round"><g transform="translate(25.099714329838207 993.7818251437905) rotate(0 0 35)"><path d="M0 0 C0 11.67, 0 58.33, 0 70 M0 0 C0 11.67, 0 58.33, 0 70" stroke="#5c940d" stroke-width="4" fill="none"></path></g></g><g stroke-linecap="round"><g transform="translate(10 993.7818251437905) rotate(0 0 35)"><path d="M0 0 C0 11.67, 0 58.33, 0 70 M0 0 C0 11.67, 0 58.33, 0 70" stroke="#1864ab" stroke-width="4" fill="none"></path></g></g><g stroke-linecap="round" transform="translate(33.25063444007469 1072.1122093043039) rotate(0 34 33.5)"><path d="M0 0 C24.3 0, 48.6 0, 68 0 M0 0 C16.35 0, 32.7 0, 68 0 M68 0 C68 18.61, 68 37.22, 68 67 M68 0 C68 24.08, 68 48.16, 68 67 M68 67 C52.99 67, 37.98 67, 0 67 M68 67 C51.04 67, 34.08 67, 0 67 M0 67 C0 53.05, 0 39.1, 0 0 M0 67 C0 46.82, 0 26.63, 0 0" stroke="#000000" stroke-width="1" fill="none"></path></g><g stroke-linecap="round" transform="translate(117.2506344400748 1072.1122093043039) rotate(0 34 33.5)"><path d="M0 0 C18.11 0, 36.22 0, 68 0 M0 0 C19.05 0, 38.1 0, 68 0 M68 0 C68 22.82, 68 45.63, 68 67 M68 0 C68 14.8, 68 29.6, 68 67 M68 67 C53.7 67, 39.39 67, 0 67 M68 67 C50.73 67, 33.46 67, 0 67 M0 67 C0 42.36, 0 17.73, 0 0 M0 67 C0 40.52, 0 14.04, 0 0" stroke="#000000" stroke-width="1" fill="none"></path></g><g stroke-linecap="round" transform="translate(201.25063444007492 1072.1122093043039) rotate(0 34 33.5)"><path d="M0 0 L68 0 L68 67 L0 67" stroke="none" stroke-width="0" fill="#fa5252"></path><path d="M0 0 C15.49 0, 30.97 0, 68 0 M0 0 C24.04 0, 48.08 0, 68 0 M68 0 C68 23.24, 68 46.48, 68 67 M68 0 C68 18.51, 68 37.03, 68 67 M68 67 C53.89 67, 39.77 67, 0 67 M68 67 C45.86 67, 23.73 67, 0 67 M0 67 C0 45.21, 0 23.42, 0 0 M0 67 C0 44.29, 0 21.57, 0 0" stroke="#000000" stroke-width="1" fill="none"></path></g><g transform="translate(38.25063444007469 1093.1122093043039) rotate(0 29 12.5)"><text x="29" y="18" font-family="Virgil, Segoe UI Emoji" font-size="20px" fill="#000000" text-anchor="middle" style="white-space: pre;" direction="ltr">1</text></g><g transform="translate(122.2506344400748 1093.1122093043039) rotate(0 29 12.5)"><text x="29" y="18" font-family="Virgil, Segoe UI Emoji" font-size="20px" fill="#000000" text-anchor="middle" style="white-space: pre;" direction="ltr">3</text></g><g transform="translate(206.25063444007492 1093.1122093043039) rotate(0 29 12.5)"><text x="29" y="18" font-family="Virgil, Segoe UI Emoji" font-size="20px" fill="#000000" text-anchor="middle" style="white-space: pre;" direction="ltr">2</text></g><g stroke-linecap="round"><g transform="translate(112.08109750880845 1070.5800219993691) rotate(0 0 35)"><path d="M0 0 C0 11.67, 0 58.33, 0 70 M0 0 C0 11.67, 0 58.33, 0 70" stroke="#5c940d" stroke-width="4" fill="none"></path></g></g><g stroke-linecap="round"><g transform="translate(105.89167121193805 1070.5800219993691) rotate(0 0 34.99999999999994)"><path d="M0 0 C0 11.67, 0 58.33, 0 70 M0 0 C0 11.67, 0 58.33, 0 70" stroke="#1864ab" stroke-width="4" fill="none"></path></g></g><g stroke-linecap="round" transform="translate(33.67493387021602 1148.9104061598823) rotate(0 34 33.5)"><path d="M0 0 C26.28 0, 52.57 0, 68 0 M0 0 C22.35 0, 44.71 0, 68 0 M68 0 C68 20.62, 68 41.24, 68 67 M68 0 C68 16.6, 68 33.21, 68 67 M68 67 C51.49 67, 34.98 67, 0 67 M68 67 C43.35 67, 18.71 67, 0 67 M0 67 C0 42.08, 0 17.16, 0 0 M0 67 C0 51.08, 0 35.15, 0 0" stroke="#000000" stroke-width="1" fill="none"></path></g><g stroke-linecap="round" transform="translate(117.67493387021614 1148.9104061598823) rotate(0 34 33.5)"><path d="M0 0 C20.78 0, 41.56 0, 68 0 M0 0 C23.6 0, 47.19 0, 68 0 M68 0 C68 23.34, 68 46.68, 68 67 M68 0 C68 25.86, 68 51.71, 68 67 M68 67 C46.52 67, 25.03 67, 0 67 M68 67 C54.26 67, 40.52 67, 0 67 M0 67 C0 41.08, 0 15.16, 0 0 M0 67 C0 53.09, 0 39.19, 0 0" stroke="#000000" stroke-width="1" fill="none"></path></g><g stroke-linecap="round" transform="translate(201.67493387021625 1148.9104061598823) rotate(0 34 33.5)"><path d="M0 0 L68 0 L68 67 L0 67" stroke="none" stroke-width="0" fill="#fa5252"></path><path d="M0 0 C21.26 0, 42.53 0, 68 0 M0 0 C14.75 0, 29.49 0, 68 0 M68 0 C68 24.76, 68 49.53, 68 67 M68 0 C68 22.09, 68 44.19, 68 67 M68 67 C53.07 67, 38.13 67, 0 67 M68 67 C42.16 67, 16.32 67, 0 67 M0 67 C0 47.38, 0 27.75, 0 0 M0 67 C0 45.32, 0 23.63, 0 0" stroke="#000000" stroke-width="1" fill="none"></path></g><g transform="translate(38.67493387021602 1169.9104061598823) rotate(0 29 12.5)"><text x="29" y="18" font-family="Virgil, Segoe UI Emoji" font-size="20px" fill="#000000" text-anchor="middle" style="white-space: pre;" direction="ltr">1</text></g><g transform="translate(122.67493387021614 1169.9104061598823) rotate(0 29 12.5)"><text x="29" y="18" font-family="Virgil, Segoe UI Emoji" font-size="20px" fill="#000000" text-anchor="middle" style="white-space: pre;" direction="ltr">3</text></g><g transform="translate(206.67493387021625 1169.9104061598823) rotate(0 29 12.5)"><text x="29" y="18" font-family="Virgil, Segoe UI Emoji" font-size="20px" fill="#000000" text-anchor="middle" style="white-space: pre;" direction="ltr">2</text></g><g stroke-linecap="round"><g transform="translate(194.3951869562244 1149.0754165755127) rotate(0 0 35)"><path d="M0 0 C0 11.67, 0 58.33, 0 70 M0 0 C0 11.67, 0 58.33, 0 70" stroke="#5c940d" stroke-width="4" fill="none"></path></g></g><g stroke-linecap="round"><g transform="translate(106.31597064207938 1147.3782188549476) rotate(0 0 35)"><path d="M0 0 C0 11.67, 0 58.33, 0 70 M0 0 C0 11.67, 0 58.33, 0 70" stroke="#1864ab" stroke-width="4" fill="none"></path></g></g><g stroke-linecap="round" transform="translate(36.2207304510639 1230.8001961771567) rotate(0 34 33.5)"><path d="M0 0 C15.7 0, 31.39 0, 68 0 M0 0 C14.76 0, 29.52 0, 68 0 M68 0 C68 20.3, 68 40.6, 68 67 M68 0 C68 14.85, 68 29.69, 68 67 M68 67 C44.23 67, 20.47 67, 0 67 M68 67 C42.39 67, 16.78 67, 0 67 M0 67 C0 40.71, 0 14.41, 0 0 M0 67 C0 49.11, 0 31.22, 0 0" stroke="#000000" stroke-width="1" fill="none"></path></g><g stroke-linecap="round" transform="translate(120.22073045106401 1230.8001961771567) rotate(0 34 33.5)"><path d="M0 0 L68 0 L68 67 L0 67" stroke="none" stroke-width="0" fill="#fa5252"></path><path d="M0 0 C14.32 0, 28.65 0, 68 0 M0 0 C16.76 0, 33.52 0, 68 0 M68 0 C68 26.1, 68 52.2, 68 67 M68 0 C68 14.81, 68 29.61, 68 67 M68 67 C43.67 67, 19.34 67, 0 67 M68 67 C41.12 67, 14.23 67, 0 67 M0 67 C0 42.7, 0 18.41, 0 0 M0 67 C0 53, 0 38.99, 0 0" stroke="#000000" stroke-width="1" fill="none"></path></g><g stroke-linecap="round" transform="translate(204.22073045106413 1230.8001961771567) rotate(0 34 33.5)"><path d="M0 0 C20.67 0, 41.33 0, 68 0 M0 0 C22.03 0, 44.06 0, 68 0 M68 0 C68 15.49, 68 30.97, 68 67 M68 0 C68 23.54, 68 47.07, 68 67 M68 67 C49.26 67, 30.53 67, 0 67 M68 67 C43.92 67, 19.84 67, 0 67 M0 67 C0 46.48, 0 25.96, 0 0 M0 67 C0 48.27, 0 29.53, 0 0" stroke="#000000" stroke-width="1" fill="none"></path></g><g transform="translate(41.2207304510639 1251.8001961771567) rotate(0 29 12.5)"><text x="29" y="18" font-family="Virgil, Segoe UI Emoji" font-size="20px" fill="#000000" text-anchor="middle" style="white-space: pre;" direction="ltr">1</text></g><g transform="translate(125.22073045106401 1251.8001961771567) rotate(0 29 12.5)"><text x="29" y="18" font-family="Virgil, Segoe UI Emoji" font-size="20px" fill="#000000" text-anchor="middle" style="white-space: pre;" direction="ltr">2</text></g><g transform="translate(209.22073045106413 1251.8001961771567) rotate(0 29 12.5)"><text x="29" y="18" font-family="Virgil, Segoe UI Emoji" font-size="20px" fill="#000000" text-anchor="middle" style="white-space: pre;" direction="ltr">3</text></g><g stroke-linecap="round"><g transform="translate(675.3497823963279 991.3444018237831) rotate(0 0 35)"><path d="M0 0 C0 11.67, 0 58.33, 0 70 M0 0 C0 11.67, 0 58.33, 0 70" stroke="#5c940d" stroke-width="4" fill="none"></path></g></g><g stroke-linecap="round"><g transform="translate(660.2500680664897 991.3444018237831) rotate(0 0 35)"><path d="M0 0 C0 11.67, 0 58.33, 0 70 M0 0 C0 11.67, 0 58.33, 0 70" stroke="#1864ab" stroke-width="4" fill="none"></path></g></g><g stroke-linecap="round" transform="translate(683.2556804665668 1072.4358546043254) rotate(0 34 33.5)"><path d="M0 0 C25.94 0, 51.87 0, 68 0 M0 0 C20.69 0, 41.38 0, 68 0 M68 0 C68 24.18, 68 48.36, 68 67 M68 0 C68 15.15, 68 30.3, 68 67 M68 67 C42.6 67, 17.2 67, 0 67 M68 67 C51 67, 34.01 67, 0 67 M0 67 C0 51.91, 0 36.83, 0 0 M0 67 C0 48.7, 0 30.4, 0 0" stroke="#000000" stroke-width="1" fill="none"></path></g><g stroke-linecap="round" transform="translate(767.2556804665668 1072.4358546043254) rotate(0 34 33.5)"><path d="M0 0 L68 0 L68 67 L0 67" stroke="none" stroke-width="0" fill="#fa5252"></path><path d="M0 0 C21.9 0, 43.81 0, 68 0 M0 0 C20.67 0, 41.33 0, 68 0 M68 0 C68 17.18, 68 34.36, 68 67 M68 0 C68 13.97, 68 27.95, 68 67 M68 67 C49.35 67, 30.7 67, 0 67 M68 67 C45.5 67, 23 67, 0 67 M0 67 C0 43.01, 0 19.01, 0 0 M0 67 C0 41.07, 0 15.15, 0 0" stroke="#000000" stroke-width="1" fill="none"></path></g><g transform="translate(688.2556804665668 1093.4358546043254) rotate(0 29 12.5)"><text x="29" y="18" font-family="Virgil, Segoe UI Emoji" font-size="20px" fill="#000000" text-anchor="middle" style="white-space: pre;" direction="ltr">6</text></g><g transform="translate(772.2556804665668 1093.4358546043254) rotate(0 29 12.5)"><text x="29" y="18" font-family="Virgil, Segoe UI Emoji" font-size="20px" fill="#000000" text-anchor="middle" style="white-space: pre;" direction="ltr">5</text></g><g stroke-linecap="round"><g transform="translate(760.1100630467448 1072.5939016188572) rotate(0 0 35)"><path d="M0 0 C0 11.67, 0 58.33, 0 70 M0 0 C0 11.67, 0 58.33, 0 70" stroke="#5c940d" stroke-width="4" fill="none"></path></g></g><g stroke-linecap="round"><g transform="translate(660.2500680664897 1070.58774113009) rotate(0 0 34.99999999999994)"><path d="M0 0 C0 11.67, 0 58.33, 0 70 M0 0 C0 11.67, 0 58.33, 0 70" stroke="#1864ab" stroke-width="4" fill="none"></path></g></g><g stroke-linecap="round" transform="translate(683.7572205887585 1151.1776537884407) rotate(0 34 33.5)"><path d="M0 0 L68 0 L68 67 L0 67" stroke="none" stroke-width="0" fill="#fa5252"></path><path d="M0 0 C18.93 0, 37.85 0, 68 0 M0 0 C22.5 0, 44.99 0, 68 0 M68 0 C68 24.42, 68 48.85, 68 67 M68 0 C68 24.11, 68 48.22, 68 67 M68 67 C41.71 67, 15.42 67, 0 67 M68 67 C49.7 67, 31.4 67, 0 67 M0 67 C0 44.95, 0 22.9, 0 0 M0 67 C0 50.5, 0 34.01, 0 0" stroke="#000000" stroke-width="1" fill="none"></path></g><g stroke-linecap="round" transform="translate(767.7572205887585 1151.1776537884407) rotate(0 34 33.5)"><path d="M0 0 C18.77 0, 37.53 0, 68 0 M0 0 C27.01 0, 54.02 0, 68 0 M68 0 C68 26.72, 68 53.44, 68 67 M68 0 C68 19.79, 68 39.58, 68 67 M68 67 C41.24 67, 14.48 67, 0 67 M68 67 C46.91 67, 25.82 67, 0 67 M0 67 C0 46.33, 0 25.65, 0 0 M0 67 C0 42.85, 0 18.7, 0 0" stroke="#000000" stroke-width="1" fill="none"></path></g><g transform="translate(688.7572205887585 1172.1776537884407) rotate(0 29 12.5)"><text x="29" y="18" font-family="Virgil, Segoe UI Emoji" font-size="20px" fill="#000000" text-anchor="middle" style="white-space: pre;" direction="ltr">5</text></g><g transform="translate(772.7572205887585 1172.1776537884407) rotate(0 29 12.5)"><text x="29" y="18" font-family="Virgil, Segoe UI Emoji" font-size="20px" fill="#000000" text-anchor="middle" style="white-space: pre;" direction="ltr">6</text></g><g stroke-linecap="round" transform="translate(201.53105949717826 1440.4644653590756) rotate(0 34 33.5)"><path d="M0 0 C13.64 0, 27.28 0, 68 0 M0 0 C22 0, 44 0, 68 0 M68 0 C68 22.85, 68 45.7, 68 67 M68 0 C68 26.68, 68 53.36, 68 67 M68 67 C44.69 67, 21.38 67, 0 67 M68 67 C53.3 67, 38.6 67, 0 67 M0 67 C0 52.9, 0 38.81, 0 0 M0 67 C0 53.51, 0 40.03, 0 0" stroke="#000000" stroke-width="1" fill="none"></path></g><g stroke-linecap="round" transform="translate(291.1522079073426 1440.4644653590756) rotate(0 34 33.5)"><path d="M0 0 C18.35 0, 36.7 0, 68 0 M0 0 C24.35 0, 48.71 0, 68 0 M68 0 C68 13.87, 68 27.74, 68 67 M68 0 C68 26.19, 68 52.37, 68 67 M68 67 C41.18 67, 14.35 67, 0 67 M68 67 C45.84 67, 23.68 67, 0 67 M0 67 C0 46.43, 0 25.85, 0 0 M0 67 C0 42.11, 0 17.22, 0 0" stroke="#000000" stroke-width="1" fill="none"></path></g><g stroke-linecap="round" transform="translate(380.7733563175069 1440.4644653590756) rotate(0 34 33.5)"><path d="M0 0 C27.17 0, 54.34 0, 68 0 M0 0 C26.75 0, 53.5 0, 68 0 M68 0 C68 24.43, 68 48.85, 68 67 M68 0 C68 21.42, 68 42.84, 68 67 M68 67 C49.34 67, 30.69 67, 0 67 M68 67 C43.58 67, 19.16 67, 0 67 M0 67 C0 41.73, 0 16.47, 0 0 M0 67 C0 40.76, 0 14.53, 0 0" stroke="#000000" stroke-width="1" fill="none"></path></g><g transform="translate(206.53105949717826 1461.4644653590756) rotate(0 29 12.5)"><text x="29" y="18" font-family="Virgil, Segoe UI Emoji" font-size="20px" fill="#000000" text-anchor="middle" style="white-space: pre;" direction="ltr">1</text></g><g transform="translate(296.1522079073426 1461.4644653590756) rotate(0 29 12.5)"><text x="29" y="18" font-family="Virgil, Segoe UI Emoji" font-size="20px" fill="#000000" text-anchor="middle" style="white-space: pre;" direction="ltr">2</text></g><g transform="translate(385.7733563175069 1461.4644653590756) rotate(0 29 12.5)"><text x="29" y="18" font-family="Virgil, Segoe UI Emoji" font-size="20px" fill="#000000" text-anchor="middle" style="white-space: pre;" direction="ltr">3</text></g><g stroke-linecap="round" transform="translate(470.39450472767123 1440.4644653590756) rotate(0 34 33.5)"><path d="M0 0 C22.22 0, 44.43 0, 68 0 M0 0 C24.56 0, 49.11 0, 68 0 M68 0 C68 17.61, 68 35.22, 68 67 M68 0 C68 21.57, 68 43.15, 68 67 M68 67 C46.19 67, 24.39 67, 0 67 M68 67 C50.32 67, 32.64 67, 0 67 M0 67 C0 41.88, 0 16.76, 0 0 M0 67 C0 51.99, 0 36.99, 0 0" stroke="#000000" stroke-width="1" fill="none"></path></g><g transform="translate(475.39450472767123 1461.4644653590756) rotate(0 29 12.5)"><text x="29" y="18" font-family="Virgil, Segoe UI Emoji" font-size="20px" fill="#000000" text-anchor="middle" style="white-space: pre;" direction="ltr">4</text></g><g stroke-linecap="round" transform="translate(560.0156531378356 1440.4644653590756) rotate(0 34 33.5)"><path d="M0 0 C14.3 0, 28.6 0, 68 0 M0 0 C17.75 0, 35.49 0, 68 0 M68 0 C68 26.52, 68 53.03, 68 67 M68 0 C68 18.09, 68 36.19, 68 67 M68 67 C46.11 67, 24.22 67, 0 67 M68 67 C50.03 67, 32.05 67, 0 67 M0 67 C0 50.72, 0 34.44, 0 0 M0 67 C0 49.69, 0 32.37, 0 0" stroke="#000000" stroke-width="1" fill="none"></path></g><g stroke-linecap="round" transform="translate(649.6368015479999 1440.4644653590756) rotate(0 34 33.5)"><path d="M0 0 C18.84 0, 37.67 0, 68 0 M0 0 C16.88 0, 33.77 0, 68 0 M68 0 C68 13.62, 68 27.24, 68 67 M68 0 C68 17.68, 68 35.36, 68 67 M68 67 C41.45 67, 14.89 67, 0 67 M68 67 C53.9 67, 39.8 67, 0 67 M0 67 C0 45.19, 0 23.39, 0 0 M0 67 C0 43.14, 0 19.29, 0 0" stroke="#000000" stroke-width="1" fill="none"></path></g><g transform="translate(565.0156531378356 1461.4644653590756) rotate(0 29 12.5)"><text x="29" y="18" font-family="Virgil, Segoe UI Emoji" font-size="20px" fill="#000000" text-anchor="middle" style="white-space: pre;" direction="ltr">5</text></g><g transform="translate(654.6368015479999 1461.4644653590756) rotate(0 29 12.5)"><text x="29" y="18" font-family="Virgil, Segoe UI Emoji" font-size="20px" fill="#000000" text-anchor="middle" style="white-space: pre;" direction="ltr">6</text></g><g stroke-linecap="round"><g transform="translate(176.03681387095378 1307.8039441330923) rotate(0 14.17184155903135 50.01826432599319)"><path d="M0 0 C4.72 16.67, 23.62 83.36, 28.34 100.04 M0 0 C4.72 16.67, 23.62 83.36, 28.34 100.04" stroke="#000000" stroke-width="4" fill="none"></path></g><g transform="translate(176.03681387095378 1307.8039441330923) rotate(0 14.17184155903135 50.01826432599319)"><path d="M10.79 75.71 C16.26 83.3, 21.74 90.89, 28.34 100.04 M10.79 75.71 C15.72 82.54, 20.65 89.38, 28.34 100.04" stroke="#000000" stroke-width="4" fill="none"></path></g><g transform="translate(176.03681387095378 1307.8039441330923) rotate(0 14.17184155903135 50.01826432599319)"><path d="M30.53 70.12 C29.85 79.45, 29.17 88.78, 28.34 100.04 M30.53 70.12 C29.92 78.52, 29.3 86.93, 28.34 100.04" stroke="#000000" stroke-width="4" fill="none"></path></g></g><g stroke-linecap="round"><g transform="translate(736.2413743220778 1229.4419966890362) rotate(0 -27.51004537929623 81.69649839912233)"><path d="M0 0 C-9.17 27.23, -45.85 136.16, -55.02 163.39 M0 0 C-9.17 27.23, -45.85 136.16, -55.02 163.39" stroke="#000000" stroke-width="4" fill="none"></path></g><g transform="translate(736.2413743220778 1229.4419966890362) rotate(0 -27.51004537929623 81.69649839912233)"><path d="M-55.75 133.4 C-55.51 143.41, -55.26 153.41, -55.02 163.39 M-55.75 133.4 C-55.54 141.83, -55.34 150.27, -55.02 163.39" stroke="#000000" stroke-width="4" fill="none"></path></g><g transform="translate(736.2413743220778 1229.4419966890362) rotate(0 -27.51004537929623 81.69649839912233)"><path d="M-36.3 139.95 C-42.54 147.77, -48.79 155.59, -55.02 163.39 M-36.3 139.95 C-41.56 146.54, -46.83 153.13, -55.02 163.39" stroke="#000000" stroke-width="4" fill="none"></path></g></g><g transform="translate(22.64746993790766 10) rotate(0 422.53018811567983 80.02465684009087)"><text x="0" y="111.04931368018174" font-family="Virgil, Segoe UI Emoji" font-size="128.03945094414541px" fill="#000000" text-anchor="start" style="white-space: pre;" direction="ltr">QUICK SORT</text></g></svg>