<svg version="1.1" xmlns="http://www.w3.org/2000/svg" viewBox="0 0 219.50063752658355 248.50837105588948" width="219.50063752658355" height="248.50837105588948">
  <!-- svg-source:excalidraw -->
  
  <defs>
    <style class="style-fonts">
      @font-face {
        font-family: "Virgil";
        src: url("https://excalidraw.com/Virgil.woff2");
      }
      @font-face {
        font-family: "Cascadia";
        src: url("https://excalidraw.com/Cascadia.woff2");
      }
    </style>
  </defs>
  <g stroke-linecap="round" transform="translate(10.73485170467984 10) rotate(0 27 23.5)"><path d="M0 0 C20.28 0, 40.55 0, 54 0 M0 0 C20.26 0, 40.51 0, 54 0 M54 0 C54 15.19, 54 30.39, 54 47 M54 0 C54 11.26, 54 22.52, 54 47 M54 47 C38.73 47, 23.46 47, 0 47 M54 47 C38.03 47, 22.07 47, 0 47 M0 47 C0 36.02, 0 25.03, 0 0 M0 47 C0 36.02, 0 25.04, 0 0" stroke="#000000" stroke-width="1" fill="none"></path></g><g transform="translate(17.23485170467984 21) rotate(0 20.5 12.5)"><text x="20.5" y="18" font-family="Virgil, Segoe UI Emoji" font-size="20px" fill="#000000" text-anchor="middle" style="white-space: pre;" direction="ltr">543</text></g><g stroke-linecap="round" transform="translate(82.75031876329183 10) rotate(0 27 23.5)"><path d="M0 0 C13.86 0, 27.72 0, 54 0 M0 0 C20.32 0, 40.65 0, 54 0 M54 0 C54 12.45, 54 24.89, 54 47 M54 0 C54 13.02, 54 26.04, 54 47 M54 47 C38.47 47, 22.95 47, 0 47 M54 47 C37.41 47, 20.81 47, 0 47 M0 47 C0 31.38, 0 15.77, 0 0 M0 47 C0 30.04, 0 13.08, 0 0" stroke="#000000" stroke-width="1" fill="none"></path></g><g transform="translate(92.25031876329183 21) rotate(0 17.5 12.5)"><text x="17.5" y="18" font-family="Virgil, Segoe UI Emoji" font-size="20px" fill="#000000" text-anchor="middle" style="white-space: pre;" direction="ltr">321</text></g><g stroke-linecap="round" transform="translate(154.76578582190382 10) rotate(0 26.999999999999943 23.5)"><path d="M0 0 C13.69 0, 27.39 0, 54 0 M0 0 C11.85 0, 23.71 0, 54 0 M54 0 C54 13.73, 54 27.45, 54 47 M54 0 C54 12.34, 54 24.68, 54 47 M54 47 C35 47, 16 47, 0 47 M54 47 C34.73 47, 15.46 47, 0 47 M0 47 C0 33.22, 0 19.44, 0 0 M0 47 C0 29.4, 0 11.8, 0 0" stroke="#000000" stroke-width="1" fill="none"></path></g><g transform="translate(164.76578582190393 21) rotate(0 17 12.5)"><text x="17" y="18" font-family="Virgil, Segoe UI Emoji" font-size="20px" fill="#000000" text-anchor="middle" style="white-space: pre;" direction="ltr">777</text></g><g stroke-linecap="round"><g transform="translate(42.33347500590776 43.663083247161865) rotate(0 8.083368751476826 0)"><path d="M0 0 C2.69 0, 13.47 0, 16.17 0 M0 0 C2.69 0, 13.47 0, 16.17 0" stroke="#000000" stroke-width="1" fill="none"></path></g></g><g stroke-linecap="round"><g transform="translate(120.96260740663718 42.928231542482195) rotate(0 3.3068326710587144 0)"><path d="M0 0 C1.1 0, 5.51 0, 6.61 0 M0 0 C1.1 0, 5.51 0, 6.61 0" stroke="#000000" stroke-width="1" fill="none"></path></g></g><g stroke-linecap="round"><g transform="translate(187.09926082781146 41.45852813312274) rotate(0 5.878813637437702 0)"><path d="M0 0 C1.96 0, 9.8 0, 11.76 0 M0 0 C1.96 0, 9.8 0, 11.76 0" stroke="#000000" stroke-width="1" fill="none"></path></g></g><g stroke-linecap="round" transform="translate(82.75031876329183 69.52298807905686) rotate(0 27 23.5)"><path d="M0 0 C19.92 0, 39.85 0, 54 0 M0 0 C19.27 0, 38.54 0, 54 0 M54 0 C54 15.02, 54 30.04, 54 47 M54 0 C54 15.48, 54 30.95, 54 47 M54 47 C38.31 47, 22.62 47, 0 47 M54 47 C42.83 47, 31.66 47, 0 47 M0 47 C0 36.33, 0 25.67, 0 0 M0 47 C0 30.76, 0 14.52, 0 0" stroke="#000000" stroke-width="1" fill="none"></path></g><g transform="translate(89.25031876329183 80.52298807905686) rotate(0 20.5 12.5)"><text x="20.5" y="18" font-family="Virgil, Segoe UI Emoji" font-size="20px" fill="#000000" text-anchor="middle" style="white-space: pre;" direction="ltr">543</text></g><g stroke-linecap="round" transform="translate(10 69.52298807905686) rotate(0 27 23.5)"><path d="M0 0 C18.97 0, 37.94 0, 54 0 M0 0 C15.2 0, 30.4 0, 54 0 M54 0 C54 14.33, 54 28.65, 54 47 M54 0 C54 14.63, 54 29.25, 54 47 M54 47 C37.23 47, 20.46 47, 0 47 M54 47 C35.5 47, 17.01 47, 0 47 M0 47 C0 29.79, 0 12.58, 0 0 M0 47 C0 32.42, 0 17.85, 0 0" stroke="#000000" stroke-width="1" fill="none"></path></g><g transform="translate(19.5 80.52298807905686) rotate(0 17.5 12.5)"><text x="17.5" y="18" font-family="Virgil, Segoe UI Emoji" font-size="20px" fill="#000000" text-anchor="middle" style="white-space: pre;" direction="ltr">321</text></g><g stroke-linecap="round" transform="translate(154.0309341172241 69.52298807905686) rotate(0 27 23.5)"><path d="M0 0 C15.33 0, 30.66 0, 54 0 M0 0 C20.68 0, 41.36 0, 54 0 M54 0 C54 9.81, 54 19.62, 54 47 M54 0 C54 14.23, 54 28.46, 54 47 M54 47 C33.94 47, 13.88 47, 0 47 M54 47 C34.86 47, 15.73 47, 0 47 M0 47 C0 35.37, 0 23.73, 0 0 M0 47 C0 36.39, 0 25.77, 0 0" stroke="#000000" stroke-width="1" fill="none"></path></g><g transform="translate(164.0309341172242 80.52298807905686) rotate(0 17.000000000000057 12.5)"><text x="17" y="18" font-family="Virgil, Segoe UI Emoji" font-size="20px" fill="#000000" text-anchor="middle" style="white-space: pre;" direction="ltr">777</text></g><g stroke-linecap="round"><g transform="translate(102.59131478964423 102.45121962153905) rotate(0 8.083368751476826 0)"><path d="M0 0 C2.69 0, 13.47 0, 16.17 0 M0 0 C2.69 0, 13.47 0, 16.17 0" stroke="#000000" stroke-width="1" fill="none"></path></g></g><g stroke-linecap="round"><g transform="translate(37.92436477782928 102.45121962153905) rotate(0 3.3068326710587144 0)"><path d="M0 0 C1.1 0, 5.51 0, 6.61 0 M0 0 C1.1 0, 5.51 0, 6.61 0" stroke="#000000" stroke-width="1" fill="none"></path></g></g><g stroke-linecap="round"><g transform="translate(176.0764852576159 102.45121962153905) rotate(0 5.878813637437702 0)"><path d="M0 0 C1.96 0, 9.8 0, 11.76 0 M0 0 C1.96 0, 9.8 0, 11.76 0" stroke="#000000" stroke-width="1" fill="none"></path></g></g><g stroke-linecap="round" transform="translate(83.48517046797167 127.57627274875432) rotate(0 27 23.5)"><path d="M0 0 C10.93 0, 21.86 0, 54 0 M0 0 C20.01 0, 40.02 0, 54 0 M54 0 C54 16.66, 54 33.33, 54 47 M54 0 C54 16.07, 54 32.14, 54 47 M54 47 C37.41 47, 20.82 47, 0 47 M54 47 C33.64 47, 13.28 47, 0 47 M0 47 C0 29.91, 0 12.81, 0 0 M0 47 C0 31.64, 0 16.28, 0 0" stroke="#000000" stroke-width="1" fill="none"></path></g><g transform="translate(89.98517046797167 138.57627274875432) rotate(0 20.5 12.5)"><text x="20.5" y="18" font-family="Virgil, Segoe UI Emoji" font-size="20px" fill="#000000" text-anchor="middle" style="white-space: pre;" direction="ltr">543</text></g><g stroke-linecap="round" transform="translate(10.73485170467984 127.57627274875432) rotate(0 27 23.5)"><path d="M0 0 C13.39 0, 26.79 0, 54 0 M0 0 C11.73 0, 23.45 0, 54 0 M54 0 C54 11.96, 54 23.92, 54 47 M54 0 C54 13.17, 54 26.34, 54 47 M54 47 C38.49 47, 22.97 47, 0 47 M54 47 C36.28 47, 18.55 47, 0 47 M0 47 C0 29.84, 0 12.68, 0 0 M0 47 C0 31.59, 0 16.17, 0 0" stroke="#000000" stroke-width="1" fill="none"></path></g><g transform="translate(20.23485170467984 138.57627274875432) rotate(0 17.5 12.5)"><text x="17.5" y="18" font-family="Virgil, Segoe UI Emoji" font-size="20px" fill="#000000" text-anchor="middle" style="white-space: pre;" direction="ltr">321</text></g><g stroke-linecap="round" transform="translate(154.76578582190393 127.57627274875432) rotate(0 27 23.5)"><path d="M0 0 C11.93 0, 23.87 0, 54 0 M0 0 C21.43 0, 42.86 0, 54 0 M54 0 C54 13.04, 54 26.08, 54 47 M54 0 C54 12.67, 54 25.34, 54 47 M54 47 C36.98 47, 19.97 47, 0 47 M54 47 C37.43 47, 20.86 47, 0 47 M0 47 C0 33.24, 0 19.47, 0 0 M0 47 C0 29.76, 0 12.52, 0 0" stroke="#000000" stroke-width="1" fill="none"></path></g><g transform="translate(164.76578582190405 138.57627274875432) rotate(0 17.000000000000057 12.5)"><text x="17" y="18" font-family="Virgil, Segoe UI Emoji" font-size="20px" fill="#000000" text-anchor="middle" style="white-space: pre;" direction="ltr">777</text></g><g stroke-linecap="round"><g transform="translate(90.09883581008921 160.50450429123651) rotate(0 8.083368751476826 0)"><path d="M0 0 C2.69 0, 13.47 0, 16.17 0 M0 0 C2.69 0, 13.47 0, 16.17 0" stroke="#000000" stroke-width="1" fill="none"></path></g></g><g stroke-linecap="round"><g transform="translate(23.962182388914812 161.23935599591624) rotate(0 3.3068326710587144 0)"><path d="M0 0 C1.1 0, 5.51 0, 6.61 0 M0 0 C1.1 0, 5.51 0, 6.61 0" stroke="#000000" stroke-width="1" fill="none"></path></g></g><g stroke-linecap="round"><g transform="translate(164.3188579827405 161.23935599591624) rotate(0 5.878813637437702 0)"><path d="M0 0 C1.96 0, 9.8 0, 11.76 0 M0 0 C1.96 0, 9.8 0, 11.76 0" stroke="#000000" stroke-width="1" fill="none"></path></g></g><g stroke-linecap="round" transform="translate(84.22002217265128 191.50837105588948) rotate(0 27 23.5)"><path d="M0 0 C13.48 0, 26.97 0, 54 0 M0 0 C12.56 0, 25.12 0, 54 0 M54 0 C54 12.69, 54 25.37, 54 47 M54 0 C54 11.8, 54 23.6, 54 47 M54 47 C38.33 47, 22.66 47, 0 47 M54 47 C42.33 47, 30.67 47, 0 47 M0 47 C0 34.29, 0 21.57, 0 0 M0 47 C0 31.46, 0 15.92, 0 0" stroke="#000000" stroke-width="1" fill="none"></path></g><g transform="translate(90.72002217265128 202.50837105588948) rotate(0 20.5 12.5)"><text x="20.5" y="18" font-family="Virgil, Segoe UI Emoji" font-size="20px" fill="#000000" text-anchor="middle" style="white-space: pre;" direction="ltr">543</text></g><g stroke-linecap="round" transform="translate(11.469703409359454 191.50837105588948) rotate(0 27 23.5)"><path d="M0 0 C14.18 0, 28.36 0, 54 0 M0 0 C21.44 0, 42.88 0, 54 0 M54 0 C54 11.54, 54 23.09, 54 47 M54 0 C54 18.2, 54 36.41, 54 47 M54 47 C38.98 47, 23.95 47, 0 47 M54 47 C38 47, 22.01 47, 0 47 M0 47 C0 37.19, 0 27.39, 0 0 M0 47 C0 34.04, 0 21.07, 0 0" stroke="#000000" stroke-width="1" fill="none"></path></g><g transform="translate(20.969703409359454 202.50837105588948) rotate(0 17.5 12.5)"><text x="17.5" y="18" font-family="Virgil, Segoe UI Emoji" font-size="20px" fill="#000000" text-anchor="middle" style="white-space: pre;" direction="ltr">321</text></g><g stroke-linecap="round" transform="translate(155.50063752658355 191.50837105588948) rotate(0 27 23.5)"><path d="M0 0 C11.71 0, 23.42 0, 54 0 M0 0 C12.47 0, 24.95 0, 54 0 M54 0 C54 12.52, 54 25.04, 54 47 M54 0 C54 10.2, 54 20.4, 54 47 M54 47 C40.54 47, 27.08 47, 0 47 M54 47 C34.83 47, 15.66 47, 0 47 M0 47 C0 31.73, 0 16.47, 0 0 M0 47 C0 29.59, 0 12.18, 0 0" stroke="#000000" stroke-width="1" fill="none"></path></g><g transform="translate(165.50063752658366 202.50837105588948) rotate(0 16.999999999999943 12.5)"><text x="17" y="18" font-family="Virgil, Segoe UI Emoji" font-size="20px" fill="#000000" text-anchor="middle" style="white-space: pre;" direction="ltr">777</text></g></svg>