<svg version="1.1" xmlns="http://www.w3.org/2000/svg" viewBox="0 0 463.25849079900036 542.2323630276118" width="463.25849079900036" height="542.2323630276118">
  <!-- svg-source:excalidraw -->
  
  <defs>
    <style>
      @font-face {
        font-family: "Virgil";
        src: url("https://excalidraw.com/Virgil.woff2");
      }
      @font-face {
        font-family: "Cascadia";
        src: url("https://excalidraw.com/Cascadia.woff2");
      }
    </style>
  </defs>
  <rect x="0" y="0" width="463.25849079900036" height="542.2323630276118" fill="#ffffff"></rect><g stroke-linecap="round" transform="translate(10 10) rotate(0 45.73289361759271 45.73289361759271)"><path d="M0 0 L91.47 0 L91.47 91.47 L0 91.47" stroke="none" stroke-width="0" fill="#82c91e"></path><path d="M0 0 C32.88 0, 65.75 0, 91.47 0 M0 0 C33.29 0, 66.58 0, 91.47 0 M91.47 0 C91.47 28.98, 91.47 57.95, 91.47 91.47 M91.47 0 C91.47 35.54, 91.47 71.09, 91.47 91.47 M91.47 91.47 C70.61 91.47, 49.75 91.47, 0 91.47 M91.47 91.47 C65.32 91.47, 39.16 91.47, 0 91.47 M0 91.47 C0 61.63, 0 31.79, 0 0 M0 91.47 C0 55.37, 0 19.28, 0 0" stroke="#000000" stroke-width="1" fill="none"></path></g><g stroke-linecap="round" transform="translate(124.87108687798036 10) rotate(0 45.73289361759271 45.73289361759271)"><path d="M0 0 C18.93 0, 37.86 0, 91.47 0 M0 0 C29.08 0, 58.17 0, 91.47 0 M91.47 0 C91.47 32.06, 91.47 64.13, 91.47 91.47 M91.47 0 C91.47 30.46, 91.47 60.92, 91.47 91.47 M91.47 91.47 C62.46 91.47, 33.46 91.47, 0 91.47 M91.47 91.47 C56.12 91.47, 20.77 91.47, 0 91.47 M0 91.47 C0 69.85, 0 48.23, 0 0 M0 91.47 C0 68.08, 0 44.69, 0 0" stroke="#000000" stroke-width="1" fill="none"></path></g><g stroke-linecap="round" transform="translate(242.135321399252 10) rotate(0 45.73289361759271 45.73289361759271)"><path d="M0 0 C22.75 0, 45.49 0, 91.47 0 M0 0 C33.14 0, 66.29 0, 91.47 0 M91.47 0 C91.47 18.83, 91.47 37.66, 91.47 91.47 M91.47 0 C91.47 21.46, 91.47 42.93, 91.47 91.47 M91.47 91.47 C56.37 91.47, 21.27 91.47, 0 91.47 M91.47 91.47 C57.45 91.47, 23.44 91.47, 0 91.47 M0 91.47 C0 55.91, 0 20.36, 0 0 M0 91.47 C0 60.02, 0 28.58, 0 0" stroke="#000000" stroke-width="1" fill="none"></path></g><g stroke-linecap="round" transform="translate(355.8098344555867 10) rotate(0 45.73289361759271 45.73289361759271)"><path d="M0 0 C29.75 0, 59.5 0, 91.47 0 M0 0 C31.46 0, 62.93 0, 91.47 0 M91.47 0 C91.47 35.41, 91.47 70.83, 91.47 91.47 M91.47 0 C91.47 19.79, 91.47 39.57, 91.47 91.47 M91.47 91.47 C70.88 91.47, 50.29 91.47, 0 91.47 M91.47 91.47 C68.43 91.47, 45.4 91.47, 0 91.47 M0 91.47 C0 65.46, 0 39.46, 0 0 M0 91.47 C0 56.47, 0 21.48, 0 0" stroke="#000000" stroke-width="1" fill="none"></path></g><g transform="translate(15 33.23289361759271) rotate(0 40.5 22.5)"><text x="40.5" y="32" font-family="Virgil, Segoe UI Emoji" font-size="36px" fill="#000000" text-anchor="middle" style="white-space: pre;" direction="ltr">10</text></g><g transform="translate(129.87108687798036 33.23289361759271) rotate(0 40.5 22.5)"><text x="40.5" y="32" font-family="Virgil, Segoe UI Emoji" font-size="36px" fill="#000000" text-anchor="middle" style="white-space: pre;" direction="ltr">8</text></g><g transform="translate(247.135321399252 33.23289361759271) rotate(0 40.5 22.5)"><text x="40.5" y="32" font-family="Virgil, Segoe UI Emoji" font-size="36px" fill="#000000" text-anchor="middle" style="white-space: pre;" direction="ltr">7</text></g><g transform="translate(360.8098344555867 33.23289361759271) rotate(0 40.5 22.5)"><text x="40.5" y="32" font-family="Virgil, Segoe UI Emoji" font-size="36px" fill="#000000" text-anchor="middle" style="white-space: pre;" direction="ltr">6</text></g><g stroke-linecap="round" transform="translate(11.196573821645643 120.08479159139785) rotate(0 45.73289361759271 45.73289361759271)"><path d="M0 0 C32.86 0, 65.72 0, 91.47 0 M0 0 C23.93 0, 47.85 0, 91.47 0 M91.47 0 C91.47 33.96, 91.47 67.93, 91.47 91.47 M91.47 0 C91.47 19.67, 91.47 39.35, 91.47 91.47 M91.47 91.47 C69.6 91.47, 47.72 91.47, 0 91.47 M91.47 91.47 C62.94 91.47, 34.41 91.47, 0 91.47 M0 91.47 C0 60.68, 0 29.89, 0 0 M0 91.47 C0 56.39, 0 21.31, 0 0" stroke="#000000" stroke-width="1" fill="none"></path></g><g stroke-linecap="round" transform="translate(126.067660699626 120.08479159139785) rotate(0 45.73289361759271 45.73289361759271)"><path d="M0 0 L91.47 0 L91.47 91.47 L0 91.47" stroke="none" stroke-width="0" fill="#82c91e"></path><path d="M0 0 C28.08 0, 56.17 0, 91.47 0 M0 0 C32.27 0, 64.53 0, 91.47 0 M91.47 0 C91.47 23.36, 91.47 46.72, 91.47 91.47 M91.47 0 C91.47 24.01, 91.47 48.02, 91.47 91.47 M91.47 91.47 C63.4 91.47, 35.34 91.47, 0 91.47 M91.47 91.47 C65.11 91.47, 38.76 91.47, 0 91.47 M0 91.47 C0 64.57, 0 37.67, 0 0 M0 91.47 C0 68.62, 0 45.76, 0 0" stroke="#000000" stroke-width="1" fill="none"></path></g><g stroke-linecap="round" transform="translate(243.33189522089765 120.08479159139785) rotate(0 45.73289361759271 45.73289361759271)"><path d="M0 0 C34.32 0, 68.65 0, 91.47 0 M0 0 C27.93 0, 55.87 0, 91.47 0 M91.47 0 C91.47 28.48, 91.47 56.96, 91.47 91.47 M91.47 0 C91.47 34.73, 91.47 69.45, 91.47 91.47 M91.47 91.47 C57.03 91.47, 22.6 91.47, 0 91.47 M91.47 91.47 C64.3 91.47, 37.13 91.47, 0 91.47 M0 91.47 C0 69.11, 0 46.75, 0 0 M0 91.47 C0 63.15, 0 34.84, 0 0" stroke="#000000" stroke-width="1" fill="none"></path></g><g stroke-linecap="round" transform="translate(357.00640827723237 120.08479159139785) rotate(0 45.73289361759271 45.73289361759271)"><path d="M0 0 C23.64 0, 47.29 0, 91.47 0 M0 0 C35.81 0, 71.62 0, 91.47 0 M91.47 0 C91.47 24.56, 91.47 49.11, 91.47 91.47 M91.47 0 C91.47 31.03, 91.47 62.06, 91.47 91.47 M91.47 91.47 C64.29 91.47, 37.11 91.47, 0 91.47 M91.47 91.47 C55.8 91.47, 20.13 91.47, 0 91.47 M0 91.47 C0 58.24, 0 25.02, 0 0 M0 91.47 C0 56.48, 0 21.49, 0 0" stroke="#000000" stroke-width="1" fill="none"></path></g><g transform="translate(16.196573821645643 143.31768520899055) rotate(0 40.5 22.5)"><text x="40.5" y="32" font-family="Virgil, Segoe UI Emoji" font-size="36px" fill="#000000" text-anchor="middle" style="white-space: pre;" direction="ltr">10</text></g><g transform="translate(131.067660699626 143.31768520899055) rotate(0 40.5 22.5)"><text x="40.5" y="32" font-family="Virgil, Segoe UI Emoji" font-size="36px" fill="#000000" text-anchor="middle" style="white-space: pre;" direction="ltr">8</text></g><g transform="translate(248.33189522089765 143.31768520899055) rotate(0 40.5 22.5)"><text x="40.5" y="32" font-family="Virgil, Segoe UI Emoji" font-size="36px" fill="#000000" text-anchor="middle" style="white-space: pre;" direction="ltr">7</text></g><g transform="translate(362.00640827723237 143.31768520899055) rotate(0 40.5 22.5)"><text x="40.5" y="32" font-family="Virgil, Segoe UI Emoji" font-size="36px" fill="#000000" text-anchor="middle" style="white-space: pre;" direction="ltr">6</text></g><g stroke-linecap="round" transform="translate(12.393147643291286 225.38328789621318) rotate(0 45.73289361759271 45.73289361759271)"><path d="M0 0 C35.2 0, 70.41 0, 91.47 0 M0 0 C31.75 0, 63.5 0, 91.47 0 M91.47 0 C91.47 20.25, 91.47 40.51, 91.47 91.47 M91.47 0 C91.47 28.84, 91.47 57.68, 91.47 91.47 M91.47 91.47 C59.82 91.47, 28.18 91.47, 0 91.47 M91.47 91.47 C68.78 91.47, 46.09 91.47, 0 91.47 M0 91.47 C0 67.97, 0 44.47, 0 0 M0 91.47 C0 72.34, 0 53.22, 0 0" stroke="#000000" stroke-width="1" fill="none"></path></g><g stroke-linecap="round" transform="translate(127.26423452127165 225.38328789621318) rotate(0 45.73289361759271 45.73289361759271)"><path d="M0 0 C24.94 0, 49.87 0, 91.47 0 M0 0 C24.22 0, 48.45 0, 91.47 0 M91.47 0 C91.47 30.95, 91.47 61.91, 91.47 91.47 M91.47 0 C91.47 22.69, 91.47 45.38, 91.47 91.47 M91.47 91.47 C56.27 91.47, 21.08 91.47, 0 91.47 M91.47 91.47 C62.86 91.47, 34.25 91.47, 0 91.47 M0 91.47 C0 64.22, 0 36.97, 0 0 M0 91.47 C0 60.43, 0 29.4, 0 0" stroke="#000000" stroke-width="1" fill="none"></path></g><g stroke-linecap="round" transform="translate(244.5284690425433 225.38328789621318) rotate(0 45.73289361759271 45.73289361759271)"><path d="M0 0 L91.47 0 L91.47 91.47 L0 91.47" stroke="none" stroke-width="0" fill="#82c91e"></path><path d="M0 0 C28.84 0, 57.67 0, 91.47 0 M0 0 C31.19 0, 62.39 0, 91.47 0 M91.47 0 C91.47 36.45, 91.47 72.89, 91.47 91.47 M91.47 0 C91.47 29.75, 91.47 59.5, 91.47 91.47 M91.47 91.47 C58.75 91.47, 26.04 91.47, 0 91.47 M91.47 91.47 C62.5 91.47, 33.53 91.47, 0 91.47 M0 91.47 C0 57.52, 0 23.57, 0 0 M0 91.47 C0 72.79, 0 54.11, 0 0" stroke="#000000" stroke-width="1" fill="none"></path></g><g stroke-linecap="round" transform="translate(358.202982098878 225.38328789621318) rotate(0 45.73289361759271 45.73289361759271)"><path d="M0 0 C32.26 0, 64.52 0, 91.47 0 M0 0 C25.2 0, 50.41 0, 91.47 0 M91.47 0 C91.47 34.54, 91.47 69.08, 91.47 91.47 M91.47 0 C91.47 31.08, 91.47 62.17, 91.47 91.47 M91.47 91.47 C65.82 91.47, 40.17 91.47, 0 91.47 M91.47 91.47 C69.13 91.47, 46.8 91.47, 0 91.47 M0 91.47 C0 67.99, 0 44.51, 0 0 M0 91.47 C0 61.3, 0 31.13, 0 0" stroke="#000000" stroke-width="1" fill="none"></path></g><g transform="translate(17.393147643291286 248.61618151380588) rotate(0 40.5 22.5)"><text x="40.5" y="32" font-family="Virgil, Segoe UI Emoji" font-size="36px" fill="#000000" text-anchor="middle" style="white-space: pre;" direction="ltr">10</text></g><g transform="translate(132.26423452127165 248.61618151380588) rotate(0 40.5 22.5)"><text x="40.5" y="32" font-family="Virgil, Segoe UI Emoji" font-size="36px" fill="#000000" text-anchor="middle" style="white-space: pre;" direction="ltr">8</text></g><g transform="translate(249.5284690425433 248.61618151380588) rotate(0 40.5 22.5)"><text x="40.5" y="32" font-family="Virgil, Segoe UI Emoji" font-size="36px" fill="#000000" text-anchor="middle" style="white-space: pre;" direction="ltr">7</text></g><g transform="translate(363.202982098878 248.61618151380588) rotate(0 40.5 22.5)"><text x="40.5" y="32" font-family="Virgil, Segoe UI Emoji" font-size="36px" fill="#000000" text-anchor="middle" style="white-space: pre;" direction="ltr">6</text></g><g stroke-linecap="round" transform="translate(15.982869108228215 440.76657579242635) rotate(0 45.73289361759271 45.73289361759271)"><path d="M0 0 C26.84 0, 53.69 0, 91.47 0 M0 0 C20.29 0, 40.57 0, 91.47 0 M91.47 0 C91.47 23.09, 91.47 46.18, 91.47 91.47 M91.47 0 C91.47 35.3, 91.47 70.59, 91.47 91.47 M91.47 91.47 C66.6 91.47, 41.73 91.47, 0 91.47 M91.47 91.47 C58.01 91.47, 24.54 91.47, 0 91.47 M0 91.47 C0 69.16, 0 46.86, 0 0 M0 91.47 C0 71.59, 0 51.72, 0 0" stroke="#000000" stroke-width="1" fill="none"></path></g><g stroke-linecap="round" transform="translate(130.85395598620858 440.76657579242635) rotate(0 45.73289361759271 45.73289361759271)"><path d="M0 0 C21.81 0, 43.62 0, 91.47 0 M0 0 C25.29 0, 50.58 0, 91.47 0 M91.47 0 C91.47 35.25, 91.47 70.49, 91.47 91.47 M91.47 0 C91.47 19.26, 91.47 38.53, 91.47 91.47 M91.47 91.47 C58.75 91.47, 26.04 91.47, 0 91.47 M91.47 91.47 C55.31 91.47, 19.16 91.47, 0 91.47 M0 91.47 C0 57.69, 0 23.92, 0 0 M0 91.47 C0 60.85, 0 30.24, 0 0" stroke="#000000" stroke-width="1" fill="none"></path></g><g stroke-linecap="round" transform="translate(248.11819050748022 440.76657579242635) rotate(0 45.73289361759271 45.73289361759271)"><path d="M0 0 C34.27 0, 68.53 0, 91.47 0 M0 0 C34.4 0, 68.81 0, 91.47 0 M91.47 0 C91.47 29.3, 91.47 58.59, 91.47 91.47 M91.47 0 C91.47 30.84, 91.47 61.67, 91.47 91.47 M91.47 91.47 C56.33 91.47, 21.19 91.47, 0 91.47 M91.47 91.47 C57.95 91.47, 24.42 91.47, 0 91.47 M0 91.47 C0 72.71, 0 53.96, 0 0 M0 91.47 C0 67.34, 0 43.21, 0 0" stroke="#000000" stroke-width="1" fill="none"></path></g><g stroke-linecap="round" transform="translate(361.79270356381494 440.76657579242635) rotate(0 45.73289361759271 45.73289361759271)"><path d="M0 0 C21.28 0, 42.55 0, 91.47 0 M0 0 C36.54 0, 73.08 0, 91.47 0 M91.47 0 C91.47 23.68, 91.47 47.37, 91.47 91.47 M91.47 0 C91.47 28, 91.47 55.99, 91.47 91.47 M91.47 91.47 C60.97 91.47, 30.46 91.47, 0 91.47 M91.47 91.47 C71.11 91.47, 50.76 91.47, 0 91.47 M0 91.47 C0 61.93, 0 32.39, 0 0 M0 91.47 C0 55.72, 0 19.98, 0 0" stroke="#000000" stroke-width="1" fill="none"></path></g><g transform="translate(20.982869108228215 463.99946941001906) rotate(0 40.5 22.5)"><text x="40.5" y="32" font-family="Virgil, Segoe UI Emoji" font-size="36px" fill="#000000" text-anchor="middle" style="white-space: pre;" direction="ltr">6</text></g><g transform="translate(135.85395598620858 463.99946941001906) rotate(0 40.5 22.5)"><text x="40.5" y="32" font-family="Virgil, Segoe UI Emoji" font-size="36px" fill="#000000" text-anchor="middle" style="white-space: pre;" direction="ltr">8</text></g><g transform="translate(253.11819050748022 463.99946941001906) rotate(0 40.5 22.5)"><text x="40.5" y="32" font-family="Virgil, Segoe UI Emoji" font-size="36px" fill="#000000" text-anchor="middle" style="white-space: pre;" direction="ltr">7</text></g><g transform="translate(366.79270356381494 463.99946941001906) rotate(0 40.5 22.5)"><text x="40.5" y="32" font-family="Virgil, Segoe UI Emoji" font-size="36px" fill="#000000" text-anchor="middle" style="white-space: pre;" direction="ltr">10</text></g><g stroke-linecap="round" transform="translate(13.589721464936929 330.6817842010285) rotate(0 45.73289361759271 45.73289361759271)"><path d="M0 0 C29.99 0, 59.97 0, 91.47 0 M0 0 C21.72 0, 43.43 0, 91.47 0 M91.47 0 C91.47 22.42, 91.47 44.84, 91.47 91.47 M91.47 0 C91.47 20.03, 91.47 40.06, 91.47 91.47 M91.47 91.47 C69.41 91.47, 47.36 91.47, 0 91.47 M91.47 91.47 C72.81 91.47, 54.15 91.47, 0 91.47 M0 91.47 C0 56.72, 0 21.97, 0 0 M0 91.47 C0 69.45, 0 47.44, 0 0" stroke="#000000" stroke-width="1" fill="none"></path></g><g stroke-linecap="round" transform="translate(128.4608083429173 330.6817842010285) rotate(0 45.73289361759271 45.73289361759271)"><path d="M0 0 C29.95 0, 59.89 0, 91.47 0 M0 0 C29.75 0, 59.51 0, 91.47 0 M91.47 0 C91.47 18.31, 91.47 36.62, 91.47 91.47 M91.47 0 C91.47 18.9, 91.47 37.81, 91.47 91.47 M91.47 91.47 C70.72 91.47, 49.96 91.47, 0 91.47 M91.47 91.47 C69.38 91.47, 47.29 91.47, 0 91.47 M0 91.47 C0 56.89, 0 22.31, 0 0 M0 91.47 C0 66.25, 0 41.04, 0 0" stroke="#000000" stroke-width="1" fill="none"></path></g><g stroke-linecap="round" transform="translate(245.72504286418894 330.6817842010285) rotate(0 45.73289361759271 45.73289361759271)"><path d="M0 0 C30.59 0, 61.18 0, 91.47 0 M0 0 C33.72 0, 67.44 0, 91.47 0 M91.47 0 C91.47 28.18, 91.47 56.36, 91.47 91.47 M91.47 0 C91.47 22.46, 91.47 44.92, 91.47 91.47 M91.47 91.47 C69.03 91.47, 46.59 91.47, 0 91.47 M91.47 91.47 C62.03 91.47, 32.59 91.47, 0 91.47 M0 91.47 C0 55.79, 0 20.12, 0 0 M0 91.47 C0 57.57, 0 23.66, 0 0" stroke="#000000" stroke-width="1" fill="none"></path></g><g stroke-linecap="round" transform="translate(359.39955592052365 330.6817842010285) rotate(0 45.73289361759271 45.73289361759271)"><path d="M0 0 L91.47 0 L91.47 91.47 L0 91.47" stroke="none" stroke-width="0" fill="#82c91e"></path><path d="M0 0 C26.36 0, 52.73 0, 91.47 0 M0 0 C31.04 0, 62.09 0, 91.47 0 M91.47 0 C91.47 18.54, 91.47 37.07, 91.47 91.47 M91.47 0 C91.47 32.49, 91.47 64.99, 91.47 91.47 M91.47 91.47 C71.21 91.47, 50.96 91.47, 0 91.47 M91.47 91.47 C56.71 91.47, 21.96 91.47, 0 91.47 M0 91.47 C0 61.79, 0 32.11, 0 0 M0 91.47 C0 71.3, 0 51.13, 0 0" stroke="#000000" stroke-width="1" fill="none"></path></g><g transform="translate(18.58972146493693 353.9146778186212) rotate(0 40.5 22.5)"><text x="40.5" y="32" font-family="Virgil, Segoe UI Emoji" font-size="36px" fill="#000000" text-anchor="middle" style="white-space: pre;" direction="ltr">10</text></g><g transform="translate(133.4608083429173 353.9146778186212) rotate(0 40.5 22.5)"><text x="40.5" y="32" font-family="Virgil, Segoe UI Emoji" font-size="36px" fill="#000000" text-anchor="middle" style="white-space: pre;" direction="ltr">8</text></g><g transform="translate(250.72504286418894 353.9146778186212) rotate(0 40.5 22.5)"><text x="40.5" y="32" font-family="Virgil, Segoe UI Emoji" font-size="36px" fill="#000000" text-anchor="middle" style="white-space: pre;" direction="ltr">7</text></g><g transform="translate(364.39955592052365 353.9146778186212) rotate(0 40.5 22.5)"><text x="40.5" y="32" font-family="Virgil, Segoe UI Emoji" font-size="36px" fill="#000000" text-anchor="middle" style="white-space: pre;" direction="ltr">6</text></g></svg>