<svg version="1.1" xmlns="http://www.w3.org/2000/svg" viewBox="0 0 1060.0498205967526 596.5265763814778" width="1060.0498205967526" height="596.5265763814778">
  <!-- svg-source:excalidraw -->
  
  <defs>
    <style>
      @font-face {
        font-family: "Virgil";
        src: url("https://excalidraw.com/Virgil.woff2");
      }
      @font-face {
        font-family: "Cascadia";
        src: url("https://excalidraw.com/Cascadia.woff2");
      }
    </style>
  </defs>
  <rect x="0" y="0" width="1060.0498205967526" height="596.5265763814778" fill="#ffffff"></rect><g stroke-linecap="round" transform="translate(10 152.14221930091878) rotate(0 45.73289361759271 45.73289361759271)"><path d="M0 0 L91.47 0 L91.47 91.47 L0 91.47" stroke="none" stroke-width="0" fill="#82c91e"></path><path d="M0 0 C33.41 0, 66.82 0, 91.47 0 M0 0 C20.95 0, 41.9 0, 91.47 0 M91.47 0 C91.47 35.07, 91.47 70.15, 91.47 91.47 M91.47 0 C91.47 20.81, 91.47 41.62, 91.47 91.47 M91.47 91.47 C69.9 91.47, 48.33 91.47, 0 91.47 M91.47 91.47 C66.66 91.47, 41.86 91.47, 0 91.47 M0 91.47 C0 57.68, 0 23.9, 0 0 M0 91.47 C0 65.61, 0 39.76, 0 0" stroke="#000000" stroke-width="1" fill="none"></path></g><g stroke-linecap="round" transform="translate(121.02109483946606 150.8751129185115) rotate(0 46 47)"><path d="M0 0 L92 0 L92 94 L0 94" stroke="none" stroke-width="0" fill="#fab005"></path><path d="M0 0 C26.81 0, 53.62 0, 92 0 M0 0 C33.92 0, 67.84 0, 92 0 M92 0 C92 34.72, 92 69.43, 92 94 M92 0 C92 22.8, 92 45.6, 92 94 M92 94 C66.36 94, 40.72 94, 0 94 M92 94 C57.69 94, 23.38 94, 0 94 M0 94 C0 69.38, 0 44.76, 0 0 M0 94 C0 69.37, 0 44.73, 0 0" stroke="#000000" stroke-width="1" fill="none"></path></g><g stroke-linecap="round" transform="translate(343.59749728321276 152.14221930091878) rotate(0 45.73289361759271 45.73289361759271)"><path d="M0 0 L91.47 0 L91.47 91.47 L0 91.47" stroke="none" stroke-width="0" fill="#fa5252"></path><path d="M0 0 C22.26 0, 44.52 0, 91.47 0 M0 0 C34.62 0, 69.25 0, 91.47 0 M91.47 0 C91.47 31.26, 91.47 62.51, 91.47 91.47 M91.47 0 C91.47 26.79, 91.47 53.58, 91.47 91.47 M91.47 91.47 C68.16 91.47, 44.86 91.47, 0 91.47 M91.47 91.47 C71.88 91.47, 52.3 91.47, 0 91.47 M0 91.47 C0 57.6, 0 23.74, 0 0 M0 91.47 C0 66.39, 0 41.32, 0 0" stroke="#000000" stroke-width="1" fill="none"></path></g><g stroke-linecap="round" transform="translate(232.5764024437467 152.14221930091878) rotate(0 45.73289361759271 45.73289361759271)"><path d="M0 0 L91.47 0 L91.47 91.47 L0 91.47" stroke="none" stroke-width="0" fill="#12b886"></path><path d="M0 0 C19.17 0, 38.33 0, 91.47 0 M0 0 C31.79 0, 63.58 0, 91.47 0 M91.47 0 C91.47 22.57, 91.47 45.15, 91.47 91.47 M91.47 0 C91.47 26.04, 91.47 52.08, 91.47 91.47 M91.47 91.47 C62.38 91.47, 33.3 91.47, 0 91.47 M91.47 91.47 C66.94 91.47, 42.42 91.47, 0 91.47 M0 91.47 C0 63.48, 0 35.48, 0 0 M0 91.47 C0 63.17, 0 34.88, 0 0" stroke="#000000" stroke-width="1" fill="none"></path></g><g transform="translate(15 175.3751129185115) rotate(0 40.5 22.5)"><text x="40.5" y="32" font-family="Virgil, Segoe UI Emoji" font-size="36px" fill="#000000" text-anchor="middle" style="white-space: pre;" direction="ltr">65</text></g><g transform="translate(126.02109483946606 175.3751129185115) rotate(0 41 22.5)"><text x="41" y="32" font-family="Virgil, Segoe UI Emoji" font-size="36px" fill="#000000" text-anchor="middle" style="white-space: pre;" direction="ltr">75</text></g><g transform="translate(348.59749728321276 175.3751129185115) rotate(0 40.5 22.5)"><text x="40.5" y="32" font-family="Virgil, Segoe UI Emoji" font-size="36px" fill="#000000" text-anchor="middle" style="white-space: pre;" direction="ltr">57</text></g><g transform="translate(237.5764024437467 175.3751129185115) rotate(0 40.5 22.5)"><text x="40.5" y="32" font-family="Virgil, Segoe UI Emoji" font-size="36px" fill="#000000" text-anchor="middle" style="white-space: pre;" direction="ltr">6</text></g><g stroke-linecap="round" transform="translate(454.6185921226788 152.14221930091878) rotate(0 45.73289361759271 45.73289361759271)"><path d="M0 0 L91.47 0 L91.47 91.47 L0 91.47" stroke="none" stroke-width="0" fill="#82c91e"></path><path d="M0 0 C35.24 0, 70.49 0, 91.47 0 M0 0 C27.92 0, 55.84 0, 91.47 0 M91.47 0 C91.47 29.1, 91.47 58.21, 91.47 91.47 M91.47 0 C91.47 35.84, 91.47 71.69, 91.47 91.47 M91.47 91.47 C66.77 91.47, 42.07 91.47, 0 91.47 M91.47 91.47 C63.31 91.47, 35.16 91.47, 0 91.47 M0 91.47 C0 68.57, 0 45.68, 0 0 M0 91.47 C0 71.99, 0 52.51, 0 0" stroke="#000000" stroke-width="1" fill="none"></path></g><g transform="translate(459.6185921226788 175.3751129185115) rotate(0 40.5 22.5)"><text x="40.5" y="32" font-family="Virgil, Segoe UI Emoji" font-size="36px" fill="#000000" text-anchor="middle" style="white-space: pre;" direction="ltr">99</text></g><g stroke-linecap="round" transform="translate(565.6396869621449 152.14221930091878) rotate(0 45.73289361759271 45.73289361759271)"><path d="M0 0 L91.47 0 L91.47 91.47 L0 91.47" stroke="none" stroke-width="0" fill="#fab005"></path><path d="M0 0 C19.34 0, 38.68 0, 91.47 0 M0 0 C26.8 0, 53.61 0, 91.47 0 M91.47 0 C91.47 27.03, 91.47 54.07, 91.47 91.47 M91.47 0 C91.47 21.68, 91.47 43.36, 91.47 91.47 M91.47 91.47 C59.07 91.47, 26.67 91.47, 0 91.47 M91.47 91.47 C55.17 91.47, 18.87 91.47, 0 91.47 M0 91.47 C0 60.6, 0 29.73, 0 0 M0 91.47 C0 60.19, 0 28.92, 0 0" stroke="#000000" stroke-width="1" fill="none"></path></g><g transform="translate(570.6396869621449 175.3751129185115) rotate(0 40.5 22.5)"><text x="40.5" y="32" font-family="Virgil, Segoe UI Emoji" font-size="36px" fill="#000000" text-anchor="middle" style="white-space: pre;" direction="ltr">27</text></g><g transform="translate(45.66118855224113 97.26994744268939) rotate(0 13 22.5)"><text x="0" y="32" font-family="Virgil, Segoe UI Emoji" font-size="36px" fill="#000000" text-anchor="start" style="white-space: pre;" direction="ltr">0</text></g><g transform="translate(155.79346297828056 97.26994744268939) rotate(0 5.5 22.5)"><text x="0" y="32" font-family="Virgil, Segoe UI Emoji" font-size="36px" fill="#000000" text-anchor="start" style="white-space: pre;" direction="ltr">1</text></g><g transform="translate(265.92573740431976 99.13659616177483) rotate(0 13.5 22.5)"><text x="0" y="32" font-family="Virgil, Segoe UI Emoji" font-size="36px" fill="#000000" text-anchor="start" style="white-space: pre;" direction="ltr">2</text></g><g transform="translate(376.0580118303592 101.00324488086017) rotate(0 13 22.5)"><text x="0" y="32" font-family="Virgil, Segoe UI Emoji" font-size="36px" fill="#000000" text-anchor="start" style="white-space: pre;" direction="ltr">3</text></g><g transform="translate(488.05693497548395 99.13659616177483) rotate(0 12 22.5)"><text x="0" y="32" font-family="Virgil, Segoe UI Emoji" font-size="36px" fill="#000000" text-anchor="start" style="white-space: pre;" direction="ltr">4</text></g><g transform="translate(600.0558581206087 99.13659616177483) rotate(0 11.5 22.5)"><text x="0" y="32" font-family="Virgil, Segoe UI Emoji" font-size="36px" fill="#000000" text-anchor="start" style="white-space: pre;" direction="ltr">5</text></g><g stroke-linecap="round" transform="translate(682.0432381940607 153.71524026351233) rotate(0 45.73289361759271 45.73289361759271)"><path d="M0 0 L91.47 0 L91.47 91.47 L0 91.47" stroke="none" stroke-width="0" fill="#12b886"></path><path d="M0 0 C33.78 0, 67.56 0, 91.47 0 M0 0 C22.19 0, 44.37 0, 91.47 0 M91.47 0 C91.47 25.49, 91.47 50.98, 91.47 91.47 M91.47 0 C91.47 34.11, 91.47 68.23, 91.47 91.47 M91.47 91.47 C67.51 91.47, 43.56 91.47, 0 91.47 M91.47 91.47 C67.5 91.47, 43.52 91.47, 0 91.47 M0 91.47 C0 72.29, 0 53.11, 0 0 M0 91.47 C0 65.06, 0 38.66, 0 0" stroke="#000000" stroke-width="1" fill="none"></path></g><g transform="translate(687.0432381940607 176.94813388110504) rotate(0 40.5 22.5)"><text x="40.5" y="32" font-family="Virgil, Segoe UI Emoji" font-size="36px" fill="#000000" text-anchor="middle" style="white-space: pre;" direction="ltr">0</text></g><g transform="translate(716.4594093525245 99.13659616177483) rotate(0 12 22.5)"><text x="0" y="32" font-family="Virgil, Segoe UI Emoji" font-size="36px" fill="#000000" text-anchor="start" style="white-space: pre;" direction="ltr">6</text></g><g stroke-linecap="round" transform="translate(801.5928313511633 152.14221930091878) rotate(0 45.73289361759271 45.73289361759271)"><path d="M0 0 L91.47 0 L91.47 91.47 L0 91.47" stroke="none" stroke-width="0" fill="#fa5252"></path><path d="M0 0 C22.57 0, 45.15 0, 91.47 0 M0 0 C26.04 0, 52.08 0, 91.47 0 M91.47 0 C91.47 29.08, 91.47 58.17, 91.47 91.47 M91.47 0 C91.47 24.52, 91.47 49.04, 91.47 91.47 M91.47 91.47 C63.48 91.47, 35.48 91.47, 0 91.47 M91.47 91.47 C63.17 91.47, 34.88 91.47, 0 91.47 M0 91.47 C0 69.3, 0 47.13, 0 0 M0 91.47 C0 55.19, 0 18.92, 0 0" stroke="#000000" stroke-width="1" fill="none"></path></g><g transform="translate(806.5928313511633 175.3751129185115) rotate(0 40.5 22.5)"><text x="40.5" y="32" font-family="Virgil, Segoe UI Emoji" font-size="36px" fill="#000000" text-anchor="middle" style="white-space: pre;" direction="ltr">96</text></g><g transform="translate(836.0090025096272 97.56357519918151) rotate(0 10 22.5)"><text x="0" y="32" font-family="Virgil, Segoe UI Emoji" font-size="36px" fill="#000000" text-anchor="start" style="white-space: pre;" direction="ltr">7</text></g><g stroke-linecap="round" transform="translate(10 270.118791495428) rotate(0 45.73289361759271 45.73289361759271)"><path d="M0 0 L91.47 0 L91.47 91.47 L0 91.47" stroke="none" stroke-width="0" fill="#82c91e"></path><path d="M0 0 C35.64 0, 71.29 0, 91.47 0 M0 0 C24.75 0, 49.49 0, 91.47 0 M91.47 0 C91.47 30.58, 91.47 61.16, 91.47 91.47 M91.47 0 C91.47 26.53, 91.47 53.06, 91.47 91.47 M91.47 91.47 C55.35 91.47, 19.24 91.47, 0 91.47 M91.47 91.47 C64.54 91.47, 37.62 91.47, 0 91.47 M0 91.47 C0 63.32, 0 35.18, 0 0 M0 91.47 C0 55.8, 0 20.13, 0 0" stroke="#000000" stroke-width="1" fill="none"></path></g><g stroke-linecap="round" transform="translate(121.02109483946606 268.8516851130207) rotate(0 46 47)"><path d="M0 0 L92 0 L92 94 L0 94" stroke="none" stroke-width="0" fill="#fab005"></path><path d="M0 0 C34.77 0, 69.55 0, 92 0 M0 0 C25.39 0, 50.78 0, 92 0 M92 0 C92 28.53, 92 57.05, 92 94 M92 0 C92 25.36, 92 50.71, 92 94 M92 94 C55.36 94, 18.73 94, 0 94 M92 94 C71.41 94, 50.82 94, 0 94 M0 94 C0 63.12, 0 32.24, 0 0 M0 94 C0 62.06, 0 30.11, 0 0" stroke="#000000" stroke-width="1" fill="none"></path></g><g stroke-linecap="round" transform="translate(343.59749728321276 270.118791495428) rotate(0 45.73289361759271 45.73289361759271)"><path d="M0 0 L91.47 0 L91.47 91.47 L0 91.47" stroke="none" stroke-width="0" fill="#fab005"></path><path d="M0 0 C21.4 0, 42.79 0, 91.47 0 M0 0 C21.81 0, 43.61 0, 91.47 0 M91.47 0 C91.47 21.21, 91.47 42.42, 91.47 91.47 M91.47 0 C91.47 27.58, 91.47 55.16, 91.47 91.47 M91.47 91.47 C69.36 91.47, 47.26 91.47, 0 91.47 M91.47 91.47 C56.13 91.47, 20.8 91.47, 0 91.47 M0 91.47 C0 63.18, 0 34.9, 0 0 M0 91.47 C0 60.39, 0 29.32, 0 0" stroke="#000000" stroke-width="1" fill="none"></path></g><g stroke-linecap="round" transform="translate(232.5764024437467 270.118791495428) rotate(0 45.73289361759271 45.73289361759271)"><path d="M0 0 L91.47 0 L91.47 91.47 L0 91.47" stroke="none" stroke-width="0" fill="#82c91e"></path><path d="M0 0 C20.7 0, 41.39 0, 91.47 0 M0 0 C31.95 0, 63.9 0, 91.47 0 M91.47 0 C91.47 32.52, 91.47 65.04, 91.47 91.47 M91.47 0 C91.47 21.46, 91.47 42.92, 91.47 91.47 M91.47 91.47 C66.02 91.47, 40.57 91.47, 0 91.47 M91.47 91.47 C60.46 91.47, 29.46 91.47, 0 91.47 M0 91.47 C0 66.78, 0 42.08, 0 0 M0 91.47 C0 63.61, 0 35.75, 0 0" stroke="#000000" stroke-width="1" fill="none"></path></g><g transform="translate(15 293.3516851130207) rotate(0 40.5 22.5)"><text x="40.5" y="32" font-family="Virgil, Segoe UI Emoji" font-size="36px" fill="#000000" text-anchor="middle" style="white-space: pre;" direction="ltr">65</text></g><g transform="translate(126.02109483946606 293.3516851130207) rotate(0 41 22.5)"><text x="41" y="32" font-family="Virgil, Segoe UI Emoji" font-size="36px" fill="#000000" text-anchor="middle" style="white-space: pre;" direction="ltr">27</text></g><g transform="translate(348.59749728321276 293.3516851130207) rotate(0 40.5 22.5)"><text x="40.5" y="32" font-family="Virgil, Segoe UI Emoji" font-size="36px" fill="#000000" text-anchor="middle" style="white-space: pre;" direction="ltr">57</text></g><g transform="translate(237.5764024437467 293.3516851130207) rotate(0 40.5 22.5)"><text x="40.5" y="32" font-family="Virgil, Segoe UI Emoji" font-size="36px" fill="#000000" text-anchor="middle" style="white-space: pre;" direction="ltr">0</text></g><g stroke-linecap="round" transform="translate(454.6185921226788 270.118791495428) rotate(0 45.73289361759271 45.73289361759271)"><path d="M0 0 L91.47 0 L91.47 91.47 L0 91.47" stroke="none" stroke-width="0" fill="#82c91e"></path><path d="M0 0 C31.79 0, 63.58 0, 91.47 0 M0 0 C34.05 0, 68.1 0, 91.47 0 M91.47 0 C91.47 33.62, 91.47 67.23, 91.47 91.47 M91.47 0 C91.47 35.25, 91.47 70.49, 91.47 91.47 M91.47 91.47 C70.9 91.47, 50.34 91.47, 0 91.47 M91.47 91.47 C55.51 91.47, 19.56 91.47, 0 91.47 M0 91.47 C0 64.62, 0 37.78, 0 0 M0 91.47 C0 67.29, 0 43.12, 0 0" stroke="#000000" stroke-width="1" fill="none"></path></g><g transform="translate(459.6185921226788 293.3516851130207) rotate(0 40.5 22.5)"><text x="40.5" y="32" font-family="Virgil, Segoe UI Emoji" font-size="36px" fill="#000000" text-anchor="middle" style="white-space: pre;" direction="ltr">99</text></g><g stroke-linecap="round" transform="translate(565.6396869621449 270.118791495428) rotate(0 45.73289361759271 45.73289361759271)"><path d="M0 0 L91.47 0 L91.47 91.47 L0 91.47" stroke="none" stroke-width="0" fill="#fab005"></path><path d="M0 0 C26.55 0, 53.09 0, 91.47 0 M0 0 C35.36 0, 70.72 0, 91.47 0 M91.47 0 C91.47 30.18, 91.47 60.36, 91.47 91.47 M91.47 0 C91.47 24.18, 91.47 48.36, 91.47 91.47 M91.47 91.47 C61.47 91.47, 31.47 91.47, 0 91.47 M91.47 91.47 C59.58 91.47, 27.69 91.47, 0 91.47 M0 91.47 C0 57.84, 0 24.21, 0 0 M0 91.47 C0 68.71, 0 45.95, 0 0" stroke="#000000" stroke-width="1" fill="none"></path></g><g transform="translate(570.6396869621449 293.3516851130207) rotate(0 40.5 22.5)"><text x="40.5" y="32" font-family="Virgil, Segoe UI Emoji" font-size="36px" fill="#000000" text-anchor="middle" style="white-space: pre;" direction="ltr">75</text></g><g stroke-linecap="round" transform="translate(682.0432381940607 270.118791495428) rotate(0 45.73289361759271 45.73289361759271)"><path d="M0 0 L91.47 0 L91.47 91.47 L0 91.47" stroke="none" stroke-width="0" fill="#82c91e"></path><path d="M0 0 C27.76 0, 55.51 0, 91.47 0 M0 0 C24.67 0, 49.34 0, 91.47 0 M91.47 0 C91.47 36.42, 91.47 72.85, 91.47 91.47 M91.47 0 C91.47 20.47, 91.47 40.94, 91.47 91.47 M91.47 91.47 C61.42 91.47, 31.37 91.47, 0 91.47 M91.47 91.47 C60.38 91.47, 29.3 91.47, 0 91.47 M0 91.47 C0 65.2, 0 38.93, 0 0 M0 91.47 C0 57.8, 0 24.14, 0 0" stroke="#000000" stroke-width="1" fill="none"></path></g><g transform="translate(687.0432381940607 293.3516851130207) rotate(0 40.5 22.5)"><text x="40.5" y="32" font-family="Virgil, Segoe UI Emoji" font-size="36px" fill="#000000" text-anchor="middle" style="white-space: pre;" direction="ltr">6</text></g><g stroke-linecap="round" transform="translate(801.5928313511633 270.118791495428) rotate(0 45.73289361759271 45.73289361759271)"><path d="M0 0 L91.47 0 L91.47 91.47 L0 91.47" stroke="none" stroke-width="0" fill="#fab005"></path><path d="M0 0 C32.52 0, 65.04 0, 91.47 0 M0 0 C21.46 0, 42.92 0, 91.47 0 M91.47 0 C91.47 25.45, 91.47 50.9, 91.47 91.47 M91.47 0 C91.47 31, 91.47 62, 91.47 91.47 M91.47 91.47 C66.78 91.47, 42.08 91.47, 0 91.47 M91.47 91.47 C63.61 91.47, 35.75 91.47, 0 91.47 M0 91.47 C0 70.16, 0 48.86, 0 0 M0 91.47 C0 71.14, 0 50.81, 0 0" stroke="#000000" stroke-width="1" fill="none"></path></g><g transform="translate(806.5928313511633 293.3516851130207) rotate(0 40.5 22.5)"><text x="40.5" y="32" font-family="Virgil, Segoe UI Emoji" font-size="36px" fill="#000000" text-anchor="middle" style="white-space: pre;" direction="ltr">96</text></g><g transform="translate(23.19152175888007 10) rotate(0 72.54288040681547 33.31050630925199)"><text x="0" y="46.62101261850401" font-family="Virgil, Segoe UI Emoji" font-size="53.29681009480317px" fill="#000000" text-anchor="start" style="white-space: pre;" direction="ltr">h / 2</text></g><g transform="translate(932.3976381378977 181.45928492268672) rotate(0 50 22.5)"><text x="0" y="32" font-family="Virgil, Segoe UI Emoji" font-size="36px" fill="#000000" text-anchor="start" style="white-space: pre;" direction="ltr">h = 4</text></g><g transform="translate(933.9706591004913 288.4247103790417) rotate(0 51.5 22.5)"><text x="0" y="32" font-family="Virgil, Segoe UI Emoji" font-size="36px" fill="#000000" text-anchor="start" style="white-space: pre;" direction="ltr">h = 2</text></g><g stroke-linecap="round" transform="translate(11.573020962593546 384.94932176475004) rotate(0 45.73289361759271 45.73289361759271)"><path d="M0 0 L91.47 0 L91.47 91.47 L0 91.47" stroke="none" stroke-width="0" fill="#fab005"></path><path d="M0 0 C34.27 0, 68.55 0, 91.47 0 M0 0 C24.58 0, 49.16 0, 91.47 0 M91.47 0 C91.47 34.16, 91.47 68.31, 91.47 91.47 M91.47 0 C91.47 30.87, 91.47 61.74, 91.47 91.47 M91.47 91.47 C57.55 91.47, 23.63 91.47, 0 91.47 M91.47 91.47 C61.92 91.47, 32.37 91.47, 0 91.47 M0 91.47 C0 56.14, 0 20.81, 0 0 M0 91.47 C0 70.98, 0 50.49, 0 0" stroke="#000000" stroke-width="1" fill="none"></path></g><g stroke-linecap="round" transform="translate(122.5941158020596 383.68221538234275) rotate(0 46 47)"><path d="M0 0 L92 0 L92 94 L0 94" stroke="none" stroke-width="0" fill="#fab005"></path><path d="M0 0 C26.88 0, 53.75 0, 92 0 M0 0 C29.49 0, 58.98 0, 92 0 M92 0 C92 31.87, 92 63.73, 92 94 M92 0 C92 22.63, 92 45.26, 92 94 M92 94 C65.65 94, 39.29 94, 0 94 M92 94 C61.66 94, 31.32 94, 0 94 M0 94 C0 72.05, 0 50.09, 0 0 M0 94 C0 62.83, 0 31.67, 0 0" stroke="#000000" stroke-width="1" fill="none"></path></g><g stroke-linecap="round" transform="translate(345.1705182458063 384.94932176475004) rotate(0 45.73289361759271 45.73289361759271)"><path d="M0 0 L91.47 0 L91.47 91.47 L0 91.47" stroke="none" stroke-width="0" fill="#fab005"></path><path d="M0 0 C30.69 0, 61.37 0, 91.47 0 M0 0 C18.72 0, 37.45 0, 91.47 0 M91.47 0 C91.47 24.47, 91.47 48.93, 91.47 91.47 M91.47 0 C91.47 27.54, 91.47 55.09, 91.47 91.47 M91.47 91.47 C69.42 91.47, 47.37 91.47, 0 91.47 M91.47 91.47 C68.2 91.47, 44.94 91.47, 0 91.47 M0 91.47 C0 65.41, 0 39.36, 0 0 M0 91.47 C0 63.7, 0 35.94, 0 0" stroke="#000000" stroke-width="1" fill="none"></path></g><g stroke-linecap="round" transform="translate(234.14942340634025 384.94932176475004) rotate(0 45.73289361759271 45.73289361759271)"><path d="M0 0 L91.47 0 L91.47 91.47 L0 91.47" stroke="none" stroke-width="0" fill="#fab005"></path><path d="M0 0 C19.15 0, 38.31 0, 91.47 0 M0 0 C18.45 0, 36.9 0, 91.47 0 M91.47 0 C91.47 34.82, 91.47 69.64, 91.47 91.47 M91.47 0 C91.47 28.08, 91.47 56.15, 91.47 91.47 M91.47 91.47 C61.88 91.47, 32.28 91.47, 0 91.47 M91.47 91.47 C69.26 91.47, 47.04 91.47, 0 91.47 M0 91.47 C0 68.93, 0 46.4, 0 0 M0 91.47 C0 64.59, 0 37.71, 0 0" stroke="#000000" stroke-width="1" fill="none"></path></g><g transform="translate(16.573020962593546 408.18221538234275) rotate(0 40.5 22.5)"><text x="40.5" y="32" font-family="Virgil, Segoe UI Emoji" font-size="36px" fill="#000000" text-anchor="middle" style="white-space: pre;" direction="ltr">0</text></g><g transform="translate(127.5941158020596 408.18221538234275) rotate(0 41 22.5)"><text x="41" y="32" font-family="Virgil, Segoe UI Emoji" font-size="36px" fill="#000000" text-anchor="middle" style="white-space: pre;" direction="ltr">27</text></g><g transform="translate(350.1705182458063 408.18221538234275) rotate(0 40.5 22.5)"><text x="40.5" y="32" font-family="Virgil, Segoe UI Emoji" font-size="36px" fill="#000000" text-anchor="middle" style="white-space: pre;" direction="ltr">57</text></g><g transform="translate(239.14942340634025 408.18221538234275) rotate(0 40.5 22.5)"><text x="40.5" y="32" font-family="Virgil, Segoe UI Emoji" font-size="36px" fill="#000000" text-anchor="middle" style="white-space: pre;" direction="ltr">6</text></g><g stroke-linecap="round" transform="translate(456.19161308527237 384.94932176475004) rotate(0 45.73289361759271 45.73289361759271)"><path d="M0 0 L91.47 0 L91.47 91.47 L0 91.47" stroke="none" stroke-width="0" fill="#fab005"></path><path d="M0 0 C28.28 0, 56.57 0, 91.47 0 M0 0 C30.96 0, 61.93 0, 91.47 0 M91.47 0 C91.47 35.73, 91.47 71.47, 91.47 91.47 M91.47 0 C91.47 22.84, 91.47 45.68, 91.47 91.47 M91.47 91.47 C56.73 91.47, 21.99 91.47, 0 91.47 M91.47 91.47 C64.03 91.47, 36.59 91.47, 0 91.47 M0 91.47 C0 60.97, 0 30.46, 0 0 M0 91.47 C0 68.56, 0 45.66, 0 0" stroke="#000000" stroke-width="1" fill="none"></path></g><g transform="translate(461.19161308527237 408.18221538234275) rotate(0 40.5 22.5)"><text x="40.5" y="32" font-family="Virgil, Segoe UI Emoji" font-size="36px" fill="#000000" text-anchor="middle" style="white-space: pre;" direction="ltr">65</text></g><g stroke-linecap="round" transform="translate(567.2127079247384 384.94932176475004) rotate(0 45.73289361759271 45.73289361759271)"><path d="M0 0 L91.47 0 L91.47 91.47 L0 91.47" stroke="none" stroke-width="0" fill="#fab005"></path><path d="M0 0 C18.34 0, 36.67 0, 91.47 0 M0 0 C20.71 0, 41.42 0, 91.47 0 M91.47 0 C91.47 28.05, 91.47 56.09, 91.47 91.47 M91.47 0 C91.47 23.91, 91.47 47.81, 91.47 91.47 M91.47 91.47 C55.95 91.47, 20.43 91.47, 0 91.47 M91.47 91.47 C59.42 91.47, 27.37 91.47, 0 91.47 M0 91.47 C0 62.95, 0 34.43, 0 0 M0 91.47 C0 64.47, 0 37.47, 0 0" stroke="#000000" stroke-width="1" fill="none"></path></g><g transform="translate(572.2127079247384 408.18221538234275) rotate(0 40.5 22.5)"><text x="40.5" y="32" font-family="Virgil, Segoe UI Emoji" font-size="36px" fill="#000000" text-anchor="middle" style="white-space: pre;" direction="ltr">75</text></g><g stroke-linecap="round" transform="translate(683.6162591566542 384.94932176475004) rotate(0 45.73289361759271 45.73289361759271)"><path d="M0 0 L91.47 0 L91.47 91.47 L0 91.47" stroke="none" stroke-width="0" fill="#fab005"></path><path d="M0 0 C31.01 0, 62.02 0, 91.47 0 M0 0 C22.02 0, 44.04 0, 91.47 0 M91.47 0 C91.47 26.2, 91.47 52.4, 91.47 91.47 M91.47 0 C91.47 30.16, 91.47 60.33, 91.47 91.47 M91.47 91.47 C70.1 91.47, 48.74 91.47, 0 91.47 M91.47 91.47 C61.14 91.47, 30.81 91.47, 0 91.47 M0 91.47 C0 68.06, 0 44.65, 0 0 M0 91.47 C0 65.09, 0 38.71, 0 0" stroke="#000000" stroke-width="1" fill="none"></path></g><g transform="translate(688.6162591566542 408.18221538234275) rotate(0 40.5 22.5)"><text x="40.5" y="32" font-family="Virgil, Segoe UI Emoji" font-size="36px" fill="#000000" text-anchor="middle" style="white-space: pre;" direction="ltr">99</text></g><g stroke-linecap="round" transform="translate(803.1658523137569 384.94932176475004) rotate(0 45.73289361759271 45.73289361759271)"><path d="M0 0 L91.47 0 L91.47 91.47 L0 91.47" stroke="none" stroke-width="0" fill="#fab005"></path><path d="M0 0 C34.82 0, 69.64 0, 91.47 0 M0 0 C28.08 0, 56.15 0, 91.47 0 M91.47 0 C91.47 29.59, 91.47 59.18, 91.47 91.47 M91.47 0 C91.47 22.21, 91.47 44.42, 91.47 91.47 M91.47 91.47 C68.93 91.47, 46.4 91.47, 0 91.47 M91.47 91.47 C64.59 91.47, 37.71 91.47, 0 91.47 M0 91.47 C0 70.04, 0 48.61, 0 0 M0 91.47 C0 60.09, 0 28.71, 0 0" stroke="#000000" stroke-width="1" fill="none"></path></g><g transform="translate(808.1658523137569 408.18221538234275) rotate(0 40.5 22.5)"><text x="40.5" y="32" font-family="Virgil, Segoe UI Emoji" font-size="36px" fill="#000000" text-anchor="middle" style="white-space: pre;" direction="ltr">96</text></g><g transform="translate(935.5436800630848 403.2552406483637) rotate(0 43.5 22.5)"><text x="0" y="32" font-family="Virgil, Segoe UI Emoji" font-size="36px" fill="#000000" text-anchor="start" style="white-space: pre;" direction="ltr">h = 1</text></g><g stroke-linecap="round" transform="translate(11.573020962593546 495.06078914629234) rotate(0 45.73289361759271 45.73289361759271)"><path d="M0 0 C23.39 0, 46.78 0, 91.47 0 M0 0 C24.74 0, 49.47 0, 91.47 0 M91.47 0 C91.47 27.21, 91.47 54.42, 91.47 91.47 M91.47 0 C91.47 21.43, 91.47 42.86, 91.47 91.47 M91.47 91.47 C62.19 91.47, 32.92 91.47, 0 91.47 M91.47 91.47 C64.12 91.47, 36.77 91.47, 0 91.47 M0 91.47 C0 56.82, 0 22.17, 0 0 M0 91.47 C0 66.62, 0 41.77, 0 0" stroke="#000000" stroke-width="1" fill="none"></path></g><g stroke-linecap="round" transform="translate(122.5941158020596 492.2206618012915) rotate(0 46 47)"><path d="M0 0 C36.76 0, 73.52 0, 92 0 M0 0 C18.81 0, 37.61 0, 92 0 M92 0 C92 36.35, 92 72.7, 92 94 M92 0 C92 20.48, 92 40.95, 92 94 M92 94 C71.67 94, 51.34 94, 0 94 M92 94 C68.7 94, 45.4 94, 0 94 M0 94 C0 58.01, 0 22.02, 0 0 M0 94 C0 66.49, 0 38.97, 0 0" stroke="#000000" stroke-width="1" fill="none"></path></g><g stroke-linecap="round" transform="translate(345.1705182458063 495.06078914629234) rotate(0 45.73289361759271 45.73289361759271)"><path d="M0 0 C35.56 0, 71.12 0, 91.47 0 M0 0 C29.98 0, 59.96 0, 91.47 0 M91.47 0 C91.47 20.17, 91.47 40.33, 91.47 91.47 M91.47 0 C91.47 23.24, 91.47 46.48, 91.47 91.47 M91.47 91.47 C69.45 91.47, 47.43 91.47, 0 91.47 M91.47 91.47 C68.74 91.47, 46.02 91.47, 0 91.47 M0 91.47 C0 59, 0 26.53, 0 0 M0 91.47 C0 66.96, 0 42.45, 0 0" stroke="#000000" stroke-width="1" fill="none"></path></g><g stroke-linecap="round" transform="translate(234.14942340634025 495.06078914629234) rotate(0 45.73289361759271 45.73289361759271)"><path d="M0 0 C20.22 0, 40.44 0, 91.47 0 M0 0 C30.22 0, 60.43 0, 91.47 0 M91.47 0 C91.47 20.26, 91.47 40.52, 91.47 91.47 M91.47 0 C91.47 19, 91.47 38.01, 91.47 91.47 M91.47 91.47 C70.71 91.47, 49.95 91.47, 0 91.47 M91.47 91.47 C61.79 91.47, 32.12 91.47, 0 91.47 M0 91.47 C0 57.83, 0 24.19, 0 0 M0 91.47 C0 72.05, 0 52.64, 0 0" stroke="#000000" stroke-width="1" fill="none"></path></g><g transform="translate(16.573020962593546 518.293682763885) rotate(0 40.5 22.5)"><text x="40.5" y="32" font-family="Virgil, Segoe UI Emoji" font-size="36px" fill="#000000" text-anchor="middle" style="white-space: pre;" direction="ltr">0</text></g><g transform="translate(127.5941158020596 516.7206618012915) rotate(0 41 22.5)"><text x="41" y="32" font-family="Virgil, Segoe UI Emoji" font-size="36px" fill="#000000" text-anchor="middle" style="white-space: pre;" direction="ltr">6</text></g><g transform="translate(350.1705182458063 518.293682763885) rotate(0 40.5 22.5)"><text x="40.5" y="32" font-family="Virgil, Segoe UI Emoji" font-size="36px" fill="#000000" text-anchor="middle" style="white-space: pre;" direction="ltr">57</text></g><g transform="translate(239.14942340634025 518.293682763885) rotate(0 40.5 22.5)"><text x="40.5" y="32" font-family="Virgil, Segoe UI Emoji" font-size="36px" fill="#000000" text-anchor="middle" style="white-space: pre;" direction="ltr">27</text></g><g stroke-linecap="round" transform="translate(456.19161308527237 495.06078914629234) rotate(0 45.73289361759271 45.73289361759271)"><path d="M0 0 C36.22 0, 72.45 0, 91.47 0 M0 0 C20.68 0, 41.37 0, 91.47 0 M91.47 0 C91.47 34.63, 91.47 69.27, 91.47 91.47 M91.47 0 C91.47 32.79, 91.47 65.58, 91.47 91.47 M91.47 91.47 C57.33 91.47, 23.19 91.47, 0 91.47 M91.47 91.47 C67.63 91.47, 43.8 91.47, 0 91.47 M0 91.47 C0 69.94, 0 48.42, 0 0 M0 91.47 C0 60.43, 0 29.4, 0 0" stroke="#000000" stroke-width="1" fill="none"></path></g><g transform="translate(461.19161308527237 518.293682763885) rotate(0 40.5 22.5)"><text x="40.5" y="32" font-family="Virgil, Segoe UI Emoji" font-size="36px" fill="#000000" text-anchor="middle" style="white-space: pre;" direction="ltr">65</text></g><g stroke-linecap="round" transform="translate(567.2127079247384 495.06078914629234) rotate(0 45.73289361759271 45.73289361759271)"><path d="M0 0 C20.05 0, 40.09 0, 91.47 0 M0 0 C22.25 0, 44.51 0, 91.47 0 M91.47 0 C91.47 35.41, 91.47 70.83, 91.47 91.47 M91.47 0 C91.47 26.96, 91.47 53.91, 91.47 91.47 M91.47 91.47 C67.36 91.47, 43.25 91.47, 0 91.47 M91.47 91.47 C65.66 91.47, 39.85 91.47, 0 91.47 M0 91.47 C0 55.11, 0 18.76, 0 0 M0 91.47 C0 64.07, 0 36.68, 0 0" stroke="#000000" stroke-width="1" fill="none"></path></g><g transform="translate(572.2127079247384 518.293682763885) rotate(0 40.5 22.5)"><text x="40.5" y="32" font-family="Virgil, Segoe UI Emoji" font-size="36px" fill="#000000" text-anchor="middle" style="white-space: pre;" direction="ltr">75</text></g><g stroke-linecap="round" transform="translate(683.6162591566542 495.06078914629234) rotate(0 45.73289361759271 45.73289361759271)"><path d="M0 0 C25.87 0, 51.75 0, 91.47 0 M0 0 C32.63 0, 65.26 0, 91.47 0 M91.47 0 C91.47 32.04, 91.47 64.09, 91.47 91.47 M91.47 0 C91.47 23.71, 91.47 47.42, 91.47 91.47 M91.47 91.47 C69.19 91.47, 46.92 91.47, 0 91.47 M91.47 91.47 C61.75 91.47, 32.03 91.47, 0 91.47 M0 91.47 C0 58.54, 0 25.62, 0 0 M0 91.47 C0 61.81, 0 32.15, 0 0" stroke="#000000" stroke-width="1" fill="none"></path></g><g transform="translate(688.6162591566542 518.293682763885) rotate(0 40.5 22.5)"><text x="40.5" y="32" font-family="Virgil, Segoe UI Emoji" font-size="36px" fill="#000000" text-anchor="middle" style="white-space: pre;" direction="ltr">96</text></g><g stroke-linecap="round" transform="translate(803.1658523137569 495.06078914629234) rotate(0 45.73289361759271 45.73289361759271)"><path d="M0 0 C18.78 0, 37.55 0, 91.47 0 M0 0 C33.25 0, 66.5 0, 91.47 0 M91.47 0 C91.47 33.41, 91.47 66.82, 91.47 91.47 M91.47 0 C91.47 24.78, 91.47 49.55, 91.47 91.47 M91.47 91.47 C59.9 91.47, 28.34 91.47, 0 91.47 M91.47 91.47 C62.65 91.47, 33.83 91.47, 0 91.47 M0 91.47 C0 68.58, 0 45.7, 0 0 M0 91.47 C0 68.32, 0 45.17, 0 0" stroke="#000000" stroke-width="1" fill="none"></path></g><g transform="translate(808.1658523137569 518.293682763885) rotate(0 40.5 22.5)"><text x="40.5" y="32" font-family="Virgil, Segoe UI Emoji" font-size="36px" fill="#000000" text-anchor="middle" style="white-space: pre;" direction="ltr">99</text></g><g transform="translate(921.3864913997434 525.9508757306539) rotate(0 64.33166459850463 16.172764843199502)"><text x="0" y="22.34552968639899" font-family="Virgil, Segoe UI Emoji" font-size="25.876423749119173px" fill="#000000" text-anchor="start" style="white-space: pre;" direction="ltr">Resultado</text></g></svg>