<svg version="1.1" xmlns="http://www.w3.org/2000/svg" viewBox="0 0 621.2669671131382 427.09657679702923" width="621.2669671131382" height="427.09657679702923">
  <!-- svg-source:excalidraw -->
  
  <defs>
    <style class="style-fonts">
      @font-face {
        font-family: "Virgil";
        src: url("https://excalidraw.com/Virgil.woff2");
      }
      @font-face {
        font-family: "Cascadia";
        src: url("https://excalidraw.com/Cascadia.woff2");
      }
    </style>
  </defs>
  <rect x="0" y="0" width="621.2669671131382" height="427.09657679702923" fill="#ffffff"></rect><g stroke-linecap="round" transform="translate(109.96124118197895 10) rotate(0 39.66197039877352 39.66197039877352)"><path d="M0 0 C17.41 0, 34.82 0, 79.32 0 M0 0 C28.87 0, 57.73 0, 79.32 0 M79.32 0 C79.32 25.74, 79.32 51.48, 79.32 79.32 M79.32 0 C79.32 28.51, 79.32 57.01, 79.32 79.32 M79.32 79.32 C60.01 79.32, 40.7 79.32, 0 79.32 M79.32 79.32 C62.66 79.32, 46 79.32, 0 79.32 M0 79.32 C0 59.25, 0 39.17, 0 0 M0 79.32 C0 58.61, 0 37.9, 0 0" stroke="#000000" stroke-width="4" fill="none"></path></g><g transform="translate(137.62321158075247 27.16197039877352) rotate(0 12 22.5)"><text x="12" y="32" font-family="Virgil, Segoe UI Emoji" font-size="36px" fill="#000000" text-anchor="middle" style="white-space: pre;" direction="ltr">5</text></g><g stroke-linecap="round" transform="translate(213.7433970587697 10) rotate(0 39.66197039877352 39.66197039877352)"><path d="M0 0 C23.54 0, 47.08 0, 79.32 0 M0 0 C28.39 0, 56.79 0, 79.32 0 M79.32 0 C79.32 19.56, 79.32 39.13, 79.32 79.32 M79.32 0 C79.32 28.14, 79.32 56.27, 79.32 79.32 M79.32 79.32 C51.71 79.32, 24.09 79.32, 0 79.32 M79.32 79.32 C60.82 79.32, 42.31 79.32, 0 79.32 M0 79.32 C0 58.43, 0 37.55, 0 0 M0 79.32 C0 63.42, 0 47.51, 0 0" stroke="#000000" stroke-width="4" fill="none"></path></g><g transform="translate(240.9053674575432 27.16197039877352) rotate(0 12.5 22.5)"><text x="12.5" y="32" font-family="Virgil, Segoe UI Emoji" font-size="36px" fill="#000000" text-anchor="middle" style="white-space: pre;" direction="ltr">4</text></g><g stroke-linecap="round" transform="translate(317.5255529355604 10) rotate(0 39.66197039877352 39.66197039877352)"><path d="M0 0 C25.33 0, 50.67 0, 79.32 0 M0 0 C16.18 0, 32.36 0, 79.32 0 M79.32 0 C79.32 24.84, 79.32 49.68, 79.32 79.32 M79.32 0 C79.32 18.72, 79.32 37.44, 79.32 79.32 M79.32 79.32 C58.34 79.32, 37.35 79.32, 0 79.32 M79.32 79.32 C56.37 79.32, 33.41 79.32, 0 79.32 M0 79.32 C0 50.88, 0 22.43, 0 0 M0 79.32 C0 55.92, 0 32.53, 0 0" stroke="#000000" stroke-width="4" fill="none"></path></g><g transform="translate(343.68752333433395 27.16197039877352) rotate(0 13.5 22.5)"><text x="13.5" y="32" font-family="Virgil, Segoe UI Emoji" font-size="36px" fill="#000000" text-anchor="middle" style="white-space: pre;" direction="ltr">3</text></g><g stroke-linecap="round" transform="translate(421.30770881235117 10) rotate(0 39.66197039877352 39.66197039877352)"><path d="M0 0 C21.81 0, 43.62 0, 79.32 0 M0 0 C23.29 0, 46.58 0, 79.32 0 M79.32 0 C79.32 20.57, 79.32 41.14, 79.32 79.32 M79.32 0 C79.32 26.55, 79.32 53.09, 79.32 79.32 M79.32 79.32 C55.47 79.32, 31.61 79.32, 0 79.32 M79.32 79.32 C61.51 79.32, 43.7 79.32, 0 79.32 M0 79.32 C0 59.92, 0 40.52, 0 0 M0 79.32 C0 57.07, 0 34.81, 0 0" stroke="#000000" stroke-width="4" fill="none"></path></g><g transform="translate(446.9696792111247 27.16197039877352) rotate(0 14 22.5)"><text x="14" y="32" font-family="Virgil, Segoe UI Emoji" font-size="36px" fill="#000000" text-anchor="middle" style="white-space: pre;" direction="ltr">2</text></g><g stroke-linecap="round" transform="translate(525.0898646891419 10) rotate(0 39.66197039877352 39.66197039877352)"><path d="M0 0 C20.8 0, 41.6 0, 79.32 0 M0 0 C18.44 0, 36.89 0, 79.32 0 M79.32 0 C79.32 22.33, 79.32 44.67, 79.32 79.32 M79.32 0 C79.32 19.53, 79.32 39.06, 79.32 79.32 M79.32 79.32 C49.52 79.32, 19.71 79.32, 0 79.32 M79.32 79.32 C47.66 79.32, 16.01 79.32, 0 79.32 M0 79.32 C0 48.55, 0 17.78, 0 0 M0 79.32 C0 58.9, 0 38.48, 0 0" stroke="#000000" stroke-width="4" fill="none"></path></g><g transform="translate(558.7518350879154 27.16197039877352) rotate(0 6 22.5)"><text x="6" y="32" font-family="Virgil, Segoe UI Emoji" font-size="36px" fill="#000000" text-anchor="middle" style="white-space: pre;" direction="ltr">1</text></g><g stroke-linecap="round"><g transform="translate(10 102.29988507575581) rotate(0 93.18291896649384 0)"><path d="M0 0 C31.06 0, 155.3 0, 186.37 0 M0 0 C31.06 0, 155.3 0, 186.37 0" stroke="#000000" stroke-width="4" fill="none"></path></g></g><g stroke-linecap="round"><g transform="translate(212.4069795896212 102.70780719933578) rotate(0 93.18291896649384 0)"><path d="M0 0 C31.06 0, 155.3 0, 186.37 0 M0 0 C31.06 0, 155.3 0, 186.37 0" stroke="#000000" stroke-width="4" fill="none"></path></g></g><g stroke-linecap="round" transform="translate(10.13142952507792 10) rotate(0 39.66197039877352 39.66197039877352)"><path d="M0 0 C22.29 0, 44.59 0, 79.32 0 M0 0 C27.83 0, 55.66 0, 79.32 0 M79.32 0 C79.32 19.36, 79.32 38.71, 79.32 79.32 M79.32 0 C79.32 16.67, 79.32 33.34, 79.32 79.32 M79.32 79.32 C49.77 79.32, 20.22 79.32, 0 79.32 M79.32 79.32 C57.27 79.32, 35.22 79.32, 0 79.32 M0 79.32 C0 54.11, 0 28.89, 0 0 M0 79.32 C0 62.97, 0 46.61, 0 0" stroke="#000000" stroke-width="4" fill="none"></path></g><g transform="translate(37.29339992385144 27.16197039877352) rotate(0 12.5 22.5)"><text x="12.5" y="32" font-family="Virgil, Segoe UI Emoji" font-size="36px" fill="#000000" text-anchor="middle" style="white-space: pre;" direction="ltr">6</text></g><g stroke-linecap="round"><g transform="translate(420.0988865999557 103.85527629884041) rotate(0 93.18291896649384 0)"><path d="M0 0 C31.06 0, 155.3 0, 186.37 0 M0 0 C31.06 0, 155.3 0, 186.37 0" stroke="#000000" stroke-width="4" fill="none"></path></g></g><g stroke-linecap="round" transform="translate(113.40364848049285 121.30450265194713) rotate(0 39.66197039877352 39.66197039877352)"><path d="M0 0 C24.22 0, 48.43 0, 79.32 0 M0 0 C18.62 0, 37.25 0, 79.32 0 M79.32 0 C79.32 17.39, 79.32 34.78, 79.32 79.32 M79.32 0 C79.32 26.95, 79.32 53.89, 79.32 79.32 M79.32 79.32 C49.94 79.32, 20.55 79.32, 0 79.32 M79.32 79.32 C50.74 79.32, 22.15 79.32, 0 79.32 M0 79.32 C0 48.65, 0 17.99, 0 0 M0 79.32 C0 48.12, 0 16.91, 0 0" stroke="#000000" stroke-width="4" fill="none"></path></g><g transform="translate(140.56561887926637 138.46647305072065) rotate(0 12.5 22.5)"><text x="12.5" y="32" font-family="Virgil, Segoe UI Emoji" font-size="36px" fill="#000000" text-anchor="middle" style="white-space: pre;" direction="ltr">6</text></g><g stroke-linecap="round" transform="translate(217.1858043572836 121.30450265194713) rotate(0 39.66197039877352 39.66197039877352)"><path d="M0 0 C28.44 0, 56.88 0, 79.32 0 M0 0 C25.29 0, 50.58 0, 79.32 0 M79.32 0 C79.32 21.72, 79.32 43.45, 79.32 79.32 M79.32 0 C79.32 24.25, 79.32 48.51, 79.32 79.32 M79.32 79.32 C52.73 79.32, 26.14 79.32, 0 79.32 M79.32 79.32 C48.63 79.32, 17.93 79.32, 0 79.32 M0 79.32 C0 51.03, 0 22.73, 0 0 M0 79.32 C0 57.46, 0 35.59, 0 0" stroke="#000000" stroke-width="4" fill="none"></path></g><g transform="translate(243.3477747560571 138.46647305072065) rotate(0 13.5 22.5)"><text x="13.5" y="32" font-family="Virgil, Segoe UI Emoji" font-size="36px" fill="#000000" text-anchor="middle" style="white-space: pre;" direction="ltr">3</text></g><g stroke-linecap="round" transform="translate(320.9679602340743 121.30450265194713) rotate(0 39.66197039877352 39.66197039877352)"><path d="M0 0 C23.52 0, 47.05 0, 79.32 0 M0 0 C19.8 0, 39.6 0, 79.32 0 M79.32 0 C79.32 20.98, 79.32 41.95, 79.32 79.32 M79.32 0 C79.32 31.24, 79.32 62.47, 79.32 79.32 M79.32 79.32 C51.57 79.32, 23.81 79.32, 0 79.32 M79.32 79.32 C58.17 79.32, 37.02 79.32, 0 79.32 M0 79.32 C0 62.18, 0 45.03, 0 0 M0 79.32 C0 52.72, 0 26.11, 0 0" stroke="#000000" stroke-width="4" fill="none"></path></g><g transform="translate(348.12993063284785 138.46647305072065) rotate(0 12.5 22.5)"><text x="12.5" y="32" font-family="Virgil, Segoe UI Emoji" font-size="36px" fill="#000000" text-anchor="middle" style="white-space: pre;" direction="ltr">4</text></g><g stroke-linecap="round" transform="translate(424.75011611086506 121.30450265194713) rotate(0 39.66197039877352 39.66197039877352)"><path d="M0 0 C28.88 0, 57.76 0, 79.32 0 M0 0 C20.58 0, 41.15 0, 79.32 0 M79.32 0 C79.32 21.85, 79.32 43.71, 79.32 79.32 M79.32 0 C79.32 24.49, 79.32 48.97, 79.32 79.32 M79.32 79.32 C54.42 79.32, 29.51 79.32, 0 79.32 M79.32 79.32 C63.31 79.32, 47.29 79.32, 0 79.32 M0 79.32 C0 59.16, 0 39, 0 0 M0 79.32 C0 55.69, 0 32.07, 0 0" stroke="#000000" stroke-width="4" fill="none"></path></g><g transform="translate(458.4120865096386 138.46647305072065) rotate(0 6 22.5)"><text x="6" y="32" font-family="Virgil, Segoe UI Emoji" font-size="36px" fill="#000000" text-anchor="middle" style="white-space: pre;" direction="ltr">1</text></g><g stroke-linecap="round" transform="translate(528.5322719876558 121.30450265194713) rotate(0 39.66197039877352 39.66197039877352)"><path d="M0 0 C17.44 0, 34.88 0, 79.32 0 M0 0 C19.14 0, 38.29 0, 79.32 0 M79.32 0 C79.32 20.28, 79.32 40.55, 79.32 79.32 M79.32 0 C79.32 29.06, 79.32 58.11, 79.32 79.32 M79.32 79.32 C60.22 79.32, 41.12 79.32, 0 79.32 M79.32 79.32 C51.06 79.32, 22.8 79.32, 0 79.32 M0 79.32 C0 53.61, 0 27.9, 0 0 M0 79.32 C0 47.66, 0 15.99, 0 0" stroke="#000000" stroke-width="4" fill="none"></path></g><g transform="translate(554.1942423864293 138.46647305072065) rotate(0 14 22.5)"><text x="14" y="32" font-family="Virgil, Segoe UI Emoji" font-size="36px" fill="#000000" text-anchor="middle" style="white-space: pre;" direction="ltr">2</text></g><g stroke-linecap="round"><g transform="translate(13.4424072985139 213.60438772770294) rotate(0 93.18291896649384 0)"><path d="M0 0 C31.06 0, 155.3 0, 186.37 0 M0 0 C31.06 0, 155.3 0, 186.37 0" stroke="#000000" stroke-width="4" fill="none"></path></g></g><g stroke-linecap="round"><g transform="translate(215.8493868881351 214.0123098512829) rotate(0 93.18291896649384 0)"><path d="M0 0 C31.06 0, 155.3 0, 186.37 0 M0 0 C31.06 0, 155.3 0, 186.37 0" stroke="#000000" stroke-width="4" fill="none"></path></g></g><g stroke-linecap="round" transform="translate(13.573836823591819 121.30450265194713) rotate(0 39.66197039877352 39.66197039877352)"><path d="M0 0 C15.98 0, 31.96 0, 79.32 0 M0 0 C31.66 0, 63.33 0, 79.32 0 M79.32 0 C79.32 18.86, 79.32 37.73, 79.32 79.32 M79.32 0 C79.32 18.06, 79.32 36.13, 79.32 79.32 M79.32 79.32 C62.91 79.32, 46.49 79.32, 0 79.32 M79.32 79.32 C49.1 79.32, 18.87 79.32, 0 79.32 M0 79.32 C0 48.14, 0 16.96, 0 0 M0 79.32 C0 54.11, 0 28.89, 0 0" stroke="#000000" stroke-width="4" fill="none"></path></g><g transform="translate(41.23580722236534 138.46647305072065) rotate(0 12 22.5)"><text x="12" y="32" font-family="Virgil, Segoe UI Emoji" font-size="36px" fill="#000000" text-anchor="middle" style="white-space: pre;" direction="ltr">5</text></g><g stroke-linecap="round"><g transform="translate(423.5412938984696 215.15977895078754) rotate(0 93.18291896649384 0)"><path d="M0 0 C31.06 0, 155.3 0, 186.37 0 M0 0 C31.06 0, 155.3 0, 186.37 0" stroke="#000000" stroke-width="4" fill="none"></path></g></g><g stroke-linecap="round" transform="translate(114.55111757999737 226.87165980637133) rotate(0 39.66197039877352 39.66197039877352)"><path d="M0 0 C30.85 0, 61.7 0, 79.32 0 M0 0 C25.51 0, 51.03 0, 79.32 0 M79.32 0 C79.32 28.1, 79.32 56.21, 79.32 79.32 M79.32 0 C79.32 17.68, 79.32 35.35, 79.32 79.32 M79.32 79.32 C55.13 79.32, 30.93 79.32, 0 79.32 M79.32 79.32 C51.64 79.32, 23.96 79.32, 0 79.32 M0 79.32 C0 58.41, 0 37.49, 0 0 M0 79.32 C0 48.13, 0 16.93, 0 0" stroke="#000000" stroke-width="4" fill="none"></path></g><g transform="translate(141.7130879787709 244.03363020514485) rotate(0 12.5 22.5)"><text x="12.5" y="32" font-family="Virgil, Segoe UI Emoji" font-size="36px" fill="#000000" text-anchor="middle" style="white-space: pre;" direction="ltr">4</text></g><g stroke-linecap="round" transform="translate(219.48074255629274 226.87165980637133) rotate(0 39.66197039877352 39.66197039877352)"><path d="M0 0 C25.94 0, 51.87 0, 79.32 0 M0 0 C24.19 0, 48.39 0, 79.32 0 M79.32 0 C79.32 22.75, 79.32 45.5, 79.32 79.32 M79.32 0 C79.32 31.64, 79.32 63.28, 79.32 79.32 M79.32 79.32 C51.04 79.32, 22.76 79.32, 0 79.32 M79.32 79.32 C53.94 79.32, 28.55 79.32, 0 79.32 M0 79.32 C0 61.96, 0 44.6, 0 0 M0 79.32 C0 51.69, 0 24.05, 0 0" stroke="#000000" stroke-width="4" fill="none"></path></g><g transform="translate(247.14271295506626 244.03363020514485) rotate(0 12 22.5)"><text x="12" y="32" font-family="Virgil, Segoe UI Emoji" font-size="36px" fill="#000000" text-anchor="middle" style="white-space: pre;" direction="ltr">5</text></g><g stroke-linecap="round" transform="translate(322.11542933357885 226.87165980637133) rotate(0 39.66197039877352 39.66197039877352)"><path d="M0 0 C27.37 0, 54.75 0, 79.32 0 M0 0 C16.99 0, 33.98 0, 79.32 0 M79.32 0 C79.32 23.31, 79.32 46.62, 79.32 79.32 M79.32 0 C79.32 24.93, 79.32 49.86, 79.32 79.32 M79.32 79.32 C47.98 79.32, 16.63 79.32, 0 79.32 M79.32 79.32 C54.97 79.32, 30.61 79.32, 0 79.32 M0 79.32 C0 53.16, 0 27, 0 0 M0 79.32 C0 53.83, 0 28.34, 0 0" stroke="#000000" stroke-width="4" fill="none"></path></g><g transform="translate(349.27739973235236 244.03363020514485) rotate(0 12.5 22.5)"><text x="12.5" y="32" font-family="Virgil, Segoe UI Emoji" font-size="36px" fill="#000000" text-anchor="middle" style="white-space: pre;" direction="ltr">6</text></g><g stroke-linecap="round" transform="translate(425.8975852103696 226.87165980637133) rotate(0 39.66197039877352 39.66197039877352)"><path d="M0 0 C20.06 0, 40.13 0, 79.32 0 M0 0 C21.33 0, 42.65 0, 79.32 0 M79.32 0 C79.32 18.45, 79.32 36.9, 79.32 79.32 M79.32 0 C79.32 18.14, 79.32 36.28, 79.32 79.32 M79.32 79.32 C51.48 79.32, 23.64 79.32, 0 79.32 M79.32 79.32 C48.83 79.32, 18.33 79.32, 0 79.32 M0 79.32 C0 61.55, 0 43.77, 0 0 M0 79.32 C0 49.47, 0 19.61, 0 0" stroke="#000000" stroke-width="4" fill="none"></path></g><g transform="translate(459.5595556091431 244.03363020514485) rotate(0 6 22.5)"><text x="6" y="32" font-family="Virgil, Segoe UI Emoji" font-size="36px" fill="#000000" text-anchor="middle" style="white-space: pre;" direction="ltr">1</text></g><g stroke-linecap="round" transform="translate(529.6797410871602 226.87165980637133) rotate(0 39.66197039877352 39.66197039877352)"><path d="M0 0 C29.43 0, 58.85 0, 79.32 0 M0 0 C24.02 0, 48.03 0, 79.32 0 M79.32 0 C79.32 17.55, 79.32 35.09, 79.32 79.32 M79.32 0 C79.32 21.07, 79.32 42.15, 79.32 79.32 M79.32 79.32 C50.4 79.32, 21.47 79.32, 0 79.32 M79.32 79.32 C52.31 79.32, 25.29 79.32, 0 79.32 M0 79.32 C0 56.3, 0 33.27, 0 0 M0 79.32 C0 52.2, 0 25.08, 0 0" stroke="#000000" stroke-width="4" fill="none"></path></g><g transform="translate(555.3417114859337 244.03363020514485) rotate(0 14 22.5)"><text x="14" y="32" font-family="Virgil, Segoe UI Emoji" font-size="36px" fill="#000000" text-anchor="middle" style="white-space: pre;" direction="ltr">2</text></g><g stroke-linecap="round"><g transform="translate(14.589876398018419 319.17154488212714) rotate(0 195.99349158157673 1.0860271755114468)"><path d="M0 0 C65.33 0.36, 326.66 1.81, 391.99 2.17 M0 0 C65.33 0.36, 326.66 1.81, 391.99 2.17" stroke="#000000" stroke-width="4" fill="none"></path></g></g><g stroke-linecap="round" transform="translate(14.721305923096338 226.87165980637133) rotate(0 39.66197039877352 39.66197039877352)"><path d="M0 0 C28.1 0, 56.21 0, 79.32 0 M0 0 C17.68 0, 35.35 0, 79.32 0 M79.32 0 C79.32 24.2, 79.32 48.4, 79.32 79.32 M79.32 0 C79.32 27.68, 79.32 55.37, 79.32 79.32 M79.32 79.32 C58.41 79.32, 37.49 79.32, 0 79.32 M79.32 79.32 C48.13 79.32, 16.93 79.32, 0 79.32 M0 79.32 C0 62.58, 0 45.83, 0 0 M0 79.32 C0 61.61, 0 43.9, 0 0" stroke="#000000" stroke-width="4" fill="none"></path></g><g transform="translate(40.88327632186986 244.03363020514485) rotate(0 13.5 22.5)"><text x="13.5" y="32" font-family="Virgil, Segoe UI Emoji" font-size="36px" fill="#000000" text-anchor="middle" style="white-space: pre;" direction="ltr">3</text></g><g stroke-linecap="round"><g transform="translate(424.6887629979741 320.72693610521173) rotate(0 93.18291896649379 0)"><path d="M0 0 C31.06 0, 155.3 0, 186.37 0 M0 0 C31.06 0, 155.3 0, 186.37 0" stroke="#000000" stroke-width="4" fill="none"></path></g></g><g stroke-linecap="round" transform="translate(116.81440280842833 337.7726359994822) rotate(0 39.66197039877352 39.66197039877352)"><path d="M0 0 C24.19 0, 48.38 0, 79.32 0 M0 0 C23.31 0, 46.63 0, 79.32 0 M79.32 0 C79.32 24.65, 79.32 49.29, 79.32 79.32 M79.32 0 C79.32 22.98, 79.32 45.97, 79.32 79.32 M79.32 79.32 C51.6 79.32, 23.87 79.32, 0 79.32 M79.32 79.32 C54.98 79.32, 30.64 79.32, 0 79.32 M0 79.32 C0 60.07, 0 40.82, 0 0 M0 79.32 C0 58.03, 0 36.73, 0 0" stroke="#000000" stroke-width="4" fill="none"></path></g><g transform="translate(142.47637320720185 354.9346063982557) rotate(0 14 22.5)"><text x="14" y="32" font-family="Virgil, Segoe UI Emoji" font-size="36px" fill="#000000" text-anchor="middle" style="white-space: pre;" direction="ltr">2</text></g><g stroke-linecap="round" transform="translate(221.7440277847237 337.7726359994822) rotate(0 39.66197039877352 39.66197039877352)"><path d="M0 0 C24.41 0, 48.82 0, 79.32 0 M0 0 C21.32 0, 42.63 0, 79.32 0 M79.32 0 C79.32 28.96, 79.32 57.92, 79.32 79.32 M79.32 0 C79.32 25.51, 79.32 51.01, 79.32 79.32 M79.32 79.32 C61.6 79.32, 43.87 79.32, 0 79.32 M79.32 79.32 C55.12 79.32, 30.92 79.32, 0 79.32 M0 79.32 C0 52.24, 0 25.15, 0 0 M0 79.32 C0 51.88, 0 24.44, 0 0" stroke="#000000" stroke-width="4" fill="none"></path></g><g transform="translate(247.90599818349722 354.9346063982557) rotate(0 13.5 22.5)"><text x="13.5" y="32" font-family="Virgil, Segoe UI Emoji" font-size="36px" fill="#000000" text-anchor="middle" style="white-space: pre;" direction="ltr">3</text></g><g stroke-linecap="round" transform="translate(324.3787145620098 337.7726359994822) rotate(0 39.66197039877352 39.66197039877352)"><path d="M0 0 C23.14 0, 46.28 0, 79.32 0 M0 0 C24.57 0, 49.14 0, 79.32 0 M79.32 0 C79.32 24.96, 79.32 49.91, 79.32 79.32 M79.32 0 C79.32 22.98, 79.32 45.96, 79.32 79.32 M79.32 79.32 C50.04 79.32, 20.76 79.32, 0 79.32 M79.32 79.32 C50.23 79.32, 21.14 79.32, 0 79.32 M0 79.32 C0 59.52, 0 39.71, 0 0 M0 79.32 C0 55.74, 0 32.16, 0 0" stroke="#000000" stroke-width="4" fill="none"></path></g><g transform="translate(351.5406849607833 354.9346063982557) rotate(0 12.5 22.5)"><text x="12.5" y="32" font-family="Virgil, Segoe UI Emoji" font-size="36px" fill="#000000" text-anchor="middle" style="white-space: pre;" direction="ltr">4</text></g><g stroke-linecap="round" transform="translate(428.16087043880054 337.7726359994822) rotate(0 39.66197039877352 39.66197039877352)"><path d="M0 0 C28.27 0, 56.54 0, 79.32 0 M0 0 C24.39 0, 48.77 0, 79.32 0 M79.32 0 C79.32 23.28, 79.32 46.55, 79.32 79.32 M79.32 0 C79.32 31.14, 79.32 62.27, 79.32 79.32 M79.32 79.32 C52.4 79.32, 25.47 79.32, 0 79.32 M79.32 79.32 C62.28 79.32, 45.24 79.32, 0 79.32 M0 79.32 C0 54.1, 0 28.88, 0 0 M0 79.32 C0 59.61, 0 39.9, 0 0" stroke="#000000" stroke-width="4" fill="none"></path></g><g transform="translate(455.82284083757406 354.9346063982557) rotate(0 12 22.5)"><text x="12" y="32" font-family="Virgil, Segoe UI Emoji" font-size="36px" fill="#000000" text-anchor="middle" style="white-space: pre;" direction="ltr">5</text></g><g stroke-linecap="round" transform="translate(531.9430263155912 337.7726359994822) rotate(0 39.66197039877352 39.66197039877352)"><path d="M0 0 C27.3 0, 54.59 0, 79.32 0 M0 0 C21.39 0, 42.77 0, 79.32 0 M79.32 0 C79.32 17.43, 79.32 34.85, 79.32 79.32 M79.32 0 C79.32 31.69, 79.32 63.37, 79.32 79.32 M79.32 79.32 C62.97 79.32, 46.63 79.32, 0 79.32 M79.32 79.32 C48.49 79.32, 17.66 79.32, 0 79.32 M0 79.32 C0 56.96, 0 34.6, 0 0 M0 79.32 C0 55.52, 0 31.71, 0 0" stroke="#000000" stroke-width="4" fill="none"></path></g><g transform="translate(559.1049967143647 354.9346063982557) rotate(0 12.5 22.5)"><text x="12.5" y="32" font-family="Virgil, Segoe UI Emoji" font-size="36px" fill="#000000" text-anchor="middle" style="white-space: pre;" direction="ltr">6</text></g><g stroke-linecap="round" transform="translate(18.116233765742663 337.7726359994822) rotate(0 39.66197039877352 39.66197039877352)"><path d="M0 0 C21.15 0, 42.31 0, 79.32 0 M0 0 C18.76 0, 37.52 0, 79.32 0 M79.32 0 C79.32 30.59, 79.32 61.18, 79.32 79.32 M79.32 0 C79.32 18.79, 79.32 37.58, 79.32 79.32 M79.32 79.32 C58.26 79.32, 37.2 79.32, 0 79.32 M79.32 79.32 C58.28 79.32, 37.24 79.32, 0 79.32 M0 79.32 C0 60.25, 0 41.18, 0 0 M0 79.32 C0 58.25, 0 37.18, 0 0" stroke="#000000" stroke-width="4" fill="none"></path></g><g transform="translate(51.77820416451618 354.9346063982557) rotate(0 6 22.5)"><text x="6" y="32" font-family="Virgil, Segoe UI Emoji" font-size="36px" fill="#000000" text-anchor="middle" style="white-space: pre;" direction="ltr">1</text></g></svg>